<svg width="24" height="30" viewBox="0 0 24 30" fill="none" xmlns="http://www.w3.org/2000/svg">
<path id="Vector" d="M0.96875 3.75006C0.96875 2.75548 1.37244 1.80164 2.091 1.09837C2.80956 0.395095 3.78415 0 4.80035 0L20.1267 0C21.1429 0 22.1175 0.395095 22.8361 1.09837C23.5547 1.80164 23.9583 2.75548 23.9583 3.75006V29.063C23.9583 29.2326 23.9112 29.3989 23.8221 29.5444C23.733 29.6899 23.6053 29.809 23.4526 29.889C23.2998 29.969 23.1277 30.007 22.9547 29.9989C22.7816 29.9908 22.614 29.9369 22.4698 29.843L12.4635 24.5648L2.45733 29.843C2.31308 29.9369 2.14549 29.9908 1.97242 29.9989C1.79935 30.007 1.62727 29.969 1.47452 29.889C1.32177 29.809 1.19406 29.6899 1.10499 29.5444C1.01592 29.3989 0.96884 29.2326 0.96875 29.063V3.75006ZM4.80035 1.87503C4.29225 1.87503 3.80496 2.07258 3.44567 2.42421C3.08639 2.77585 2.88455 3.25277 2.88455 3.75006V27.3117L11.9329 22.6579C12.0901 22.5555 12.2747 22.5008 12.4635 22.5008C12.6524 22.5008 12.837 22.5555 12.9942 22.6579L22.0425 27.3117V3.75006C22.0425 3.25277 21.8407 2.77585 21.4814 2.42421C21.1221 2.07258 20.6348 1.87503 20.1267 1.87503H4.80035Z" fill="#229EEB"/>
</svg>
