<svg xmlns="http://www.w3.org/2000/svg" width="16" height="21" viewBox="0 0 16 21" fill="none">
    <path d="M0.96875 3.42042C0.96875 2.77298 1.23214 2.15206 1.70098 1.69425C2.16982 1.23644 2.80571 0.979248 3.46875 0.979248L13.4688 0.979248C14.1318 0.979248 14.7677 1.23644 15.2365 1.69425C15.7054 2.15206 15.9688 2.77298 15.9688 3.42042V19.8984C15.9687 20.0087 15.938 20.1171 15.8799 20.2117C15.8217 20.3064 15.7384 20.384 15.6388 20.4361C15.5391 20.4882 15.4268 20.5129 15.3139 20.5076C15.201 20.5024 15.0916 20.4673 14.9975 20.4061L8.46875 16.9702L1.94 20.4061C1.84588 20.4673 1.73654 20.5024 1.62361 20.5076C1.51069 20.5129 1.39842 20.4882 1.29875 20.4361C1.19908 20.384 1.11576 20.3064 1.05764 20.2117C0.99953 20.1171 0.968808 20.0087 0.96875 19.8984V3.42042Z" fill="black" fill-opacity="0.7"/>
</svg>