<svg width="137" height="236" viewBox="0 0 137 236" fill="none" xmlns="http://www.w3.org/2000/svg">
<g id="_&#235;&#160;&#136;&#236;&#157;&#180;&#236;&#150;&#180;_1-2">
<path id="Vector" d="M51.9293 64.7385C68.9663 64.7385 82.7776 50.9273 82.7776 33.8902C82.7776 16.8532 68.9663 3.04199 51.9293 3.04199C34.8923 3.04199 21.0811 16.8532 21.0811 33.8902C21.0811 50.9273 34.8923 64.7385 51.9293 64.7385Z" fill="#ED516F"/>
<path id="Vector_2" d="M101.314 0.148438C64.7101 0.148438 34.7578 30.0968 34.7578 66.7051V169.424C34.7578 206.028 64.7062 235.981 101.314 235.981C114.309 235.981 126.422 232.152 136.697 225.644V10.4855C126.422 3.97683 114.309 0.148438 101.314 0.148438Z" fill="#FF6C8F"/>
<path id="Vector_3" d="M70.242 61.3523H70.2381C60.2318 61.3523 52.1201 69.464 52.1201 79.4703V99.4966C52.1201 109.503 60.2318 117.615 70.2381 117.615H70.242C80.2482 117.615 88.3599 109.503 88.3599 99.4966V79.4703C88.3599 69.464 80.2482 61.3523 70.242 61.3523Z" fill="#EEEEEF"/>
<g id="Group" opacity="0.3">
<path id="Vector_4" d="M57.9293 107.902C68.1027 107.902 76.3498 99.6548 76.3498 89.4814C76.3498 79.3081 68.1027 71.0609 57.9293 71.0609C47.7559 71.0609 39.5088 79.3081 39.5088 89.4814C39.5088 99.6548 47.7559 107.902 57.9293 107.902Z" fill="#EEEEEF"/>
</g>
<path id="Vector_5" d="M106.481 61.3523H106.477C96.4711 61.3523 88.3594 69.464 88.3594 79.4703V99.4966C88.3594 109.503 96.4711 117.615 106.477 117.615H106.481C116.487 117.615 124.599 109.503 124.599 99.4966V79.4703C124.599 69.464 116.487 61.3523 106.481 61.3523Z" fill="#EEEEEF"/>
<path id="Vector_6" d="M106.946 74.8041H106.942C101.644 74.8041 97.3496 79.0987 97.3496 84.3964V94.5667C97.3496 99.8644 101.644 104.159 106.942 104.159H106.946C112.244 104.159 116.538 99.8644 116.538 94.5667V84.3964C116.538 79.0987 112.244 74.8041 106.946 74.8041Z" fill="#ED516F"/>
<path id="Vector_7" d="M70.7066 74.8041H70.7027C65.405 74.8041 61.1104 79.0987 61.1104 84.3964V94.5667C61.1104 99.8644 65.405 104.159 70.7027 104.159H70.7066C76.0042 104.159 80.2989 99.8644 80.2989 94.5667V84.3964C80.2989 79.0987 76.0042 74.8041 70.7066 74.8041Z" fill="#ED516F"/>
<path id="Vector_8" d="M89.9767 178.865C84.686 170.657 75.4583 168.652 66.8822 172.55C66.8163 172.55 66.7813 172.55 66.6999 172.554C70.3925 170.774 67.5028 172.085 66.3857 172.484C66.2771 172.519 66.2655 172.539 66.1801 172.57C63.977 172.705 61.7815 172.787 59.5745 172.798C57.2976 172.814 55.0208 172.783 52.7478 172.655C51.6229 172.589 50.5058 172.469 49.381 172.387C49.3616 172.383 49.3616 172.383 49.3383 172.376C46.9761 171.844 44.6915 171.282 42.3758 170.584C42.3642 170.584 42.3642 170.584 42.3525 170.58C41.5457 170.169 40.7428 169.769 39.9593 169.304C39.5714 169.075 39.0012 168.602 38.4427 168.198C39.1835 168.803 39.6645 169.474 38.1208 168.035L38.0897 168C37.8454 167.853 37.5661 167.62 37.3877 167.612C37.5544 167.62 37.7755 167.764 37.985 167.892C37.473 167.403 36.9998 166.883 36.5227 166.367C36.4529 166.247 36.4257 166.189 36.3326 166.034C36.3016 165.979 36.0727 165.588 35.8284 165.153C35.7702 164.971 35.7236 164.82 35.6228 164.525C35.5258 164.156 35.425 163.784 35.3241 163.412C35.2892 163.268 35.2698 163.125 35.2349 162.981C35.328 162.105 35.1263 160.623 35.1457 159.94V104.322C32.8223 104.558 30.4601 105.152 28.1173 106.203C21.4069 109.213 16.6166 115.671 13.2342 121.986C10.0536 127.928 7.15613 134.018 4.70472 140.302C-0.624783 153.959 -1.13291 170.525 6.60146 183.411C13.6182 195.102 26.333 202.917 39.5792 205.458C53.8765 208.197 70.4391 208.833 83.7977 202.409C91.9355 198.5 94.7282 186.235 89.9728 178.857L89.9767 178.865Z" fill="#ED516F"/>
<path id="Vector_9" d="M38.4392 168.202C38.2801 168.074 38.1521 168.004 37.9854 167.9C38.0203 167.935 38.0513 167.973 38.0901 168.004C38.2103 168.082 38.3112 168.105 38.4431 168.202H38.4392Z" fill="#ED516F"/>
<path id="Vector_10" d="M112.83 35.5698C112.83 50.5149 122.965 62.9736 136.7 66.7865V4.35303C122.969 8.16203 112.83 20.6208 112.83 35.5698Z" fill="#FF6C8F"/>
<g id="Group_2" opacity="0.3">
<path id="Vector_11" d="M116.538 89.4814C116.538 100.614 125.564 109.64 136.696 109.64V69.3154C125.56 69.3154 116.538 78.3414 116.538 89.4775V89.4814Z" fill="#EEEEEF"/>
</g>
</g>
</svg>
