<svg width="29" height="27" viewBox="0 0 29 27" fill="none" xmlns="http://www.w3.org/2000/svg">
<g id="Group 50">
<path id="Vector" d="M25.4721 1.75103C25.9363 1.75103 26.3815 1.93552 26.7097 2.2639C27.038 2.59228 27.2224 3.03766 27.2224 3.50207V17.5103C27.2224 17.9747 27.038 18.4201 26.7097 18.7485C26.3815 19.0769 25.9363 19.2614 25.4721 19.2614H8.69431C7.766 19.2616 6.87579 19.6307 6.21947 20.2875L2.71899 23.7895V3.50207C2.71899 3.03766 2.90339 2.59228 3.23162 2.2639C3.55986 1.93552 4.00504 1.75103 4.46923 1.75103H25.4721ZM4.46923 0C3.54085 0 2.65048 0.368967 1.99402 1.02573C1.33755 1.6825 0.96875 2.57326 0.96875 3.50207L0.96875 25.903C0.968787 26.0763 1.02019 26.2456 1.11647 26.3896C1.21274 26.5336 1.34954 26.6458 1.50957 26.712C1.6696 26.7781 1.84566 26.7953 2.01546 26.7614C2.18526 26.7274 2.34117 26.6438 2.46346 26.5211L7.45689 21.5254C7.78505 21.197 8.23016 21.0125 8.69431 21.0124H25.4721C26.4005 21.0124 27.2909 20.6434 27.9473 19.9867C28.6038 19.3299 28.9726 18.4391 28.9726 17.5103V3.50207C28.9726 2.57326 28.6038 1.6825 27.9473 1.02573C27.2909 0.368967 26.4005 0 25.4721 0L4.46923 0Z" fill="#229EEB"/>
<path id="Vector_2" d="M9.72314 10.5069C9.72314 10.9713 9.53874 11.4167 9.2105 11.7451C8.88227 12.0734 8.43709 12.2579 7.9729 12.2579C7.5087 12.2579 7.06352 12.0734 6.73529 11.7451C6.40706 11.4167 6.22266 10.9713 6.22266 10.5069C6.22266 10.0425 6.40706 9.59711 6.73529 9.26873C7.06352 8.94034 7.5087 8.75586 7.9729 8.75586C8.43709 8.75586 8.88227 8.94034 9.2105 9.26873C9.53874 9.59711 9.72314 10.0425 9.72314 10.5069ZM16.7241 10.5069C16.7241 10.9713 16.5397 11.4167 16.2115 11.7451C15.8832 12.0734 15.4381 12.2579 14.9739 12.2579C14.5097 12.2579 14.0645 12.0734 13.7363 11.7451C13.408 11.4167 13.2236 10.9713 13.2236 10.5069C13.2236 10.0425 13.408 9.59711 13.7363 9.26873C14.0645 8.94034 14.5097 8.75586 14.9739 8.75586C15.4381 8.75586 15.8832 8.94034 16.2115 9.26873C16.5397 9.59711 16.7241 10.0425 16.7241 10.5069ZM23.7251 10.5069C23.7251 10.9713 23.5407 11.4167 23.2124 11.7451C22.8842 12.0734 22.439 12.2579 21.9748 12.2579C21.5106 12.2579 21.0654 12.0734 20.7372 11.7451C20.409 11.4167 20.2246 10.9713 20.2246 10.5069C20.2246 10.0425 20.409 9.59711 20.7372 9.26873C21.0654 8.94034 21.5106 8.75586 21.9748 8.75586C22.439 8.75586 22.8842 8.94034 23.2124 9.26873C23.5407 9.59711 23.7251 10.0425 23.7251 10.5069Z" fill="#229EEB"/>
</g>
</svg>
