<svg width="21" height="13" viewBox="0 0 21 13" fill="none" xmlns="http://www.w3.org/2000/svg">
<path id="Vector" d="M0.85308 0.362998C0.754076 0.476671 0.675533 0.61167 0.621944 0.760275C0.568355 0.90888 0.540771 1.06818 0.540771 1.22905C0.540771 1.38992 0.568355 1.54922 0.621944 1.69782C0.675533 1.84643 0.754076 1.98143 0.85308 2.0951L9.73542 12.308C9.83428 12.4218 9.95169 12.5121 10.0809 12.5737C10.2102 12.6353 10.3487 12.6671 10.4886 12.6671C10.6286 12.6671 10.7671 12.6353 10.8963 12.5737C11.0256 12.5121 11.143 12.4218 11.2419 12.308L20.1242 2.0951C20.2231 1.98137 20.3016 1.84635 20.3551 1.69775C20.4086 1.54915 20.4362 1.38989 20.4362 1.22905C20.4362 1.06821 20.4086 0.908942 20.3551 0.760345C20.3016 0.611748 20.2231 0.476729 20.1242 0.362998C20.0253 0.249266 19.9079 0.159049 19.7786 0.0974982C19.6494 0.0359472 19.5109 0.00426623 19.371 0.00426623C19.2311 0.00426623 19.0926 0.0359472 18.9633 0.0974982C18.8341 0.159049 18.7167 0.249266 18.6178 0.362998L10.4886 9.70818L2.35953 0.362998C2.26066 0.249162 2.14325 0.158853 2.014 0.0972364C1.88476 0.0356201 1.74622 0.00390625 1.6063 0.00390625C1.46639 0.00390625 1.32785 0.0356201 1.1986 0.0972364C1.06936 0.158853 0.951944 0.249162 0.85308 0.362998Z" fill="#229EEB"/>
</svg>
