<svg width="195" height="132" viewBox="0 0 195 132" fill="none" xmlns="http://www.w3.org/2000/svg">
<g id="&#235;&#161;&#156;&#234;&#179;&#160;2 1">
<g id="Group">
<path id="Vector" d="M165.57 25.1779C165.57 24.8618 165.676 24.5458 165.888 24.019C165.993 23.5977 166.205 23.1763 166.523 22.6495C166.84 22.2281 167.158 21.7014 167.581 21.28C168.005 20.8586 168.534 20.4372 169.064 20.1212C170.651 19.2784 172.451 18.6463 174.568 18.3303C175.204 18.2249 175.733 18.1196 176.156 17.9089C176.58 17.6982 176.897 17.2768 177.109 16.6447C177.321 16.118 177.215 15.802 177.003 15.5913C176.792 15.3806 176.474 15.1699 176.051 15.0645C175.098 14.7485 174.463 14.9592 174.145 15.6966C173.933 16.0127 173.616 16.434 173.086 16.6447C172.663 16.9608 172.028 17.1715 171.393 17.2768C170.757 17.3822 170.016 17.4875 169.169 17.4875C168.322 17.4875 167.476 17.2768 166.629 16.9608C165.464 16.5394 164.617 16.118 163.876 15.5913C163.135 15.0645 162.712 14.4325 162.288 13.8004C161.971 13.1683 161.759 12.5362 161.759 11.9041C161.759 11.272 161.865 10.5346 162.077 9.90252C162.5 8.53301 163.347 7.37419 164.3 6.53141C165.358 5.58329 166.629 4.95121 168.111 4.63517C169.593 4.21378 171.287 4.10843 173.192 4.21378C175.098 4.31912 177.109 4.74051 179.332 5.58329C181.661 6.42607 183.673 7.26885 185.261 8.32232C186.849 9.37579 188.013 10.5346 188.86 11.6934C189.707 12.8522 190.236 14.1164 190.342 15.4859C190.448 16.7501 190.342 18.1196 189.813 19.4891C188.648 22.9656 186.531 25.2832 183.567 26.2313C183.249 26.3367 182.826 26.442 182.402 26.5474C181.979 26.6527 181.555 26.7581 181.132 26.9688C180.708 27.0741 180.285 27.1795 179.967 27.2848C179.65 27.3902 179.332 27.4955 179.121 27.6008C179.015 27.7062 178.803 27.7062 178.697 27.9169C178.485 28.0222 178.379 28.2329 178.168 28.3383C177.956 28.4436 177.744 28.6543 177.638 28.7597C177.427 28.865 177.321 29.0757 177.321 29.1811C176.474 30.1292 175.521 30.6559 174.357 30.972C173.192 31.288 171.71 31.0773 170.122 30.5506C168.428 30.0238 167.264 29.1811 166.417 28.2329C165.782 27.2848 165.464 26.2313 165.57 25.1779ZM161.23 36.2393C161.865 34.4484 162.923 33.1842 164.406 32.5522C165.888 31.9201 167.687 31.9201 169.593 32.5522C171.604 33.1842 172.98 34.3431 173.722 35.7126C174.568 37.1874 174.568 38.7676 174.039 40.5585C173.827 41.296 173.404 41.9281 172.875 42.4548C172.345 42.9815 171.71 43.2976 170.969 43.6136C170.228 43.8243 169.381 44.035 168.534 44.035C167.687 44.035 166.735 43.8243 165.782 43.5083C164.829 43.1922 164.088 42.7708 163.347 42.2441C162.712 41.7174 162.077 41.1906 161.759 40.4532C161.336 39.8211 161.124 39.0837 161.018 38.4516C160.912 37.7142 161.018 36.9767 161.23 36.2393Z" fill="white" stroke="black" stroke-width="3.7616"/>
<path id="Vector_2" d="M15.9853 80.3797C14.0798 78.2728 12.1743 76.1659 10.3746 74.0589C8.57492 71.952 6.77524 69.529 5.08143 67.0007C4.23453 65.7365 4.12866 64.367 4.55212 62.9975C4.97557 61.5226 6.0342 60.2584 7.62215 59.0996C9.2101 57.9408 10.798 57.4141 12.2801 57.4141C13.7622 57.4141 15.0326 58.0461 15.9853 59.205C17.8909 61.628 19.4788 64.0509 20.9609 66.4739C22.443 68.8969 23.8192 71.3199 25.1954 73.8482C25.8306 75.007 26.0423 76.2712 25.7248 77.43C25.513 78.5888 24.5603 79.7477 23.184 80.6958C21.702 81.7493 20.4316 82.1706 19.1612 82.0653C17.9967 81.96 16.9381 81.3279 15.9853 80.3797ZM22.5489 91.0198C21.4902 89.545 21.0668 87.9647 21.4902 86.3845C21.8078 84.8043 22.8664 83.4348 24.4544 82.276C26.0423 81.1172 27.7362 80.5904 29.3241 80.8011C30.9121 81.0118 32.2883 81.8546 33.3469 83.3295C33.7704 83.9615 34.0879 84.5936 34.1938 85.3311C34.2997 86.0685 34.1938 86.7006 34.0879 87.438C33.9821 88.1754 33.5586 88.8075 33.0293 89.5449C32.5 90.177 31.8648 90.8091 31.1238 91.4412C30.3827 91.9679 29.5358 92.3893 28.7948 92.6C27.9479 92.8107 27.2068 92.9161 26.4658 92.9161C25.7248 92.9161 25.0896 92.7054 24.4544 92.3893C23.5016 92.0733 22.9723 91.6519 22.5489 91.0198Z" fill="white" stroke="black" stroke-width="4.0641"/>
<path id="Vector_3" d="M127.565 110.615C127.565 110.615 123.542 119.674 113.909 118.832" stroke="#231F20" stroke-width="1.5" stroke-linecap="round"/>
<path id="Vector_4" d="M98.7704 10.8506C99.1938 10.8506 104.805 10.3238 108.933 14.1163" stroke="#231F20" stroke-width="1.5" stroke-linecap="round"/>
<path id="Vector_5" d="M73.9984 68.1595C75.6922 67.8435 80.2443 67.8435 80.5619 72.2681" stroke="#231F20" stroke-width="1.5" stroke-linecap="round"/>
<path id="Vector_6" d="M155.513 18.4355C157.207 18.8569 161.124 21.0692 159.43 25.0724" stroke="#231F20" stroke-width="1.5" stroke-linecap="round"/>
<path id="Vector_7" d="M152.866 33.1843C152.866 33.1843 150.114 38.9784 141.327 42.3495" stroke="#231F20" stroke-width="1.5" stroke-linecap="round"/>
<path id="Vector_8" d="M59.8127 12.2202C61.5065 12.6416 62.5651 14.1165 63.0945 15.6967C63.6238 17.0662 63.7296 19.2785 63.8355 20.8587" stroke="#231F20" stroke-width="2.0009" stroke-linecap="round"/>
<g id="Group_2">
<path id="Vector_9" d="M73.3632 55.7285H67.329V61.7333H73.3632V55.7285Z" fill="#231F20"/>
</g>
<g id="Group_3">
<path id="Vector_10" d="M91.4658 68.4756H85.4316V74.4804H91.4658V68.4756Z" fill="#231F20"/>
</g>
<g id="Group_4">
<path id="Vector_11" d="M91.9951 63.7349H85.9609V69.7396H91.9951V63.7349Z" fill="#231F20"/>
</g>
<g id="Group_5">
<path id="Vector_12" d="M96.759 64.051H89.772V70.0558H96.759V64.051Z" fill="#231F20"/>
</g>
<g id="Group_6">
<path id="Vector_13" d="M59.8127 64.5776H52.8257V70.5824H59.8127V64.5776Z" fill="#231F20"/>
</g>
<g id="Group_7">
<path id="Vector_14" d="M55.1547 62.0493H49.9674V66.4739H55.1547V62.0493Z" fill="#231F20"/>
</g>
<g id="Group_8">
<path id="Vector_15" d="M38.5342 62.5762H33.3469V67.0007H38.5342V62.5762Z" fill="#231F20"/>
</g>
<g id="Group_9">
<path id="Vector_16" d="M114.65 60.3638H107.663V66.3686H114.65V60.3638Z" fill="#231F20"/>
</g>
<g id="Group_10">
<path id="Vector_17" d="M120.578 60.3638H113.591V66.3686H120.578V60.3638Z" fill="#231F20"/>
</g>
<g id="Group_11">
<path id="Vector_18" d="M119.943 55.4126H112.956V61.4174H119.943V55.4126Z" fill="#231F20"/>
</g>
<g id="Group_12">
<path id="Vector_19" d="M50.9202 48.2488H42.7687V64.5776H50.9202V48.2488Z" fill="#231F20"/>
</g>
<g id="Group_13">
<path id="Vector_20" d="M45.2036 49.197H37.0521V65.5258H45.2036V49.197Z" fill="#231F20"/>
</g>
<g id="Group_14">
<path id="Vector_21" d="M32.2883 64.1562H24.4544V79.6423H32.2883V64.1562Z" fill="#231F20"/>
</g>
<g id="Group_15">
<path id="Vector_22" d="M33.241 64.1562H26.1482V78.2728H33.241V64.1562Z" fill="#231F20"/>
</g>
<g id="Group_16">
<path id="Vector_23" d="M26.4658 65.2097H23.184V71.7412H26.4658V65.2097Z" fill="#231F20"/>
</g>
<g id="Group_17">
<path id="Vector_24" d="M120.896 41.4014H111.897V47.4062H120.896V41.4014Z" fill="#231F20"/>
</g>
<g id="Group_18">
<path id="Vector_25" d="M120.896 41.7173H111.897V47.7221H120.896V41.7173Z" fill="#231F20"/>
</g>
<g id="Group_19">
<path id="Vector_26" d="M120.261 37.2927H113.274V43.2975H120.261V37.2927Z" fill="#231F20"/>
</g>
<g id="Group_20">
<path id="Vector_27" d="M120.261 46.2473H113.274V56.782H120.261V46.2473Z" fill="#231F20"/>
</g>
<g id="Group_21">
<path id="Vector_28" d="M116.463 22.4927L111.931 21.4233L110.905 25.7285L115.437 26.7978L116.463 22.4927Z" fill="#231F20"/>
</g>
<g id="Group_22">
<path id="Vector_29" d="M28.4772 67.4222C26.7834 67.4222 25.1954 67.1061 23.9251 66.5794C22.5489 65.9473 21.3844 65.2099 20.5375 64.1564C19.5847 63.1029 18.8436 61.9441 18.3143 60.5746C17.785 59.3104 17.4674 57.9409 17.3616 56.4661C16.6205 49.8292 16.1971 42.9816 16.1971 36.0287C16.1971 29.0758 16.4088 22.2282 17.1498 15.5914C17.2557 14.1165 17.5733 12.747 18.1026 11.4828C18.6319 10.1133 19.2671 8.95449 20.2199 7.90102C21.1726 6.84755 22.3371 6.00477 23.6075 5.47803C24.9837 4.84595 26.4658 4.52991 28.2655 4.52991C29.9593 4.52991 31.5472 4.84595 32.8176 5.37269C34.1938 6.00477 35.2524 6.7422 36.2052 7.79567C37.158 8.7438 37.899 10.008 38.4283 11.2721C38.9577 12.5363 39.2752 13.9058 39.3811 15.2753C39.5928 16.8555 39.6987 18.4357 39.9104 20.0159C40.0163 20.8587 40.0163 21.7015 40.1222 22.5443C41.2866 22.3336 42.4511 22.2282 43.7215 22.2282C44.9919 22.2282 46.1564 22.2282 47.3209 22.4389C47.3209 21.5961 47.4267 20.7534 47.5326 19.9106C47.6384 18.3304 47.7443 16.7502 47.956 15.17C48.0619 13.6951 48.3795 12.3256 48.9088 11.0614C49.4381 9.79727 50.1792 8.5331 51.0261 7.58498C51.9788 6.5315 53.0375 5.68873 54.4137 5.16199C55.7899 4.52991 57.272 4.21387 58.9658 4.21387C60.6596 4.21387 62.2476 4.52991 63.5179 5.05664C64.8941 5.68873 66.0586 6.42616 67.0114 7.47963C67.9642 8.42775 68.7052 9.69192 69.2345 10.9561C69.7639 12.2203 70.0814 13.5898 70.2932 15.0646C71.0342 21.7015 71.3518 28.5491 71.3518 35.502C71.3518 42.4549 71.1401 49.3025 70.5049 55.9393C70.399 57.4142 70.0814 58.7837 69.5521 60.0479C69.0228 61.4174 68.2818 62.5762 67.4349 63.6297C66.4821 64.6831 65.3176 65.5259 63.9414 66.0527C62.5652 66.6847 61.0831 67.0008 59.3893 67.0008C57.6954 67.0008 56.1075 66.6847 54.8371 66.158C53.4609 65.5259 52.2964 64.7885 51.4495 63.735C50.6026 62.7869 49.8616 61.5227 49.3322 60.2586C48.8029 58.9944 48.4853 57.6249 48.2736 56.15C48.0619 54.5698 47.956 52.9896 47.7443 51.4094C47.6384 50.5666 47.6384 49.7238 47.5326 48.8811C46.3681 49.0918 45.0977 49.0918 43.9332 49.0918C42.7687 49.0918 41.4984 48.9864 40.3339 48.8811C40.3339 49.7238 40.228 50.5666 40.228 51.4094C40.1222 52.9896 40.0163 54.5698 39.8046 56.15C39.6987 57.5195 39.3811 58.9944 38.8518 60.2586C38.3225 61.6281 37.6873 62.7869 36.7345 63.8404C35.7818 64.8938 34.6173 65.7366 33.3469 66.2634C31.759 67.1061 30.2769 67.4222 28.4772 67.4222ZM28.2655 8.7438C26.9951 8.7438 26.0423 8.95449 25.1954 9.27053C24.3485 9.69192 23.7134 10.1133 23.0782 10.7454C22.5489 11.3775 22.0195 12.1149 21.702 12.9577C21.3844 13.9058 21.1726 14.9593 20.9609 16.0127C20.3257 22.4389 20.0081 29.1811 20.114 36.0287C20.114 42.8763 20.5375 49.5131 21.2785 56.0447C21.3844 57.2035 21.702 58.257 22.0195 59.2051C22.3371 60.0479 22.7606 60.7853 23.3958 61.4174C24.0309 62.0495 24.6661 62.5762 25.513 62.8922C26.3599 63.2083 27.3127 63.419 28.5831 63.419C29.7476 63.419 30.7003 63.2083 31.5472 62.8922C32.3941 62.4709 33.0293 62.0495 33.6645 61.4174C34.1938 60.7853 34.7231 60.0479 35.0407 59.0997C35.3583 58.1516 35.6759 57.0981 35.7818 55.9393C35.9935 54.3591 36.0993 52.7789 36.2052 51.3041C36.3111 49.7238 36.4169 48.1436 36.5228 46.5634L36.6287 44.2458L38.9577 44.7725C40.5456 45.0886 42.2394 45.2993 43.9332 45.2993C45.627 45.2993 47.3209 45.0886 48.9088 44.7725L51.2378 44.2458L51.3437 46.5634C51.4495 48.1436 51.5554 49.7238 51.6612 51.1987C51.7671 52.6736 51.9788 54.2538 52.0847 55.7286C52.1906 56.8875 52.5081 57.9409 52.8257 58.889C53.1433 59.7318 53.6726 60.5746 54.202 61.2067C54.7313 61.8388 55.4723 62.2602 56.2134 62.6815C57.0603 62.9976 58.013 63.2083 59.0717 63.2083C59.0717 63.2083 59.0717 63.2083 59.1775 63.2083C60.342 63.2083 61.2948 62.9976 62.1417 62.6815C62.9886 62.2602 63.7296 61.8388 64.259 61.2067C64.8941 60.5746 65.3176 59.8372 65.6352 58.889C65.9528 57.9409 66.2704 56.8875 66.3762 55.834C67.0114 49.4078 67.2231 42.6656 67.2231 35.818C67.2231 28.9705 66.7997 22.2282 66.1645 15.8021C66.0586 14.7486 65.741 13.6951 65.4235 12.747C65.1059 11.9042 64.5765 11.1668 64.0472 10.5347C63.5179 9.90261 62.7769 9.48123 61.93 9.05984C61.0831 8.7438 60.1303 8.5331 58.9658 8.5331C57.8013 8.5331 56.8485 8.7438 56.0016 9.05984C55.0489 9.48123 54.4137 10.008 53.8844 10.5347C53.3551 11.1668 52.8257 12.0096 52.5081 12.8523C52.1906 13.8005 51.873 14.8539 51.7671 15.9074C51.5554 17.4876 51.4495 18.9625 51.3437 20.4373C51.2378 21.9122 51.1319 23.4924 51.0261 25.0726L50.9202 27.3902L48.5912 26.8635C47.0033 26.5475 45.3095 26.3368 43.6156 26.3368C41.9218 26.3368 40.228 26.5475 38.6401 26.9689L36.3111 27.4956L36.2052 25.178C36.0993 23.5977 35.9935 22.0175 35.8876 20.4373C35.7818 18.9625 35.57 17.3823 35.4642 15.8021C35.3583 14.6432 35.0407 13.5898 34.7231 12.747C34.4055 11.9042 33.9821 11.1668 33.3469 10.5347C32.7117 9.90261 32.0765 9.37588 31.2296 9.05984C30.3827 8.95449 29.3241 8.7438 28.2655 8.7438Z" fill="#231F20"/>
</g>
<g id="Group_23">
<path id="Vector_30" d="M93.0537 66.5794C90.6189 66.5794 88.2899 66.3687 85.855 66.0527C83.3143 65.7366 80.8795 65.1045 78.7622 64.2618C76.5391 63.3136 74.6336 62.0495 73.1515 60.5746C71.5635 58.889 70.5049 56.7821 70.2932 54.2538C69.8697 51.4094 69.658 48.3543 69.5521 45.1939C69.4463 42.1389 69.3404 38.9784 69.3404 35.502C69.3404 32.1309 69.3404 28.8651 69.4463 25.81C69.5521 22.755 69.7638 19.6999 70.0814 16.8555C70.2932 14.3272 71.2459 12.1149 72.9397 10.4293C74.4218 8.84914 76.3274 7.58498 78.5505 6.63685C80.6678 5.68873 83.1026 5.05664 85.6433 4.7406C87.9723 4.42456 90.513 4.21387 93.0537 4.21387C95.7003 4.21387 98.3469 4.31921 100.888 4.63526C103.534 4.9513 106.075 5.58338 108.192 6.5315C110.521 7.58498 112.427 9.05984 113.803 10.9561C115.285 12.9577 116.026 15.486 116.026 18.6464C116.026 21.5962 115.285 23.4924 113.591 24.5459C113.168 24.7566 112.638 24.9673 112.109 25.0726C113.274 26.0207 114.121 27.1796 114.756 28.4437C115.603 30.2346 116.132 32.5523 116.132 35.3966C116.132 38.241 115.708 40.5586 114.862 42.3495C114.226 43.6137 113.379 44.7725 112.215 45.7207C112.744 45.826 113.274 46.0367 113.697 46.2474C115.391 47.1955 116.238 49.0918 116.238 51.9361C116.238 54.9912 115.497 57.6249 114.121 59.6265C112.744 61.5227 110.839 63.1029 108.616 64.1564C106.393 65.2099 103.958 65.842 101.311 66.158C98.7704 66.474 96.1238 66.6847 93.4772 66.6847C93.3713 66.5794 93.2655 66.5794 93.0537 66.5794ZM93.4772 8.00637C93.3713 8.00637 93.1596 8.00637 93.0537 8.00637C90.7248 8.00637 88.3958 8.21706 86.0668 8.5331C83.8437 8.84914 81.7264 9.37588 79.9267 10.2187C78.2329 10.9561 76.7508 11.9042 75.6922 13.1684C74.6336 14.2218 74.1042 15.5914 73.8925 17.3823C73.5749 20.1213 73.3632 23.071 73.2573 26.0207C73.1515 28.9705 73.1515 32.2362 73.1515 35.6073C73.1515 38.9784 73.2573 42.1389 73.3632 45.1939C73.4691 48.1436 73.6808 51.0934 74.1042 53.8324C74.316 55.5179 74.8453 56.8875 75.9039 57.9409C77.0684 59.0997 78.5505 60.0479 80.2443 60.7853C82.044 61.5227 84.1612 62.0495 86.3844 62.3655C88.7134 62.6815 91.0423 62.7869 93.3713 62.7869C95.8062 62.7869 98.3469 62.5762 100.782 62.3655C103.111 62.0495 105.122 61.5227 106.922 60.6799C108.616 59.8372 109.992 58.7837 110.945 57.4142C111.897 56.15 112.321 54.2538 112.321 52.0415C112.321 50.3559 111.897 49.7238 111.792 49.6185C111.792 49.6185 110.945 49.1971 107.769 50.0399C106.922 50.1452 105.863 50.3559 104.805 50.5666C103.746 50.672 102.793 50.7773 101.84 50.7773C99.2997 50.7773 97.0765 50.672 95.171 50.3559C93.2655 50.0399 91.5717 49.5132 89.9837 48.8811C89.0309 48.565 88.5016 47.8276 88.184 47.4062C87.7606 46.4581 87.7606 45.7207 87.9723 45.1939C88.184 44.4565 88.7134 43.9297 89.3485 43.5084C89.8779 43.1923 90.7248 42.9816 91.8893 43.403C93.2655 43.9298 94.8534 44.2458 96.4414 44.5618C98.1352 44.8779 99.7231 44.9832 101.311 44.9832C102.899 44.9832 104.381 44.8779 105.651 44.6672C106.922 44.4565 107.875 44.1404 108.51 43.6137C109.78 42.7709 110.733 41.8228 111.262 40.664C111.897 39.3998 112.215 37.6089 112.109 35.3966C112.109 33.1843 111.792 31.3934 111.156 30.1293C110.521 28.9705 109.674 28.0223 108.404 27.1795C107.769 26.7582 106.71 26.4421 105.546 26.2314C104.169 26.0207 102.687 25.9154 101.205 25.9154C99.6173 25.9154 97.9235 26.1261 96.3355 26.3368C94.7476 26.5475 93.1596 26.9689 91.8893 27.4956C90.9365 27.8116 90.1954 27.8116 89.4544 27.4956C88.7134 27.1796 88.0782 26.5475 87.8665 25.7047C87.6547 24.9673 87.7606 24.2298 88.0782 23.5977C88.2899 23.071 88.8192 22.4389 89.8779 22.0175C91.3599 21.3855 93.1596 20.8587 94.9593 20.5427C96.8648 20.1213 99.0879 20.0159 101.629 19.9106C102.581 19.9106 103.64 20.0159 104.699 20.1213C105.757 20.2266 106.71 20.4373 107.663 20.7534C110.839 21.5962 111.686 21.1748 111.686 21.1748C111.792 21.0694 112.215 20.4373 112.215 18.6464C112.215 16.4341 111.686 14.6432 110.733 13.2737C109.674 11.9042 108.404 10.8507 106.71 10.1133C104.805 9.16518 102.687 8.63845 100.464 8.42775C98.1352 8.21706 95.8062 8.00637 93.4772 8.00637Z" fill="#231F20"/>
</g>
<g id="Group_24">
<path id="Vector_31" d="M128.2 68.7916C126.93 68.7916 125.66 68.5809 124.283 68.1596C122.59 67.6328 121.107 66.79 119.943 65.7366C118.779 64.6831 117.932 63.5243 117.296 62.2601C116.661 60.9959 116.344 59.5211 116.238 58.0462C116.132 56.5714 116.238 55.0965 116.555 53.6217C116.979 51.6201 117.508 49.7238 118.037 47.9329C118.461 46.5634 118.884 44.9832 119.414 43.403C118.037 41.5067 116.767 39.1891 115.814 36.7661C114.756 34.0271 113.909 30.972 113.379 27.9169C112.85 24.8619 112.638 21.7015 112.638 18.541C112.638 16.2234 112.744 14.2218 112.956 12.4309C113.274 9.79723 114.015 7.69028 116.873 6.11008C119.837 4.42452 123.119 4.63522 125.765 4.74056C128.941 4.84591 132.117 5.0566 134.976 5.89938C137.305 6.63681 139.634 8.53306 139.528 13.379C139.634 13.2737 139.739 13.063 139.845 12.9576C141.116 11.2721 142.704 10.2186 144.609 9.58653C146.303 9.0598 148.314 8.8491 150.432 9.16514C152.337 9.37584 154.454 9.90257 156.572 10.64C161.971 12.4309 165.464 14.9592 166.946 18.3303C168.534 21.8068 168.111 25.5993 165.676 29.7078C164.088 32.3415 162.394 34.7645 160.489 37.1875C158.583 39.6105 156.572 41.7174 154.56 43.6137C152.443 45.5099 150.326 47.1955 148.208 48.565C146.409 49.7238 144.609 50.5666 142.809 51.0933C142.598 51.5147 142.492 51.9361 142.28 52.4628C141.857 53.411 141.539 54.4644 141.116 55.5179C140.692 56.5714 140.269 57.6248 139.951 58.573C139.528 59.5211 139.21 60.3639 138.998 60.8906C138.363 62.3655 137.516 63.5243 136.564 64.6831C135.611 65.8419 134.446 66.79 133.176 67.4221C131.906 68.0542 130.529 68.4756 128.941 68.6863C128.836 68.7916 128.518 68.7916 128.2 68.7916ZM123.754 8.8491C122.06 8.8491 120.472 9.0598 119.096 9.79723C117.826 10.5347 117.508 11.1667 117.296 13.063C117.085 14.7485 116.979 16.5394 116.979 18.7517C116.979 21.7015 117.191 24.5458 117.614 27.3902C118.037 30.2346 118.778 32.8683 119.837 35.3966C120.79 37.8196 122.06 40.0319 123.436 41.8228L124.072 42.6655L123.754 43.719C123.225 45.6153 122.695 47.5115 122.166 49.3024C121.637 50.988 121.213 52.7789 120.684 54.6751C120.472 55.7286 120.366 56.8874 120.472 57.9409C120.578 58.889 120.79 59.8371 121.107 60.6799C121.531 61.5227 122.06 62.1548 122.801 62.8922C123.542 63.5243 124.495 64.051 125.66 64.4724C126.824 64.8938 127.777 64.9991 128.73 64.8938C129.682 64.7884 130.529 64.5778 131.376 64.1564C132.223 63.735 132.964 63.1029 133.599 62.3655C134.34 61.5227 134.87 60.6799 135.293 59.6264C135.505 59.0997 135.822 58.3623 136.246 57.4141C136.669 56.466 136.987 55.5179 137.41 54.4644C137.834 53.411 138.151 52.4628 138.575 51.4094C138.998 50.4612 139.316 49.6185 139.528 48.9864L139.951 48.0382L140.904 47.8276C142.598 47.4062 144.292 46.5634 146.197 45.4046C148.103 44.2457 150.008 42.6655 151.914 40.98C153.819 39.1891 155.725 37.1875 157.419 34.9752C159.218 32.7629 160.806 30.3399 162.288 27.9169C164.088 24.9672 164.406 22.5442 163.453 20.3319C162.394 18.1197 159.748 16.2234 155.513 14.8539C153.607 14.2218 151.808 13.8004 150.114 13.5897C148.632 13.379 147.256 13.4844 146.091 13.9058C145.033 14.2218 144.08 14.8539 143.339 15.9074C142.492 16.9608 141.857 18.541 141.327 20.648C141.116 21.5961 140.904 22.6496 140.586 23.9137C140.375 25.1779 140.057 26.4421 139.845 27.8116C139.634 29.1811 139.422 30.5506 139.21 31.8148C138.998 33.079 138.893 34.2378 138.787 35.2912C138.681 36.5554 138.046 37.1875 137.622 37.6089C136.987 38.0303 136.246 38.241 135.505 38.241C134.764 38.241 134.023 37.8196 133.388 37.2928C132.964 36.8715 132.435 36.134 132.435 34.8699C132.435 33.395 132.541 31.8148 132.752 30.3399C132.858 28.7597 133.07 27.2849 133.388 25.81C133.599 24.3351 133.917 22.9656 134.129 21.7015C134.34 20.3319 134.658 19.1731 134.976 18.1197C135.822 14.9592 136.458 11.0614 134.129 10.4293C131.694 9.69188 128.836 9.48118 125.871 9.37584C125.13 8.8491 124.389 8.8491 123.754 8.8491Z" fill="#231F20"/>
</g>
<g id="Group_25">
<path id="Vector_32" d="M64.4707 128.313C63.3062 128.313 62.1417 128.207 61.0831 127.891C59.601 127.47 58.2248 126.732 57.0603 125.784C55.8958 124.836 54.943 123.677 54.202 122.308C53.4609 121.044 52.9316 119.569 52.614 117.989C52.1906 115.882 51.7671 113.88 51.5554 111.984C51.3436 110.509 51.1319 108.823 50.8143 107.243C48.5912 106.084 46.4739 104.504 44.5684 102.608C42.3453 100.501 40.228 98.0781 38.4283 95.339C36.6287 92.7053 35.0407 89.861 33.6645 86.8059C32.2883 83.8562 31.2296 80.9065 30.4886 78.0621C29.8534 75.7445 29.8534 73.7429 30.2769 71.952C30.8062 70.1611 31.6531 68.5808 32.9235 67.422C34.0879 66.2632 35.57 65.4204 37.158 64.7883C38.7459 64.1563 40.3339 63.8402 42.1335 63.6295C46.6857 63.1028 50.285 63.8402 52.9316 65.7365C54.5195 66.8953 55.684 68.4755 56.6368 70.5824C56.6368 70.2664 56.7427 69.9504 56.8485 69.7397C57.3779 67.6327 58.3306 65.8418 59.8127 64.4723C61.1889 63.2081 62.9886 62.26 65.1059 61.5226C67.0114 60.8905 69.2345 60.4691 71.5635 60.1531C77.386 59.521 81.8323 60.3638 84.6906 62.7868C87.7606 65.3151 89.0309 69.1076 88.5016 74.0589C88.184 77.2193 87.6547 80.2744 86.9137 83.3295C86.1726 86.3845 85.2199 89.3342 84.1612 91.9679C83.1026 94.7069 81.8323 97.1299 80.3502 99.3422C79.0798 101.238 77.8094 102.819 76.4332 104.083C76.4332 104.504 76.5391 105.031 76.5391 105.663C76.645 106.717 76.645 107.875 76.7508 109.034C76.8567 110.193 76.8567 111.352 76.9625 112.405C76.9625 113.459 77.0684 114.302 77.0684 115.039C77.0684 116.619 76.8567 118.199 76.4332 119.674C76.0098 121.149 75.3746 122.519 74.4218 123.677C73.4691 124.836 72.4104 125.89 71.0342 126.627C69.658 127.365 68.07 127.891 66.2704 128.102C65.5293 128.313 65 128.313 64.4707 128.313ZM44.6743 67.6327C43.9332 67.6327 43.1922 67.6327 42.4511 67.7381C41.0749 67.8434 39.8046 68.1595 38.5342 68.6862C37.4756 69.1076 36.5228 69.7397 35.6759 70.3718C34.9349 71.0038 34.5114 71.8466 34.1938 72.9001C33.8762 73.9535 33.9821 75.2177 34.4055 76.7979C35.1466 79.4316 36.0993 82.1706 37.3697 84.9097C38.6401 87.6487 40.1221 90.2824 41.816 92.7053C43.5098 95.1283 45.3094 97.3406 47.4267 99.2369C49.4381 101.133 51.4495 102.608 53.6726 103.661L54.6254 104.188L54.8371 105.242C55.1547 107.349 55.4723 109.35 55.7899 111.141C56.0016 112.932 56.4251 114.934 56.8485 116.83C57.0603 117.989 57.4837 119.042 58.013 119.99C58.5423 120.938 59.1775 121.676 59.8127 122.308C60.5537 122.94 61.4007 123.361 62.3534 123.677C63.3062 123.993 64.4707 123.993 65.741 123.888C66.9055 123.783 67.9642 123.467 68.8111 122.94C69.658 122.413 70.399 121.781 70.9283 121.044C71.4577 120.306 71.8811 119.358 72.1987 118.41C72.5163 117.357 72.6222 116.198 72.6222 115.039C72.6222 114.512 72.5163 113.669 72.5163 112.511C72.5163 111.457 72.4104 110.404 72.3046 109.245C72.1987 108.086 72.0928 107.033 72.0928 105.874C71.987 104.82 71.987 103.872 71.8811 103.135V102.081L72.728 101.449C74.1042 100.29 75.3746 98.8155 76.645 96.9192C77.9153 94.9176 79.0798 92.7053 80.0326 90.2824C81.0912 87.754 81.9381 85.1204 82.5733 82.276C83.2085 79.4316 83.7378 76.4819 84.0554 73.5322C84.4788 70.0557 83.6319 67.5274 81.8323 65.9472C79.8209 64.2616 76.5391 63.7349 71.8811 64.2616C69.8697 64.4723 67.9642 64.8937 66.2704 65.4204C64.7883 65.9472 63.5179 66.5793 62.5651 67.422C61.7182 68.1595 61.1889 69.2129 60.8713 70.4771C60.5537 71.8466 60.6596 73.6375 61.0831 75.7445C61.2948 76.6926 61.5065 77.8514 61.8241 79.1156C62.1417 80.3797 62.4593 81.7492 62.7769 83.1188C63.2003 84.4883 63.5179 85.8578 63.9414 87.2273C64.3648 88.4915 64.6824 89.6503 65.1059 90.7038C65.5293 91.8626 65.3176 92.8107 65 93.3374C64.5765 94.0749 64.0472 94.6016 63.3062 94.8123C62.5651 95.1283 61.7182 95.1283 60.9772 94.8123C60.342 94.6016 59.601 94.0749 58.9658 92.916C58.3306 91.5465 57.6954 90.0717 57.1661 88.4915C56.6368 87.0166 56.1075 85.4364 55.684 83.9615C55.2606 82.4867 54.8371 81.1172 54.5195 79.7476C54.202 78.3781 53.8844 77.114 53.7785 76.0605C53.1433 72.584 51.873 70.1611 50.1792 68.8969C48.9088 68.1595 47.1091 67.6327 44.6743 67.6327Z" fill="#231F20"/>
</g>
<g id="Group_26">
<path id="Vector_33" d="M112.321 129.577C109.992 129.577 107.557 129.366 105.122 128.945C100.041 128.102 95.8062 126.522 92.3127 124.415C88.8192 122.203 86.0668 119.464 84.1612 116.198C82.2557 112.932 80.9853 109.245 80.5619 105.031C80.1384 100.923 80.3502 96.3926 81.1971 91.652C82.044 86.806 83.3143 82.5921 85.0082 78.905C86.702 75.1125 89.031 71.952 91.8893 69.5291C94.7476 67.1061 98.3469 65.4205 102.37 64.5777C106.393 63.735 111.156 63.735 116.45 64.6831C121.743 65.6312 126.295 67.2114 129.682 69.3184C133.282 71.5307 136.034 74.2697 137.834 77.5354C139.739 80.8012 140.798 84.4884 141.116 88.7022C141.433 92.7054 141.222 97.2354 140.375 101.976C139.528 106.822 138.151 111.141 136.352 114.828C134.446 118.621 132.117 121.676 129.153 124.099C126.189 126.522 122.695 128.207 118.567 129.05C116.661 129.366 114.544 129.577 112.321 129.577ZM105.757 124.836C110.204 125.574 114.332 125.679 117.72 124.942C121.107 124.204 124.072 122.835 126.507 120.833C128.941 118.832 131.059 116.093 132.647 112.932C134.34 109.561 135.505 105.663 136.352 101.239C137.093 96.814 137.41 92.6001 137.093 88.9129C136.775 85.3311 135.822 82.1707 134.34 79.4317C132.752 76.798 130.529 74.4804 127.565 72.6895C124.495 70.7932 120.578 69.4237 115.708 68.5809C110.945 67.7382 106.71 67.7382 103.217 68.4756C99.829 69.213 96.8648 70.5825 94.5358 72.5841C92.101 74.5857 90.1954 77.3248 88.7134 80.4852C87.1254 83.8563 85.9609 87.8595 85.2199 92.284C84.4788 96.7086 84.2671 100.817 84.6906 104.504C85.114 108.086 86.1726 111.352 87.7606 114.091C89.3485 116.83 91.6775 119.042 94.6417 120.938C97.3941 122.729 101.205 124.099 105.757 124.836ZM108.722 104.294H108.616C107.98 104.294 107.345 104.083 106.816 103.767C106.181 103.451 105.651 102.819 105.334 102.081C105.016 101.133 105.122 100.08 105.863 99.3423C106.816 97.9728 107.557 96.6033 108.192 95.3391C108.722 93.9696 109.251 92.6001 109.568 91.0199C109.78 89.9664 110.521 89.229 111.474 88.9129C112.109 88.7022 112.744 88.7022 113.485 88.9129C114.226 89.1236 114.756 89.4397 115.285 89.9664C115.708 90.4931 116.238 91.3359 115.92 92.6001C115.497 94.4963 114.967 96.2872 114.332 98.0781C113.591 100.08 112.533 101.765 111.05 103.135L110.945 103.24C110.309 103.978 109.568 104.294 108.722 104.294Z" fill="#231F20"/>
</g>
<path id="Vector_34" d="M59.8127 12.2202C61.5065 12.6416 62.5651 14.1165 63.0945 15.6967C63.6238 17.0662 63.7296 19.2785 63.8355 20.8587" stroke="#231F20" stroke-width="1.5" stroke-linecap="round"/>
<g id="Group_27">
<path id="Vector_35" d="M37.7932 46.2474C37.6873 47.8276 37.5814 49.5131 37.4756 50.988C37.3697 52.5682 37.158 54.1484 37.0521 55.7286C36.9463 56.9928 36.6287 58.257 36.2052 59.4158C35.7818 60.5746 35.1466 61.5227 34.4055 62.3655C33.6645 63.2083 32.7117 63.8404 31.6531 64.3671C30.5945 64.8938 29.3241 65.1045 27.842 65.1045C26.3599 65.1045 25.0896 64.8938 23.9251 64.3671C22.8664 63.8404 21.9137 63.2083 21.1726 62.3655C20.4316 61.5227 19.7964 60.5746 19.373 59.4158C18.9495 58.257 18.6319 57.0981 18.5261 55.7286C17.8909 49.0918 17.4674 42.3495 17.5733 35.2913C17.5733 28.3384 17.9967 21.4908 18.6319 14.9593C18.7378 13.6951 19.0554 12.4309 19.4788 11.3775C19.9023 10.2186 20.5375 9.27052 21.2785 8.42775C22.0195 7.58497 22.9723 6.95289 24.0309 6.42615C25.0896 5.89941 26.3599 5.68872 27.9479 5.68872C29.43 5.68872 30.7003 5.89941 31.759 6.42615C32.8176 6.95289 33.7704 7.58497 34.5114 8.42775C35.2524 9.27052 35.8876 10.2186 36.3111 11.3775C36.7345 12.5363 37.0521 13.6951 37.158 14.9593C37.3697 16.5395 37.4756 18.1197 37.5814 19.6999C37.6873 21.2801 37.7932 22.8603 37.899 24.4405C39.6987 24.0191 41.4984 23.8084 43.4039 23.8084C45.3094 23.8084 47.1091 24.0191 48.9088 24.4405C49.0147 22.8603 49.1205 21.2801 49.2264 19.6999C49.3322 18.1197 49.544 16.5395 49.6498 15.0646C49.7557 13.8005 50.0733 12.5363 50.4967 11.4828C50.9202 10.324 51.5554 9.37587 52.2964 8.53309C53.0375 7.58497 53.9902 6.95289 55.0489 6.42615C56.1075 5.89941 57.3778 5.68872 58.8599 5.68872C60.342 5.68872 61.6124 5.89941 62.671 6.42615C63.8355 6.95289 64.6824 7.58497 65.5293 8.42775C66.2704 9.27052 66.9055 10.2186 67.329 11.3775C67.7524 12.5363 68.07 13.6951 68.1759 14.9593C68.8111 21.5961 69.1287 28.3384 69.1287 35.3966C69.1287 42.3495 68.8111 49.1971 68.07 55.7286C67.9642 56.9928 67.6466 58.257 67.2231 59.4158C66.7997 60.5746 66.1645 61.5227 65.4234 62.3655C64.6824 63.2083 63.7296 63.8404 62.5651 64.3671C61.4006 64.8938 60.1303 65.1045 58.7541 65.1045C57.272 65.1045 56.0016 64.8938 54.943 64.3671C53.8844 63.8404 52.9316 63.2083 52.1905 62.3655C51.4495 61.5227 50.8143 60.5746 50.3909 59.4158C49.9674 58.257 49.6498 57.0981 49.544 55.7286C49.3322 54.1484 49.2264 52.5682 49.1205 51.0933C49.0147 49.5131 48.9088 47.9329 48.8029 46.3527C47.0033 46.7741 45.2036 46.9848 43.298 46.8795C41.3925 46.8795 39.5928 46.6688 37.7932 46.2474Z" fill="white" stroke="#231F20" stroke-width="2.7426"/>
<path id="Vector_36" d="M60.0244 10.7454C61.6124 11.1668 62.671 12.6416 63.3062 14.1165C63.8355 15.486 63.9414 17.6983 64.0472 19.1731" stroke="#231F20" stroke-width="1.9613" stroke-linecap="round"/>
</g>
<g id="Group_28">
<path id="Vector_37" d="M123.119 44.8779C121.425 42.9816 119.943 40.8747 118.673 38.241C117.402 35.7127 116.45 32.9737 115.814 30.0239C115.073 27.1796 114.65 24.1245 114.544 21.1748C114.332 17.0662 113.274 10.6401 117.402 8.00638C119.731 6.53152 122.907 6.53152 125.554 6.84757C128.624 7.16361 133.388 7.79569 135.399 10.324C137.622 13.2737 136.564 17.4876 136.034 20.7534C135.293 25.3887 134.976 30.1293 135.081 34.8699C135.081 35.2913 135.081 35.7127 135.293 36.1341C135.505 36.5555 135.928 36.8715 136.352 36.7662C137.093 36.6608 137.305 35.818 137.41 35.0806C137.834 30.7614 137.94 26.4421 138.681 22.1229C139.316 18.1197 140.375 13.5898 144.503 11.9042C145.879 11.3775 147.573 11.0615 149.373 11.1668C151.173 11.2721 153.184 11.5882 155.195 12.1149C160.065 13.3791 163.347 15.2753 164.829 18.0144C166.311 20.7534 166.205 23.9138 164.3 27.4956C162.923 30.1293 161.441 32.6576 159.748 35.0806C158.054 37.5036 156.36 39.7159 154.454 41.7175C152.655 43.7191 150.749 45.4046 148.844 46.7741C146.938 48.1437 145.033 49.1971 143.233 49.8292C143.021 50.4613 142.809 51.3041 142.492 52.2522C142.174 53.2003 141.857 54.2538 141.539 55.3073C141.221 56.3607 140.904 57.4142 140.586 58.3623C140.269 59.3105 139.951 60.1532 139.845 60.68C139.422 61.9441 138.787 62.9976 138.046 64.0511C137.305 64.9992 136.458 65.842 135.399 66.4741C134.446 67.1061 133.282 67.5275 132.117 67.7382C130.953 67.9489 129.577 67.8436 128.2 67.5275C126.718 67.1061 125.448 66.5794 124.495 65.842C123.542 65.1045 122.695 64.1564 122.166 63.2083C121.637 62.1548 121.213 61.1014 121.107 59.8372C120.896 58.573 120.896 57.3089 121.107 56.0447C121.425 54.0431 121.743 52.2522 122.166 50.4613C122.378 48.6704 122.695 46.8795 123.119 44.8779Z" fill="white" stroke="#231F20" stroke-width="2.7916"/>
<path id="Vector_38" d="M153.396 17.3823C155.09 17.4877 159.43 18.8572 158.477 23.1764" stroke="#231F20" stroke-width="2.4145" stroke-linecap="round"/>
<path id="Vector_39" d="M153.713 32.3416C153.713 32.3416 152.125 38.557 144.186 43.6137" stroke="#231F20" stroke-width="2.4145" stroke-linecap="round"/>
</g>
<path id="Vector_40" d="M104.699 127.997C99.7231 127.049 95.7003 125.574 92.4186 123.362C89.1368 121.255 86.5961 118.621 84.7964 115.566C82.9967 112.511 81.9381 108.929 81.5147 104.926C81.0912 100.923 81.4088 96.498 82.3616 91.7574C83.3143 87.0168 84.5847 82.8029 86.2785 79.2211C87.9723 75.6393 90.1954 72.6895 92.9479 70.4772C95.7003 68.265 98.9821 66.6847 102.899 65.9473C106.816 65.2099 111.368 65.3152 116.555 66.2634C121.743 67.2115 126.083 68.7917 129.365 70.8986C132.647 73.0056 135.187 75.6393 136.881 78.6943C138.575 81.7494 139.634 85.3312 139.845 89.3344C140.163 93.3376 139.739 97.6568 138.893 102.503C137.94 107.243 136.564 111.457 134.764 115.039C132.964 118.621 130.635 121.571 127.777 123.783C124.919 125.995 121.637 127.47 117.72 128.313C113.909 129.05 109.568 128.945 104.699 127.997ZM107.134 101.239C106.922 101.449 106.816 101.66 106.922 101.976C107.028 102.292 107.239 102.397 107.451 102.608C107.769 102.713 107.98 102.819 108.404 102.819C108.721 102.819 109.145 102.713 109.357 102.503C110.627 101.239 111.58 99.7638 112.321 98.0782C112.956 96.3926 113.485 94.6017 113.909 92.8108C114.015 92.3895 113.909 92.0734 113.697 91.8627C113.485 91.652 113.274 91.4413 112.956 91.336C112.638 91.2306 112.321 91.2306 112.003 91.336C111.686 91.4413 111.474 91.652 111.474 91.8627C111.05 93.5483 110.521 95.2338 109.78 96.7087C109.145 98.1836 108.298 99.7638 107.134 101.239Z" fill="white" stroke="#231F20" stroke-width="2.8518"/>
<path id="Vector_41" d="M125.871 113.88C125.871 113.88 121.213 122.835 111.474 121.465" stroke="#231F20" stroke-width="2.4666" stroke-linecap="round"/>
<g id="Group_29">
<path id="Vector_42" d="M73.4691 53.9377C72.9397 51.1986 72.5163 48.2489 72.3046 45.2992C71.987 42.3495 71.7752 39.1891 71.5635 35.9233C71.3518 32.6575 71.2459 29.4971 71.1401 26.5474C71.0342 23.5977 71.0342 20.648 71.2459 17.9089C71.3518 15.802 71.987 14.0111 73.1515 12.6416C74.316 11.1667 75.9039 10.0079 77.8094 9.05977C79.715 8.11164 81.8322 7.37421 84.1612 6.95283C86.4902 6.42609 88.8192 6.11005 91.2541 6.0047C93.7948 5.79401 96.2296 5.79401 98.6645 6.0047C101.099 6.11005 103.322 6.53144 105.334 7.26887C107.345 8.0063 109.039 9.16512 110.309 10.7453C111.58 12.3255 112.321 14.3271 112.533 16.9608C112.638 19.0677 112.321 20.4373 111.368 21.0693C110.415 21.7014 108.616 21.7014 106.075 21.1747C105.228 20.964 104.275 20.8587 103.322 20.7533C102.37 20.648 101.523 20.648 100.676 20.648C98.3469 20.7533 96.2296 21.0693 94.5358 21.4907C92.842 21.9121 91.3599 22.4389 89.9837 23.1763C89.6661 23.2816 89.4544 23.4923 89.3485 23.8084C89.2427 24.1244 89.2427 24.3351 89.3485 24.5458C89.4544 24.7565 89.5603 24.9672 89.8778 25.0725C90.0896 25.1779 90.4072 25.1779 90.8306 24.9672C92.2068 24.3351 93.7948 23.8084 95.4886 23.4923C97.1824 23.0709 98.8762 22.8602 100.464 22.7549C102.158 22.6496 103.64 22.6496 105.122 22.8602C106.604 23.0709 107.769 23.387 108.721 23.8084C110.309 24.6511 111.58 25.81 112.321 27.2848C113.168 28.7597 113.591 30.6559 113.803 33.1843C114.015 35.7126 113.697 37.7142 113.062 39.2944C112.427 40.8746 111.368 42.1388 109.886 43.1923C109.039 43.8243 107.875 44.3511 106.498 44.6671C104.805 44.9832 103.217 45.1938 101.629 45.2992C99.9349 45.4045 98.241 45.2992 96.5472 45.1938C94.8534 44.9832 93.1596 44.6671 91.6775 44.2457C91.2541 44.1404 90.9365 44.1404 90.7248 44.3511C90.513 44.4564 90.3013 44.6671 90.3013 44.8778C90.3013 45.0885 90.3013 45.2992 90.4072 45.6152C90.513 45.8259 90.8306 46.0366 91.1482 46.142C92.6303 46.6687 94.2182 46.9847 95.912 47.1954C97.6059 47.4061 99.7231 47.4061 102.052 47.3008C102.899 47.1954 103.746 47.0901 104.699 46.9847C105.651 46.7741 106.498 46.5634 107.345 46.2473C109.886 45.4045 111.686 45.2992 112.638 45.7206C113.591 46.2473 114.226 47.5115 114.332 49.6184C114.544 52.2521 114.015 54.3591 112.956 56.0446C111.897 57.7302 110.415 59.0997 108.51 60.1531C106.604 61.2066 104.487 61.944 102.052 62.3654C99.6173 62.7868 97.1824 63.1029 94.6417 63.3136C92.3127 63.4189 89.8778 63.4189 87.5489 63.3136C85.114 63.1029 82.9967 62.6815 80.9853 62.0494C78.9739 61.312 77.2801 60.3638 75.9039 59.0997C74.7394 57.6248 73.8925 55.9393 73.4691 53.9377Z" fill="white" stroke="#231F20" stroke-width="2.596"/>
<path id="Vector_43" d="M98.3469 10.5347C98.6645 10.64 103.958 10.64 107.451 14.5379" stroke="#231F20" stroke-width="2.2453" stroke-linecap="round"/>
</g>
<path id="Vector_44" d="M53.0375 105.558C50.7085 104.399 48.4853 102.924 46.3681 100.923C44.2508 98.921 42.3453 96.7087 40.6515 94.1803C38.9577 91.652 37.3697 89.0183 36.0993 86.2793C34.829 83.4349 33.7704 80.6959 33.0293 78.0622C32.5 76.166 32.3941 74.5858 32.8176 73.2162C33.1352 71.8467 33.8762 70.6879 34.829 69.7398C35.7818 68.7917 36.9462 68.1596 38.2166 67.6328C39.5928 67.1061 40.9691 66.7901 42.557 66.5794C46.4739 66.158 49.544 66.6847 51.6612 68.2649C53.7785 69.8451 55.2606 72.5842 56.0016 76.5874C56.2134 77.6408 56.4251 78.7996 56.7427 80.0638C57.0603 81.328 57.4837 82.6975 57.8013 84.067C58.2248 85.4365 58.6482 86.9114 59.1775 88.3862C59.7068 89.8611 60.2362 91.2306 60.8713 92.4948C61.0831 92.9162 61.2948 93.1269 61.6124 93.2322C61.93 93.3376 62.1417 93.3376 62.4593 93.2322C62.671 93.1269 62.8827 92.9162 63.0945 92.7055C63.2003 92.4948 63.2003 92.1787 63.0945 91.7573C62.7769 90.7039 62.3534 89.5451 61.93 88.2809C61.5065 87.0167 61.1889 85.6472 60.7655 84.2777C60.342 82.9082 60.0244 81.5387 59.7068 80.2745C59.3893 79.0103 59.1775 77.9569 58.9658 77.0087C58.4365 74.5858 58.3306 72.5842 58.7541 70.8986C59.1775 69.2131 59.9186 67.8435 60.9772 66.7901C62.1417 65.7366 63.5179 64.8938 65.3176 64.3671C67.1173 63.8403 69.0228 63.419 71.1401 63.1029C76.2215 62.4708 80.0326 63.2083 82.4674 65.2099C84.9023 67.2115 85.855 70.2665 85.4316 74.3751C85.114 77.3248 84.5847 80.2745 83.9495 83.2242C83.3143 86.1739 82.4674 88.8076 81.4088 91.4413C80.3502 93.9696 79.1857 96.2873 77.9153 98.2889C76.645 100.29 75.1629 101.976 73.6808 103.24C73.6808 103.872 73.7866 104.82 73.8925 105.769C73.9984 106.822 74.1042 107.875 74.1042 109.034C74.2101 110.193 74.2101 111.247 74.316 112.3C74.4218 113.354 74.4218 114.196 74.4218 114.828C74.4218 116.198 74.316 117.462 73.8925 118.726C73.5749 119.99 73.0456 121.044 72.3046 121.992C71.5635 122.94 70.7166 123.783 69.658 124.415C68.5994 125.047 67.329 125.468 65.8469 125.679C64.3648 125.89 62.9886 125.784 61.7182 125.363C60.4479 125.047 59.3892 124.415 58.5423 123.678C57.5896 122.94 56.8485 121.992 56.2134 120.833C55.5782 119.78 55.1547 118.516 54.8371 117.251C54.4137 115.25 54.0961 113.354 53.7785 111.563C53.6726 109.456 53.355 107.559 53.0375 105.558Z" fill="white" stroke="#231F20" stroke-width="2.8345"/>
<path id="Vector_45" d="M73.5749 67.4221C75.2687 67.1061 79.9267 67.2114 80.1384 71.636" stroke="#231F20" stroke-width="2.4516" stroke-linecap="round"/>
</g>
</g>
</svg>
