<svg width="27" height="28" viewBox="0 0 27 28" fill="none" xmlns="http://www.w3.org/2000/svg">
<g id="chat-left-fill" clip-path="url(#clip0_1082_14563)">
<g id="Group 499">
<path id="Vector" d="M23.0347 1.56299C23.4576 1.56299 23.8631 1.72761 24.1621 2.02063C24.4611 2.31366 24.6291 2.71109 24.6291 3.12549V15.6255C24.6291 16.0399 24.4611 16.4373 24.1621 16.7303C23.8631 17.0234 23.4576 17.188 23.0347 17.188H7.75132C6.90569 17.1882 6.09477 17.5175 5.49691 18.1036L2.30822 21.2286V3.12549C2.30822 2.71109 2.47619 2.31366 2.77519 2.02063C3.07419 1.72761 3.47972 1.56299 3.90256 1.56299H23.0347ZM3.90256 0.000488281C3.05687 0.000488281 2.24581 0.329728 1.64781 0.91578C1.04982 1.50183 0.713867 2.29669 0.713867 3.12549L0.713867 23.1146C0.713901 23.2691 0.760729 23.4202 0.848426 23.5487C0.936122 23.6772 1.06074 23.7773 1.20652 23.8364C1.35229 23.8954 1.51267 23.9108 1.66734 23.8805C1.82202 23.8502 1.96404 23.7756 2.07544 23.6661L6.62411 19.2083C6.92304 18.9153 7.32851 18.7506 7.75132 18.7505H23.0347C23.8804 18.7505 24.6915 18.4212 25.2895 17.8352C25.8875 17.2491 26.2234 16.4543 26.2234 15.6255V3.12549C26.2234 2.29669 25.8875 1.50183 25.2895 0.91578C24.6915 0.329728 23.8804 0.000488281 23.0347 0.000488281L3.90256 0.000488281Z" fill="#229EEB"/>
<path id="Vector_2" d="M8.68552 9.37549C8.68552 9.78989 8.51755 10.1873 8.21855 10.4803C7.91955 10.7734 7.51402 10.938 7.09117 10.938C6.66833 10.938 6.2628 10.7734 5.9638 10.4803C5.6648 10.1873 5.49683 9.78989 5.49683 9.37549C5.49683 8.96109 5.6648 8.56366 5.9638 8.27063C6.2628 7.97761 6.66833 7.81299 7.09117 7.81299C7.51402 7.81299 7.91955 7.97761 8.21855 8.27063C8.51755 8.56366 8.68552 8.96109 8.68552 9.37549ZM15.0629 9.37549C15.0629 9.78989 14.8949 10.1873 14.5959 10.4803C14.2969 10.7734 13.8914 10.938 13.4686 10.938C13.0457 10.938 12.6402 10.7734 12.3412 10.4803C12.0422 10.1873 11.8742 9.78989 11.8742 9.37549C11.8742 8.96109 12.0422 8.56366 12.3412 8.27063C12.6402 7.97761 13.0457 7.81299 13.4686 7.81299C13.8914 7.81299 14.2969 7.97761 14.5959 8.27063C14.8949 8.56366 15.0629 8.96109 15.0629 9.37549ZM21.4403 9.37549C21.4403 9.78989 21.2723 10.1873 20.9733 10.4803C20.6743 10.7734 20.2688 10.938 19.846 10.938C19.4231 10.938 19.0176 10.7734 18.7186 10.4803C18.4196 10.1873 18.2516 9.78989 18.2516 9.37549C18.2516 8.96109 18.4196 8.56366 18.7186 8.27063C19.0176 7.97761 19.4231 7.81299 19.846 7.81299C20.2688 7.81299 20.6743 7.97761 20.9733 8.27063C21.2723 8.56366 21.4403 8.96109 21.4403 9.37549Z" fill="#229EEB"/>
</g>
<path id="Vector_3" d="M3.83887 0.000488281C3.01007 0.000488281 2.21521 0.367686 1.62916 1.0213C1.04311 1.67492 0.713867 2.56141 0.713867 3.48576L0.713867 25.7793C0.7139 25.9517 0.759793 26.1203 0.845738 26.2636C0.931683 26.4069 1.05382 26.5185 1.19668 26.5844C1.33954 26.6502 1.49671 26.6674 1.6483 26.6336C1.79988 26.5997 1.93907 26.5165 2.04824 26.3945L6.50605 21.4227C6.79901 21.0959 7.19638 20.9122 7.61074 20.9121H22.5889C23.4177 20.9121 24.2125 20.5449 24.7986 19.8913C25.3846 19.2377 25.7139 18.3512 25.7139 17.4269V3.48576C25.7139 2.56141 25.3846 1.67492 24.7986 1.0213C24.2125 0.367686 23.4177 0.000488281 22.5889 0.000488281L3.83887 0.000488281Z" fill="#229EEB"/>
</g>
<defs>
<clipPath id="clip0_1082_14563">
<rect width="25.5096" height="27.8822" fill="white" transform="translate(0.713867 0.000488281)"/>
</clipPath>
</defs>
</svg>
