<svg width="71" height="71" viewBox="0 0 71 71" fill="none" xmlns="http://www.w3.org/2000/svg">
<g id="Group 472">
<g id="Rectangle 163" filter="url(#filter0_d_1082_14710)">
<rect x="7.74414" y="7.94141" width="50" height="50" rx="20" fill="white"/>
</g>
<path id="Vector" d="M37.44 22.361C37.3233 22.2466 37.1847 22.1558 37.0321 22.0938C36.8795 22.0319 36.716 22 36.5509 22C36.3857 22 36.2222 22.0319 36.0696 22.0938C35.9171 22.1558 35.7785 22.2466 35.6618 22.361L25.1772 32.6294C25.0604 32.7437 24.9677 32.8794 24.9044 33.0289C24.8412 33.1783 24.8086 33.3384 24.8086 33.5002C24.8086 33.6619 24.8412 33.8221 24.9044 33.9715C24.9677 34.1209 25.0604 34.2566 25.1772 34.3709L35.6618 44.6393C35.7785 44.7537 35.9171 44.8444 36.0697 44.9063C36.2222 44.9681 36.3857 45 36.5509 45C36.716 45 36.8795 44.9681 37.032 44.9063C37.1846 44.8444 37.3232 44.7537 37.4399 44.6393C37.5567 44.525 37.6493 44.3892 37.7125 44.2398C37.7757 44.0904 37.8082 43.9303 37.8082 43.7686C37.8082 43.6068 37.7757 43.4467 37.7125 43.2973C37.6493 43.1479 37.5567 43.0122 37.4399 42.8978L27.8462 33.5002L37.44 24.1026C37.5568 23.9883 37.6495 23.8525 37.7128 23.7031C37.776 23.5537 37.8086 23.3935 37.8086 23.2318C37.8086 23.0701 37.776 22.9099 37.7128 22.7605C37.6495 22.6111 37.5568 22.4753 37.44 22.361Z" fill="#229EEB"/>
</g>
<defs>
<filter id="filter0_d_1082_14710" x="0.744141" y="0.941406" width="70" height="70" filterUnits="userSpaceOnUse" color-interpolation-filters="sRGB">
<feFlood flood-opacity="0" result="BackgroundImageFix"/>
<feColorMatrix in="SourceAlpha" type="matrix" values="0 0 0 0 0 0 0 0 0 0 0 0 0 0 0 0 0 0 127 0" result="hardAlpha"/>
<feMorphology radius="2" operator="erode" in="SourceAlpha" result="effect1_dropShadow_1082_14710"/>
<feOffset dx="3" dy="3"/>
<feGaussianBlur stdDeviation="6"/>
<feComposite in2="hardAlpha" operator="out"/>
<feColorMatrix type="matrix" values="0 0 0 0 0 0 0 0 0 0 0 0 0 0 0 0 0 0 0.25 0"/>
<feBlend mode="normal" in2="BackgroundImageFix" result="effect1_dropShadow_1082_14710"/>
<feBlend mode="normal" in="SourceGraphic" in2="effect1_dropShadow_1082_14710" result="shape"/>
</filter>
</defs>
</svg>
