<svg width="11" height="8" viewBox="0 0 11 8" fill="none" xmlns="http://www.w3.org/2000/svg">
    <g clip-path="url(#clip0_1080_175)">
        <path d="M10.8828 4C10.8828 4 9.00781 1.25 5.88281 1.25C2.75781 1.25 0.882812 4 0.882812 4C0.882812 4 2.75781 6.75 5.88281 6.75C9.00781 6.75 10.8828 4 10.8828 4ZM1.61594 4C1.91813 3.63256 2.26571 3.29034 2.65344 2.9785C3.45781 2.334 4.55781 1.75 5.88281 1.75C7.20781 1.75 8.30719 2.334 9.11281 2.9785C9.50054 3.29034 9.84812 3.63256 10.1503 4C10.1141 4.0435 10.0741 4.0915 10.0284 4.144C9.81906 4.384 9.50969 4.704 9.11281 5.0215C8.30719 5.666 7.20719 6.25 5.88281 6.25C4.55781 6.25 3.45844 5.666 2.65281 5.0215C2.26509 4.70965 1.91814 4.36744 1.61594 4Z" fill="white"/>
        <path d="M5.88281 2.75C5.46841 2.75 5.07098 2.8817 4.77796 3.11612C4.48493 3.35054 4.32031 3.66848 4.32031 4C4.32031 4.33152 4.48493 4.64946 4.77796 4.88388C5.07098 5.1183 5.46841 5.25 5.88281 5.25C6.29721 5.25 6.69464 5.1183 6.98767 4.88388C7.28069 4.64946 7.44531 4.33152 7.44531 4C7.44531 3.66848 7.28069 3.35054 6.98767 3.11612C6.69464 2.8817 6.29721 2.75 5.88281 2.75ZM3.69531 4C3.69531 3.53587 3.92578 3.09075 4.33602 2.76256C4.74625 2.43437 5.30265 2.25 5.88281 2.25C6.46297 2.25 7.01937 2.43437 7.42961 2.76256C7.83984 3.09075 8.07031 3.53587 8.07031 4C8.07031 4.46413 7.83984 4.90925 7.42961 5.23744C7.01937 5.56563 6.46297 5.75 5.88281 5.75C5.30265 5.75 4.74625 5.56563 4.33602 5.23744C3.92578 4.90925 3.69531 4.46413 3.69531 4Z" fill="white"/>
    </g>
    <defs>
        <clipPath id="clip0_1080_175">
            <rect width="10" height="8" fill="white" transform="translate(0.882812)"/>
        </clipPath>
    </defs>
</svg>
