<svg width="27" height="28" viewBox="0 0 27 28" fill="none" xmlns="http://www.w3.org/2000/svg">
<g id="chat-left-fill" clip-path="url(#clip0_1082_11311)">
<g id="Group 499">
<path id="Vector" d="M23.0347 1.56299C23.4576 1.56299 23.8631 1.72761 24.1621 2.02063C24.4611 2.31366 24.6291 2.71109 24.6291 3.12549V15.6255C24.6291 16.0399 24.4611 16.4373 24.1621 16.7303C23.8631 17.0234 23.4576 17.188 23.0347 17.188H7.75132C6.90569 17.1882 6.09477 17.5175 5.49691 18.1036L2.30822 21.2286V3.12549C2.30822 2.71109 2.47619 2.31366 2.77519 2.02063C3.07419 1.72761 3.47972 1.56299 3.90256 1.56299H23.0347ZM3.90256 0.000488281C3.05687 0.000488281 2.24581 0.329728 1.64781 0.91578C1.04982 1.50183 0.713867 2.29669 0.713867 3.12549L0.713867 23.1146C0.713901 23.2691 0.760729 23.4202 0.848426 23.5487C0.936122 23.6772 1.06074 23.7773 1.20652 23.8364C1.35229 23.8954 1.51267 23.9108 1.66734 23.8805C1.82202 23.8502 1.96404 23.7756 2.07544 23.6661L6.62411 19.2083C6.92304 18.9153 7.32851 18.7506 7.75132 18.7505H23.0347C23.8804 18.7505 24.6915 18.4212 25.2895 17.8352C25.8875 17.2491 26.2234 16.4543 26.2234 15.6255V3.12549C26.2234 2.29669 25.8875 1.50183 25.2895 0.91578C24.6915 0.329728 23.8804 0.000488281 23.0347 0.000488281L3.90256 0.000488281Z" fill="#229EEB"/>
<path id="Vector_2" d="M8.68561 9.37549C8.68561 9.78989 8.51764 10.1873 8.21864 10.4803C7.91964 10.7734 7.51411 10.938 7.09127 10.938C6.66842 10.938 6.26289 10.7734 5.96389 10.4803C5.66489 10.1873 5.49692 9.78989 5.49692 9.37549C5.49692 8.96109 5.66489 8.56366 5.96389 8.27063C6.26289 7.97761 6.66842 7.81299 7.09127 7.81299C7.51411 7.81299 7.91964 7.97761 8.21864 8.27063C8.51764 8.56366 8.68561 8.96109 8.68561 9.37549ZM15.063 9.37549C15.063 9.78989 14.895 10.1873 14.596 10.4803C14.297 10.7734 13.8915 10.938 13.4687 10.938C13.0458 10.938 12.6403 10.7734 12.3413 10.4803C12.0423 10.1873 11.8743 9.78989 11.8743 9.37549C11.8743 8.96109 12.0423 8.56366 12.3413 8.27063C12.6403 7.97761 13.0458 7.81299 13.4687 7.81299C13.8915 7.81299 14.297 7.97761 14.596 8.27063C14.895 8.56366 15.063 8.96109 15.063 9.37549ZM21.4404 9.37549C21.4404 9.78989 21.2724 10.1873 20.9734 10.4803C20.6744 10.7734 20.2689 10.938 19.846 10.938C19.4232 10.938 19.0177 10.7734 18.7187 10.4803C18.4197 10.1873 18.2517 9.78989 18.2517 9.37549C18.2517 8.96109 18.4197 8.56366 18.7187 8.27063C19.0177 7.97761 19.4232 7.81299 19.846 7.81299C20.2689 7.81299 20.6744 7.97761 20.9734 8.27063C21.2724 8.56366 21.4404 8.96109 21.4404 9.37549Z" fill="#229EEB"/>
</g>
</g>
<defs>
<clipPath id="clip0_1082_11311">
<rect width="25.5096" height="27.8822" fill="white" transform="translate(0.713867 0.000488281)"/>
</clipPath>
</defs>
</svg>
