<svg width="28" height="27" viewBox="0 0 28 27" fill="none" xmlns="http://www.w3.org/2000/svg">
<g id="hand-thumbs-up-fill 1" clip-path="url(#clip0_132_1559)">
<path id="Vector" d="M15.2783 0.631579C13.63 0.227744 12.099 1.44939 11.9886 3.03093C11.8645 4.80679 11.5921 6.43734 11.2507 7.40722C11.0352 8.01551 10.4248 9.11887 9.4576 10.1766C8.49726 11.2293 7.24727 12.1671 5.78349 12.5591C4.62487 12.8683 3.44385 13.8517 3.44385 15.2879V22.0484C3.44385 23.4761 4.6197 24.5221 5.94038 24.6589C7.7852 24.8515 8.63692 25.3601 9.50588 25.8806L9.58864 25.9313C10.0576 26.21 10.5852 26.5193 11.261 26.7491C11.9455 26.9789 12.7455 27.1157 13.7886 27.1157H19.8231C21.4386 27.1157 22.5799 26.3097 23.1575 25.3179C23.4367 24.8498 23.5875 24.319 23.5954 23.7769C23.5954 23.5201 23.5558 23.2497 23.4627 22.9929C23.8092 22.5485 24.1179 22.0162 24.3041 21.4705C24.4937 20.9129 24.6006 20.1829 24.311 19.529C24.4299 19.3094 24.5178 19.0745 24.5851 18.8481C24.7178 18.3919 24.7799 17.8883 24.7799 17.4C24.7799 16.9134 24.7178 16.4116 24.5851 15.9537C24.5248 15.7431 24.4451 15.5384 24.3472 15.342C24.6491 14.921 24.8433 14.4352 24.9135 13.9253C24.9837 13.4154 24.9278 12.8964 24.7506 12.4121C24.3954 11.4118 23.5748 10.5534 22.6817 10.2628C21.2213 9.7863 19.5731 9.79644 18.3438 9.90627C18.0885 9.92877 17.8339 9.95694 17.58 9.99075C18.1781 7.48053 18.1414 4.86511 17.4731 2.37196C17.3568 1.9725 17.1337 1.61073 16.827 1.32406C16.5202 1.0374 16.1409 0.836246 15.7283 0.741408L15.2783 0.631579ZM19.8231 25.4277H13.7886C12.9093 25.4277 12.3007 25.3111 11.8231 25.1506C11.3386 24.9867 10.9507 24.7654 10.4852 24.4866L10.4162 24.446C9.45933 23.8732 8.35071 23.2109 6.12314 22.9794C5.54901 22.9185 5.16797 22.4894 5.16797 22.05V15.2879C5.16797 14.8587 5.55763 14.3704 6.23693 14.1896C8.12485 13.6827 9.64553 12.5067 10.7438 11.3036C11.8386 10.104 12.5783 8.81135 12.8783 7.96144C13.2972 6.77866 13.58 4.97407 13.7093 3.14583C13.7524 2.53417 14.33 2.14216 14.8593 2.27057L15.311 2.38209C15.5869 2.44968 15.7558 2.62372 15.8076 2.81296C16.5117 5.44215 16.4248 8.2148 15.5576 10.7967C15.5085 10.9403 15.4997 11.0942 15.5321 11.2423C15.5645 11.3904 15.6369 11.5272 15.7418 11.6384C15.8467 11.7497 15.9801 11.8312 16.1282 11.8746C16.2762 11.918 16.4335 11.9215 16.5834 11.8849L16.5886 11.8832L16.6127 11.8781L16.7127 11.8545C17.3023 11.7318 17.8987 11.6432 18.4989 11.5892C19.642 11.4878 21.011 11.498 22.1368 11.8663C22.4386 11.9643 22.9127 12.3732 23.1196 12.9646C23.3041 13.485 23.2696 14.0967 22.661 14.6915L22.0523 15.2879L22.661 15.8861C22.7351 15.9587 22.842 16.1243 22.9265 16.4183C23.0092 16.7005 23.0558 17.0435 23.0558 17.4C23.0558 17.7582 23.0092 18.0996 22.9265 18.3834C22.8403 18.6774 22.7351 18.843 22.661 18.9157L22.0523 19.5121L22.661 20.1103C22.742 20.1897 22.8489 20.4094 22.6696 20.9348C22.4827 21.4444 22.1857 21.9084 21.7989 22.295L21.1903 22.8915L21.7989 23.4897C21.8092 23.4981 21.8696 23.5741 21.8696 23.7769C21.8619 24.0247 21.7902 24.2666 21.661 24.4798C21.3765 24.9664 20.7937 25.4277 19.8231 25.4277Z" fill="#229EEB"/>
</g>
<defs>
<clipPath id="clip0_132_1559">
<rect width="27.5503" height="27" fill="white"/>
</clipPath>
</defs>
</svg>
