<svg width="26" height="28" viewBox="0 0 26 28" fill="none" xmlns="http://www.w3.org/2000/svg">
<g id="megaphone-fill" clip-path="url(#clip0_1082_14706)">
<path id="Vector" d="M20.3597 4.38642C20.3597 3.69315 20.6067 3.02828 21.0462 2.53807C21.4857 2.04786 22.0819 1.77246 22.7035 1.77246C23.3251 1.77246 23.9212 2.04786 24.3608 2.53807C24.8003 3.02828 25.0472 3.69315 25.0472 4.38642V23.5554C25.0472 24.2487 24.8003 24.9136 24.3608 25.4038C23.9212 25.894 23.3251 26.1694 22.7035 26.1694C22.0819 26.1694 21.4857 25.894 21.0462 25.4038C20.6067 24.9136 20.3597 24.2487 20.3597 23.5554V4.38642ZM18.7972 5.64809C15.5676 7.30359 11.7051 8.22893 7.85974 8.5339V19.4027C8.4273 19.4384 8.9941 19.4878 9.55974 19.5509C12.7676 19.9063 15.8691 20.7149 18.7972 22.2694V5.64809ZM6.29724 19.3121V8.628C5.23474 8.67505 4.1113 8.70293 3.15974 8.72036C2.33215 8.73315 1.54217 9.10799 0.959996 9.76413C0.377819 10.4203 0.0500299 11.3052 0.0472412 12.2283L0.0472412 15.7136C0.0472412 17.6409 1.44724 19.1919 3.16287 19.2145C3.42121 19.2181 3.67955 19.2228 3.93787 19.2285C4.72459 19.246 5.51111 19.2739 6.29724 19.3121ZM8.46912 21.1959C8.91443 21.2325 9.35818 21.2778 9.79724 21.3318L10.1926 24.2769C10.2356 24.5289 10.2282 24.7884 10.1709 25.0369C10.1135 25.2854 10.0078 25.5167 9.86103 25.7142C9.71431 25.9118 9.53028 26.0709 9.32208 26.18C9.11388 26.2891 8.88665 26.3456 8.65662 26.3454H7.80037C7.49665 26.3454 7.19953 26.2466 6.94533 26.0612C6.69114 25.8759 6.49091 25.6119 6.36912 25.3016L4.31599 20.9798C5.19763 21.0043 6.07896 21.0415 6.95974 21.0913C7.47068 21.121 7.97537 21.1558 8.46912 21.1959Z" fill="#229EEB"/>
</g>
<defs>
<clipPath id="clip0_1082_14706">
<rect width="25" height="27.8822" fill="white" transform="translate(0.0472412 0.0297852)"/>
</clipPath>
</defs>
</svg>
