<svg width="26" height="29" viewBox="0 0 26 29" fill="none" xmlns="http://www.w3.org/2000/svg">
<g id="file-earmark-fill" clip-path="url(#clip0_1082_12977)">
<path id="Vector" d="M5.88422 0.466797H15.2961C15.7676 0.466896 16.2198 0.650559 16.5532 0.97739L23.1449 7.43735C23.4784 7.76408 23.6658 8.20725 23.6659 8.66939V24.8637C23.6659 25.7881 23.2912 26.6746 22.6243 27.3282C21.9573 27.9818 21.0528 28.349 20.1096 28.349H5.88422C4.94102 28.349 4.03645 27.9818 3.36951 27.3282C2.70256 26.6746 2.32788 25.7881 2.32788 24.8637V3.95207C2.32788 3.02772 2.70256 2.14123 3.36951 1.48761C4.03645 0.833995 4.94102 0.466797 5.88422 0.466797ZM15.6641 3.08075V6.56603C15.6641 7.02821 15.8515 7.47145 16.185 7.79826C16.5184 8.12507 16.9707 8.30867 17.4423 8.30867H20.9986L15.6641 3.08075Z" fill="#229EEB"/>
</g>
<defs>
<clipPath id="clip0_1082_12977">
<rect width="25.5096" height="27.8822" fill="white" transform="translate(0.242188 0.466797)"/>
</clipPath>
</defs>
</svg>
