<svg width="26" height="26" viewBox="0 0 26 26" fill="none" xmlns="http://www.w3.org/2000/svg">
<g id="share-fill" clip-path="url(#clip0_1082_14708)">
<path id="Vector" d="M17.2349 4.34766C17.2348 3.43115 17.557 2.54378 18.145 1.8408C18.7331 1.13782 19.5496 0.664008 20.4517 0.502248C21.3539 0.340488 22.2841 0.501086 23.0798 0.955944C23.8755 1.4108 24.4859 2.13095 24.8042 2.99041C25.1226 3.84986 25.1285 4.79388 24.8212 5.6573C24.5138 6.52073 23.9126 7.24858 23.1227 7.71351C22.3329 8.17844 21.4047 8.35084 20.5006 8.20055C19.5965 8.05026 18.774 7.58686 18.1771 6.89141L7.68023 11.7664C7.92154 12.5312 7.92154 13.3517 7.68023 14.1164L18.1771 18.9914C18.8081 18.2575 19.6891 17.7841 20.6493 17.6627C21.6095 17.5414 22.5805 17.7809 23.3743 18.3347C24.168 18.8885 24.7278 19.7173 24.9453 20.6604C25.1628 21.6034 25.0225 22.5937 24.5515 23.4392C24.0805 24.2847 23.3123 24.9252 22.396 25.2367C21.4796 25.5481 20.4803 25.5083 19.5916 25.1249C18.7029 24.7415 17.9882 24.0418 17.586 23.1615C17.1838 22.2812 17.1227 21.2829 17.4146 20.3602L6.91772 15.4852C6.39809 16.0907 5.70546 16.5226 4.933 16.7228C4.16055 16.9229 3.34533 16.8817 2.597 16.6047C1.84868 16.3276 1.20315 15.828 0.747267 15.1731C0.291379 14.5182 0.0469971 13.7394 0.0469971 12.9414C0.0469971 12.1434 0.291379 11.3646 0.747267 10.7097C1.20315 10.0548 1.84868 9.55521 2.597 9.27816C3.34533 9.00111 4.16055 8.95988 4.933 9.16002C5.70546 9.36017 6.39809 9.79208 6.91772 10.3977L17.4146 5.52266C17.2951 5.14245 17.2345 4.7462 17.2349 4.34766Z" fill="#229EEB"/>
</g>
<defs>
<clipPath id="clip0_1082_14708">
<rect width="25" height="25" fill="white" transform="translate(0.0472412 0.441406)"/>
</clipPath>
</defs>
</svg>
