<svg width="26" height="29" viewBox="0 0 26 29" fill="none" xmlns="http://www.w3.org/2000/svg">
<g id="file-earmark-fill" clip-path="url(#clip0_1082_11309)">
<path id="Vector" d="M23.666 8.30821V24.8633C23.666 25.7877 23.2913 26.6742 22.6244 27.3278C21.9574 27.9814 21.0529 28.3486 20.1097 28.3486H5.88433C4.94114 28.3486 4.03657 27.9814 3.36963 27.3278C2.70269 26.6742 2.328 25.7877 2.328 24.8633V3.9516C2.328 3.02724 2.70269 2.14075 3.36963 1.48713C4.03657 0.833508 4.94114 0.466309 5.88433 0.466309L15.6642 0.466309L23.666 8.30821ZM18.3315 8.30821C17.6241 8.30821 16.9457 8.03281 16.4455 7.5426C15.9453 7.05238 15.6642 6.38751 15.6642 5.69424V2.20895H5.88433C5.41273 2.20895 4.96045 2.39255 4.62698 2.71936C4.29351 3.04617 4.10617 3.48942 4.10617 3.9516V24.8633C4.10617 25.3255 4.29351 25.7688 4.62698 26.0956C4.96045 26.4224 5.41273 26.606 5.88433 26.606H20.1097C20.5813 26.606 21.0335 26.4224 21.367 26.0956C21.7005 25.7688 21.8878 25.3255 21.8878 24.8633V8.30821H18.3315Z" fill="#229EEB"/>
</g>
<defs>
<clipPath id="clip0_1082_11309">
<rect width="25.5096" height="27.8822" fill="white" transform="translate(0.242188 0.466309)"/>
</clipPath>
</defs>
</svg>
