<svg width="256" height="66" viewBox="0 0 256 66" fill="none" xmlns="http://www.w3.org/2000/svg">
    <rect x="0.5" y="0.5" width="255" height="65" rx="18.5" stroke="black"/>
    <path d="M91.8562 41L92.3062 37.094H90.7762V35.384H92.5222L92.8282 32.918H91.1902V31.208H93.0442L93.4762 27.734H95.0242L94.5922 31.208H96.8782L97.3102 27.734H98.8762L98.4442 31.208H100.064V32.918H98.2462L97.9222 35.384H99.6682V37.094H97.7242L97.2562 41H95.6902L96.1402 37.094H93.8902L93.4042 41H91.8562ZM94.0702 35.384H96.3562L96.6622 32.918H94.3762L94.0702 35.384ZM107.729 35.312H110.105V37.832H107.729V35.312ZM101.411 33.872H116.477V35.762H101.411V33.872ZM103.085 37.166H114.659V42.602H112.265V39.056H103.085V37.166ZM103.337 26.348H105.695V27.824H112.193V26.348H114.569V32.792H103.337V26.348ZM105.695 29.606V30.92H112.193V29.606H105.695ZM121.822 27.59H123.766V28.652C123.766 31.784 122.29 34.682 119.086 35.726L117.88 33.836C120.634 32.936 121.822 30.74 121.822 28.652V27.59ZM122.326 27.59H124.252V28.652C124.252 30.596 125.386 32.648 128.014 33.53L126.844 35.402C123.748 34.376 122.326 31.604 122.326 28.652V27.59ZM127.042 29.912H130.21V31.856H127.042V29.912ZM118.528 26.852H127.492V28.742H118.528V26.852ZM120.562 36.608H131.92V42.602H129.526V38.516H120.562V36.608ZM129.526 25.934H131.92V35.852H129.526V25.934ZM134.511 28.436H142.485V30.344H134.511V28.436ZM138.525 31.082C140.649 31.082 142.179 32.72 142.179 35.06C142.179 37.382 140.649 39.02 138.525 39.02C136.419 39.02 134.871 37.382 134.871 35.06C134.871 32.72 136.419 31.082 138.525 31.082ZM138.525 33.08C137.625 33.08 136.995 33.8 136.995 35.06C136.995 36.32 137.625 37.022 138.525 37.022C139.425 37.022 140.073 36.32 140.073 35.06C140.073 33.8 139.425 33.08 138.525 33.08ZM146.571 25.934H148.857V42.602H146.571V25.934ZM144.573 32.702H147.327V34.628H144.573V32.702ZM143.079 26.24H145.311V41.9H143.079V26.24ZM137.355 26.384H139.713V29.642H137.355V26.384ZM154.417 34.394H156.793V39.074H154.417V34.394ZM160.465 34.394H162.859V39.074H160.465V34.394ZM151.105 38.732H166.189V40.676H151.105V38.732ZM158.629 26.744C162.211 26.744 164.857 28.508 164.857 31.226C164.857 33.944 162.211 35.69 158.629 35.69C155.029 35.69 152.401 33.944 152.401 31.226C152.401 28.508 155.029 26.744 158.629 26.744ZM158.629 28.616C156.307 28.616 154.759 29.57 154.759 31.226C154.759 32.864 156.307 33.836 158.629 33.836C160.951 33.836 162.499 32.864 162.499 31.226C162.499 29.57 160.951 28.616 158.629 28.616Z" fill="black"/>
</svg>
