<svg width="256" height="66" viewBox="0 0 256 66" fill="none" xmlns="http://www.w3.org/2000/svg">
    <rect x="0.5" y="0.5" width="255" height="65" rx="18.5" stroke="black"/>
    <path d="M91.8562 41L92.3062 37.094H90.7762V35.384H92.5222L92.8282 32.918H91.1902V31.208H93.0442L93.4762 27.734H95.0242L94.5922 31.208H96.8782L97.3102 27.734H98.8762L98.4442 31.208H100.064V32.918H98.2462L97.9222 35.384H99.6682V37.094H97.7242L97.2562 41H95.6902L96.1402 37.094H93.8902L93.4042 41H91.8562ZM94.0702 35.384H96.3562L96.6622 32.918H94.3762L94.0702 35.384ZM112.139 25.952H114.533V38.408H112.139V25.952ZM113.849 31.028H116.747V32.99H113.849V31.028ZM101.411 27.68H111.221V29.552H101.411V27.68ZM106.325 30.146C108.719 30.146 110.411 31.46 110.411 33.368C110.411 35.276 108.719 36.572 106.325 36.572C103.913 36.572 102.221 35.276 102.221 33.368C102.221 31.46 103.913 30.146 106.325 30.146ZM106.325 31.964C105.263 31.964 104.525 32.468 104.525 33.368C104.525 34.268 105.263 34.754 106.325 34.754C107.387 34.754 108.125 34.268 108.125 33.368C108.125 32.468 107.387 31.964 106.325 31.964ZM105.119 25.916H107.513V28.598H105.119V25.916ZM103.787 40.406H115.127V42.314H103.787V40.406ZM103.787 37.472H106.181V41.234H103.787V37.472ZM121.714 26.96H123.676V28.76C123.676 32.072 122.182 34.916 118.996 36.014L117.718 34.142C120.544 33.242 121.714 31.01 121.714 28.76V26.96ZM122.182 26.96H124.126V28.778C124.126 30.866 125.26 32.954 127.942 33.836L126.718 35.69C123.622 34.664 122.182 31.91 122.182 28.778V26.96ZM128.698 25.934H131.092V38.12H128.698V25.934ZM130.408 30.758H133.306V32.738H130.408V30.758ZM120.346 40.406H131.686V42.314H120.346V40.406ZM120.346 36.968H122.758V41.414H120.346V36.968ZM134.511 28.436H142.485V30.344H134.511V28.436ZM138.525 31.082C140.649 31.082 142.179 32.72 142.179 35.06C142.179 37.382 140.649 39.02 138.525 39.02C136.419 39.02 134.871 37.382 134.871 35.06C134.871 32.72 136.419 31.082 138.525 31.082ZM138.525 33.08C137.625 33.08 136.995 33.8 136.995 35.06C136.995 36.32 137.625 37.022 138.525 37.022C139.425 37.022 140.073 36.32 140.073 35.06C140.073 33.8 139.425 33.08 138.525 33.08ZM146.571 25.934H148.857V42.602H146.571V25.934ZM144.573 32.702H147.327V34.628H144.573V32.702ZM143.079 26.24H145.311V41.9H143.079V26.24ZM137.355 26.384H139.713V29.642H137.355V26.384ZM154.417 34.394H156.793V39.074H154.417V34.394ZM160.465 34.394H162.859V39.074H160.465V34.394ZM151.105 38.732H166.189V40.676H151.105V38.732ZM158.629 26.744C162.211 26.744 164.857 28.508 164.857 31.226C164.857 33.944 162.211 35.69 158.629 35.69C155.029 35.69 152.401 33.944 152.401 31.226C152.401 28.508 155.029 26.744 158.629 26.744ZM158.629 28.616C156.307 28.616 154.759 29.57 154.759 31.226C154.759 32.864 156.307 33.836 158.629 33.836C160.951 33.836 162.499 32.864 162.499 31.226C162.499 29.57 160.951 28.616 158.629 28.616Z" fill="black"/>
</svg>
