<svg width="256" height="66" viewBox="0 0 256 66" fill="none" xmlns="http://www.w3.org/2000/svg">
    <rect x="0.5" y="0.5" width="255" height="65" rx="18.5" stroke="black"/>
    <path d="M91.8562 41L92.3062 37.094H90.7762V35.384H92.5222L92.8282 32.918H91.1902V31.208H93.0442L93.4762 27.734H95.0242L94.5922 31.208H96.8782L97.3102 27.734H98.8762L98.4442 31.208H100.064V32.918H98.2462L97.9222 35.384H99.6682V37.094H97.7242L97.2562 41H95.6902L96.1402 37.094H93.8902L93.4042 41H91.8562ZM94.0702 35.384H96.3562L96.6622 32.918H94.3762L94.0702 35.384ZM108.953 28.256H113.849V30.164H108.953V28.256ZM108.953 32.306H113.849V34.214H108.953V32.306ZM112.967 25.952H115.361V38.138H112.967V25.952ZM104.363 40.406H115.739V42.314H104.363V40.406ZM104.363 36.932H106.757V41.396H104.363V36.932ZM106.019 26.924C108.485 26.924 110.411 28.724 110.411 31.244C110.411 33.728 108.485 35.546 106.019 35.546C103.535 35.546 101.609 33.728 101.609 31.244C101.609 28.724 103.535 26.924 106.019 26.924ZM106.019 29.03C104.795 29.03 103.895 29.858 103.895 31.244C103.895 32.63 104.795 33.458 106.019 33.458C107.225 33.458 108.143 32.63 108.143 31.244C108.143 29.858 107.225 29.03 106.019 29.03ZM119.698 26.906H130.156V28.796H119.698V26.906ZM117.988 33.998H133.054V35.924H117.988V33.998ZM124.234 35.348H126.646V42.62H124.234V35.348ZM128.932 26.906H131.29V28.382C131.29 30.182 131.29 32.198 130.642 35.15L128.284 34.88C128.932 32.09 128.932 30.11 128.932 28.382V26.906ZM134.511 28.436H142.485V30.344H134.511V28.436ZM138.525 31.082C140.649 31.082 142.179 32.72 142.179 35.06C142.179 37.382 140.649 39.02 138.525 39.02C136.419 39.02 134.871 37.382 134.871 35.06C134.871 32.72 136.419 31.082 138.525 31.082ZM138.525 33.08C137.625 33.08 136.995 33.8 136.995 35.06C136.995 36.32 137.625 37.022 138.525 37.022C139.425 37.022 140.073 36.32 140.073 35.06C140.073 33.8 139.425 33.08 138.525 33.08ZM146.571 25.934H148.857V42.602H146.571V25.934ZM144.573 32.702H147.327V34.628H144.573V32.702ZM143.079 26.24H145.311V41.9H143.079V26.24ZM137.355 26.384H139.713V29.642H137.355V26.384ZM154.417 34.394H156.793V39.074H154.417V34.394ZM160.465 34.394H162.859V39.074H160.465V34.394ZM151.105 38.732H166.189V40.676H151.105V38.732ZM158.629 26.744C162.211 26.744 164.857 28.508 164.857 31.226C164.857 33.944 162.211 35.69 158.629 35.69C155.029 35.69 152.401 33.944 152.401 31.226C152.401 28.508 155.029 26.744 158.629 26.744ZM158.629 28.616C156.307 28.616 154.759 29.57 154.759 31.226C154.759 32.864 156.307 33.836 158.629 33.836C160.951 33.836 162.499 32.864 162.499 31.226C162.499 29.57 160.951 28.616 158.629 28.616Z" fill="black"/>
</svg>
