<svg width="256" height="66" viewBox="0 0 256 66" fill="none" xmlns="http://www.w3.org/2000/svg">
    <rect x="0.5" y="0.5" width="255" height="65" rx="18.5" stroke="black"/>
    <path d="M91.8562 41L92.3062 37.094H90.7762V35.384H92.5222L92.8282 32.918H91.1902V31.208H93.0442L93.4762 27.734H95.0242L94.5922 31.208H96.8782L97.3102 27.734H98.8762L98.4442 31.208H100.064V32.918H98.2462L97.9222 35.384H99.6682V37.094H97.7242L97.2562 41H95.6902L96.1402 37.094H93.8902L93.4042 41H91.8562ZM94.0702 35.384H96.3562L96.6622 32.918H94.3762L94.0702 35.384ZM112.823 25.934H115.181V34.52H112.823V25.934ZM113.597 29.138H116.765V31.082H113.597V29.138ZM101.573 26.636H103.517V28.49H104.507V26.636H106.451V33.998H101.573V26.636ZM103.517 30.29V32.126H104.507V30.29H103.517ZM107.099 26.636H109.043V28.49H109.997V26.636H111.941V33.998H107.099V26.636ZM109.043 30.29V32.126H109.997V30.29H109.043ZM103.787 35.114H115.181V39.614H106.181V41.576H103.823V37.904H112.805V36.95H103.787V35.114ZM103.823 40.64H115.703V42.494H103.823V40.64ZM129.454 25.916H131.848V42.638H129.454V25.916ZM118.87 36.806H120.346C123.298 36.806 125.656 36.698 128.302 36.248L128.536 38.174C125.836 38.66 123.388 38.75 120.346 38.75H118.87V36.806ZM118.852 27.338H126.718V33.782H121.3V37.526H118.87V31.892H124.27V29.246H118.852V27.338ZM134.511 28.436H142.485V30.344H134.511V28.436ZM138.525 31.082C140.649 31.082 142.179 32.72 142.179 35.06C142.179 37.382 140.649 39.02 138.525 39.02C136.419 39.02 134.871 37.382 134.871 35.06C134.871 32.72 136.419 31.082 138.525 31.082ZM138.525 33.08C137.625 33.08 136.995 33.8 136.995 35.06C136.995 36.32 137.625 37.022 138.525 37.022C139.425 37.022 140.073 36.32 140.073 35.06C140.073 33.8 139.425 33.08 138.525 33.08ZM146.571 25.934H148.857V42.602H146.571V25.934ZM144.573 32.702H147.327V34.628H144.573V32.702ZM143.079 26.24H145.311V41.9H143.079V26.24ZM137.355 26.384H139.713V29.642H137.355V26.384ZM154.417 34.394H156.793V39.074H154.417V34.394ZM160.465 34.394H162.859V39.074H160.465V34.394ZM151.105 38.732H166.189V40.676H151.105V38.732ZM158.629 26.744C162.211 26.744 164.857 28.508 164.857 31.226C164.857 33.944 162.211 35.69 158.629 35.69C155.029 35.69 152.401 33.944 152.401 31.226C152.401 28.508 155.029 26.744 158.629 26.744ZM158.629 28.616C156.307 28.616 154.759 29.57 154.759 31.226C154.759 32.864 156.307 33.836 158.629 33.836C160.951 33.836 162.499 32.864 162.499 31.226C162.499 29.57 160.951 28.616 158.629 28.616Z" fill="black"/>
</svg>
