<svg width="256" height="66" viewBox="0 0 256 66" fill="none" xmlns="http://www.w3.org/2000/svg">
    <rect x="0.5" y="0.5" width="255" height="65" rx="18.5" stroke="black"/>
    <path d="M91.8562 41L92.3062 37.094H90.7762V35.384H92.5222L92.8282 32.918H91.1902V31.208H93.0442L93.4762 27.734H95.0242L94.5922 31.208H96.8782L97.3102 27.734H98.8762L98.4442 31.208H100.064V32.918H98.2462L97.9222 35.384H99.6682V37.094H97.7242L97.2562 41H95.6902L96.1402 37.094H93.8902L93.4042 41H91.8562ZM94.0702 35.384H96.3562L96.6622 32.918H94.3762L94.0702 35.384ZM105.461 27.374H107.423V28.4C107.423 31.388 105.875 34.088 102.671 35.06L101.465 33.188C104.255 32.378 105.461 30.362 105.461 28.4V27.374ZM105.947 27.374H107.909V28.4C107.909 30.254 109.115 32.144 111.815 32.918L110.645 34.772C107.495 33.854 105.947 31.28 105.947 28.4V27.374ZM102.113 26.834H111.185V28.724H102.113V26.834ZM112.859 25.934H115.271V34.97H112.859V25.934ZM104.183 35.69H106.541V37.202H112.895V35.69H115.271V42.422H104.183V35.69ZM106.541 39.056V40.514H112.895V39.056H106.541ZM124.306 34.304H126.7V37.238H124.306V34.304ZM117.97 33.512H133.036V35.402H117.97V33.512ZM125.476 36.59C129.076 36.59 131.254 37.67 131.254 39.596C131.254 41.522 129.076 42.602 125.476 42.602C121.858 42.602 119.68 41.522 119.68 39.596C119.68 37.67 121.858 36.59 125.476 36.59ZM125.476 38.39C123.244 38.39 122.11 38.768 122.11 39.596C122.11 40.406 123.244 40.802 125.476 40.802C127.708 40.802 128.842 40.406 128.842 39.596C128.842 38.768 127.708 38.39 125.476 38.39ZM123.856 27.5H125.98V27.914C125.98 30.416 123.73 32.468 119.428 32.864L118.6 30.992C122.254 30.686 123.856 29.21 123.856 27.914V27.5ZM125.026 27.5H127.15V27.914C127.15 29.228 128.734 30.686 132.406 30.992L131.578 32.864C127.294 32.468 125.026 30.434 125.026 27.914V27.5ZM119.338 26.618H131.686V28.508H119.338V26.618ZM134.511 28.436H142.485V30.344H134.511V28.436ZM138.525 31.082C140.649 31.082 142.179 32.72 142.179 35.06C142.179 37.382 140.649 39.02 138.525 39.02C136.419 39.02 134.871 37.382 134.871 35.06C134.871 32.72 136.419 31.082 138.525 31.082ZM138.525 33.08C137.625 33.08 136.995 33.8 136.995 35.06C136.995 36.32 137.625 37.022 138.525 37.022C139.425 37.022 140.073 36.32 140.073 35.06C140.073 33.8 139.425 33.08 138.525 33.08ZM146.571 25.934H148.857V42.602H146.571V25.934ZM144.573 32.702H147.327V34.628H144.573V32.702ZM143.079 26.24H145.311V41.9H143.079V26.24ZM137.355 26.384H139.713V29.642H137.355V26.384ZM154.417 34.394H156.793V39.074H154.417V34.394ZM160.465 34.394H162.859V39.074H160.465V34.394ZM151.105 38.732H166.189V40.676H151.105V38.732ZM158.629 26.744C162.211 26.744 164.857 28.508 164.857 31.226C164.857 33.944 162.211 35.69 158.629 35.69C155.029 35.69 152.401 33.944 152.401 31.226C152.401 28.508 155.029 26.744 158.629 26.744ZM158.629 28.616C156.307 28.616 154.759 29.57 154.759 31.226C154.759 32.864 156.307 33.836 158.629 33.836C160.951 33.836 162.499 32.864 162.499 31.226C162.499 29.57 160.951 28.616 158.629 28.616Z" fill="black"/>
</svg>
