<svg width="256" height="66" viewBox="0 0 256 66" fill="none" xmlns="http://www.w3.org/2000/svg">
    <rect x="0.5" y="0.5" width="255" height="65" rx="18.5" stroke="black"/>
    <path d="M91.8562 41L92.3062 37.094H90.7762V35.384H92.5222L92.8282 32.918H91.1902V31.208H93.0442L93.4762 27.734H95.0242L94.5922 31.208H96.8782L97.3102 27.734H98.8762L98.4442 31.208H100.064V32.918H98.2462L97.9222 35.384H99.6682V37.094H97.7242L97.2562 41H95.6902L96.1402 37.094H93.8902L93.4042 41H91.8562ZM94.0702 35.384H96.3562L96.6622 32.918H94.3762L94.0702 35.384ZM101.429 38.696H116.513V40.658H101.429V38.696ZM107.693 34.988H110.069V39.218H107.693V34.988ZM107.603 26.852H109.691V28.058C109.691 31.604 107.117 34.736 102.761 35.528L101.771 33.53C105.569 32.918 107.603 30.362 107.603 28.058V26.852ZM108.071 26.852H110.159V28.058C110.159 30.416 112.193 32.918 116.009 33.53L115.019 35.528C110.645 34.718 108.071 31.658 108.071 28.058V26.852ZM117.952 34.52H133.036V36.392H117.952V34.52ZM124.288 32.738H126.682V35.204H124.288V32.738ZM119.824 31.694H131.434V33.512H119.824V31.694ZM119.824 26.348H131.308V28.166H122.2V32.72H119.824V26.348ZM121.534 29.048H130.93V30.794H121.534V29.048ZM125.476 37.13C129.13 37.13 131.254 38.102 131.254 39.866C131.254 41.648 129.13 42.602 125.476 42.602C121.804 42.602 119.68 41.648 119.68 39.866C119.68 38.102 121.804 37.13 125.476 37.13ZM125.476 38.894C123.154 38.894 122.092 39.182 122.092 39.866C122.092 40.568 123.154 40.856 125.476 40.856C127.78 40.856 128.842 40.568 128.842 39.866C128.842 39.182 127.78 38.894 125.476 38.894ZM134.511 28.436H142.485V30.344H134.511V28.436ZM138.525 31.082C140.649 31.082 142.179 32.72 142.179 35.06C142.179 37.382 140.649 39.02 138.525 39.02C136.419 39.02 134.871 37.382 134.871 35.06C134.871 32.72 136.419 31.082 138.525 31.082ZM138.525 33.08C137.625 33.08 136.995 33.8 136.995 35.06C136.995 36.32 137.625 37.022 138.525 37.022C139.425 37.022 140.073 36.32 140.073 35.06C140.073 33.8 139.425 33.08 138.525 33.08ZM146.571 25.934H148.857V42.602H146.571V25.934ZM144.573 32.702H147.327V34.628H144.573V32.702ZM143.079 26.24H145.311V41.9H143.079V26.24ZM137.355 26.384H139.713V29.642H137.355V26.384ZM154.417 34.394H156.793V39.074H154.417V34.394ZM160.465 34.394H162.859V39.074H160.465V34.394ZM151.105 38.732H166.189V40.676H151.105V38.732ZM158.629 26.744C162.211 26.744 164.857 28.508 164.857 31.226C164.857 33.944 162.211 35.69 158.629 35.69C155.029 35.69 152.401 33.944 152.401 31.226C152.401 28.508 155.029 26.744 158.629 26.744ZM158.629 28.616C156.307 28.616 154.759 29.57 154.759 31.226C154.759 32.864 156.307 33.836 158.629 33.836C160.951 33.836 162.499 32.864 162.499 31.226C162.499 29.57 160.951 28.616 158.629 28.616Z" fill="black"/>
</svg>
