<svg width="23" height="23" viewBox="0 0 23 23" fill="none" xmlns="http://www.w3.org/2000/svg">
    <g clip-path="url(#clip0_1082_9680)">
        <path d="M11.5311 3.8313L10.5452 2.81793C8.23111 0.439176 3.98786 1.26005 2.45611 4.25068C1.73698 5.6573 1.57473 7.68818 2.88786 10.2801C4.15286 12.7757 6.78461 15.7649 11.5311 19.0209C16.2776 15.7649 18.908 12.7757 20.1744 10.2801C21.4875 7.6868 21.3266 5.6573 20.6061 4.25068C19.0744 1.26005 14.8311 0.437801 12.517 2.81655L11.5311 3.8313ZM11.5311 20.6778C-9.55177 6.7463 5.03973 -4.1272 11.2891 1.62443C11.3716 1.70005 11.4527 1.77843 11.5311 1.85955C11.6087 1.7785 11.6894 1.70052 11.7731 1.6258C18.0211 -4.12995 32.614 6.74493 11.5311 20.6778Z" fill="white"/>
    </g>
    <defs>
        <clipPath id="clip0_1082_9680">
            <rect width="22" height="22" fill="white" transform="translate(0.53125 0.0527344)"/>
        </clipPath>
    </defs>
</svg>
