<svg width="182" height="49" viewBox="0 0 182 49" fill="none" xmlns="http://www.w3.org/2000/svg">
    <rect x="0.5" y="0.5" width="181" height="48" rx="8.5" stroke="black"/>
    <path d="M63.4133 28.966V25.078H59.7773V23.566H63.4133V19.678H65.0153V23.566H68.6693V25.078H65.0153V28.966H63.4133ZM75.0218 26.932H76.3178C79.3058 26.932 81.2498 26.86 83.4638 26.446L83.6618 27.976C81.3578 28.408 79.3778 28.498 76.3178 28.498H75.0218V26.932ZM75.0218 17.554H82.4918V19.084H76.9118V27.526H75.0218V17.554ZM86.0018 16.042H87.8918V32.53H86.0018V16.042ZM81.5918 21.874H86.7938V23.422H81.5918V21.874ZM90.7884 28.93H105.692V30.478H90.7884V28.93ZM97.2684 25.186H99.1404V29.344H97.2684V25.186ZM92.4444 17.158H94.3344V19.912H102.092V17.158H103.964V25.636H92.4444V17.158ZM94.3344 21.406V24.106H102.092V21.406H94.3344ZM119.029 16.042H120.919V32.494H119.029V16.042ZM114.205 17.788H116.059C116.059 22.666 114.115 26.806 108.463 29.56L107.473 28.048C112.207 25.762 114.205 22.504 114.205 18.112V17.788ZM108.283 17.788H115.051V19.3H108.283V17.788Z" fill="black"/>
</svg>
