<svg width="400" height="351" viewBox="0 0 400 351" fill="none" xmlns="http://www.w3.org/2000/svg">
<mask id="mask0_592_17846" style="mask-type:luminance" maskUnits="userSpaceOnUse" x="-1" y="0" width="401" height="351">
<path d="M400 0.981323H-0.000488281V350.981H400V0.981323Z" fill="white"/>
</mask>
<g mask="url(#mask0_592_17846)">
<path d="M328.84 159.226H328.839C289.935 159.226 258.396 190.764 258.396 229.669V446.146C258.396 485.05 289.935 516.588 328.839 516.588H328.84C367.744 516.588 399.282 485.05 399.282 446.146V229.669C399.282 190.764 367.744 159.226 328.84 159.226Z" fill="#88D159"/>
<path d="M328.839 176.886C328.839 157.434 313.07 141.665 293.618 141.665C274.165 141.665 258.396 157.434 258.396 176.886V269.2C258.396 288.652 274.165 304.421 293.618 304.421C313.07 304.421 328.839 288.652 328.839 269.2V176.886Z" fill="#88D159"/>
<path d="M399.148 176.886C399.148 157.434 383.379 141.665 363.927 141.665C344.475 141.665 328.706 157.434 328.706 176.886V269.2C328.706 288.652 344.475 304.421 363.927 304.421C383.379 304.421 399.148 288.652 399.148 269.2V176.886Z" fill="#88D159"/>
<path d="M331.722 240.951C331.722 251.543 340.308 260.129 350.9 260.129C361.492 260.129 370.078 251.543 370.078 240.951V219.76C370.078 209.168 361.492 200.582 350.9 200.582C340.308 200.582 331.722 209.168 331.722 219.76V240.951Z" fill="#EEEEEF"/>
<path d="M293.366 240.951C293.366 251.543 301.952 260.129 312.544 260.129C323.136 260.129 331.722 251.543 331.722 240.951V219.76C331.722 209.168 323.136 200.582 312.544 200.582C301.952 200.582 293.366 209.168 293.366 219.76V240.951Z" fill="#EEEEEF"/>
<path d="M302.388 235.736C302.388 241.344 306.934 245.89 312.542 245.89C318.15 245.89 322.696 241.344 322.696 235.736V224.976C322.696 219.368 318.15 214.822 312.542 214.822C306.934 214.822 302.388 219.368 302.388 224.976V235.736Z" fill="#73BF41"/>
<path d="M340.746 235.736C340.746 241.344 345.292 245.89 350.9 245.89C356.508 245.89 361.054 241.344 361.054 235.736V224.976C361.054 219.368 356.508 214.822 350.9 214.822C345.292 214.822 340.746 219.368 340.746 224.976V235.736Z" fill="#73BF41"/>
<path d="M375.857 153.688C375.857 153.688 388.707 159.491 389.744 172.135" stroke="#EEEEEF" stroke-width="3" stroke-miterlimit="10" stroke-linecap="round"/>
<path d="M354.161 268.639H294.21C288.816 268.639 284.443 273.011 284.443 278.405C284.443 283.798 288.816 288.171 294.21 288.171H354.161C359.555 288.171 363.928 283.798 363.928 278.405C363.928 273.011 359.555 268.639 354.161 268.639Z" stroke="#EEEEEF" stroke-width="3" stroke-miterlimit="10" stroke-linecap="round"/>
<path d="M148.508 15.4228C148.508 34.8749 164.277 50.6439 183.729 50.6439C203.181 50.6439 218.95 34.8749 218.95 15.4228V-60.7273C218.95 -80.1794 203.181 -95.9484 183.729 -95.9484C164.277 -95.9484 148.508 -80.1794 148.508 -60.7273V15.4228Z" fill="#1189D3"/>
<path d="M218.816 84.9557H218.817C257.721 84.9557 289.259 53.4177 289.259 14.5135V14.5119C289.259 -24.3922 257.721 -55.9302 218.817 -55.9302H218.816C179.911 -55.9302 148.373 -24.3922 148.373 14.5119V14.5135C148.373 53.4177 179.911 84.9557 218.816 84.9557Z" fill="#409DE2"/>
<path d="M218.816 203.15H218.817C257.721 203.15 289.259 171.612 289.259 132.708V132.706C289.259 93.8021 257.721 62.264 218.817 62.264H218.816C179.911 62.264 148.373 93.8021 148.373 132.706V132.708C148.373 171.612 179.911 203.15 218.816 203.15Z" fill="#409DE2"/>
<path d="M219.07 15.4228C219.07 34.8749 234.839 50.6439 254.291 50.6439C273.743 50.6439 289.512 34.8749 289.512 15.4228V-60.7273C289.512 -80.1794 273.743 -95.9484 254.291 -95.9484C234.839 -95.9484 219.07 -80.1794 219.07 -60.7273V15.4228Z" fill="#409DE2"/>
<path d="M215.934 128.429C215.934 117.837 207.348 109.251 196.756 109.251C186.164 109.251 177.578 117.837 177.578 128.429V149.62C177.578 160.211 186.164 168.798 196.756 168.798C207.348 168.798 215.934 160.211 215.934 149.62V128.429Z" fill="#EEEEEF"/>
<path d="M254.291 128.429C254.291 117.837 245.705 109.251 235.113 109.251C224.522 109.251 215.936 117.837 215.936 128.429V149.62C215.936 160.211 224.522 168.798 235.113 168.798C245.705 168.798 254.291 160.211 254.291 149.62V128.429Z" fill="#EEEEEF"/>
<path d="M236.243 133.643C236.243 128.036 231.697 123.49 226.089 123.49C220.482 123.49 215.936 128.036 215.936 133.643V144.403C215.936 150.011 220.482 154.557 226.089 154.557C231.697 154.557 236.243 150.011 236.243 144.403V133.643Z" fill="#1189D3"/>
<path d="M197.886 133.643C197.886 128.036 193.34 123.49 187.732 123.49C182.124 123.49 177.578 128.036 177.578 133.643V144.403C177.578 150.011 182.124 154.557 187.732 154.557C193.34 154.557 197.886 150.011 197.886 144.403V133.643Z" fill="#1189D3"/>
<path d="M289.513 127.831C304.657 127.831 316.934 115.554 316.934 100.409C316.934 85.2648 304.657 72.9878 289.513 72.9878C274.368 72.9878 262.091 85.2648 262.091 100.409C262.091 115.554 274.368 127.831 289.513 127.831Z" fill="#409DE2"/>
<path d="M160.115 114.779C160.115 114.779 161.509 98.7979 174.133 89.3542" stroke="#EEEEEF" stroke-width="3" stroke-miterlimit="10" stroke-linecap="round"/>
<path d="M177.578 139.671V150.266C177.578 160.814 186.209 169.444 196.756 169.444C207.303 169.444 215.934 160.814 215.934 150.266V139.671H177.578Z" fill="#A4D8FF"/>
<path d="M215.936 150.268C215.936 160.815 224.566 169.446 235.113 169.446C245.661 169.446 254.291 160.815 254.291 150.268V139.673H215.936V150.268Z" fill="#A4D8FF"/>
<path d="M284.736 104.604L284.737 104.605C312.247 132.115 356.848 132.115 384.357 104.605L464.016 24.9466C491.526 -2.56276 491.526 -47.1643 464.016 -74.6736L464.015 -74.6748C436.506 -102.184 391.904 -102.184 364.395 -74.6748L284.736 4.98402C257.227 32.4934 257.227 77.0949 284.736 104.604Z" fill="#FF7171"/>
<path d="M405.339 -15.638C391.584 -1.88334 391.584 20.4174 405.339 34.1721C419.094 47.9268 441.395 47.9268 455.149 34.1721L549.065 -59.7437C562.82 -73.4984 562.82 -95.7991 549.065 -109.554C535.31 -123.309 513.01 -123.309 499.255 -109.554L405.339 -15.638Z" fill="#FF7171"/>
<path d="M333.978 51.2889C341.467 43.7994 341.467 31.6566 333.978 24.1672C326.488 16.6777 314.346 16.6777 306.856 24.1672L291.872 39.1515C284.382 46.641 284.382 58.7838 291.872 66.2733C299.361 73.7627 311.504 73.7627 318.993 66.2733L333.978 51.2889Z" fill="#EEEEEF"/>
<path d="M361.099 78.4132C368.589 70.9237 368.589 58.7809 361.099 51.2914C353.61 43.802 341.467 43.802 333.977 51.2914L318.993 66.2758C311.504 73.7653 311.504 85.9081 318.993 93.3975C326.483 100.887 338.625 100.887 346.115 93.3975L361.099 78.4132Z" fill="#EEEEEF"/>
<path d="M340.962 85.7887C344.927 81.8233 344.927 75.3943 340.962 71.4289C336.997 67.4636 330.568 67.4636 326.602 71.4289L318.994 79.0371C315.029 83.0025 315.029 89.4316 318.994 93.3969C322.959 97.3623 329.389 97.3622 333.354 93.3969L340.962 85.7887Z" fill="#FF4545"/>
<path d="M313.84 58.6644C317.805 54.6991 317.805 48.27 313.84 44.3047C309.874 40.3393 303.445 40.3393 299.48 44.3046L291.872 51.9129C287.906 55.8782 287.906 62.3073 291.872 66.2726C295.837 70.238 302.266 70.238 306.231 66.2726L313.84 58.6644Z" fill="#FF4545"/>
<path d="M254.656 70.5385L318.804 134.687C321.556 137.438 326.018 137.438 328.77 134.687L328.771 134.685C331.523 131.933 331.523 127.472 328.771 124.72L264.623 60.5717C261.871 57.8197 257.409 57.8197 254.657 60.5717L254.656 60.5728C251.904 63.3248 251.904 67.7866 254.656 70.5385Z" fill="#FF4545"/>
<path d="M252.587 88.4016L300.942 136.757C303.694 139.509 308.156 139.509 310.908 136.757L310.909 136.756C313.661 134.004 313.661 129.542 310.909 126.79L262.554 78.4347C259.802 75.6827 255.34 75.6828 252.588 78.4347L252.587 78.4359C249.835 81.1878 249.835 85.6496 252.587 88.4016Z" fill="#FF7171"/>
<path d="M239.101 94.8481L294.497 150.244C297.249 152.996 301.71 152.996 304.462 150.244L304.464 150.243C307.215 147.491 307.215 143.029 304.464 140.277L249.068 84.8813C246.316 82.1293 241.854 82.1293 239.102 84.8813L239.101 84.8824C236.349 87.6344 236.349 92.0962 239.101 94.8481Z" fill="#FFABAB"/>
<path d="M337.205 -36.9776C340.975 -33.2076 342.346 -27.4131 340.229 -22.1541C337.412 -15.1612 329.485 -11.7602 322.484 -14.5211C321.536 -14.882 303.721 -21.3933 285.91 -10.9651C266.774 0.237045 253.469 27.8023 247.43 68.7542C246.324 76.2451 239.357 81.4225 231.865 80.3171C224.374 79.2118 219.195 72.2433 220.302 64.7524C227.754 14.2278 245.349 -19.3164 272.604 -34.9481C302.199 -51.9219 331.407 -40.4912 332.635 -39.9949C334.401 -39.2846 335.938 -38.2462 337.206 -36.9792L337.205 -36.9776Z" fill="#FF4545"/>
<path d="M426.439 52.2522C427.714 53.5274 428.758 55.0719 429.469 56.8434C429.966 58.0713 441.398 87.2806 424.424 116.875C408.791 144.13 375.248 161.726 324.724 169.176C317.231 170.282 310.263 165.103 309.159 157.613C308.054 150.121 313.233 143.152 320.722 142.049C361.674 136.009 389.239 122.706 400.443 103.57C410.932 85.6528 404.28 67.7337 403.993 66.9794C401.163 59.957 404.585 52.022 411.609 49.1958C416.86 47.0798 422.664 48.4774 426.439 52.2539V52.2522Z" fill="#FF4545"/>
<path d="M350.144 35.1222L350.145 35.1233C353.669 38.6474 359.383 38.6474 362.907 35.1233L362.908 35.1221C366.432 31.598 366.432 25.8843 362.908 22.3602L362.907 22.3591C359.383 18.835 353.669 18.835 350.145 22.3591L350.144 22.3602C346.62 25.8843 346.62 31.5981 350.144 35.1222Z" stroke="#EEEEEF" stroke-width="3" stroke-miterlimit="10" stroke-linecap="round"/>
<path d="M-18.4497 207.429C-18.4497 199.457 -11.989 192.996 -4.01645 192.996H50.4071C58.3797 192.996 64.8403 199.457 64.8403 207.429C64.8403 215.402 58.3797 221.863 50.4071 221.863H-4.01645C-11.989 221.863 -18.4497 215.402 -18.4497 207.429Z" fill="#A94ECE"/>
<path d="M194.133 99.6338C205.804 99.6338 215.265 90.1725 215.265 78.5015C215.265 66.8304 205.804 57.3691 194.133 57.3691C182.462 57.3691 173 66.8304 173 78.5015C173 90.1725 182.462 99.6338 194.133 99.6338Z" fill="#BF73D8"/>
<path d="M123.192 179.036V161.669C123.192 145.988 110.48 133.276 94.7989 133.276L-203.682 133.276C-219.363 133.276 -232.075 145.988 -232.075 161.669V179.036C-232.075 194.717 -219.363 207.429 -203.682 207.429H94.7989C110.48 207.429 123.192 194.717 123.192 179.036Z" fill="#A94ECE"/>
<path d="M178.982 137.128V129.705C178.982 90.8012 147.444 59.2632 108.54 59.2632L-7.72748 59.2632C-46.6316 59.2632 -78.1696 90.8012 -78.1696 129.705V137.128C-78.1696 176.032 -46.6316 207.57 -7.72748 207.57H108.54C147.444 207.57 178.982 176.032 178.982 137.128Z" fill="#BF73D8"/>
<path d="M123.192 104.757V87.39C123.192 71.7089 110.48 58.9969 94.7989 58.9969L-203.682 58.9969C-219.363 58.9969 -232.075 71.7089 -232.075 87.39V104.757C-232.075 120.438 -219.363 133.15 -203.682 133.15H94.7989C110.48 133.15 123.192 120.438 123.192 104.757Z" fill="#BF73D8"/>
<path d="M197.467 98.1954V94.4843C197.467 75.0322 181.698 59.2632 162.246 59.2632L61.3587 59.2632C41.9066 59.2632 26.1376 75.0322 26.1376 94.4843V98.1954C26.1376 117.647 41.9066 133.417 61.3587 133.417H162.246C181.698 133.417 197.467 117.647 197.467 98.1954Z" fill="#BF73D8"/>
<path d="M72.7637 155.628V157.649C72.7637 168.241 81.3499 176.827 91.9416 176.827H116.269C126.861 176.827 135.447 168.241 135.447 157.649V155.628C135.447 145.036 126.861 136.45 116.269 136.45H91.9416C81.3499 136.45 72.7637 145.036 72.7637 155.628Z" fill="#EEEEEF"/>
<path d="M72.7622 115.251V117.272C72.7622 127.864 81.3485 136.45 91.9402 136.45H116.268C126.859 136.45 135.446 127.864 135.446 117.272V115.251C135.446 104.659 126.859 96.0727 116.268 96.0727H91.9402C81.3485 96.0727 72.7622 104.659 72.7622 115.251Z" fill="#EEEEEF"/>
<path d="M87.752 115.728V116.797C87.752 122.405 92.298 126.951 97.9058 126.951H110.303C115.911 126.951 120.457 122.405 120.457 116.797V115.728C120.457 110.12 115.911 105.574 110.303 105.574H97.9058C92.298 105.574 87.752 110.12 87.752 115.728Z" fill="#A94ECE"/>
<path d="M87.7534 156.105V157.174C87.7534 162.782 92.2995 167.328 97.9073 167.328H110.305C115.912 167.328 120.458 162.782 120.458 157.174V156.105C120.458 150.497 115.912 145.951 110.305 145.951H97.9073C92.2995 145.951 87.7534 150.497 87.7534 156.105Z" fill="#A94ECE"/>
<path d="M64.5562 150.307C64.5562 150.307 44.4574 142.609 61.1356 135.767" stroke="#EEEEEF" stroke-width="3" stroke-miterlimit="10" stroke-linecap="round"/>
<path d="M-43.1182 61.4739C-43.1182 46.1638 -27.7494 31.3844 -21.2674 25.1523C-5.85619 10.3354 9.06525 5.35396 23.0871 10.3452C49.7445 19.8378 56.2085 62.4355 57.2338 70.8767C58.1792 78.8003 52.5577 85.9843 44.6455 86.9443C36.7366 87.9044 29.5494 82.2764 28.5795 74.374C26.6464 58.837 19.7433 39.7848 13.3985 37.5382C11.2531 36.7773 5.88961 39.086 -1.26008 45.9597C-5.98681 50.5036 -9.01387 53.965 -10.9486 56.4908C-8.4065 56.5414 -5.54597 56.4026 -3.04791 56.0516C4.83161 54.943 12.1413 60.4175 13.2695 68.2937C14.3912 76.1831 8.95586 83.4748 1.08288 84.621C-8.83264 86.0659 -32.7716 87.635 -40.9075 71.0171C-42.452 67.8611 -43.1182 64.656 -43.1182 61.4739Z" fill="#A94ECE"/>
<path d="M164.897 153.016C164.897 153.016 161.498 179.245 131.283 194.07" stroke="#EEEEEF" stroke-width="3" stroke-miterlimit="10" stroke-linecap="round"/>
<path d="M-51.2036 463.042L-47.2469 464.553C-29.0747 471.492 -8.71786 462.386 -1.77857 444.214L33.5997 351.567C40.539 333.395 31.4329 313.038 13.2607 306.099L9.30409 304.588C-8.86811 297.649 -29.225 306.755 -36.1643 324.927L-71.5425 417.573C-78.4818 435.746 -69.3758 456.102 -51.2036 463.042Z" fill="#46BCB3"/>
<path d="M-4.97897 440.729L2.9358 443.751C39.2802 457.63 79.994 439.417 93.8726 403.073L138.3 286.728C152.179 250.384 133.967 209.67 97.6224 195.791L89.7077 192.769C53.3633 178.89 12.6495 197.103 -1.2291 233.447L-45.6569 349.792C-59.5355 386.136 -41.3234 426.85 -4.97897 440.729Z" fill="#6ECEC9"/>
<path d="M18.2891 489.584L22.2457 491.095C40.4179 498.034 60.7748 488.928 67.7141 470.756L100.404 385.15C107.343 366.978 98.237 346.621 80.0648 339.682L76.1082 338.171C57.936 331.232 37.5791 340.338 30.6398 358.51L-2.04988 444.116C-8.98917 462.288 0.116919 482.645 18.2891 489.584Z" fill="#6ECEC9"/>
<path d="M42.3131 234.31L40.1578 233.487C30.263 229.708 19.1786 234.666 15.4002 244.561L6.5632 267.703C2.78474 277.598 7.74302 288.682 17.6378 292.461L19.7931 293.284C29.6879 297.062 40.7722 292.104 44.5507 282.209L53.3877 259.067C57.1661 249.172 52.2079 238.088 42.3131 234.31Z" fill="#EEEEEF"/>
<path d="M80.3004 248.815L78.1451 247.992C68.2503 244.214 57.166 249.172 53.3875 259.067L44.5505 282.209C40.7721 292.103 45.7303 303.188 55.6251 306.966L57.7804 307.789C67.6752 311.568 78.7595 306.609 82.538 296.715L91.375 273.573C95.1535 263.678 90.1952 252.594 80.3004 248.815Z" fill="#EEEEEF"/>
<path d="M65.472 259.31L64.331 258.875C59.0922 256.874 53.2235 259.499 51.2229 264.738L46.7177 276.536C44.7171 281.775 47.3423 287.644 52.5812 289.644L53.7221 290.08C58.961 292.081 64.8297 289.455 66.8302 284.217L71.3355 272.418C73.336 267.18 70.7108 261.311 65.472 259.31Z" fill="#46BCB3"/>
<path d="M27.4837 244.805L26.3427 244.369C21.1039 242.369 15.2352 244.994 13.2346 250.233L8.72937 262.031C6.72884 267.27 9.35404 273.138 14.5929 275.139L15.7338 275.575C20.9727 277.575 26.8414 274.95 28.8419 269.711L33.3472 257.913C35.3477 252.674 32.7225 246.805 27.4837 244.805Z" fill="#46BCB3"/>
<path d="M75.7577 200.035C75.7577 200.035 54.4147 198.329 33.2188 210.814" stroke="#EEEEEF" stroke-width="3" stroke-miterlimit="10" stroke-linecap="round"/>
<path d="M39.3583 296.886C39.3583 296.886 33.7842 332.509 18.8415 324.959C4.39845 317.661 18.6162 296.581 39.3583 296.886Z" fill="#EEEEEF"/>
<path d="M70.4578 390.715C66.4185 389.172 62.1375 386.598 57.7683 382.55C33.5273 360.094 27.2103 324.887 26.9523 323.401C25.5857 315.491 30.8905 307.969 38.801 306.604C46.7132 305.236 54.2335 310.542 55.6001 318.451C55.6393 318.681 60.6076 345.554 77.5243 361.227C79.5243 363.078 80.8126 363.575 81.0999 363.609C85.185 363.011 94.6695 348.162 99.4321 332.323C101.742 324.644 109.837 320.276 117.521 322.575C125.221 324.858 129.579 332.95 127.288 340.637C125.099 347.994 112.949 385.02 88.7737 391.636C84.0045 392.941 77.6092 393.445 70.4562 390.714L70.4578 390.715Z" fill="#BBF2EF"/>
<path d="M-22.2379 302.338C-24.896 301.322 -27.2831 299.517 -29.0154 296.989C-31.4171 293.482 -52.1445 261.892 -40.5554 232.833C-33.6213 215.446 -17.3708 203.899 7.74209 198.515C15.5906 196.835 23.3183 201.832 25.0016 209.681C26.6849 217.529 21.6872 225.257 13.837 226.94C-1.18074 230.16 -10.3893 235.747 -13.5323 243.547C-18.5594 256.027 -8.81371 274.955 -5.00457 280.601C-0.52438 287.24 -2.24364 296.271 -8.86596 300.774C-12.9543 303.554 -17.9504 303.975 -22.2396 302.338H-22.2379Z" fill="#46BCB3"/>
<path d="M89.9795 117.698C108.013 117.698 122.632 103.079 122.632 85.0454C122.632 67.0117 108.013 52.3926 89.9795 52.3926C71.9458 52.3926 57.3267 67.0117 57.3267 85.0454C57.3267 103.079 71.9458 117.698 89.9795 117.698Z" fill="#FFD16C"/>
<path d="M-20.3558 74.3307C-6.60112 88.0854 15.6996 88.0854 29.4543 74.3307C43.209 60.576 43.209 38.2753 29.4543 24.5206L-28.8414 -33.7752C-42.5961 -47.5298 -64.8969 -47.5298 -78.6516 -33.7752C-92.4062 -20.0205 -92.4062 2.28028 -78.6516 16.035L-20.3558 74.3307Z" fill="#FFB92E"/>
<path d="M29.4552 24.521C43.2099 38.2757 65.5107 38.2757 79.2654 24.521C93.02 10.7663 93.02 -11.5344 79.2653 -25.2891L20.9696 -83.5849C7.21491 -97.3395 -15.0858 -97.3395 -28.8405 -83.5848C-42.5952 -69.8302 -42.5952 -47.5294 -28.8405 -33.7747L29.4552 24.521Z" fill="#FFD16C"/>
<path d="M95.6296 90.6959L95.6308 90.6948C123.14 63.1854 123.14 18.5839 95.6308 -8.92547L79.9641 -24.5922C52.4547 -52.1015 7.85325 -52.1015 -19.6561 -24.5922L-19.6573 -24.591C-47.1667 2.91837 -47.1666 47.5199 -19.6573 75.0292L-3.99059 90.6959C23.5188 118.205 68.1203 118.205 95.6296 90.6959Z" fill="#FFD16C"/>
<path d="M58.9717 32.7943C66.4612 40.2837 78.604 40.2837 86.0934 32.7943C93.5829 25.3048 93.5829 13.162 86.0934 5.67254L71.1091 -9.31183C63.6196 -16.8013 51.4768 -16.8013 43.9874 -9.31183C36.4979 -1.82237 36.4979 10.3204 43.9874 17.8099L58.9717 32.7943Z" fill="#EEEEEF"/>
<path d="M31.8521 59.9168C39.3415 67.4063 51.4844 67.4063 58.9738 59.9168C66.4633 52.4274 66.4633 40.2846 58.9738 32.7951L43.9894 17.8107C36.5 10.3213 24.3572 10.3213 16.8677 17.8107C9.37827 25.3002 9.37827 37.443 16.8677 44.9324L31.8521 59.9168Z" fill="#EEEEEF"/>
<path d="M40.9247 43.4683C44.89 47.4337 51.3191 47.4337 55.2845 43.4683C59.2498 39.503 59.2498 33.0739 55.2845 29.1086L47.6763 21.5004C43.7109 17.535 37.2818 17.535 33.3165 21.5003C29.3511 25.4657 29.3511 31.8948 33.3165 35.8601L40.9247 43.4683Z" fill="#FFB92E"/>
<path d="M68.0472 16.3431C72.0126 20.3084 78.4417 20.3084 82.407 16.3431C86.3724 12.3778 86.3724 5.94866 82.407 1.98332L74.7988 -5.62489C70.8335 -9.59024 64.4044 -9.59024 60.439 -5.62489C56.4737 -1.65955 56.4737 4.76954 60.439 8.73489L68.0472 16.3431Z" fill="#FFB92E"/>
<path d="M52.5546 -46.614C53.5407 -47.6001 54.6951 -48.4508 56.0012 -49.1218C72.9505 -57.8063 90.2704 -58.9116 106.093 -52.317C142.828 -37.007 159.846 13.6906 161.664 19.4198C163.96 26.6348 159.963 34.3462 152.747 36.6369C145.533 38.9292 137.828 34.9421 135.534 27.7304C131.604 15.4866 116.765 -18.1964 95.5033 -27.0229C87.1389 -30.4941 78.3091 -29.7414 68.5079 -24.7175C61.768 -21.2643 53.5065 -23.9273 50.0516 -30.6655C47.2678 -36.0976 48.4581 -42.5191 52.5529 -46.614H52.5546Z" fill="#FFD16C"/>
<path d="M-41.6799 47.6202C-37.585 43.5253 -31.1635 42.3351 -25.7315 45.1189C-18.9932 48.5721 -16.3302 56.8353 -19.7834 63.5752C-24.8139 73.3895 -25.5616 82.2339 -22.0709 90.6098C-13.1628 111.985 20.4534 126.721 32.653 130.597C39.8697 132.887 43.8649 140.596 41.571 147.814C39.277 155.029 31.5689 159.026 24.3539 156.732C18.6247 154.911 -32.0697 137.893 -47.3813 101.159C-53.9759 85.3361 -52.8722 68.0145 -44.1877 51.0685C-43.5167 49.7623 -42.666 48.608 -41.6799 47.6218V47.6202Z" fill="#FFB92E"/>
<path d="M14.2751 0.160604C17.6067 3.49216 23.0082 3.49215 26.3398 0.160603C29.6713 -3.17095 29.6713 -8.57246 26.3398 -11.904L-0.781954 -39.0257C-4.1135 -42.3573 -9.51502 -42.3573 -12.8466 -39.0257C-16.1781 -35.6942 -16.1781 -30.2927 -12.8466 -26.9611L14.2751 0.160604Z" stroke="#EEEEEF" stroke-width="3" stroke-miterlimit="10" stroke-linecap="round"/>
<path d="M102.501 104.963C102.501 104.963 92.6359 114.265 78.8247 107.5" stroke="#EEEEEF" stroke-width="3" stroke-miterlimit="10" stroke-linecap="round"/>
<path d="M128.017 290.852V345.687" stroke="#ED516F" stroke-width="15" stroke-miterlimit="10" stroke-linecap="round"/>
<path d="M146.189 234.89C164.223 234.89 178.842 220.271 178.842 202.237C178.842 184.204 164.223 169.584 146.189 169.584C128.156 169.584 113.537 184.204 113.537 202.237C113.537 220.271 128.156 234.89 146.189 234.89Z" fill="#ED516F"/>
<path d="M128.017 429.115C128.017 448.568 143.786 464.337 163.238 464.337C182.69 464.337 198.459 448.568 198.459 429.115L198.459 339.564C198.459 320.112 182.69 304.343 163.238 304.343C143.786 304.343 128.017 320.112 128.017 339.564V429.115Z" fill="#ED516F"/>
<path d="M198.458 416.129H198.459C237.363 416.129 268.901 384.591 268.901 345.687V236.968C268.901 198.064 237.363 166.526 198.459 166.526H198.458C159.553 166.526 128.015 198.064 128.015 236.968L128.015 345.687C128.015 384.591 159.553 416.129 198.458 416.129Z" fill="#FF6C8F"/>
<path d="M198.189 429.117C198.189 448.569 213.958 464.338 233.411 464.338C252.863 464.338 268.632 448.569 268.632 429.117V346.674C268.632 327.222 252.863 311.453 233.411 311.453C213.958 311.453 198.189 327.222 198.189 346.674V429.117Z" fill="#FF6C8F"/>
<path d="M184.748 250.483C184.748 239.891 176.161 231.305 165.57 231.305C154.978 231.305 146.392 239.891 146.392 250.483V271.674C146.392 282.265 154.978 290.852 165.57 290.852C176.161 290.852 184.748 282.265 184.748 271.674V250.483Z" fill="#EEEEEF"/>
<path d="M223.105 250.483C223.105 239.891 214.519 231.305 203.927 231.305C193.335 231.305 184.749 239.891 184.749 250.483V271.674C184.749 282.265 193.335 290.852 203.927 290.852C214.519 290.852 223.105 282.265 223.105 271.674V250.483Z" fill="#EEEEEF"/>
<path d="M205.057 255.697C205.057 250.09 200.511 245.544 194.903 245.544C189.295 245.544 184.749 250.09 184.749 255.697V266.457C184.749 272.065 189.295 276.611 194.903 276.611C200.511 276.611 205.057 272.065 205.057 266.457V255.697Z" fill="#ED516F"/>
<path d="M166.699 255.697C166.699 250.09 162.153 245.544 156.545 245.544C150.938 245.544 146.392 250.09 146.392 255.697V266.457C146.392 272.065 150.938 276.611 156.545 276.611C162.153 276.611 166.699 272.065 166.699 266.457V255.697Z" fill="#ED516F"/>
<path d="M245.077 238.445C264.092 238.445 279.506 223.03 279.506 204.016C279.506 185.001 264.092 169.586 245.077 169.586C226.062 169.586 210.648 185.001 210.648 204.016C210.648 223.03 226.062 238.445 245.077 238.445Z" fill="#FF6C8F"/>
<path d="M254.657 378.199C256.161 378.199 257.691 377.949 259.191 377.424C270.932 373.309 306.661 360.786 307.838 333.776C309.061 305.726 271.159 287.159 263.549 283.722C256.648 280.606 248.528 283.673 245.411 290.574C242.294 297.472 245.359 305.592 252.257 308.71C265.521 314.753 280.717 326.496 280.443 332.584C280.311 335.513 273.804 343.244 250.122 351.543C242.975 354.048 239.213 361.87 241.716 369.018C243.695 374.666 248.993 378.197 254.656 378.197L254.657 378.199Z" fill="#FF8FA5"/>
<path d="M182.499 188.183C182.499 188.183 163.117 193.861 148.642 211.998" stroke="#EEEEEF" stroke-width="3" stroke-miterlimit="10" stroke-linecap="round"/>
</g>
<path d="M179.311 181.178C179.098 180.118 178.993 178.765 178.993 177.119C178.993 175.473 179.153 173.725 179.47 171.867C179.788 170.012 180.345 168.128 181.142 166.217C181.937 164.309 183.024 162.452 184.404 160.648C188.117 156.088 192.943 152.001 198.886 148.395C200.689 147.439 202.148 146.326 203.262 145.052C204.375 143.779 204.932 141.976 204.932 139.641C204.932 137.839 204.535 136.725 203.739 136.301C202.943 135.878 201.802 135.664 200.316 135.664C197.239 135.664 195.542 137.152 195.224 140.12C194.906 141.607 194.215 143.091 193.155 144.577C192.092 146.063 190.688 147.417 188.938 148.636C187.188 149.857 185.091 150.863 182.65 151.66C180.208 152.455 177.504 152.853 174.534 152.853C170.818 152.853 167.664 152.351 165.064 151.342C162.463 150.334 160.342 148.982 158.7 147.284C157.053 145.588 155.859 143.624 155.119 141.395C154.376 139.166 154.006 136.779 154.006 134.234C154.006 129.141 155.093 124.501 157.268 120.308C159.443 116.119 162.545 112.511 166.578 109.487C170.609 106.463 175.489 104.102 181.218 102.404C186.948 100.709 193.418 99.8586 200.635 99.8586C208.485 99.8586 215.275 100.709 221.005 102.404C226.734 104.102 231.452 106.463 235.167 109.487C238.88 112.511 241.611 116.119 243.363 120.308C245.113 124.5 245.99 129.141 245.99 134.234C245.99 147.39 242.116 157.309 234.372 163.994C233.521 164.736 232.514 165.561 231.348 166.459C230.179 167.362 229.041 168.265 227.926 169.164C226.812 170.067 225.777 170.915 224.822 171.71C223.867 172.507 223.176 173.169 222.753 173.7C222.435 174.018 222.089 174.523 221.72 175.212C221.346 175.903 220.947 176.619 220.525 177.361C220.1 178.104 219.729 178.82 219.411 179.509C219.093 180.2 218.879 180.758 218.774 181.181C217.287 185.108 214.954 188.21 211.772 190.491C208.588 192.774 204.237 193.913 198.721 193.913C193.206 193.913 188.801 192.72 185.512 190.333C182.223 187.946 180.154 184.897 179.307 181.181L179.311 181.178ZM177.878 223.031C177.878 216.347 179.813 211.044 183.687 207.117C187.558 203.194 192.625 201.228 198.884 201.228C205.463 201.228 210.661 203.192 214.48 207.117C218.301 211.044 220.209 216.347 220.209 223.031C220.209 225.789 219.677 228.308 218.618 230.591C217.555 232.872 216.072 234.86 214.162 236.558C212.252 238.255 209.995 239.584 207.397 240.537C204.797 241.492 201.959 241.969 198.883 241.969C195.807 241.969 192.994 241.492 190.448 240.537C187.903 239.582 185.699 238.255 183.844 236.558C181.986 234.86 180.528 232.872 179.468 230.591C178.407 228.308 177.876 225.789 177.876 223.031H177.878Z" fill="#003555"/>
</svg>
