<svg width="271" height="419" viewBox="0 0 271 419" fill="none" xmlns="http://www.w3.org/2000/svg">
<path d="M233.554 411.805C233.766 411.851 233.967 411.839 234.169 411.761C238.339 410.166 284.056 391.159 267.031 330.316C267.031 330.316 266.298 341.337 259.155 346.529C259.155 346.529 266.313 311.986 242.497 277.977C241.885 277.101 240.432 277.557 240.5 278.617C240.845 283.775 240.906 293.057 237.84 300.252C237.84 300.252 240.225 269.378 222.622 252.981C222.003 252.403 220.928 252.774 220.803 253.606C219.485 262.283 213.68 297.56 203.444 318.509C203.412 318.574 203.389 318.64 203.372 318.713L185.177 400.216C185.049 400.786 185.416 401.351 185.996 401.477L233.554 411.803V411.805Z" fill="#E73828"/>
<path d="M257.009 365.889C254.292 372.958 246.555 387.774 230.307 384.246C230.307 384.246 266.414 372.989 249.269 309.306C249.055 308.518 247.863 308.562 247.796 309.372C247.032 318.519 243.658 338.374 228.79 337.04C228.79 337.04 242.151 307.941 227.538 274.788C227.238 274.109 226.169 274.208 226.09 274.945C225.148 283.469 221.401 309.597 210.1 318.822C209.985 318.914 209.911 319.037 209.879 319.181L148.322 364.592L143.793 418.296H199.648C203.152 417.557 261.096 423.076 258.455 366.17C258.418 365.395 257.287 365.159 257.007 365.887L257.009 365.889Z" fill="#FF5148"/>
<path d="M189.587 350.46C189.587 350.46 217.831 338.796 221.729 323.703C221.729 323.703 221.173 351.146 216.998 362.4C216.998 362.4 234.251 360.149 240.093 346.318C240.093 346.318 240.093 376.122 219.501 388.196C219.501 388.196 228.685 394.782 244.268 388.196C244.268 388.196 232.024 418.5 174.699 418.5L153.828 385.725L189.587 350.46Z" fill="#FF312C"/>
<path d="M52.1602 160.347C51.9438 160.347 51.7495 160.291 51.5701 160.172C47.8449 157.73 7.34091 129.475 37.2303 73.6632C37.2303 73.6632 35.5435 84.5802 41.3856 91.1687C41.3856 91.1687 41.9241 55.9177 72.6003 27.7524C73.3896 27.0273 74.7099 27.779 74.41 28.8023C72.9494 33.7661 70.8668 42.8208 72.2929 50.4956C72.2929 50.4956 76.6942 19.8374 97.4589 7.55525C98.1916 7.1212 99.1579 7.71287 99.0989 8.55189C98.4941 17.3034 96.4729 52.9884 101.904 75.6177C101.922 75.688 101.929 75.7583 101.929 75.8311V159.287C101.929 159.871 101.45 160.347 100.855 160.347H52.1577H52.1602Z" fill="#E73828"/>
<path d="M86.3774 181.732C82.9646 181.312 25.3251 173.371 40.3066 118.357C40.5107 117.607 41.6688 117.617 41.7844 118.386C42.8982 125.867 47.2233 141.975 63.8621 141.975C63.8621 141.975 31.0541 123.328 61.6811 64.7685C62.0598 64.0434 63.2154 64.3392 63.1048 65.1467C61.8581 74.2402 60.823 94.3475 75.6349 96.1977C75.6349 96.1977 68.9297 64.9455 90.4271 35.6671C90.8672 35.0657 91.8901 35.3906 91.8089 36.1278C90.8697 44.6514 88.8338 70.9617 97.8576 82.3685C97.9486 82.4849 97.9953 82.6182 97.9953 82.7662V176.559C97.9953 176.853 97.8158 177.119 97.5404 177.231L86.7143 181.676C86.5963 181.724 86.5028 181.746 86.3774 181.732Z" fill="#FF5148"/>
<path d="M159.709 155.982C156.198 155.982 152.958 153.724 151.908 150.235C150.627 145.984 153.085 141.515 157.396 140.251C168.089 137.118 174.492 132.484 176.424 126.478C179.419 117.173 171.851 104.85 168.684 100.888C165.906 97.4128 166.496 92.3665 170.012 89.6167C173.528 86.8693 178.63 87.4319 181.428 90.8898C182.114 91.7361 198.148 111.865 191.974 131.252C188.332 142.686 178.259 150.892 162.033 155.645C161.261 155.873 160.479 155.979 159.712 155.979L159.709 155.982Z" fill="#FF6F0D"/>
<path d="M177.054 57.9644C177.054 35.1812 158.326 16.7118 135.224 16.7118C112.123 16.7118 93.395 35.1812 93.395 57.9644V171.23C93.395 194.013 112.123 212.482 135.224 212.482C158.326 212.482 177.054 194.013 177.054 171.23V57.9644Z" fill="#FF9343"/>
<path d="M136.936 106.472C136.936 112.676 142.035 117.704 148.324 117.704C154.613 117.704 159.712 112.676 159.712 106.472V94.064C159.712 87.8606 154.613 82.8318 148.324 82.8318C142.035 82.8318 136.936 87.8606 136.936 94.064V106.472Z" fill="#EEEEEF"/>
<path d="M114.16 106.472C114.16 112.676 119.259 117.704 125.548 117.704C131.837 117.704 136.936 112.676 136.936 106.472V94.064C136.936 87.8606 131.837 82.8318 125.548 82.8318C119.259 82.8318 114.16 87.8606 114.16 94.064V106.472Z" fill="#EEEEEF"/>
<path d="M136.936 97.1143C136.936 93.8305 134.237 91.1685 130.907 91.1685C127.577 91.1685 124.878 93.8305 124.878 97.1143V103.417C124.878 106.701 127.577 109.363 130.907 109.363C134.237 109.363 136.936 106.701 136.936 103.417V97.1143Z" fill="#FF6F0D"/>
<path d="M159.712 97.1143C159.712 93.8305 157.013 91.1685 153.683 91.1685C150.353 91.1685 147.654 93.8305 147.654 97.1143V103.417C147.654 106.701 150.353 109.363 153.683 109.363C157.013 109.363 159.712 106.701 159.712 103.417V97.1143Z" fill="#FF6F0D"/>
<path d="M98.5427 138.311C91.9629 138.311 80.4212 136.808 72.5702 127.402C62.4965 115.335 62.6293 95.1696 72.9661 67.4626C74.5176 63.3014 79.1943 61.1699 83.4185 62.7001C87.6379 64.2326 89.8016 68.8472 88.2476 73.0084C80.2811 94.3597 79.1771 110.051 85.1397 117.195C90.3991 123.495 100.923 122.147 101.024 122.13C105.467 121.429 109.642 124.404 110.355 128.781C111.068 133.161 108.048 137.281 103.61 137.984C103.367 138.023 101.432 138.311 98.5427 138.311Z" fill="#FF9343"/>
<path d="M144.34 132.889H129.626C128.129 132.889 126.912 131.689 126.912 130.212V124.739C126.912 123.262 128.129 122.062 129.626 122.062H144.34C145.837 122.062 147.054 123.262 147.054 124.739V130.212C147.054 131.689 145.837 132.889 144.34 132.889ZM130.167 129.679H143.797V125.277H130.167V129.679Z" fill="#EEEEEF"/>
<path d="M100.879 50.4929C100.771 50.4929 100.663 50.4832 100.552 50.4614C99.6718 50.2844 99.1013 49.4356 99.2808 48.5675C102.63 32.3861 118.536 25.4921 119.212 25.2059C120.036 24.8592 120.992 25.235 121.349 26.0498C121.703 26.8621 121.322 27.8079 120.498 28.1595C120.348 28.2225 105.475 34.7043 102.472 49.2101C102.315 49.9716 101.636 50.4953 100.879 50.4953V50.4929Z" fill="#EEEEEF"/>
<path d="M159.714 194.266C159.22 194.266 158.728 194.043 158.409 193.621C157.87 192.911 158.018 191.904 158.738 191.373C164.083 187.43 167.152 179.923 168.785 174.319C169.033 173.465 169.94 172.973 170.799 173.218C171.664 173.463 172.163 174.353 171.915 175.204C169.338 184.043 165.561 190.348 160.688 193.944C160.395 194.16 160.053 194.264 159.714 194.264V194.266Z" fill="#EEEEEF"/>
<path d="M161.471 71.1606L156.059 79.4805L161.471 87.8392L166.883 79.4805L161.471 71.1606Z" fill="#EEEEEF"/>
<path d="M198.754 72.9503C189.032 65.5106 182.755 53.905 182.77 40.8299C182.794 18.3994 201.25 0.232001 223.996 0.25625C246.743 0.280499 265.162 18.4843 265.137 40.9148C265.113 63.3476 246.657 81.5126 223.91 81.4908C219.728 81.486 215.696 80.8555 211.894 79.7085C208.597 83.7169 202.816 87.8586 192.897 86.8474C191.085 86.6631 190.242 84.4977 191.545 83.244C193.756 81.1174 196.591 77.6934 198.754 72.9527V72.9503Z" fill="#E73828"/>
<path d="M159.709 155.982C156.198 155.982 152.958 153.724 151.908 150.234C150.627 145.984 153.085 141.514 157.396 140.251C177.027 134.502 177.093 125.059 177.115 121.953C177.147 117.537 180.786 113.98 185.257 113.98H185.316C189.813 114.011 193.43 117.632 193.4 122.067C193.321 133.216 187.816 148.093 162.033 155.644C161.261 155.872 160.479 155.979 159.712 155.979L159.709 155.982Z" fill="#FF6F0D"/>
<path d="M70.5778 128.524H12.5916C9.93134 128.524 7.77478 130.651 7.77478 133.275C7.77478 135.898 9.93134 138.025 12.5916 138.025H70.5778C73.2381 138.025 75.3946 135.898 75.3946 133.275C75.3946 130.651 73.2381 128.524 70.5778 128.524Z" fill="#FF9343"/>
<path d="M63.0633 119.024H5.07707C2.41682 119.024 0.260254 121.151 0.260254 123.774C0.260254 126.398 2.41682 128.524 5.07707 128.524H63.0633C65.7235 128.524 67.8801 126.398 67.8801 123.774C67.8801 121.151 65.7235 119.024 63.0633 119.024Z" fill="#FFEEE3"/>
<path d="M70.5778 109.523H12.5916C9.93134 109.523 7.77478 111.65 7.77478 114.273C7.77478 116.897 9.93134 119.024 12.5916 119.024H70.5778C73.2381 119.024 75.3946 116.897 75.3946 114.273C75.3946 111.65 73.2381 109.523 70.5778 109.523Z" fill="#F7B52C"/>
<path d="M65.7759 100.247H7.78972C5.12946 100.247 2.9729 102.374 2.9729 104.998C2.9729 107.621 5.12946 109.748 7.78972 109.748H65.7759C68.4362 109.748 70.5927 107.621 70.5927 104.998C70.5927 102.374 68.4362 100.247 65.7759 100.247Z" fill="#EEEEEF"/>
<path d="M207.806 50.5441C206.539 50.5975 205.317 50.5756 204.14 50.4835C202.957 50.3913 201.735 50.224 200.469 49.9864C199.153 49.6954 198.029 49.0795 197.105 48.1386C196.173 47.1977 195.713 45.944 195.713 44.3824C195.713 43.3712 195.9 42.4473 196.279 41.5986C196.653 40.7499 197.068 40.0054 197.528 39.3725C198.361 38.2328 199.276 37.0422 200.267 35.8103C201.265 34.5785 202.3 33.3345 203.375 32.076C204.449 30.8174 205.539 29.5686 206.64 28.3368C207.742 27.1049 208.826 25.9215 209.906 24.7818C210.683 23.9598 211.671 23.259 212.863 22.6746C214.063 22.0902 215.374 21.7992 216.798 21.7992C218.435 21.7992 219.751 22.2745 220.749 23.2323C221.74 24.1829 222.359 25.4972 222.6 27.1655C222.814 28.7538 222.753 30.1215 222.418 31.2612C222.084 32.4009 221.553 33.4073 220.83 34.2826C218.546 33.8825 216.478 33.9965 214.639 34.6221C212.797 35.2429 211.155 36.2541 209.701 37.6605C209.591 37.7697 209.554 37.8812 209.581 38C209.608 38.1189 209.669 38.228 209.763 38.3177C209.856 38.4098 209.972 38.468 210.102 38.4971C210.24 38.5238 210.37 38.4802 210.508 38.3783C211.582 37.3671 212.777 36.5742 214.098 35.9898C215.413 35.4127 216.783 35.1192 218.206 35.1192C219.527 35.1192 220.655 35.3351 221.592 35.774C222.534 36.2129 223.309 36.773 223.911 37.4666C224.518 38.1528 224.963 38.9215 225.244 39.7678C225.529 40.6165 225.667 41.4652 225.667 42.314C225.667 43.3251 225.475 44.2442 225.086 45.0808C224.698 45.9125 224.167 46.6473 223.49 47.285C222.817 47.9228 222.055 48.4296 221.194 48.8151C220.333 49.1983 219.429 49.448 218.492 49.5499C218.278 49.5766 218.118 49.6299 218.027 49.7124C217.934 49.7875 217.897 49.8845 217.907 49.9888C217.924 50.0979 217.983 50.1828 218.088 50.2483C218.199 50.3137 218.347 50.3453 218.534 50.3453C219.07 50.2968 219.684 50.1876 220.37 50.0324C221.056 49.87 221.762 49.6057 222.485 49.2322C222.753 50.1076 222.775 50.9782 222.546 51.8366C222.323 52.7023 221.89 53.4637 221.258 54.1233C220.621 54.7877 219.8 55.3236 218.774 55.7334C217.754 56.1432 216.584 56.3493 215.268 56.3493C213.953 56.3493 212.748 56.1917 211.74 55.8741C210.737 55.5564 209.898 55.1223 209.242 54.5816C208.585 54.036 208.13 53.42 207.872 52.7338C207.614 52.0427 207.599 51.3177 207.811 50.5441H207.806Z" fill="#EEEEEF"/>
<path d="M238.932 44.3822C238.878 45.4419 238.817 46.4943 238.75 47.5443C238.684 48.5919 238.598 49.6297 238.487 50.6628C238.406 51.4096 238.241 52.1007 237.983 52.753C237.73 53.4005 237.386 53.9631 236.958 54.4383C236.525 54.9185 235.994 55.2919 235.362 55.5732C234.733 55.8496 233.997 55.9903 233.164 55.9903C232.33 55.9903 231.558 55.8496 230.929 55.5732C230.292 55.2919 229.756 54.9185 229.313 54.4383C228.868 53.9631 228.529 53.4005 228.288 52.753C228.047 52.0983 227.882 51.4072 227.801 50.6628C227.671 49.3388 227.565 48.0366 227.499 46.7489C227.432 45.4637 227.373 44.1543 227.317 42.8303V41.436C227.317 40.3011 227.334 39.1008 227.361 37.8374C227.383 36.5837 227.423 35.3131 227.459 34.0424C227.499 32.7669 227.553 31.5181 227.619 30.2862C227.691 29.0544 227.762 27.9025 227.843 26.8428C227.924 25.8365 228.084 25.0169 228.325 24.3791C228.566 23.7414 228.905 23.2443 229.333 22.8878C229.761 22.5314 230.282 22.2889 230.885 22.1531C231.492 22.0245 232.195 21.9542 233.004 21.9542C233.813 21.9542 234.467 22.0245 235.06 22.1531C235.652 22.2889 236.161 22.5314 236.589 22.8878C237.022 23.2443 237.361 23.7414 237.619 24.3791C237.877 25.0169 238.057 25.8389 238.163 26.8428C238.19 27.1338 238.217 27.5024 238.244 27.9341C238.271 28.373 238.298 28.8361 238.325 29.3284C238.352 29.8206 238.379 30.2959 238.401 30.7615C238.428 31.2271 238.445 31.632 238.445 31.9715C237.661 32.5559 237.032 33.167 236.55 33.8048C236.068 34.4377 235.635 35.1942 235.261 36.0696C235.151 36.3073 235.124 36.5134 235.18 36.6856C235.234 36.8577 235.31 36.9838 235.421 37.0638C235.532 37.1439 235.657 37.1608 235.805 37.1245C235.952 37.0857 236.078 36.9741 236.188 36.7898C236.402 36.3631 236.633 35.9532 236.874 35.5531C237.115 35.1579 237.383 34.7578 237.681 34.3649C238.541 33.1694 239.549 32.2892 240.705 31.7169C241.861 31.1495 243.083 30.8633 244.371 30.8633C245.66 30.8633 246.798 31.118 247.779 31.6199C248.76 32.1219 249.571 32.8154 250.218 33.6908C250.865 34.5662 251.352 35.5774 251.693 36.7292C252.028 37.8859 252.198 39.1129 252.198 40.4102C252.198 41.339 252.188 42.2216 252.175 43.0534C252.158 43.89 252.126 44.7169 252.077 45.5389C252.023 46.361 251.957 47.1879 251.875 48.0245C251.794 48.861 251.701 49.7437 251.59 50.6676C251.514 51.4145 251.349 52.1056 251.108 52.7579C250.867 53.4053 250.523 53.9679 250.078 54.4432C249.633 54.9233 249.097 55.2968 248.467 55.5781C247.838 55.8545 247.103 55.9951 246.269 55.9951C245.436 55.9951 244.664 55.8545 244.034 55.5781C243.405 55.2968 242.861 54.9233 242.424 54.4432C241.979 53.9679 241.634 53.4053 241.393 52.7579C241.153 52.1032 240.988 51.4121 240.912 50.6676C240.774 49.6346 240.68 48.6089 240.626 47.588C240.572 46.5671 240.516 45.5389 240.467 44.5083C240.412 44.2707 240.307 44.0985 240.159 43.9894C240.012 43.8876 239.857 43.8318 239.699 43.8318C239.321 43.8318 239.07 44.0161 238.932 44.3895V44.3822Z" fill="#EEEEEF"/>
</svg>
