<svg width="223" height="224" viewBox="0 0 223 224" fill="none" xmlns="http://www.w3.org/2000/svg">
<path d="M146.481 147.849C146.481 139.237 139.5 132.256 130.888 132.256C122.276 132.256 115.295 139.237 115.295 147.849V206.649C115.295 215.26 122.276 222.242 130.888 222.242C139.5 222.242 146.481 215.26 146.481 206.649V147.849Z" fill="#73BF41"/>
<path d="M146.537 52.4147C146.537 35.1912 132.575 21.2288 115.351 21.2288C98.1279 21.2288 84.1655 35.1912 84.1655 52.4147V148.251C84.1655 165.474 98.1279 179.437 115.351 179.437C132.575 179.437 146.537 165.474 146.537 148.251V52.4147Z" fill="#88D159"/>
<path d="M115.241 147.849C115.241 139.237 108.26 132.256 99.6479 132.256C91.0361 132.256 84.0549 139.237 84.0549 147.849V206.649C84.0549 215.26 91.0361 222.242 99.6479 222.242C108.26 222.242 115.241 215.26 115.241 206.649V147.849Z" fill="#88D159"/>
<path d="M115.351 29.0472C115.351 20.4355 108.37 13.4543 99.7584 13.4543C91.1467 13.4543 84.1655 20.4355 84.1655 29.0472V69.9146C84.1655 78.5264 91.1467 85.5076 99.7584 85.5076C108.37 85.5076 115.351 78.5264 115.351 69.9146V29.0472Z" fill="#88D159"/>
<path d="M146.481 29.0472C146.481 20.4355 139.5 13.4543 130.888 13.4543C122.276 13.4543 115.295 20.4355 115.295 29.0472V69.9146C115.295 78.5264 122.276 85.5076 130.888 85.5076C139.5 85.5076 146.481 78.5264 146.481 69.9146V29.0472Z" fill="#88D159"/>
<path d="M124.947 65.8987H125.29C129.885 65.8987 133.609 62.174 133.609 57.5793V47.8558C133.609 43.2611 129.885 39.5364 125.29 39.5364H124.947C120.352 39.5364 116.628 43.2611 116.628 47.8558V57.5793C116.628 62.174 120.352 65.8987 124.947 65.8987Z" fill="#EEEEEF"/>
<path d="M107.965 65.8987H108.308C112.903 65.8987 116.628 62.174 116.628 57.5793V47.8558C116.628 43.2611 112.903 39.5364 108.308 39.5364H107.965C103.371 39.5364 99.646 43.2611 99.646 47.8558V57.5793C99.646 62.174 103.371 65.8987 107.965 65.8987Z" fill="#EEEEEF"/>
<path d="M112.633 50.3362C112.633 47.8532 110.621 45.8403 108.138 45.8403C105.656 45.8403 103.643 47.8532 103.643 50.3362V55.0989C103.643 57.5819 105.656 59.5948 108.138 59.5948C110.621 59.5948 112.633 57.5819 112.633 55.0989V50.3362Z" fill="#73BF41"/>
<path d="M129.613 50.3362C129.613 47.8532 127.601 45.8403 125.118 45.8403C122.636 45.8403 120.623 47.8532 120.623 50.3362V55.0989C120.623 57.5819 122.636 59.5948 125.118 59.5948C127.601 59.5948 129.613 57.5819 129.613 55.0989V50.3362Z" fill="#73BF41"/>
<path d="M142.314 28.1556C141.689 28.1556 141.158 27.6755 141.106 27.0411C140.714 22.2461 135.717 19.9048 135.665 19.8819C135.058 19.6038 134.787 18.8837 135.065 18.2759C135.341 17.6663 136.058 17.3977 136.667 17.672C136.926 17.7883 143.013 20.6077 143.526 26.8449C143.581 27.5136 143.084 28.0985 142.415 28.1537C142.383 28.1556 142.348 28.1575 142.314 28.1575V28.1556Z" fill="#EEEEEF"/>
<path d="M88.5837 155.303C87.9131 155.303 87.3702 154.76 87.3702 154.09V120.039C87.3702 119.368 87.9131 118.825 88.5837 118.825C89.2543 118.825 89.7972 119.368 89.7972 120.039V154.09C89.7972 154.76 89.2543 155.303 88.5837 155.303Z" fill="#EEEEEF"/>
<path d="M126.563 79.5276H100.021C96.9676 79.5276 94.4834 77.0434 94.4834 73.9896C94.4834 70.9357 96.9676 68.4515 100.021 68.4515H126.563C129.617 68.4515 132.101 70.9357 132.101 73.9896C132.101 77.0434 129.617 79.5276 126.563 79.5276ZM100.021 70.8805C98.3069 70.8805 96.9124 72.275 96.9124 73.9915C96.9124 75.7079 98.3069 77.1005 100.021 77.1005H126.563C128.277 77.1005 129.672 75.706 129.672 73.9915C129.672 72.2769 128.277 70.8805 126.563 70.8805H100.021Z" fill="#EEEEEF"/>
<path d="M153.46 125.051C161.099 125.051 167.291 118.859 167.291 111.22C167.291 103.582 161.099 97.3895 153.46 97.3895C145.822 97.3895 139.629 103.582 139.629 111.22C139.629 118.859 145.822 125.051 153.46 125.051Z" fill="#ED516F"/>
<path d="M160.683 154.471H160.681C152.442 154.471 145.762 161.15 145.762 169.389V207.323C145.762 215.562 152.442 222.242 160.681 222.242H160.683C168.922 222.242 175.601 215.562 175.601 207.323V169.389C175.601 161.15 168.922 154.471 160.683 154.471Z" fill="#ED516F"/>
<path d="M205.439 125.933C205.439 109.453 192.08 96.094 175.601 96.094C159.121 96.094 145.762 109.453 145.762 125.933V171.982C145.762 188.462 159.121 201.821 175.601 201.821C192.08 201.821 205.439 188.462 205.439 171.982V125.933Z" fill="#FF6C8F"/>
<path d="M190.407 157.481H190.405C182.166 157.481 175.487 164.16 175.487 172.399V207.321C175.487 215.56 182.166 222.24 190.405 222.24H190.407C198.647 222.24 205.326 215.56 205.326 207.321V172.399C205.326 164.16 198.647 157.481 190.407 157.481Z" fill="#FF6C8F"/>
<path d="M169.793 131.656C169.793 127.17 166.156 123.533 161.67 123.533C157.183 123.533 153.546 127.17 153.546 131.656V140.633C153.546 145.119 157.183 148.756 161.67 148.756C166.156 148.756 169.793 145.119 169.793 140.633V131.656Z" fill="#EEEEEF"/>
<path d="M186.039 131.656C186.039 127.17 182.402 123.533 177.915 123.533C173.429 123.533 169.792 127.17 169.792 131.656V140.633C169.792 145.119 173.429 148.756 177.915 148.756C182.402 148.756 186.039 145.119 186.039 140.633V131.656Z" fill="#EEEEEF"/>
<path d="M178.394 133.866C178.394 131.49 176.468 129.564 174.093 129.564C171.718 129.564 169.792 131.49 169.792 133.866V138.423C169.792 140.798 171.718 142.724 174.093 142.724C176.468 142.724 178.394 140.798 178.394 138.423V133.866Z" fill="#ED516F"/>
<path d="M162.148 133.866C162.148 131.49 160.222 129.564 157.847 129.564C155.472 129.564 153.546 131.49 153.546 133.866V138.423C153.546 140.798 155.472 142.724 157.847 142.724C160.222 142.724 162.148 140.798 162.148 138.423V133.866Z" fill="#ED516F"/>
<path d="M195.347 126.556C203.401 126.556 209.93 120.027 209.93 111.973C209.93 103.919 203.401 97.3895 195.347 97.3895C187.293 97.3895 180.764 103.919 180.764 111.973C180.764 120.027 187.293 126.556 195.347 126.556Z" fill="#FF6C8F"/>
<path d="M199.405 185.754C200.042 185.754 200.691 185.647 201.326 185.426C206.3 183.683 221.434 178.379 221.933 166.938C222.451 155.056 206.397 147.192 203.174 145.736C200.251 144.416 196.811 145.715 195.491 148.638C194.17 151.56 195.468 154.999 198.39 156.321C204.008 158.881 210.445 163.853 210.329 166.433C210.274 167.673 207.517 170.948 197.485 174.464C194.458 175.526 192.863 178.838 193.925 181.866C194.763 184.258 197.007 185.754 199.405 185.754Z" fill="#FF8FA5"/>
<path d="M154.499 116.516C154.246 116.516 153.989 116.433 153.775 116.263C153.274 115.863 153.192 115.133 153.593 114.63C159.881 106.753 168.166 104.255 168.515 104.152C169.132 103.97 169.774 104.326 169.955 104.939C170.136 105.553 169.784 106.199 169.17 106.381C169.09 106.404 161.22 108.797 155.408 116.078C155.179 116.366 154.84 116.514 154.499 116.514V116.516Z" fill="#EEEEEF"/>
<path d="M201.598 206.214C200.956 206.214 200.435 205.694 200.435 205.052V193.639C200.435 192.997 200.956 192.477 201.598 192.477C202.24 192.477 202.76 192.997 202.76 193.639V205.052C202.76 205.694 202.24 206.214 201.598 206.214Z" fill="#EEEEEF"/>
<path d="M56.3612 152.829C63.6967 152.829 69.6433 146.882 69.6433 139.547C69.6433 132.211 63.6967 126.264 56.3612 126.264C49.0257 126.264 43.0791 132.211 43.0791 139.547C43.0791 146.882 49.0257 152.829 56.3612 152.829Z" fill="#FFD16C"/>
<path d="M41.9507 222.212L41.9526 222.212C49.8647 222.22 56.2854 215.813 56.2937 207.901L56.3288 174.366C56.3371 166.454 49.9298 160.033 42.0177 160.025L42.0158 160.025C34.1038 160.016 27.6831 166.424 27.6748 174.336L27.6397 207.871C27.6314 215.783 34.0386 222.203 41.9507 222.212Z" fill="#FFD16C"/>
<path d="M70.6052 222.239L70.6071 222.239C78.5192 222.247 84.9399 215.84 84.9482 207.928L84.9833 174.393C84.9916 166.481 78.5843 160.06 70.6722 160.052L70.6703 160.052C62.7583 160.044 56.3375 166.451 56.3292 174.363L56.2941 207.898C56.2858 215.81 62.6931 222.231 70.6052 222.239Z" fill="#FFB92E"/>
<path d="M27.6754 173.932C27.6589 189.757 40.4738 202.6 56.2985 202.616C72.1232 202.633 84.965 189.817 84.9816 173.992L84.991 164.981C85.0076 149.156 72.1926 136.314 56.368 136.297C40.5433 136.281 27.7014 149.096 27.6849 164.921L27.6754 173.932Z" fill="#FFD16C"/>
<path d="M62.4394 172.12C62.4349 176.429 65.924 179.925 70.2325 179.93C74.541 179.934 78.0373 176.445 78.0419 172.137L78.0509 163.518C78.0554 159.21 74.5663 155.713 70.2578 155.709C65.9493 155.704 62.4529 159.193 62.4484 163.502L62.4394 172.12Z" fill="#EEEEEF"/>
<path d="M46.8383 172.102C46.8338 176.411 50.3229 179.907 54.6314 179.912C58.9399 179.916 62.4363 176.427 62.4408 172.119L62.4498 163.5C62.4543 159.192 58.9652 155.695 54.6568 155.691C50.3483 155.686 46.8519 159.175 46.8474 163.484L46.8383 172.102Z" fill="#EEEEEF"/>
<path d="M54.1803 169.99C54.1779 172.271 56.0251 174.122 58.3061 174.124C60.5872 174.127 62.4382 172.279 62.4406 169.998L62.4452 165.621C62.4476 163.339 60.6004 161.488 58.3194 161.486C56.0383 161.484 54.1873 163.331 54.1849 165.612L54.1803 169.99Z" fill="#FFB92E"/>
<path d="M69.7838 170.006C69.7814 172.287 71.6286 174.138 73.9096 174.14C76.1907 174.142 78.0417 172.295 78.0441 170.014L78.0487 165.636C78.0511 163.355 76.2039 161.504 73.9229 161.502C71.6418 161.5 69.7907 163.347 69.7884 165.628L69.7838 170.006Z" fill="#FFB92E"/>
<path d="M83.4153 188.208C83.983 188.208 84.5583 188.122 85.128 187.939C92.5025 185.569 97.808 180.911 100.469 174.466C106.648 159.504 96.9793 140.017 95.8573 137.845C94.4456 135.108 91.0794 134.037 88.3437 135.451C85.608 136.862 84.5355 140.225 85.9471 142.96C88.3342 147.615 93.7388 161.577 90.1535 170.228C88.7419 173.63 85.9833 175.95 81.7179 177.32C78.786 178.263 77.1705 181.403 78.1135 184.337C78.8736 186.701 81.0606 188.208 83.4172 188.209L83.4153 188.208Z" fill="#FFB92E"/>
<path d="M29.2072 188.152C31.5637 188.154 33.7546 186.653 34.5185 184.291C35.4672 181.361 33.8593 178.215 30.9275 177.269C26.6582 175.887 23.9035 173.556 22.5014 170.142C18.9236 161.428 24.3683 147.527 26.7687 142.905C28.188 140.171 27.123 136.805 24.3893 135.386C21.6555 133.968 18.2874 135.032 16.87 137.765C15.7441 139.935 6.0378 159.401 12.1835 174.377C14.8316 180.827 20.1257 185.497 27.4964 187.882C28.0641 188.065 28.6414 188.152 29.2091 188.154L29.2072 188.152Z" fill="#FFD16C"/>
<path d="M57.8227 201.341L57.838 185.739C57.8399 183.211 59.8992 181.155 62.4292 181.157C64.9572 181.159 67.0127 183.218 67.0089 185.748L66.9937 201.351C66.9918 203.879 64.9324 205.934 62.4044 205.932C59.8764 205.93 57.8208 203.871 57.8227 201.341ZM60.0688 185.741L60.0536 201.343C60.0536 202.642 61.1071 203.7 62.4063 203.7C63.7056 203.7 64.761 202.646 64.7629 201.347L64.7781 185.744C64.7781 184.445 63.7246 183.388 62.4254 183.388C61.1261 183.388 60.0688 184.441 60.0688 185.741Z" fill="#EEEEEF"/>
<path d="M46.6973 137.402C47.1622 137.402 47.5946 137.112 47.7527 136.649C49.4978 131.57 54.0871 131.338 54.2814 131.33C54.8948 131.307 55.3768 130.791 55.3558 130.178C55.3368 129.576 54.8434 129.099 54.2452 129.099C54.2338 129.099 54.2223 129.099 54.2109 129.099C53.9537 129.107 47.8994 129.353 45.6419 135.923C45.4419 136.506 45.7524 137.141 46.3335 137.341C46.4535 137.382 46.5754 137.402 46.6954 137.402H46.6973Z" fill="#EEEEEF"/>
<path d="M57.0395 130.126C56.0222 130.126 54.9935 129.859 54.0543 129.301C45.272 124.049 41.2409 117.857 42.0715 110.894C44.1175 93.7089 78.7211 82.1013 85.6403 79.9467C88.6979 79.0094 91.9727 80.703 92.9233 83.7721C93.8835 86.8411 92.167 90.1045 89.1037 91.0665C72.5772 96.2178 54.3801 105.972 53.6352 112.272C53.4085 114.177 55.7384 116.739 60.0362 119.309C62.7928 120.957 63.692 124.533 62.0422 127.297C60.9506 129.116 59.017 130.128 57.0395 130.128V130.126Z" fill="#88D159"/>
<path d="M187.388 100.657C185.495 100.657 183.641 99.7364 182.523 98.0409C180.755 95.3586 181.494 91.7485 184.176 89.9749C184.569 89.7196 184.915 89.4739 185.222 89.2529C178.059 87.2354 159.988 86.3305 141.608 87.2697C138.304 87.3497 135.662 84.9608 135.49 81.7546C135.325 78.5426 137.799 75.8031 141.006 75.6374C194.205 72.9322 197.359 82.5794 198.399 85.7571C199.975 90.5445 197.348 95.2329 190.589 99.6964C189.6 100.344 188.491 100.657 187.388 100.657Z" fill="#88D159"/>
<path d="M81.1181 59.1624V32.0438L73.915 33.2897L81.1181 59.1624Z" fill="#FFD16C"/>
<path d="M81.1171 67.139L58.3116 73.9115L59.125 67.7867L81.1171 67.139Z" fill="#FFD16C"/>
<path d="M75.2955 56.1143L69.7137 41.2662L66.8866 45.6022L75.2955 56.1143Z" fill="#FFD16C"/>
<path d="M77.5153 61.5323L65.3782 56.1143V60.6712L77.5153 61.5323Z" fill="#FFD16C"/>
<path d="M218.341 110.414H12.3443C9.94016 110.414 7.97223 112.382 7.97223 114.787C7.97223 117.191 9.94016 119.159 12.3443 119.159H108.668L112.739 215.254H103.195C100.789 215.254 98.8209 217.22 98.8209 219.626C98.8209 222.032 100.789 224 103.195 224H127.494C129.898 224 131.866 222.032 131.866 219.626C131.866 217.22 129.898 215.254 127.494 215.254H118.14L122.318 119.159H218.343C220.747 119.159 222.715 117.191 222.715 114.787C222.715 112.382 220.747 110.414 218.343 110.414H218.341Z" fill="#E1EFD8"/>
<path d="M77.3852 102.952H32.4581C30.397 102.952 28.7261 104.623 28.7261 106.684C28.7261 108.745 30.397 110.416 32.4581 110.416H77.3852C79.4463 110.416 81.1172 108.745 81.1172 106.684C81.1172 104.623 79.4463 102.952 77.3852 102.952Z" fill="#006934"/>
<path d="M71.5642 95.4882H26.637C24.5759 95.4882 22.905 97.1591 22.905 99.2202C22.905 101.281 24.5759 102.952 26.637 102.952H71.5642C73.6253 102.952 75.2962 101.281 75.2962 99.2202C75.2962 97.1591 73.6253 95.4882 71.5642 95.4882Z" fill="#EEEEEF"/>
<path d="M77.3852 88.0242H32.4581C30.397 88.0242 28.7261 89.6951 28.7261 91.7562C28.7261 93.8173 30.397 95.4882 32.4581 95.4882H77.3852C79.4463 95.4882 81.1172 93.8173 81.1172 91.7562C81.1172 89.6951 79.4463 88.0242 77.3852 88.0242Z" fill="#1EAA39"/>
<path d="M73.6646 80.5601H28.7375C26.6763 80.5601 25.0054 82.2309 25.0054 84.2921C25.0054 86.3532 26.6763 88.0241 28.7375 88.0241H73.6646C75.7257 88.0241 77.3966 86.3532 77.3966 84.2921C77.3966 82.2309 75.7257 80.5601 73.6646 80.5601Z" fill="#B4B4B5"/>
<path d="M110.06 94.0613H123.056C124.073 94.0613 124.837 94.9948 124.634 95.9911L121.968 109.125C121.816 109.875 121.157 110.414 120.391 110.414H113.077C112.327 110.414 111.675 109.896 111.508 109.165L108.49 96.0311C108.258 95.0234 109.025 94.0594 110.06 94.0594V94.0613Z" fill="#006934"/>
<path d="M109.567 108.599C109.215 108.599 108.857 108.553 108.499 108.467C106.169 107.911 104.332 105.637 103.576 102.379C103.037 100.076 103.78 98.7802 104.496 98.1039C106.496 96.216 110.209 97.1666 110.931 97.3705L110.124 100.167C108.964 99.8318 107.066 99.6661 106.496 100.219C106.173 100.525 106.325 101.367 106.405 101.72C106.996 104.261 108.224 105.41 109.173 105.637C109.787 105.791 110.413 105.574 110.872 105.023L113.101 106.9C112.175 108.003 110.907 108.599 109.566 108.599H109.567Z" fill="#006934"/>
<path d="M81.0818 0.846558H4.87927V27.8775H81.0818V0.846558Z" fill="#006934"/>
<path d="M24.6647 15.1555C24.619 15.184 24.5809 15.2393 24.5638 15.3307C24.5447 15.4317 24.5542 15.5155 24.6095 15.5898C24.9695 16.1156 25.4668 16.5595 26.105 16.891C26.7317 17.232 27.4156 17.4168 28.1434 17.4453C29.0102 17.4739 29.6846 17.6759 30.1646 18.0721C30.6447 18.4684 30.8943 19.1047 30.9019 19.9734C30.9114 20.8402 30.6714 21.4765 30.1723 21.8841C29.6731 22.2899 28.9911 22.4938 28.1243 22.4938C27.027 22.4938 26.0211 22.4023 25.1067 22.2271C24.1942 22.0518 23.4093 21.7279 22.7444 21.2764C22.0796 20.8154 21.5728 20.1791 21.2032 19.3847C20.8432 18.5827 20.6584 17.5673 20.6584 16.3309C20.6584 15.0945 20.8794 14.0239 21.3233 13.1837C21.7576 12.3436 22.3482 11.7073 23.0854 11.2558C23.8227 10.8138 24.6819 10.5452 25.6592 10.4709C26.6289 10.3966 27.6709 10.4804 28.7587 10.7205C29.2388 10.831 29.635 11.0253 29.9494 11.292C30.2732 11.5682 30.5114 11.8826 30.6866 12.2521C30.8619 12.6122 30.9724 13.0085 31.0105 13.4238C31.0467 13.8391 31.0295 14.2448 30.9552 14.6506C30.8905 14.965 30.799 15.2602 30.6695 15.546C30.5495 15.8318 30.3933 16.0813 30.2085 16.3023C30.0237 16.5233 29.8217 16.6986 29.5893 16.8186C29.3493 16.9481 29.0997 17.0129 28.8235 17.0129C28.0386 17.0129 27.3204 16.8472 26.6651 16.5233C26.0097 16.209 25.4649 15.7384 25.0229 15.1402C24.9676 15.0754 24.9124 15.0488 24.8381 15.0564C24.7733 15.0564 24.7086 15.0926 24.6628 15.1574L24.6647 15.1555Z" fill="white"/>
<path d="M39.197 20.9774C38.7626 21.6137 38.2369 22.0671 37.6196 22.3147C36.9928 22.5643 36.3089 22.6938 35.5717 22.6938C35.0268 22.6938 34.5201 22.6291 34.059 22.49C33.5885 22.3509 33.1827 22.1395 32.8417 21.8709C32.4912 21.6041 32.2149 21.2612 32.0206 20.8555C31.8168 20.4592 31.7158 19.9982 31.7158 19.48C31.7158 19.0094 31.7996 18.5846 31.9749 18.2074C32.1406 17.8207 32.3807 17.4778 32.676 17.1825C32.9808 16.8872 33.3408 16.6472 33.7561 16.4529C34.1714 16.2681 34.6229 16.1214 35.0935 16.0185C35.9794 15.8432 36.7261 15.567 37.3262 15.1974C37.9359 14.8278 38.3874 14.403 38.7093 13.9248C38.7646 13.8334 38.7836 13.7496 38.7646 13.6581C38.736 13.5743 38.6903 13.5019 38.6179 13.4543C38.5531 13.399 38.4712 13.38 38.3874 13.38C38.2959 13.3895 38.2216 13.4352 38.1568 13.5267C37.972 13.7934 37.7415 14.0429 37.4653 14.2735C37.1986 14.504 36.9033 14.7078 36.5699 14.864C36.2461 15.0298 35.8879 15.1593 35.4993 15.2508C35.1202 15.3422 34.7239 15.3974 34.3181 15.3974C33.5809 15.3974 33.017 15.2222 32.6398 14.8716C32.2607 14.5306 32.0778 14.0868 32.0778 13.561C32.0778 13.0809 32.2169 12.6484 32.5121 12.2693C32.7979 11.8826 33.1941 11.5492 33.6838 11.273C34.1734 10.9968 34.7449 10.7834 35.4002 10.6462C36.0556 10.4995 36.7471 10.4252 37.4863 10.4252C38.9893 10.4252 40.1895 10.6919 41.0754 11.2196C41.9517 11.7454 42.588 12.5665 42.9766 13.6734C43.1424 14.1439 43.2719 14.6697 43.3462 15.2508C43.4301 15.8413 43.4758 16.4509 43.4853 17.0777C43.4853 17.7045 43.4567 18.3427 43.3939 18.9885C43.3196 19.6248 43.2186 20.2439 43.0986 20.8154C42.8395 21.9509 42.186 22.5224 41.1325 22.5224C40.079 22.5224 39.4256 22.0061 39.2046 20.9717L39.197 20.9774ZM35.987 19.6305C36.4385 19.5752 36.8728 19.4095 37.2881 19.1504C37.7034 18.8913 38.0902 18.6151 38.4407 18.3293C38.5245 18.255 38.5702 18.1731 38.5702 18.0798C38.5702 17.996 38.5512 17.9236 38.4959 17.8588C38.4502 17.794 38.3854 17.7483 38.3111 17.7292C38.2273 17.7007 38.1645 17.7102 38.0997 17.7654C37.7301 18.0607 37.37 18.3198 37.0024 18.5218C36.6423 18.7161 36.208 18.8818 35.7012 19.0114C35.6269 19.0399 35.5812 19.0856 35.5621 19.1504C35.5431 19.2247 35.5431 19.2895 35.5717 19.3714C35.5907 19.4457 35.6364 19.5105 35.7107 19.5657C35.785 19.621 35.867 19.6495 35.987 19.6305Z" fill="white"/>
<path d="M46.2459 16.0795C45.9697 16.07 45.7106 16.0509 45.4801 16.0147C45.2496 15.9861 45.0457 15.9233 44.8895 15.8204C44.2799 15.4603 43.977 14.7783 43.977 13.7534C43.977 13.3667 44.0322 13.0428 44.1427 12.7761C44.2437 12.5094 44.4018 12.296 44.5942 12.1398C44.7885 11.9836 45.0286 11.8636 45.3143 11.7798C45.5906 11.7055 45.9144 11.6407 46.265 11.6045C46.265 11.4749 46.2745 11.3549 46.2745 11.2444C46.284 11.1339 46.2935 11.0139 46.3031 10.8844C46.3221 10.6805 46.3316 10.4881 46.3316 10.2938C46.3412 10.09 46.3602 9.89755 46.3774 9.69371C46.4231 9.19458 46.5431 8.71641 46.7374 8.26301C46.9413 7.82103 47.208 7.4324 47.5223 7.10092C47.8462 6.75991 48.2234 6.50082 48.6482 6.31603C49.0826 6.12172 49.5436 6.03027 50.0503 6.03027C50.78 6.03027 51.3877 6.09505 51.8773 6.21506C52.3764 6.34461 52.7631 6.51987 53.0489 6.74086C53.3442 6.96185 53.548 7.22094 53.668 7.53527C53.7881 7.84008 53.8433 8.18109 53.8433 8.5602C53.8433 8.85548 53.8147 9.12219 53.7519 9.36223C53.6871 9.61179 53.6052 9.82325 53.4928 10.0176C53.3728 10.2024 53.2337 10.3491 53.0584 10.4519C52.8927 10.5529 52.6984 10.591 52.4869 10.5624C52.0068 10.5167 51.481 10.5072 50.9095 10.5262C50.338 10.5548 49.8198 10.6177 49.3683 10.7205C49.294 10.7301 49.2388 10.7663 49.2216 10.812C49.1931 10.8577 49.1854 10.913 49.1931 10.9587C49.1931 11.0139 49.2216 11.0501 49.2769 11.0882C49.3226 11.1168 49.3874 11.1244 49.4617 11.1168C49.757 11.0615 50.0618 11.0158 50.4028 10.9777C50.7343 10.9415 51.0581 10.932 51.3724 10.932C51.6868 10.9415 51.9821 10.9682 52.2488 11.0158C52.525 11.0711 52.7555 11.1454 52.9403 11.2463C53.5499 11.5969 53.8452 12.2884 53.8452 13.3229C53.8452 14.0601 53.6699 14.5878 53.3099 14.9098C52.9498 15.2413 52.4336 15.426 51.7496 15.4813C51.7211 16.2376 51.6944 16.9768 51.6487 17.6874C51.603 18.4075 51.5477 19.1276 51.4829 19.8458C51.4467 20.1963 51.3724 20.5278 51.2524 20.8326C51.1324 21.1469 50.9667 21.4137 50.7724 21.6346C50.5685 21.8652 50.3208 22.0404 50.0256 22.1795C49.7303 22.309 49.3797 22.3738 48.993 22.3738C48.6063 22.3738 48.2462 22.309 47.9414 22.1795C47.6461 22.0404 47.3966 21.8652 47.1946 21.6346C46.9832 21.4137 46.8251 21.145 46.705 20.8326C46.5945 20.5278 46.5202 20.1963 46.4841 19.8458C46.4193 19.219 46.3736 18.5904 46.3374 17.9636C46.3088 17.3444 46.2821 16.7177 46.2535 16.0814L46.2459 16.0795Z" fill="white"/>
<path d="M57.1065 21.6517C56.6817 21.3926 56.3121 21.0706 55.9997 20.701C55.6758 20.3314 55.4187 19.9257 55.2053 19.4932C54.9843 19.0589 54.8262 18.5978 54.7157 18.1273C54.6147 17.6472 54.5499 17.1576 54.5404 16.6699C54.5309 16.0889 54.5861 15.5174 54.7062 14.9344C54.8357 14.3629 55.0205 13.8276 55.2681 13.3284C55.5082 12.8293 55.813 12.3873 56.1807 12.0006C56.5503 11.6139 56.9751 11.2995 57.4628 11.0786C57.9429 10.8576 58.4401 10.6994 58.9487 10.589C59.4555 10.488 59.9641 10.4327 60.4709 10.4327C61.1357 10.4327 61.772 10.5166 62.3817 10.6918C62.9817 10.8576 63.5075 11.1167 63.9495 11.4767C64.3915 11.8272 64.7344 12.2711 64.9744 12.8141C65.224 13.3589 65.325 13.9952 65.2888 14.742C65.2431 15.6374 64.984 16.3194 64.5134 16.7804C64.0524 17.251 63.3418 17.592 62.3817 17.8225C62.1321 17.8873 61.8559 17.9234 61.5606 17.933C61.2653 17.9425 60.97 17.9234 60.6938 17.8777C60.408 17.8225 60.1394 17.7387 59.8994 17.611C59.6498 17.491 59.4574 17.3062 59.3183 17.0852C59.2726 17.0109 59.1716 16.9843 59.023 17.0014C58.884 17.0204 58.8192 17.1119 58.8478 17.2872C58.8573 17.4262 58.9316 17.5729 59.0516 17.7291C59.1811 17.8758 59.3469 18.0149 59.5584 18.154C59.7622 18.2835 60.0003 18.394 60.288 18.4683C60.5642 18.5521 60.869 18.5978 61.21 18.5978C61.3301 18.5978 61.4768 18.5788 61.6349 18.5521C61.7911 18.5159 61.9302 18.4873 62.0406 18.4607C62.4655 18.3407 62.8351 18.2492 63.1475 18.2016C63.4523 18.1463 63.7285 18.1559 63.959 18.2206C64.1896 18.2854 64.3934 18.415 64.5496 18.6264C64.7154 18.8303 64.864 19.1332 65.0106 19.5218C65.2221 20.1314 65.1573 20.6477 64.8259 21.0897C64.4944 21.5316 63.8562 21.8917 62.9075 22.187C62.456 22.326 62.0578 22.408 61.7073 22.4537C61.3663 22.4899 60.9605 22.5089 60.4899 22.5089C59.8803 22.5089 59.2897 22.4442 58.7182 22.3146C58.1372 22.1946 57.6019 21.9736 57.1027 21.6497L57.1065 21.6517ZM59.625 14.5648C60.1051 14.4258 60.5471 14.361 60.9719 14.3705C61.3967 14.38 61.8292 14.4258 62.2921 14.5267C62.3664 14.5458 62.4312 14.5172 62.4864 14.4524C62.5417 14.3876 62.5779 14.3229 62.5874 14.241C62.6065 14.1571 62.5874 14.0752 62.5512 14.0009C62.515 13.9266 62.4407 13.8714 62.3302 13.8542C61.8882 13.7533 61.4253 13.6885 60.9376 13.6504C60.4575 13.6218 59.9965 13.6961 59.5717 13.8714C59.4707 13.9076 59.4059 13.9628 59.3678 14.0466C59.3393 14.1305 59.3317 14.2124 59.3393 14.3057C59.3488 14.3896 59.385 14.4619 59.4307 14.5172C59.486 14.582 59.5507 14.5915 59.625 14.5629V14.5648Z" fill="white"/>
<path d="M7.0141 122.416L8.95345 138.535H12.4035L11.5424 122.416H7.0141Z" fill="#FFD16C"/>
<path d="M9.04944 140.217H12.4043V143.42H9.43045L9.04944 140.217Z" fill="#FFD16C"/>
<path d="M0.588745 130.558L4.7494 143.345L7.55366 142.793L4.26742 129.833L0.588745 130.558Z" fill="#FFD16C"/>
<path d="M5.09552 144.698L7.82167 144.159L8.33603 146.761L5.91851 147.237L5.09552 144.698Z" fill="#FFD16C"/>
<path d="M207.409 143.814V128.21L211.693 128.693L208.782 143.814H207.409Z" fill="#FF8FA5"/>
<path d="M209.919 147.112L213.72 135.386L217.397 137.352L210.603 147.891L209.919 147.112Z" fill="#FF8FA5"/>
</svg>
