<svg width="541" height="490" viewBox="0 0 541 490" fill="none" xmlns="http://www.w3.org/2000/svg">
<path d="M429.215 309.513V405.63C429.215 412.961 454.245 418.903 485.108 418.903C515.97 418.903 541 412.961 541 405.63V309.513H429.206H429.215Z" fill="#EEEEEF"/>
<path d="M485.106 322.787C515.975 322.787 540.999 316.844 540.999 309.513C540.999 302.182 515.975 296.239 485.106 296.239C454.237 296.239 429.213 302.182 429.213 309.513C429.213 316.844 454.237 322.787 485.106 322.787Z" fill="#F7F7F7"/>
<path d="M485.105 313.864C495.233 313.864 503.443 311.916 503.443 309.513C503.443 307.11 495.233 305.161 485.105 305.161C474.977 305.161 466.767 307.11 466.767 309.513C466.767 311.916 474.977 313.864 485.105 313.864Z" fill="#9E9E9F"/>
<path d="M111.595 370.836V466.953C111.595 474.284 136.625 480.226 167.487 480.226C198.35 480.226 223.38 474.284 223.38 466.953V370.836H111.585H111.595Z" fill="#EEEEEF"/>
<path d="M167.486 384.11C198.354 384.11 223.378 378.167 223.378 370.836C223.378 363.505 198.354 357.562 167.486 357.562C136.617 357.562 111.593 363.505 111.593 370.836C111.593 378.167 136.617 384.11 167.486 384.11Z" fill="#F7F7F7"/>
<path d="M167.485 375.187C177.613 375.187 185.823 373.239 185.823 370.836C185.823 368.433 177.613 366.484 167.485 366.484C157.357 366.484 149.146 368.433 149.146 370.836C149.146 373.239 157.357 375.187 167.485 375.187Z" fill="#9E9E9F"/>
<path d="M111.595 254.351V350.468C111.595 357.8 136.625 363.742 167.487 363.742C198.35 363.742 223.38 357.8 223.38 350.468V254.351H111.585H111.595Z" fill="#EEEEEF"/>
<path d="M167.486 267.635C198.354 267.635 223.378 261.692 223.378 254.361C223.378 247.03 198.354 241.087 167.486 241.087C136.617 241.087 111.593 247.03 111.593 254.361C111.593 261.692 136.617 267.635 167.486 267.635Z" fill="#F7F7F7"/>
<path d="M167.485 258.712C177.613 258.712 185.823 256.764 185.823 254.361C185.823 251.957 177.613 250.009 167.485 250.009C157.357 250.009 149.146 251.957 149.146 254.361C149.146 256.764 157.357 258.712 167.485 258.712Z" fill="#9E9E9F"/>
<path d="M111.595 137.867V233.984C111.595 241.315 136.625 247.257 167.487 247.257C198.35 247.257 223.38 241.315 223.38 233.984V137.867H111.585H111.595Z" fill="#EEEEEF"/>
<path d="M167.486 151.15C198.354 151.15 223.378 145.207 223.378 137.876C223.378 130.545 198.354 124.603 167.486 124.603C136.617 124.603 111.593 130.545 111.593 137.876C111.593 145.207 136.617 151.15 167.486 151.15Z" fill="#F7F7F7"/>
<path d="M167.485 142.228C177.613 142.228 185.823 140.28 185.823 137.876C185.823 135.473 177.613 133.525 167.485 133.525C157.357 133.525 149.146 135.473 149.146 137.876C149.146 140.28 157.357 142.228 167.485 142.228Z" fill="#9E9E9F"/>
<path d="M342.119 351.599C313.119 351.568 289.584 375.054 289.554 404.054C289.524 433.055 313.009 456.589 342.009 456.619L475.516 456.759C504.516 456.79 528.051 433.305 528.081 404.304C528.111 375.303 504.626 351.769 475.626 351.739L342.119 351.599Z" fill="#46BCB3"/>
<path d="M219.176 221.448L219.005 384.674C218.944 442.675 265.914 489.744 323.916 489.804C381.917 489.865 428.985 442.895 429.046 384.894L429.217 221.668C429.278 163.666 382.308 116.598 324.306 116.537C266.305 116.476 219.237 163.446 219.176 221.448Z" fill="#6ECEC9"/>
<path d="M440.724 384.119H317.813C288.812 384.119 265.303 407.629 265.303 436.629C265.303 465.63 288.812 489.14 317.813 489.14H440.724C469.725 489.14 493.234 465.63 493.234 436.629C493.234 407.629 469.725 384.119 440.724 384.119Z" fill="#6ECEC9"/>
<path d="M371.413 283.706L374.915 283.71C389.738 283.725 401.767 271.721 401.783 256.898L401.82 221.802C401.835 206.979 389.831 194.95 375.008 194.934L371.506 194.93C356.683 194.915 344.654 206.919 344.638 221.743L344.601 256.838C344.586 271.661 356.59 283.691 371.413 283.706Z" fill="#EEEEEF"/>
<path d="M314.221 283.657L317.722 283.66C332.546 283.676 344.575 271.672 344.591 256.848L344.627 221.753C344.643 206.929 332.639 194.9 317.815 194.885L314.314 194.881C299.491 194.865 287.461 206.87 287.446 221.693L287.409 256.788C287.393 271.612 299.398 283.641 314.221 283.657Z" fill="#EEEEEF"/>
<path d="M314.353 231.238L314.336 247.282C314.327 255.643 321.098 262.428 329.459 262.437C337.82 262.446 344.605 255.675 344.614 247.314L344.63 231.27C344.639 222.909 337.868 216.124 329.508 216.116C321.147 216.107 314.362 222.878 314.353 231.238Z" fill="#46BCB3"/>
<path d="M371.539 231.302L371.523 247.346C371.514 255.707 378.285 262.492 386.646 262.501C395.007 262.51 401.791 255.739 401.8 247.378L401.817 231.334C401.826 222.973 395.055 216.188 386.694 216.18C378.333 216.171 371.548 222.942 371.539 231.302Z" fill="#46BCB3"/>
<path d="M395.38 172.743C396.276 172.743 397.172 172.45 397.931 171.856C399.695 170.448 399.988 167.88 398.58 166.106C376.475 138.352 347.322 129.53 346.097 129.173C343.921 128.533 341.663 129.777 341.023 131.943C340.383 134.11 341.627 136.377 343.784 137.017C344.067 137.099 371.758 145.546 392.181 171.198C392.985 172.213 394.173 172.743 395.38 172.743Z" fill="#EEEEEF"/>
<path d="M344.623 279.574C344.623 279.574 351.397 407.997 373.2 380.17C385.24 364.802 344.623 279.574 344.623 279.574Z" fill="#EEEEEF"/>
<path d="M479.39 290.306C479.39 290.306 471.702 269.216 472.406 254.352C472.406 254.352 471.007 252.359 465.248 254.352V311.104L479.399 313.864V290.306H479.39Z" fill="#51F4E8"/>
<path d="M472.711 282.883C472.711 282.883 468.652 275.167 467.875 254.361V253.657L465.251 254.361V278.157C427.98 274.802 407.155 290.16 400.573 296.157C399.037 297.556 398.26 299.466 398.26 301.532V373.944C398.26 379.859 404.824 383.223 409.715 379.905C430.156 366.046 454.784 361.265 466.092 359.72C469.703 359.226 472.318 356.109 472.318 352.461V285.607C472.318 284.785 472.126 283.989 471.861 283.24L472.702 282.892L472.711 282.883Z" fill="#CFFFFA"/>
<path d="M401.805 380.133L408.817 384.823L415.033 381.203V370.891H407.144L401.805 380.133Z" fill="#CFFFFA"/>
<path d="M407.649 300.865C414.249 294.85 435.184 279.373 472.711 282.883C476.459 283.231 479.403 286.549 479.403 290.315V357.16C479.403 360.808 476.788 363.934 473.177 364.419C461.869 365.964 437.241 370.745 416.8 384.604C411.9 387.922 405.345 384.558 405.345 378.643V306.231C405.345 304.165 406.122 302.245 407.658 300.856L407.649 300.865Z" fill="#51F4E8"/>
<path d="M322.978 394.595C307.263 394.595 293.149 391.021 280.716 383.835C233.115 356.328 232.319 287.819 232.301 284.931C232.264 274.5 240.684 266.025 251.087 265.989H251.16C261.536 265.989 269.947 274.354 270.029 284.72C270.157 298.552 275.743 337.478 299.685 351.208C320.062 362.983 353.438 356.255 396.012 331.901C405.09 326.709 416.59 329.872 421.764 338.904C426.938 347.945 423.794 359.482 414.762 364.656C379.886 384.603 349.178 394.595 322.96 394.595H322.978Z" fill="#46BCB3"/>
<path d="M224.492 114.565C201.372 114.565 182.559 95.7601 182.559 72.6497C182.559 49.5393 201.363 30.7164 224.492 30.7164C247.621 30.7164 266.407 49.5211 266.407 72.6497C266.407 95.7784 247.602 114.565 224.492 114.565ZM224.492 40.1599C206.565 40.1599 191.993 54.7319 191.993 72.6589C191.993 90.5859 206.565 105.14 224.492 105.14C242.419 105.14 256.973 90.5676 256.973 72.6589C256.973 54.7501 242.401 40.1599 224.492 40.1599Z" fill="#6ECEC9"/>
<path d="M224.483 98.3289C238.665 98.3289 250.162 86.8319 250.162 72.6497C250.162 58.4674 238.665 46.9705 224.483 46.9705C210.301 46.9705 198.804 58.4674 198.804 72.6497C198.804 86.8319 210.301 98.3289 224.483 98.3289Z" fill="#6ECEC9"/>
<path d="M131.002 116.512H85.4209V107.078H121.567V82.8794H190.423V92.3046H131.002V116.512Z" fill="#6ECEC9"/>
<path d="M187.279 63.3983H106.018V72.8326H187.279V63.3983Z" fill="#6ECEC9"/>
<path d="M195.159 54.4668H131.002V22.5254H154.067V7.34094H163.492V31.9597H140.428V45.0325H195.159V54.4668Z" fill="#6ECEC9"/>
<path d="M319.831 37.0427H245.161V46.477H319.831V37.0427Z" fill="#6ECEC9"/>
<path d="M337.284 87.5142H292.389V66.2413H259.972V56.807H301.823V78.089H337.284V87.5142Z" fill="#6ECEC9"/>
<path d="M282.496 116.512H250.463V93.6119H259.898V107.078H282.496V116.512Z" fill="#6ECEC9"/>
<path d="M158.772 14.6634C162.821 14.6634 166.103 11.3809 166.103 7.3317C166.103 3.28251 162.821 0 158.772 0C154.722 0 151.44 3.28251 151.44 7.3317C151.44 11.3809 154.722 14.6634 158.772 14.6634Z" fill="#6ECEC9"/>
<path d="M106.028 75.4561C110.077 75.4561 113.36 72.1736 113.36 68.1244C113.36 64.0752 110.077 60.7927 106.028 60.7927C101.979 60.7927 98.6963 64.0752 98.6963 68.1244C98.6963 72.1736 101.979 75.4561 106.028 75.4561Z" fill="#6ECEC9"/>
<path d="M85.4118 119.126C89.461 119.126 92.7435 115.844 92.7435 111.795C92.7435 107.746 89.461 104.463 85.4118 104.463C81.3626 104.463 78.0801 107.746 78.0801 111.795C78.0801 115.844 81.3626 119.126 85.4118 119.126Z" fill="#6ECEC9"/>
<path d="M282.497 119.126C286.546 119.126 289.829 115.844 289.829 111.795C289.829 107.746 286.546 104.463 282.497 104.463C278.448 104.463 275.166 107.746 275.166 111.795C275.166 115.844 278.448 119.126 282.497 119.126Z" fill="#6ECEC9"/>
<path d="M337.284 90.1287C341.334 90.1287 344.616 86.8462 344.616 82.797C344.616 78.7478 341.334 75.4653 337.284 75.4653C333.235 75.4653 329.953 78.7478 329.953 82.797C329.953 86.8462 333.235 90.1287 337.284 90.1287Z" fill="#6ECEC9"/>
<path d="M319.822 49.0914C323.871 49.0914 327.154 45.8089 327.154 41.7597C327.154 37.7105 323.871 34.428 319.822 34.428C315.773 34.428 312.49 37.7105 312.49 41.7597C312.49 45.8089 315.773 49.0914 319.822 49.0914Z" fill="#6ECEC9"/>
<path d="M186.044 173.118H11.3358C5.07521 173.118 0 178.193 0 184.454V297.72C0 303.981 5.07521 309.056 11.3358 309.056H186.044C192.305 309.056 197.38 303.981 197.38 297.72V184.454C197.38 178.193 192.305 173.118 186.044 173.118Z" fill="#3E3A39"/>
<path d="M186.543 291.824V190.341C186.543 186.347 183.306 183.11 179.312 183.11H18.0606C14.067 183.11 10.8295 186.347 10.8295 190.341V291.824C10.8295 295.817 14.067 299.055 18.0606 299.055H179.312C183.306 299.055 186.543 295.817 186.543 291.824Z" fill="#6ECEC9"/>
<path d="M179.317 301.423H18.0744C12.7905 301.423 8.47559 297.108 8.47559 291.824V190.332C8.47559 185.048 12.7905 180.751 18.0744 180.751H179.326C184.61 180.751 188.907 185.048 188.907 190.332V291.824C188.907 297.108 184.61 301.423 179.326 301.423H179.317ZM18.0744 185.468C15.3868 185.468 13.1927 187.644 13.1927 190.332V291.824C13.1927 294.511 15.3868 296.705 18.0744 296.705H179.326C182.014 296.705 184.19 294.511 184.19 291.824V190.332C184.19 187.644 182.014 185.468 179.326 185.468H18.0744Z" fill="white"/>
<path d="M77.2767 290.9L85.0106 277.105V267.004C85.0106 267.004 65.8312 266.574 65.8312 247.184L60.5381 241.233L71.7093 227.795V216.514C71.7093 216.514 68.9302 193.202 104.803 193.202C104.803 193.202 136.351 192.562 136.351 222.721V227.456C136.351 227.456 139.441 267.013 110.105 267.013V290.9H77.2767Z" fill="#6ECEC9"/>
<path d="M110.103 293.259H77.2748C76.4429 293.259 75.675 292.82 75.2453 292.098C74.8157 291.376 74.8065 290.48 75.2088 289.758L82.6319 276.493V269.179C75.0991 268.165 63.937 262.917 63.489 248.108L58.7536 242.805C57.9765 241.937 57.9582 240.63 58.717 239.725L69.3489 226.954V216.505C69.3306 216.431 68.4073 208.158 74.7974 200.973C80.7487 194.244 90.8412 190.844 104.792 190.844C105.422 190.898 120.25 190.606 130.215 200.369C135.837 205.882 138.689 213.396 138.689 222.712V227.447C138.744 228.169 140.289 249.515 129.182 261.509C124.867 266.19 119.254 268.786 112.452 269.28V290.891C112.452 292.198 111.401 293.25 110.094 293.25L110.103 293.259ZM81.288 288.542H107.744V267.004C107.744 265.696 108.796 264.645 110.103 264.645C116.584 264.645 121.841 262.524 125.726 258.328C135.416 247.861 133.999 227.84 133.981 227.639V222.721C133.981 214.722 131.604 208.332 126.924 203.743C118.468 195.414 105.057 195.524 104.856 195.561C92.313 195.561 83.4272 198.413 78.381 204.035C73.3896 209.621 74.0295 215.974 74.0478 216.23L74.066 227.804C74.066 228.352 73.8832 228.892 73.5175 229.312L63.6444 241.178L67.6028 245.621C67.9685 246.042 68.1879 246.618 68.1879 247.184C68.1879 263.987 84.3597 264.627 85.0453 264.645C86.316 264.682 87.349 265.733 87.349 267.004V277.096C87.349 277.498 87.2393 277.891 87.0565 278.239L81.288 288.533V288.542Z" fill="white"/>
<path d="M99.6283 254.351H94.9111V284.858H99.6283V254.351Z" fill="white"/>
<path d="M103.347 259.435H91.499V264.152H103.347V259.435Z" fill="white"/>
<path d="M103.347 267.241H91.499V271.959H103.347V267.241Z" fill="white"/>
<path d="M103.347 276.401H91.499V281.119H103.347V276.401Z" fill="white"/>
<path d="M435.686 168.273C435.338 168.254 434.963 168.236 434.616 168.218C434.25 168.199 433.876 168.181 433.492 168.126C432.404 168.053 431.608 167.651 431.115 166.91C430.621 166.188 430.356 165.292 430.356 164.241C430.356 163.784 430.411 163.354 430.539 162.915C430.667 162.495 430.85 162.12 431.106 161.809C431.362 161.498 431.672 161.261 432.084 161.069C432.495 160.877 432.952 160.831 433.482 160.886C433.866 160.904 434.223 160.941 434.57 160.959C434.936 160.977 435.293 161.014 435.64 161.032C435.658 160.648 435.695 160.273 435.713 159.89C435.731 159.487 435.768 159.094 435.823 158.692C435.896 157.586 436.298 156.79 437.039 156.315C437.761 155.84 438.657 155.593 439.708 155.593C440.165 155.593 440.595 155.648 441.034 155.757C441.454 155.867 441.829 156.05 442.14 156.306C442.451 156.562 442.688 156.873 442.88 157.266C443.072 157.659 443.118 158.134 443.063 158.683C443.026 159.103 442.99 159.515 442.972 159.917C442.953 160.301 442.935 160.694 442.917 161.06C443.301 161.041 443.676 161.005 444.059 160.987C444.425 160.968 444.818 160.932 445.22 160.877C445.769 160.822 446.253 160.877 446.637 161.06C447.021 161.243 447.36 161.48 447.616 161.8C447.872 162.12 448.073 162.486 448.201 162.906C448.329 163.345 448.384 163.775 448.384 164.232C448.384 165.283 448.128 166.188 447.625 166.901C447.131 167.642 446.299 168.044 445.175 168.117C444.773 168.172 444.379 168.19 444.032 168.209C443.666 168.227 443.292 168.245 442.908 168.263C442.926 168.611 442.944 168.967 442.962 169.333C442.981 169.68 443.017 170.037 443.054 170.421C443.109 170.969 443.054 171.454 442.871 171.838C442.688 172.222 442.451 172.56 442.131 172.816C441.811 173.072 441.445 173.273 441.024 173.401C440.586 173.529 440.156 173.584 439.699 173.584C438.648 173.584 437.742 173.328 437.029 172.825C436.289 172.331 435.887 171.5 435.814 170.375C435.759 170.028 435.74 169.671 435.722 169.324C435.704 168.958 435.686 168.602 435.667 168.254L435.686 168.273Z" fill="#51F4E8"/>
<path d="M475.78 198.715C475.433 198.697 475.058 198.678 474.711 198.66C474.345 198.642 473.97 198.623 473.586 198.569C472.498 198.495 471.703 198.093 471.209 197.353C470.716 196.63 470.451 195.735 470.451 194.683C470.451 194.226 470.506 193.797 470.634 193.358C470.762 192.937 470.944 192.562 471.2 192.252C471.456 191.941 471.767 191.703 472.178 191.511C472.59 191.319 473.047 191.273 473.577 191.328C473.961 191.347 474.318 191.383 474.665 191.401C475.031 191.42 475.387 191.456 475.735 191.475C475.753 191.091 475.789 190.716 475.808 190.332C475.826 189.93 475.863 189.536 475.917 189.134C475.991 188.028 476.393 187.233 477.133 186.757C477.856 186.282 478.751 186.035 479.803 186.035C480.26 186.035 480.689 186.09 481.128 186.2C481.549 186.309 481.924 186.492 482.234 186.748C482.545 187.004 482.783 187.315 482.975 187.708C483.167 188.101 483.213 188.577 483.158 189.125C483.121 189.546 483.085 189.957 483.066 190.359C483.048 190.743 483.03 191.136 483.011 191.502C483.395 191.484 483.77 191.447 484.154 191.429C484.52 191.411 484.913 191.374 485.315 191.319C485.864 191.264 486.348 191.319 486.732 191.502C487.116 191.685 487.454 191.922 487.71 192.242C487.966 192.562 488.167 192.928 488.295 193.349C488.423 193.787 488.478 194.217 488.478 194.674C488.478 195.725 488.222 196.63 487.719 197.344C487.226 198.084 486.394 198.486 485.27 198.559C484.867 198.614 484.474 198.633 484.127 198.651C483.761 198.669 483.386 198.687 483.002 198.706C483.021 199.053 483.039 199.41 483.057 199.775C483.075 200.123 483.112 200.479 483.149 200.863C483.203 201.412 483.149 201.896 482.966 202.28C482.783 202.664 482.545 203.002 482.225 203.258C481.905 203.514 481.54 203.715 481.119 203.843C480.68 203.971 480.251 204.026 479.794 204.026C478.742 204.026 477.837 203.77 477.124 203.267C476.384 202.774 475.981 201.942 475.908 200.817C475.853 200.47 475.835 200.113 475.817 199.766C475.799 199.4 475.78 199.044 475.762 198.697L475.78 198.715Z" fill="#51F4E8"/>
<path d="M457.498 178.731C456.411 178.658 455.615 178.255 455.122 177.533C454.628 176.793 454.363 175.915 454.363 174.845C454.363 174.407 454.418 173.959 454.546 173.538C454.674 173.099 454.856 172.725 455.112 172.414C455.368 172.103 455.679 171.865 456.091 171.673C456.493 171.509 456.959 171.436 457.489 171.49C459.574 171.673 461.539 171.765 463.367 171.765C465.196 171.783 467.143 171.692 469.227 171.49C469.776 171.436 470.26 171.509 470.644 171.673C471.028 171.856 471.367 172.094 471.622 172.414C471.878 172.734 472.08 173.099 472.208 173.538C472.336 173.959 472.39 174.407 472.39 174.845C472.39 175.915 472.134 176.802 471.632 177.533C471.138 178.255 470.306 178.658 469.182 178.731C468.149 178.804 467.152 178.877 466.201 178.932C465.242 178.968 464.3 179.005 463.367 179.005C462.435 179.005 461.466 178.968 460.515 178.932C459.555 178.877 458.541 178.804 457.498 178.731Z" fill="#51F4E8"/>
<path d="M442.513 250.996C441.425 250.923 440.63 250.521 440.136 249.799C439.643 249.058 439.377 248.181 439.377 247.111C439.377 246.672 439.432 246.224 439.56 245.804C439.688 245.365 439.871 244.99 440.127 244.679C440.383 244.369 440.694 244.131 441.105 243.939C441.507 243.774 441.974 243.701 442.504 243.756C444.588 243.939 446.554 244.03 448.382 244.03C450.21 244.049 452.158 243.957 454.242 243.756C454.79 243.701 455.275 243.774 455.659 243.939C456.043 244.122 456.381 244.359 456.637 244.679C456.893 244.999 457.094 245.365 457.222 245.804C457.35 246.224 457.405 246.672 457.405 247.111C457.405 248.181 457.149 249.067 456.646 249.799C456.153 250.521 455.321 250.923 454.196 250.996C453.163 251.07 452.167 251.143 451.216 251.197C450.256 251.234 449.315 251.271 448.382 251.271C447.45 251.271 446.481 251.234 445.53 251.197C444.57 251.143 443.555 251.07 442.513 250.996Z" fill="#51F4E8"/>
<path d="M457.983 227.639C457.69 227.347 457.416 227.054 457.133 226.762C456.858 226.469 456.566 226.176 456.283 225.884C455.524 225.089 455.213 224.257 455.368 223.342C455.524 222.447 455.99 221.596 456.767 220.801C457.114 220.454 457.489 220.179 457.892 219.951C458.294 219.722 458.723 219.585 459.171 219.54C459.601 219.485 460.049 219.521 460.451 219.677C460.881 219.814 461.283 220.106 461.695 220.527L463.404 222.236C463.697 221.944 463.971 221.651 464.218 221.386C464.474 221.094 464.739 220.819 465.031 220.536C465.415 220.106 465.845 219.814 466.275 219.658C466.722 219.503 467.152 219.448 467.591 219.503C468.039 219.54 468.441 219.677 468.871 219.914C469.282 220.143 469.648 220.417 469.995 220.765C470.772 221.56 471.22 222.392 471.394 223.288C471.549 224.184 471.22 225.052 470.425 225.893C470.132 226.186 469.858 226.478 469.593 226.743C469.337 227.036 469.054 227.31 468.761 227.593C469.054 227.886 469.346 228.178 469.611 228.425C469.904 228.7 470.178 228.965 470.489 229.257C470.9 229.669 471.184 230.071 471.339 230.519C471.476 230.948 471.513 231.396 471.476 231.817C471.421 232.265 471.284 232.667 471.047 233.078C470.836 233.462 470.544 233.856 470.196 234.185C469.438 234.98 468.606 235.446 467.692 235.602C466.796 235.739 465.909 235.428 465.031 234.669C464.739 234.377 464.446 234.084 464.181 233.837C463.907 233.563 463.642 233.316 463.367 233.042C463.075 233.316 462.801 233.563 462.536 233.837C462.261 234.093 461.996 234.377 461.704 234.669C460.89 235.428 460.012 235.739 459.117 235.583C458.202 235.428 457.37 234.962 456.612 234.185C456.264 233.856 455.972 233.462 455.761 233.078C455.533 232.667 455.396 232.265 455.314 231.817C455.259 231.387 455.295 230.939 455.451 230.519C455.624 230.071 455.899 229.669 456.283 229.257C456.575 228.965 456.868 228.69 457.133 228.425C457.425 228.169 457.7 227.904 457.983 227.63V227.639Z" fill="#51F4E8"/>
<path d="M475.112 155.675C474.82 155.383 474.546 155.09 474.262 154.797C473.988 154.505 473.695 154.212 473.412 153.92C472.653 153.125 472.342 152.293 472.498 151.378C472.653 150.483 473.119 149.632 473.896 148.837C474.244 148.49 474.619 148.215 475.021 147.987C475.432 147.758 475.853 147.621 476.301 147.575C476.73 147.521 477.178 147.557 477.581 147.713C478.01 147.85 478.413 148.142 478.824 148.563L480.533 150.272C480.826 149.98 481.1 149.687 481.347 149.422C481.603 149.13 481.868 148.855 482.161 148.572C482.545 148.142 482.974 147.85 483.404 147.694C483.852 147.539 484.282 147.484 484.72 147.539C485.168 147.575 485.571 147.713 486 147.95C486.412 148.179 486.777 148.453 487.125 148.8C487.902 149.596 488.35 150.428 488.523 151.324C488.679 152.219 488.35 153.088 487.554 153.929C487.262 154.222 486.987 154.514 486.722 154.779C486.466 155.072 486.183 155.346 485.89 155.629C486.183 155.922 486.476 156.214 486.741 156.461C487.033 156.736 487.307 157.001 487.618 157.293C488.03 157.705 488.313 158.107 488.468 158.555C488.606 158.984 488.642 159.432 488.606 159.853C488.551 160.301 488.414 160.703 488.176 161.114C487.966 161.498 487.673 161.891 487.326 162.221C486.567 163.016 485.735 163.482 484.821 163.638C483.925 163.775 483.038 163.464 482.161 162.705C481.868 162.413 481.576 162.12 481.31 161.873C481.036 161.599 480.771 161.352 480.497 161.078C480.204 161.352 479.93 161.599 479.665 161.873C479.391 162.129 479.126 162.413 478.833 162.705C478.019 163.464 477.142 163.775 476.246 163.619C475.332 163.464 474.5 162.998 473.741 162.221C473.394 161.891 473.101 161.498 472.891 161.114C472.662 160.703 472.525 160.301 472.443 159.853C472.388 159.423 472.425 158.975 472.58 158.555C472.754 158.107 473.028 157.705 473.412 157.293C473.704 157.001 473.997 156.726 474.262 156.461C474.555 156.205 474.829 155.94 475.112 155.666V155.675Z" fill="#51F4E8"/>
<path d="M443.712 204.172C442.743 203.688 442.176 203.02 442.021 202.17C441.856 201.338 441.984 200.433 442.377 199.483C442.551 199.062 442.77 198.687 443.045 198.349C443.301 198.011 443.611 197.746 443.95 197.554C444.306 197.371 444.681 197.252 445.111 197.252C445.531 197.234 445.97 197.353 446.454 197.599C447.387 198.084 448.365 198.559 449.416 199.053C450.449 199.528 451.528 200.013 452.607 200.47C453.704 200.927 454.783 201.357 455.88 201.777C456.958 202.189 458.01 202.545 458.997 202.847C459.509 203.02 459.92 203.258 460.222 203.578C460.524 203.88 460.716 204.236 460.825 204.611C460.944 204.995 460.972 205.397 460.926 205.827C460.88 206.257 460.761 206.677 460.588 207.098C460.195 208.048 459.619 208.771 458.896 209.228C458.165 209.703 457.26 209.758 456.218 209.401C455.258 209.081 454.234 208.707 453.146 208.314C452.04 207.911 450.961 207.482 449.864 207.025C448.777 206.567 447.698 206.101 446.674 205.608C445.623 205.114 444.644 204.639 443.703 204.172H443.712ZM450.23 193.412C450.833 191.977 451.72 191.017 452.918 190.542C454.097 190.057 455.377 190.103 456.748 190.67C458.129 191.246 459.079 192.133 459.546 193.312C460.012 194.491 459.957 195.798 459.354 197.234C459.107 197.819 458.759 198.322 458.321 198.724C457.882 199.126 457.379 199.428 456.821 199.629C456.254 199.821 455.651 199.903 455.011 199.876C454.362 199.839 453.713 199.684 453.082 199.419C452.433 199.144 451.857 198.788 451.391 198.358C450.907 197.919 450.541 197.435 450.294 196.905C450.029 196.365 449.892 195.798 449.874 195.195C449.874 194.601 449.983 194.007 450.221 193.422L450.23 193.412ZM442.99 210.736C443.593 209.301 444.48 208.341 445.687 207.847C446.866 207.363 448.155 207.39 449.517 207.957C450.897 208.533 451.839 209.438 452.305 210.617C452.771 211.806 452.707 213.122 452.113 214.557C451.866 215.142 451.519 215.645 451.08 216.047C450.641 216.45 450.139 216.751 449.59 216.934C449.023 217.108 448.42 217.19 447.789 217.163C447.14 217.126 446.491 216.989 445.851 216.724C445.202 216.45 444.635 216.075 444.169 215.645C443.685 215.206 443.319 214.722 443.063 214.201C442.789 213.68 442.661 213.113 442.633 212.51C442.633 211.915 442.743 211.321 442.981 210.736H442.99Z" fill="#51F4E8"/>
<path d="M452.15 145.281C451.099 145.564 450.239 145.436 449.554 144.897C448.886 144.376 448.374 143.617 448.045 142.639C447.899 142.209 447.817 141.78 447.798 141.35C447.771 140.92 447.826 140.518 447.945 140.152C448.082 139.777 448.292 139.439 448.621 139.156C448.923 138.863 449.334 138.662 449.855 138.525C450.879 138.278 451.921 137.977 453.037 137.657C454.125 137.328 455.249 136.98 456.364 136.605C457.498 136.221 458.586 135.837 459.683 135.426C460.771 135.024 461.785 134.594 462.727 134.164C463.23 133.954 463.696 133.854 464.126 133.899C464.555 133.927 464.93 134.064 465.268 134.274C465.607 134.484 465.89 134.768 466.146 135.124C466.402 135.481 466.594 135.874 466.731 136.304C467.06 137.282 467.106 138.196 466.868 139.028C466.64 139.869 465.991 140.509 464.976 140.929C464.043 141.322 463.029 141.725 461.95 142.145C460.853 142.575 459.765 142.959 458.631 143.343C457.516 143.718 456.401 144.083 455.304 144.394C454.189 144.714 453.146 145.016 452.132 145.281H452.15ZM449.919 132.903C449.417 131.431 449.453 130.124 450.038 128.972C450.605 127.829 451.592 127.016 452.991 126.54C454.417 126.056 455.706 126.101 456.831 126.668C457.964 127.244 458.787 128.259 459.281 129.731C459.482 130.334 459.555 130.937 459.491 131.532C459.427 132.126 459.253 132.683 458.97 133.195C458.668 133.716 458.275 134.174 457.772 134.576C457.26 134.978 456.675 135.289 456.026 135.508C455.359 135.737 454.691 135.847 454.051 135.828C453.402 135.828 452.808 135.7 452.269 135.463C451.711 135.234 451.236 134.896 450.824 134.466C450.431 134.027 450.12 133.506 449.91 132.903H449.919ZM455.944 150.684C455.441 149.212 455.478 147.905 456.053 146.734C456.62 145.592 457.598 144.76 459.006 144.284C460.432 143.8 461.731 143.855 462.855 144.431C463.989 145.016 464.811 146.04 465.314 147.511C465.515 148.115 465.588 148.718 465.524 149.312C465.46 149.907 465.287 150.464 464.994 150.958C464.683 151.461 464.29 151.918 463.797 152.32C463.285 152.722 462.709 153.051 462.06 153.271C461.392 153.499 460.716 153.591 460.085 153.582C459.436 153.582 458.842 153.454 458.302 153.234C457.754 153.024 457.278 152.686 456.858 152.256C456.465 151.817 456.154 151.296 455.944 150.693V150.684Z" fill="#51F4E8"/>
</svg>
