<svg width="231" height="154" viewBox="0 0 231 154" fill="none" xmlns="http://www.w3.org/2000/svg">
<g id="_&#235;&#160;&#136;&#236;&#157;&#180;&#236;&#150;&#180;_1-2">
<path id="Vector" d="M153.883 28.6858C153.176 28.6858 152.494 28.2956 152.164 27.6186C151.691 26.6647 152.081 25.5145 153.028 25.0413L182.297 10.5162C183.266 10.0505 184.416 10.4331 184.874 11.3795C185.347 12.3334 184.957 13.4836 184.011 13.9568L154.742 28.4819C154.465 28.6178 154.17 28.6858 153.886 28.6858H153.883Z" fill="#595757"/>
<path id="Vector_2" d="M183.55 20.3119C183.331 20.3119 183.122 20.2742 182.911 20.2062C182.43 20.0326 182.04 19.6802 181.813 19.2221L176.48 8.14266C176.261 7.68458 176.233 7.151 176.397 6.67027C176.571 6.18953 176.923 5.79941 177.381 5.57289L187.313 0.805853C188.289 0.362876 189.424 0.752998 189.883 1.70691C190.341 2.66837 189.935 3.8186 188.982 4.27668L180.786 8.21313L184.451 15.8218L192.639 11.8778C193.608 11.4272 194.758 11.8249 195.208 12.7788C195.666 13.7327 195.261 14.883 194.307 15.3486L184.386 20.1257C184.124 20.2465 183.837 20.3145 183.553 20.3145L183.55 20.3119Z" fill="#595757"/>
<path id="Vector_3" d="M181.088 15.2051C180.376 15.2051 179.684 14.8075 179.354 14.1153C178.896 13.1614 179.301 12.0112 180.255 11.5455L190.184 6.76843C191.161 6.32545 192.296 6.70802 192.754 7.66949C193.212 8.6234 192.807 9.77363 191.853 10.2393L181.924 15.0164C181.655 15.1447 181.368 15.2051 181.091 15.2051H181.088Z" fill="#595757"/>
<path id="Vector_4" d="M115.17 43.2083C126.396 43.2083 135.497 34.1077 135.497 22.8817C135.497 11.6556 126.396 2.55505 115.17 2.55505C103.944 2.55505 94.8436 11.6556 94.8436 22.8817C94.8436 34.1077 103.944 43.2083 115.17 43.2083Z" fill="#FFD16C"/>
<path id="Vector_5" d="M159.025 76.1699C159.025 64.0598 149.208 54.2426 137.098 54.2426C124.988 54.2426 115.17 64.0598 115.17 76.1699V127.495C115.17 139.605 124.988 149.422 137.098 149.422C149.208 149.422 159.025 139.605 159.025 127.495V76.1699Z" fill="#FFB92E"/>
<path id="Vector_6" d="M115.17 76.1699C115.17 64.0598 105.353 54.2426 93.2427 54.2426C81.1325 54.2426 71.3153 64.0598 71.3153 76.1699V127.495C71.3153 139.605 81.1325 149.422 93.2427 149.422C105.353 149.422 115.17 139.605 115.17 127.495V76.1699Z" fill="#FFD16C"/>
<path id="Vector_7" d="M159.065 61.7631C159.065 37.5428 139.431 17.9083 115.211 17.9083C90.9904 17.9083 71.356 37.5428 71.356 61.7631V75.5557C71.356 99.776 90.9904 119.41 115.211 119.41C139.431 119.41 159.065 99.776 159.065 75.5557V61.7631Z" fill="#FFD16C"/>
<path id="Vector_8" d="M73.689 97.3144C72.8207 97.3144 71.9397 97.181 71.0689 96.9017C59.7855 93.2647 51.6735 86.1242 47.6112 76.2579C38.1803 53.3465 53.005 23.5386 54.7266 20.2163C56.8936 16.0307 62.0457 14.3947 66.2314 16.5643C70.417 18.7313 72.053 23.8784 69.8884 28.0615C66.2289 35.1819 57.9331 56.5429 63.4074 69.7869C65.5619 74.997 69.7802 78.5534 76.3066 80.655C80.7942 82.1022 83.2583 86.912 81.8136 91.3972C80.6483 95.014 77.2957 97.317 73.6915 97.317L73.689 97.3144Z" fill="#FFD16C"/>
<path id="Vector_9" d="M156.654 97.3144C153.05 97.3144 149.698 95.0114 148.532 91.3946C147.088 86.9069 149.552 82.0996 154.039 80.6524C160.573 78.5457 164.797 74.9818 166.949 69.7592C172.438 56.4271 164.125 35.1441 160.46 28.0665C158.29 23.8809 159.926 18.7287 164.112 16.5617C168.298 14.3946 173.45 16.0281 175.617 20.2137C177.338 23.536 192.163 53.3464 182.732 76.2554C178.67 86.1242 170.558 93.2622 159.275 96.8991C158.404 97.1785 157.523 97.3119 156.654 97.3119V97.3144Z" fill="#FFB92E"/>
<path id="Vector_10" d="M105.819 124.472C101.948 124.472 98.8021 121.323 98.8021 117.452V93.5744C98.8021 89.7033 101.951 86.5547 105.819 86.5547C109.688 86.5547 112.839 89.7033 112.839 93.5744V117.452C112.839 121.323 109.69 124.472 105.819 124.472ZM105.819 89.9701C103.831 89.9701 102.215 91.586 102.215 93.5744V117.452C102.215 119.441 103.831 121.057 105.819 121.057C107.808 121.057 109.424 119.441 109.424 117.452V93.5744C109.424 91.586 107.808 89.9701 105.819 89.9701Z" fill="#EEEEEF"/>
<path id="Vector_11" d="M129.964 19.6149C129.254 19.6149 128.592 19.1695 128.348 18.4622C125.685 10.6874 118.663 10.3225 118.366 10.3099C117.427 10.2722 116.692 9.48436 116.722 8.54555C116.753 7.62436 117.508 6.89697 118.424 6.89697C118.442 6.89697 118.459 6.89697 118.474 6.89697C118.867 6.90704 128.132 7.29465 131.577 17.3548C131.882 18.2483 131.406 19.2173 130.515 19.5243C130.331 19.5873 130.145 19.6175 129.961 19.6175L129.964 19.6149Z" fill="#EEEEEF"/>
<g id="Group" opacity="0.5">
<path id="Vector_12" d="M139.858 82.4749C146.866 82.4749 152.548 76.7933 152.548 69.7846C152.548 62.776 146.866 57.0944 139.858 57.0944C132.849 57.0944 127.167 62.776 127.167 69.7846C127.167 76.7933 132.849 82.4749 139.858 82.4749Z" fill="#FF7373"/>
</g>
<g id="Group_2" opacity="0.5">
<path id="Vector_13" d="M79.7225 77.5064C83.9872 77.5064 87.4444 74.0492 87.4444 69.7845C87.4444 65.5198 83.9872 62.0626 79.7225 62.0626C75.4578 62.0626 72.0006 65.5198 72.0006 69.7845C72.0006 74.0492 75.4578 77.5064 79.7225 77.5064Z" fill="#FF7373"/>
</g>
<path id="Vector_14" d="M106.066 59.7822C106.066 53.1877 100.721 47.8419 94.1271 47.8419C87.5334 47.8419 82.1881 53.1877 82.1881 59.7822V72.9733C82.1881 79.5677 87.5334 84.9136 94.1271 84.9136C100.721 84.9136 106.066 79.5677 106.066 72.9733V59.7822Z" fill="#EEEEEF"/>
<path id="Vector_15" d="M129.697 59.533C129.697 52.9386 124.352 47.5928 117.758 47.5928C111.164 47.5928 105.819 52.9386 105.819 59.533V72.7242C105.819 79.3186 111.164 84.6644 117.758 84.6644C124.352 84.6644 129.697 79.3186 129.697 72.7242V59.533Z" fill="#EEEEEF"/>
<path id="Vector_16" d="M112.391 56.7067H112.388C108.898 56.7067 106.068 59.5362 106.068 63.0266V69.7292C106.068 73.2196 108.898 76.0492 112.388 76.0492H112.391C115.881 76.0492 118.711 73.2196 118.711 69.7292V63.0266C118.711 59.5362 115.881 56.7067 112.391 56.7067Z" fill="#FFB92E"/>
<path id="Vector_17" d="M88.5106 56.7067H88.5081C85.0177 56.7067 82.1881 59.5362 82.1881 63.0266V69.7292C82.1881 73.2196 85.0177 76.0492 88.5081 76.0492H88.5106C92.001 76.0492 94.8306 73.2196 94.8306 69.7292V63.0266C94.8306 59.5362 92.001 56.7067 88.5106 56.7067Z" fill="#FFB92E"/>
<path id="Vector_18" d="M226.929 97.3146H4.07102C1.88724 97.3146 0.116943 99.0849 0.116943 101.269V101.271C0.116943 103.455 1.88724 105.225 4.07102 105.225H226.929C229.113 105.225 230.883 103.455 230.883 101.271V101.269C230.883 99.0849 229.113 97.3146 226.929 97.3146Z" fill="#EEEEEF"/>
<path id="Vector_19" d="M129.207 145.465H101.793C99.6093 145.465 97.839 147.236 97.839 149.42V149.422C97.839 151.606 99.6093 153.376 101.793 153.376H129.207C131.391 153.376 133.161 151.606 133.161 149.422V149.42C133.161 147.236 131.391 145.465 129.207 145.465Z" fill="#EEEEEF"/>
<path id="Vector_20" d="M119.822 103.881C119.822 101.494 117.887 99.5596 115.5 99.5596C113.113 99.5596 111.178 101.494 111.178 103.881V146.284C111.178 148.67 113.113 150.605 115.5 150.605C117.887 150.605 119.822 148.67 119.822 146.284V103.881Z" fill="#EEEEEF"/>
<path id="Vector_21" d="M155.617 94.347H122.447C121.628 94.347 120.964 95.0108 120.964 95.8295V95.832C120.964 96.6508 121.628 97.3145 122.447 97.3145H155.617C156.436 97.3145 157.099 96.6508 157.099 95.832V95.8295C157.099 95.0108 156.436 94.347 155.617 94.347Z" fill="#FFE8C0"/>
<path id="Vector_22" d="M150.895 84.6646H127.168V94.3471H150.895V84.6646Z" fill="white"/>
<path id="Vector_23" d="M149.647 88.903H127.168V91.0373H149.647V88.903Z" fill="#FFEECF"/>
<path id="Vector_24" d="M127.168 84.6645L147.196 79.8823C147.196 79.8823 150.895 80.4411 150.895 84.6645H127.168Z" fill="#FF7373"/>
<path id="Vector_25" d="M69.7476 84.1988C69.6117 84.1988 69.4783 84.1837 69.3348 84.1535C68.2979 83.927 67.646 82.9001 67.87 81.8631L69.7929 73.1068C69.7778 73.0615 70.0622 70.3206 72.3778 68.9614C74.0666 67.9773 76.2085 68.0377 78.7682 69.2005C79.7297 69.636 80.1651 70.7786 79.7221 71.7477C79.2792 72.7091 78.1516 73.1445 77.175 72.7016C75.8914 72.1302 74.8393 71.9666 74.3284 72.2737C73.7268 72.6261 73.5859 73.663 73.5859 73.6781L71.6252 82.6912C71.4289 83.5847 70.6336 84.2014 69.7476 84.2014V84.1988Z" fill="#E73828"/>
<path id="Vector_26" d="M76.852 76.2327H57.8442C56.7393 76.2327 55.9012 77.2244 56.0799 78.3117L58.9768 95.8169C59.1203 96.6802 59.8653 97.3119 60.7412 97.3119H75.2084C76.1321 97.3119 76.9023 96.6097 76.9879 95.691L78.6314 78.1859C78.7296 77.1363 77.904 76.2302 76.852 76.2302V76.2327Z" fill="#FF7373"/>
<path id="Vector_27" d="M57.0298 94.4073C56.3301 94.4073 55.6404 94.2714 55.0011 94.0248C51.7719 92.7864 49.2626 88.6839 50.667 84.5687C51.6058 81.8127 53.0631 80.2572 55.0011 79.9502C58.1246 79.4695 60.8152 82.827 61.1072 83.2096L58.0365 85.5226C57.3519 84.6291 56.0456 83.7054 55.6027 83.7507C55.3837 83.7885 54.8375 84.2617 54.3039 85.8171C53.569 87.9867 55.0615 89.9323 56.3854 90.4432C56.7529 90.5791 57.8956 91.0221 58.7589 89.0237L62.2901 90.5565C61.0971 93.3125 59.0307 94.4099 57.0323 94.4099L57.0298 94.4073Z" fill="#FF7373"/>
<path id="Vector_28" d="M145.517 76.93C145.517 76.93 141.522 81.4906 144.686 83.26C147.85 85.0294 148.333 81.7599 148.049 80.0937C148.049 80.0937 147.286 76.0616 146.456 75.9937C146.161 75.971 145.517 76.9275 145.517 76.9275V76.93Z" fill="#E73828"/>
<path id="Vector_29" d="M59.7749 75.1857C58.1817 75.1857 56.8829 73.887 56.8829 72.2938C56.8829 70.7006 58.1817 69.4019 59.7749 69.4019C61.3681 69.4019 62.6668 70.7006 62.6668 72.2938C62.6668 73.887 61.3681 75.1857 59.7749 75.1857ZM59.7749 70.1695C58.602 70.1695 57.6506 71.1234 57.6506 72.2938C57.6506 73.4642 58.6045 74.4181 59.7749 74.4181C60.9452 74.4181 61.8991 73.4642 61.8991 72.2938C61.8991 71.1234 60.9452 70.1695 59.7749 70.1695Z" fill="#FFFDFD"/>
<path id="Vector_30" d="M56.0557 60.7487C55.3434 60.7487 54.7645 60.1698 54.7645 59.4576C54.7645 58.7453 55.3434 58.1664 56.0557 58.1664C56.768 58.1664 57.3469 58.7453 57.3469 59.4576C57.3469 60.1698 56.768 60.7487 56.0557 60.7487ZM56.0557 58.9315C55.7713 58.9315 55.5297 59.1706 55.5297 59.4576C55.5297 59.7445 55.7688 59.9836 56.0557 59.9836C56.3426 59.9836 56.5817 59.7445 56.5817 59.4576C56.5817 59.1706 56.3426 58.9315 56.0557 58.9315Z" fill="#FFFDFD"/>
<path id="Vector_31" d="M54.1344 64.1666H54.0287C53.6386 64.1364 53.2786 63.9628 53.0219 63.6708C52.4883 63.0617 52.5487 62.1304 53.1578 61.5969C53.7594 61.0557 54.6831 61.1237 55.2318 61.7252H55.2393C55.7653 62.3343 55.7049 63.2656 55.1034 63.7992C54.8341 64.0383 54.4868 64.1666 54.1344 64.1666ZM54.1268 62.0046C53.9607 62.0046 53.7971 62.0574 53.6688 62.1783C53.5253 62.2991 53.4422 62.4702 53.4297 62.659C53.4221 62.8402 53.4825 63.0189 53.6033 63.1624C53.7317 63.3058 53.8953 63.3889 54.084 63.4015C54.2955 63.3864 54.4591 63.3562 54.595 63.2278C54.8794 62.9736 54.9096 62.5206 54.6554 62.2361C54.5195 62.0776 54.3257 62.0021 54.1294 62.0021L54.1268 62.0046Z" fill="#FFFDFD"/>
<path id="Vector_32" d="M58.2955 66.0444C57.2661 66.0444 56.433 65.2113 56.433 64.1819C56.433 63.1524 57.2661 62.3193 58.2955 62.3193C59.3249 62.3193 60.158 63.1524 60.158 64.1819C60.158 65.2113 59.3249 66.0444 58.2955 66.0444ZM58.2955 63.0845C57.694 63.0845 57.1981 63.5803 57.1981 64.1819C57.1981 64.7834 57.694 65.2792 58.2955 65.2792C58.897 65.2792 59.3929 64.7834 59.3929 64.1819C59.3929 63.5803 58.897 63.0845 58.2955 63.0845Z" fill="#FFFDFD"/>
<path id="Vector_33" d="M55.0655 70.4766C54.4715 70.4766 53.88 70.2375 53.4572 69.7568C52.6769 68.8708 52.765 67.5192 53.646 66.7365C54.0436 66.3841 54.5395 66.2029 55.0579 66.2029H55.2014C55.7728 66.2406 56.2912 66.4948 56.6738 66.9227C57.0488 67.3506 57.2376 67.9068 57.1998 68.4782C57.1621 69.0495 56.9079 69.568 56.48 69.9506C56.0748 70.3029 55.5714 70.4766 55.068 70.4766H55.0655ZM55.0655 66.968C54.7282 66.968 54.4111 67.0888 54.1569 67.3128C53.5931 67.8087 53.5327 68.6795 54.0361 69.2433C54.5395 69.8147 55.4103 69.8751 55.9666 69.3641C56.2434 69.125 56.4095 68.7928 56.4322 68.4253C56.4548 68.0654 56.334 67.7055 56.0874 67.4337C55.8483 67.1568 55.516 66.9907 55.1486 66.968H55.0655Z" fill="#FFFDFD"/>
<path id="Vector_34" d="M87.4418 24.6135L82.1236 4.01001L77.0973 5.91783L85.7454 24.8199L87.4418 24.6135Z" fill="#6C8CFF"/>
<path id="Vector_35" d="M84.3301 25.9474L77.7508 15.1725L75.1307 17.6491L83.6127 27.1555L84.3301 25.9474Z" fill="#6C8CFF"/>
<path id="Vector_36" d="M89.7194 22.2475L86.3744 9.74346L89.7496 9.33069L90.9275 18.9529L91.2245 21.3817L89.7194 22.2475Z" fill="#6C8CFF"/>
</g>
</svg>
