<svg xmlns="http://www.w3.org/2000/svg" width="27" height="27" viewBox="0 0 27 27" fill="none">
    <g clip-path="url(#clip0_583_8668)">
        <path d="M0.906203 16.6666C1.12945 16.6666 1.34355 16.7553 1.50141 16.9132C1.65927 17.071 1.74795 17.2851 1.74795 17.5084V21.7171C1.74795 22.1636 1.92532 22.5918 2.24104 22.9075C2.55676 23.2233 2.98496 23.4006 3.43145 23.4006H23.6334C24.0799 23.4006 24.5081 23.2233 24.8239 22.9075C25.1396 22.5918 25.3169 22.1636 25.3169 21.7171V17.5084C25.3169 17.2851 25.4056 17.071 25.5635 16.9132C25.7213 16.7553 25.9355 16.6666 26.1587 16.6666C26.3819 16.6666 26.596 16.7553 26.7539 16.9132C26.9118 17.071 27.0004 17.2851 27.0004 17.5084V21.7171C27.0004 22.6101 26.6457 23.4665 26.0143 24.098C25.3828 24.7294 24.5264 25.0841 23.6334 25.0841H3.43145C2.53847 25.0841 1.68206 24.7294 1.05062 24.098C0.41919 23.4665 0.0644531 22.6101 0.0644531 21.7171V17.5084C0.0644531 17.2851 0.153137 17.071 0.310996 16.9132C0.468855 16.7553 0.682957 16.6666 0.906203 16.6666Z" fill="black" fill-opacity="0.7"/>
        <path d="M12.9365 19.9562C13.0147 20.0346 13.1076 20.0968 13.2099 20.1392C13.3121 20.1816 13.4218 20.2035 13.5325 20.2035C13.6432 20.2035 13.7528 20.1816 13.8551 20.1392C13.9574 20.0968 14.0502 20.0346 14.1284 19.9562L19.1789 14.9057C19.337 14.7476 19.4258 14.5332 19.4258 14.3097C19.4258 14.0862 19.337 13.8718 19.1789 13.7138C19.0209 13.5557 18.8065 13.4669 18.583 13.4669C18.3594 13.4669 18.1451 13.5557 17.987 13.7138L14.3742 17.3282V2.52522C14.3742 2.30198 14.2855 2.08787 14.1277 1.93001C13.9698 1.77216 13.7557 1.68347 13.5325 1.68347C13.3092 1.68347 13.0951 1.77216 12.9373 1.93001C12.7794 2.08787 12.6907 2.30198 12.6907 2.52522V17.3282L9.07793 13.7138C8.91987 13.5557 8.7055 13.4669 8.48197 13.4669C8.25845 13.4669 8.04407 13.5557 7.88601 13.7138C7.72796 13.8718 7.63916 14.0862 7.63916 14.3097C7.63916 14.5332 7.72796 14.7476 7.88601 14.9057L12.9365 19.9562Z" fill="black" fill-opacity="0.7"/>
    </g>
    <defs>
        <clipPath id="clip0_583_8668">
            <rect width="26.936" height="26.936" fill="white" transform="translate(0.0644531)"/>
        </clipPath>
    </defs>
</svg>