<svg xmlns="http://www.w3.org/2000/svg" width="29" height="27" viewBox="0 0 29 27" fill="none">
    <path d="M25.2195 1.75103C25.6839 1.75103 26.1293 1.93552 26.4577 2.2639C26.7861 2.59228 26.9706 3.03766 26.9706 3.50207V17.5103C26.9706 17.9747 26.7861 18.4201 26.4577 18.7485C26.1293 19.0769 25.6839 19.2614 25.2195 19.2614H8.43414C7.50541 19.2616 6.61479 19.6307 5.95818 20.2875L2.45611 23.7895V3.50207C2.45611 3.03766 2.64059 2.59228 2.96898 2.2639C3.29736 1.93552 3.74274 1.75103 4.20714 1.75103H25.2195ZM4.20714 0C3.27834 0 2.38757 0.368967 1.73081 1.02573C1.07404 1.6825 0.705078 2.57326 0.705078 3.50207L0.705078 25.903C0.705115 26.0763 0.756546 26.2456 0.852861 26.3896C0.949176 26.5336 1.08605 26.6458 1.24615 26.712C1.40625 26.7781 1.58238 26.7953 1.75226 26.7614C1.92214 26.7274 2.07812 26.6438 2.20046 26.5211L7.19616 21.5254C7.52446 21.197 7.96977 21.0125 8.43414 21.0124H25.2195C26.1483 21.0124 27.0391 20.6434 27.6959 19.9867C28.3526 19.3299 28.7216 18.4391 28.7216 17.5103V3.50207C28.7216 2.57326 28.3526 1.6825 27.6959 1.02573C27.0391 0.368967 26.1483 0 25.2195 0L4.20714 0Z" fill="black" fill-opacity="0.7"/>
    <path d="M9.46203 10.5065C9.46203 10.9709 9.27754 11.4163 8.94916 11.7447C8.62078 12.0731 8.1754 12.2576 7.71099 12.2576C7.24659 12.2576 6.80121 12.0731 6.47283 11.7447C6.14444 11.4163 5.95996 10.9709 5.95996 10.5065C5.95996 10.0421 6.14444 9.59674 6.47283 9.26836C6.80121 8.93998 7.24659 8.75549 7.71099 8.75549C8.1754 8.75549 8.62078 8.93998 8.94916 9.26836C9.27754 9.59674 9.46203 10.0421 9.46203 10.5065ZM16.4662 10.5065C16.4662 10.9709 16.2817 11.4163 15.9533 11.7447C15.6249 12.0731 15.1795 12.2576 14.7151 12.2576C14.2507 12.2576 13.8053 12.0731 13.477 11.7447C13.1486 11.4163 12.9641 10.9709 12.9641 10.5065C12.9641 10.0421 13.1486 9.59674 13.477 9.26836C13.8053 8.93998 14.2507 8.75549 14.7151 8.75549C15.1795 8.75549 15.6249 8.93998 15.9533 9.26836C16.2817 9.59674 16.4662 10.0421 16.4662 10.5065ZM23.4703 10.5065C23.4703 10.9709 23.2858 11.4163 22.9574 11.7447C22.629 12.0731 22.1837 12.2576 21.7193 12.2576C21.2549 12.2576 20.8095 12.0731 20.4811 11.7447C20.1527 11.4163 19.9682 10.9709 19.9682 10.5065C19.9682 10.0421 20.1527 9.59674 20.4811 9.26836C20.8095 8.93998 21.2549 8.75549 21.7193 8.75549C22.1837 8.75549 22.629 8.93998 22.9574 9.26836C23.2858 9.59674 23.4703 10.0421 23.4703 10.5065Z" fill="black" fill-opacity="0.7"/>
</svg>