<svg xmlns="http://www.w3.org/2000/svg" width="36" height="27" viewBox="0 0 36 27" fill="none">
    <path d="M33.2583 26.936C33.2583 26.936 35.4542 26.936 35.4542 24.6913C35.4542 22.4467 33.2583 15.7127 24.4749 15.7127C15.6914 15.7127 13.4955 22.4467 13.4955 24.6913C13.4955 26.936 15.6914 26.936 15.6914 26.936H33.2583ZM15.7397 24.6913C15.7235 24.689 15.7074 24.686 15.6914 24.6823C15.6936 24.0898 16.0581 22.3703 17.3603 20.8215C18.5724 19.3692 20.7024 17.9573 24.4749 17.9573C28.2452 17.9573 30.3752 19.3715 31.5895 20.8215C32.8916 22.3703 33.254 24.092 33.2583 24.6823L33.2408 24.6868C33.2306 24.6886 33.2203 24.6901 33.21 24.6913H15.7397ZM24.4749 11.2233C25.6396 11.2233 26.7567 10.7503 27.5803 9.90844C28.4039 9.06652 28.8666 7.92464 28.8666 6.734C28.8666 5.54335 28.4039 4.40147 27.5803 3.55956C26.7567 2.71765 25.6396 2.24467 24.4749 2.24467C23.3101 2.24467 22.1931 2.71765 21.3694 3.55956C20.5458 4.40147 20.0831 5.54335 20.0831 6.734C20.0831 7.92464 20.5458 9.06652 21.3694 9.90844C22.1931 10.7503 23.3101 11.2233 24.4749 11.2233ZM31.0625 6.734C31.0625 7.61832 30.8921 8.49398 30.561 9.31099C30.23 10.128 29.7447 10.8703 29.133 11.4957C28.5213 12.121 27.7951 12.617 26.9958 12.9554C26.1966 13.2938 25.34 13.468 24.4749 13.468C23.6098 13.468 22.7531 13.2938 21.9539 12.9554C21.1547 12.617 20.4284 12.121 19.8167 11.4957C19.205 10.8703 18.7198 10.128 18.3887 9.31099C18.0577 8.49398 17.8873 7.61832 17.8873 6.734C17.8873 4.94803 18.5813 3.23521 19.8167 1.97234C21.0521 0.709473 22.7277 0 24.4749 0C26.222 0 27.8976 0.709473 29.133 1.97234C30.3684 3.23521 31.0625 4.94803 31.0625 6.734ZM15.5509 16.3412C14.6725 16.0584 13.767 15.8726 12.8499 15.7867C12.3346 15.7366 11.8173 15.7119 11.2997 15.7127C2.51618 15.7127 0.320312 22.4467 0.320312 24.6913C0.320312 26.1885 1.05154 26.936 2.51618 26.936H11.774C11.4484 26.2352 11.2861 25.4669 11.2997 24.6913C11.2997 22.4242 12.1275 20.1077 13.6932 18.1728C14.2268 17.5129 14.8482 16.8956 15.5509 16.3412ZM11.124 17.9573C9.82437 19.9534 9.12232 22.2936 9.10379 24.6913H2.51618C2.51618 24.1077 2.8763 22.3793 4.18504 20.8215C5.38179 19.3939 7.46128 18.0022 11.124 17.9596V17.9573ZM3.61412 7.85633C3.61412 6.07036 4.30817 4.35755 5.54358 3.09468C6.779 1.83181 8.45458 1.12233 10.2017 1.12233C11.9489 1.12233 13.6244 1.83181 14.8599 3.09468C16.0953 4.35755 16.7893 6.07036 16.7893 7.85633C16.7893 9.6423 16.0953 11.3551 14.8599 12.618C13.6244 13.8809 11.9489 14.5903 10.2017 14.5903C8.45458 14.5903 6.779 13.8809 5.54358 12.618C4.30817 11.3551 3.61412 9.6423 3.61412 7.85633ZM10.2017 3.367C9.03696 3.367 7.91991 3.83998 7.09629 4.68189C6.27268 5.52381 5.80999 6.66569 5.80999 7.85633C5.80999 9.04698 6.27268 10.1889 7.09629 11.0308C7.91991 11.8727 9.03696 12.3457 10.2017 12.3457C11.3665 12.3457 12.4835 11.8727 13.3072 11.0308C14.1308 10.1889 14.5935 9.04698 14.5935 7.85633C14.5935 6.66569 14.1308 5.52381 13.3072 4.68189C12.4835 3.83998 11.3665 3.367 10.2017 3.367Z" fill="black" fill-opacity="0.7"/>
</svg>