<svg width="37" height="27" viewBox="0 0 37 27" fill="none" xmlns="http://www.w3.org/2000/svg">
<path id="Vector" d="M33.8919 26.936C33.8919 26.936 36.0868 26.936 36.0868 24.6913C36.0868 22.4467 33.8919 15.7127 25.1124 15.7127C16.3329 15.7127 14.138 22.4467 14.138 24.6913C14.138 26.936 16.3329 26.936 16.3329 26.936H33.8919ZM16.3812 24.6913C16.365 24.689 16.3488 24.686 16.3329 24.6823C16.3351 24.0898 16.6994 22.3703 18.001 20.8215C19.2126 19.3692 21.3416 17.9573 25.1124 17.9573C28.881 17.9573 31.01 19.3715 32.2238 20.8215C33.5253 22.3703 33.8875 24.092 33.8919 24.6823L33.8743 24.6868C33.8641 24.6886 33.8539 24.6901 33.8436 24.6913H16.3812ZM25.1124 11.2233C26.2766 11.2233 27.3932 10.7503 28.2164 9.90844C29.0396 9.06652 29.5021 7.92464 29.5021 6.734C29.5021 5.54335 29.0396 4.40147 28.2164 3.55956C27.3932 2.71765 26.2766 2.24467 25.1124 2.24467C23.9481 2.24467 22.8316 2.71765 22.0084 3.55956C21.1851 4.40147 20.7226 5.54335 20.7226 6.734C20.7226 7.92464 21.1851 9.06652 22.0084 9.90844C22.8316 10.7503 23.9481 11.2233 25.1124 11.2233ZM31.697 6.734C31.697 7.61832 31.5267 8.49398 31.1958 9.31099C30.8649 10.128 30.3799 10.8703 29.7684 11.4957C29.157 12.121 28.4311 12.617 27.6322 12.9554C26.8333 13.2938 25.9771 13.468 25.1124 13.468C24.2477 13.468 23.3914 13.2938 22.5926 12.9554C21.7937 12.617 21.0678 12.121 20.4563 11.4957C19.8449 10.8703 19.3599 10.128 19.029 9.31099C18.6981 8.49398 18.5278 7.61832 18.5278 6.734C18.5278 4.94803 19.2215 3.23521 20.4563 1.97234C21.6912 0.709473 23.366 0 25.1124 0C26.8587 0 28.5336 0.709473 29.7684 1.97234C31.0033 3.23521 31.697 4.94803 31.697 6.734ZM16.1924 16.3412C15.3144 16.0584 14.4094 15.8726 13.4927 15.7867C12.9776 15.7366 12.4605 15.7119 11.9431 15.7127C3.16363 15.7127 0.96875 22.4467 0.96875 24.6913C0.96875 26.1885 1.69964 26.936 3.16363 26.936H12.4172C12.0918 26.2352 11.9296 25.4669 11.9431 24.6913C11.9431 22.4242 12.7706 20.1077 14.3355 18.1728C14.8689 17.5129 15.49 16.8956 16.1924 16.3412ZM11.7675 17.9573C10.4685 19.9534 9.76678 22.2936 9.74825 24.6913H3.16363C3.16363 24.1077 3.52359 22.3793 4.83173 20.8215C6.02794 19.3939 8.10649 18.0022 11.7675 17.9596V17.9573ZM4.26106 7.85633C4.26106 6.07036 4.9548 4.35755 6.18966 3.09468C7.42451 1.83181 9.09934 1.12233 10.8457 1.12233C12.592 1.12233 14.2669 1.83181 15.5017 3.09468C16.7366 4.35755 17.4303 6.07036 17.4303 7.85633C17.4303 9.6423 16.7366 11.3551 15.5017 12.618C14.2669 13.8809 12.592 14.5903 10.8457 14.5903C9.09934 14.5903 7.42451 13.8809 6.18966 12.618C4.9548 11.3551 4.26106 9.6423 4.26106 7.85633ZM10.8457 3.367C9.68146 3.367 8.5649 3.83998 7.74167 4.68189C6.91843 5.52381 6.45594 6.66569 6.45594 7.85633C6.45594 9.04698 6.91843 10.1889 7.74167 11.0308C8.5649 11.8727 9.68146 12.3457 10.8457 12.3457C12.0099 12.3457 13.1265 11.8727 13.9497 11.0308C14.773 10.1889 15.2354 9.04698 15.2354 7.85633C15.2354 6.66569 14.773 5.52381 13.9497 4.68189C13.1265 3.83998 12.0099 3.367 10.8457 3.367Z" fill="#229EEB"/>
</svg>
