<svg xmlns="http://www.w3.org/2000/svg" width="46" height="46" viewBox="0 0 46 46" fill="none">
    <rect width="46" height="46" rx="8" fill="#229EEB"/>
    <path d="M35.2977 12.5127C35.4607 12.6761 35.5522 12.8976 35.5522 13.1284C35.5522 13.3593 35.4607 13.5807 35.2977 13.7442L33.4783 15.5654L29.9894 12.0765L31.8089 10.2554C31.9724 10.0919 32.1942 10 32.4255 10C32.6568 10 32.8786 10.0919 33.0422 10.2554L35.2977 12.5109V12.5127ZM32.245 16.7969L28.7561 13.3081L16.8714 25.1946C16.7754 25.2906 16.7031 25.4076 16.6603 25.5365L15.2561 29.7475C15.2306 29.8243 15.227 29.9066 15.2456 29.9853C15.2643 30.064 15.3044 30.136 15.3616 30.1932C15.4188 30.2504 15.4908 30.2906 15.5695 30.3092C15.6482 30.3278 15.7305 30.3242 15.8073 30.2987L20.0183 28.8945C20.147 28.8522 20.2641 28.7805 20.3602 28.6852L32.245 16.7969Z" fill="white"/>
    <path fill-rule="evenodd" clip-rule="evenodd" d="M10 32.6773C10 33.3713 10.2757 34.0368 10.7664 34.5275C11.2571 35.0183 11.9227 35.2939 12.6166 35.2939H31.8052C32.4992 35.2939 33.1648 35.0183 33.6555 34.5275C34.1462 34.0368 34.4219 33.3713 34.4219 32.6773V22.2108C34.4219 21.9795 34.33 21.7576 34.1664 21.5941C34.0028 21.4305 33.781 21.3386 33.5497 21.3386C33.3183 21.3386 33.0965 21.4305 32.9329 21.5941C32.7693 21.7576 32.6775 21.9795 32.6775 22.2108V32.6773C32.6775 32.9086 32.5856 33.1305 32.422 33.2941C32.2584 33.4576 32.0366 33.5495 31.8052 33.5495H12.6166C12.3853 33.5495 12.1635 33.4576 11.9999 33.2941C11.8363 33.1305 11.7444 32.9086 11.7444 32.6773V13.4887C11.7444 13.2574 11.8363 13.0355 11.9999 12.872C12.1635 12.7084 12.3853 12.6165 12.6166 12.6165H23.9554C24.1867 12.6165 24.4085 12.5246 24.5721 12.361C24.7357 12.1975 24.8276 11.9756 24.8276 11.7443C24.8276 11.513 24.7357 11.2911 24.5721 11.1275C24.4085 10.964 24.1867 10.8721 23.9554 10.8721H12.6166C11.9227 10.8721 11.2571 11.1478 10.7664 11.6385C10.2757 12.1292 10 12.7947 10 13.4887V32.6773Z" fill="white"/>
</svg>