<svg width="47" height="47" viewBox="0 0 47 47" fill="none" xmlns="http://www.w3.org/2000/svg">
<g id="Group 377">
<rect id="Rectangle 250" x="0.0644531" y="0.480469" width="46" height="46" rx="8" fill="#229EEB"/>
<g id="Group 376">
<path id="Vector" d="M35.3622 12.9931C35.5251 13.1566 35.6167 13.378 35.6167 13.6089C35.6167 13.8398 35.5251 14.0612 35.3622 14.2247L33.5427 16.0459L30.0539 12.557L31.8733 10.7358C32.0369 10.5723 32.2587 10.4805 32.49 10.4805C32.7212 10.4805 32.9431 10.5723 33.1066 10.7358L35.3622 12.9914V12.9931ZM32.3094 17.2774L28.8206 13.7886L16.9359 25.675C16.8398 25.771 16.7676 25.8881 16.7248 26.017L15.3205 30.228C15.2951 30.3048 15.2914 30.3871 15.3101 30.4658C15.3287 30.5445 15.3689 30.6165 15.4261 30.6737C15.4833 30.7309 15.5552 30.771 15.6339 30.7897C15.7126 30.8083 15.795 30.8047 15.8718 30.7792L20.0828 29.375C20.2115 29.3327 20.3285 29.261 20.4247 29.1656L32.3094 17.2774Z" fill="white"/>
<path id="Vector_2" fill-rule="evenodd" clip-rule="evenodd" d="M10.0645 33.1578C10.0645 33.8518 10.3401 34.5173 10.8308 35.008C11.3216 35.4987 11.9871 35.7744 12.6811 35.7744H31.8697C32.5637 35.7744 33.2292 35.4987 33.7199 35.008C34.2106 34.5173 34.4863 33.8518 34.4863 33.1578V22.6913C34.4863 22.4599 34.3944 22.2381 34.2309 22.0745C34.0673 21.9109 33.8454 21.8191 33.6141 21.8191C33.3828 21.8191 33.1609 21.9109 32.9974 22.0745C32.8338 22.2381 32.7419 22.4599 32.7419 22.6913V33.1578C32.7419 33.3891 32.65 33.611 32.4864 33.7745C32.3229 33.9381 32.101 34.03 31.8697 34.03H12.6811C12.4498 34.03 12.2279 33.9381 12.0643 33.7745C11.9008 33.611 11.8089 33.3891 11.8089 33.1578V13.9692C11.8089 13.7378 11.9008 13.516 12.0643 13.3524C12.2279 13.1889 12.4498 13.097 12.6811 13.097H24.0198C24.2511 13.097 24.473 13.0051 24.6366 12.8415C24.8001 12.6779 24.892 12.4561 24.892 12.2247C24.892 11.9934 24.8001 11.7716 24.6366 11.608C24.473 11.4444 24.2511 11.3525 24.0198 11.3525H12.6811C11.9871 11.3525 11.3216 11.6282 10.8308 12.1189C10.3401 12.6096 10.0645 13.2752 10.0645 13.9692V33.1578Z" fill="white"/>
</g>
</g>
</svg>
