<svg width="20" height="20" viewBox="0 0 20 20" fill="none" xmlns="http://www.w3.org/2000/svg">
<g id="Frame" clip-path="url(#clip0_1216_8083)">
<path id="Vector" d="M0.833336 9.99992C0.833336 4.93742 4.9375 0.833252 10 0.833252C15.0625 0.833252 19.1667 4.93742 19.1667 9.99992C19.1667 15.0624 15.0625 19.1666 10 19.1666C4.9375 19.1666 0.833336 15.0624 0.833336 9.99992ZM14.4 7.73325C14.5103 7.6147 14.5704 7.45799 14.5676 7.29606C14.5648 7.13413 14.4994 6.97959 14.385 6.86492C14.2703 6.75055 14.1158 6.68509 13.9539 6.68229C13.7919 6.67949 13.6352 6.73958 13.5167 6.84992L8.54167 11.8249L6.48334 9.76659C6.36479 9.65625 6.20808 9.59616 6.04614 9.59896C5.88421 9.60175 5.72967 9.66722 5.615 9.78159C5.50063 9.89626 5.43517 10.0508 5.43237 10.2127C5.42958 10.3747 5.48966 10.5314 5.6 10.6499L8.1 13.1499C8.21719 13.267 8.37604 13.3327 8.54167 13.3327C8.70729 13.3327 8.86615 13.267 8.98334 13.1499L14.4 7.73325Z" fill="#229EEB"/>
</g>
<defs>
<clipPath id="clip0_1216_8083">
<rect width="20" height="20" fill="white"/>
</clipPath>
</defs>
</svg>
