<svg width="9" height="6" viewBox="0 0 9 6" fill="none" xmlns="http://www.w3.org/2000/svg">
<path id="Vector" d="M0.137346 0.155659C0.0938063 0.204934 0.059265 0.263454 0.0356978 0.327871C0.0121306 0.392289 0 0.46134 0 0.531076C0 0.600811 0.0121306 0.669863 0.0356978 0.73428C0.059265 0.798698 0.0938063 0.857217 0.137346 0.906492L4.0436 5.33358C4.08707 5.38292 4.13871 5.42207 4.19555 5.44878C4.25239 5.47549 4.31331 5.48923 4.37485 5.48923C4.43638 5.48923 4.4973 5.47549 4.55414 5.44878C4.61098 5.42207 4.66262 5.38292 4.7061 5.33358L8.61235 0.906492C8.65585 0.857192 8.69035 0.798664 8.71389 0.73425C8.73744 0.669836 8.74955 0.600797 8.74955 0.531076C8.74955 0.461354 8.73744 0.392316 8.71389 0.327902C8.69035 0.263488 8.65585 0.20496 8.61235 0.155659C8.56885 0.106359 8.5172 0.0672515 8.46037 0.0405703C8.40353 0.0138891 8.34261 0.000156044 8.2811 0.000156045C8.21958 0.000156046 8.15866 0.0138891 8.10182 0.0405703C8.04499 0.0672515 7.99335 0.106359 7.94984 0.155659L4.37485 4.20662L0.799847 0.155659C0.756368 0.106314 0.704733 0.0671663 0.647894 0.0404569C0.591055 0.0137474 0.530128 0 0.468596 0C0.407065 0 0.346138 0.0137474 0.289299 0.0404569C0.23246 0.0671663 0.180824 0.106314 0.137346 0.155659Z" fill="#8C9499"/>
</svg>
