<svg width="32" height="26" viewBox="0 0 32 26" fill="none" xmlns="http://www.w3.org/2000/svg">
<g id="Group 221">
<path id="Vector" d="M10.0876 11.8428C10.0876 12.2915 9.88724 12.7218 9.53063 13.0391C9.17401 13.3564 8.69034 13.5346 8.18601 13.5346C7.68168 13.5346 7.198 13.3564 6.84138 13.0391C6.48477 12.7218 6.28442 12.2915 6.28442 11.8428C6.28442 11.394 6.48477 10.9637 6.84138 10.6464C7.198 10.3291 7.68168 10.1509 8.18601 10.1509C8.69034 10.1509 9.17401 10.3291 9.53063 10.6464C9.88724 10.9637 10.0876 11.394 10.0876 11.8428ZM17.6939 11.8428C17.6939 12.2915 17.4936 12.7218 17.137 13.0391C16.7803 13.3564 16.2967 13.5346 15.7923 13.5346C15.288 13.5346 14.8043 13.3564 14.4477 13.0391C14.0911 12.7218 13.8908 12.2915 13.8908 11.8428C13.8908 11.394 14.0911 10.9637 14.4477 10.6464C14.8043 10.3291 15.288 10.1509 15.7923 10.1509C16.2967 10.1509 16.7803 10.3291 17.137 10.6464C17.4936 10.9637 17.6939 11.394 17.6939 11.8428ZM23.3987 13.5346C23.903 13.5346 24.3867 13.3564 24.7433 13.0391C25.0999 12.7218 25.3003 12.2915 25.3003 11.8428C25.3003 11.394 25.0999 10.9637 24.7433 10.6464C24.3867 10.3291 23.903 10.1509 23.3987 10.1509C22.8943 10.1509 22.4107 10.3291 22.054 10.6464C21.6974 10.9637 21.4971 11.394 21.4971 11.8428C21.4971 12.2915 21.6974 12.7218 22.054 13.0391C22.4107 13.3564 22.8943 13.5346 23.3987 13.5346Z" fill="white"/>
<path id="Vector_2" d="M4.69652 25.0449L4.73455 25.0382C8.21445 24.424 10.3404 23.6136 11.3292 23.1686C12.7851 23.5141 14.2855 23.6882 15.7923 23.6864C24.1934 23.6864 31.0049 18.384 31.0049 11.8432C31.0049 5.30236 24.1934 0 15.7923 0C7.39106 0 0.57959 5.30236 0.57959 11.8432C0.57959 14.8209 1.99247 17.5448 4.32571 19.6258C4.16247 20.9626 3.82816 22.2784 3.32928 23.5476L3.32357 23.5662C3.1818 23.9298 3.02706 24.2892 2.85959 24.644C2.70936 24.9586 3.0003 25.3106 3.37872 25.2564C3.81924 25.1923 4.25857 25.1218 4.69652 25.0449ZM6.21778 19.7866C6.24442 19.5389 6.20932 19.289 6.11499 19.0547C6.02065 18.8205 5.86941 18.6076 5.67203 18.4314C3.65635 16.6312 2.48117 14.3269 2.48117 11.8432C2.48117 6.44269 8.19353 1.69188 15.7923 1.69188C23.391 1.69188 29.1033 6.44269 29.1033 11.8432C29.1033 17.2454 23.391 21.9945 15.7923 21.9945C14.4518 21.9962 13.1169 21.8415 11.8217 21.5343C11.3691 21.4264 10.8877 21.471 10.4697 21.6595C9.73381 21.9911 8.11176 22.6238 5.46095 23.1703C5.83077 22.0658 6.08414 20.9329 6.21778 19.7866Z" fill="white"/>
</g>
</svg>
