<svg width="18" height="20" viewBox="0 0 18 20" fill="none" xmlns="http://www.w3.org/2000/svg">
<g id="chevron-down 6">
<path id="Vector" d="M14.0849 13.1499C14.1372 13.0919 14.1786 13.0231 14.2069 12.9473C14.2352 12.8715 14.2498 12.7903 14.2498 12.7082C14.2498 12.6262 14.2352 12.5449 14.2069 12.4691C14.1786 12.3934 14.1372 12.3245 14.0849 12.2665L9.39744 7.05821C9.34527 7.00016 9.28331 6.9541 9.2151 6.92268C9.14689 6.89126 9.07378 6.87508 8.99994 6.87508C8.9261 6.87508 8.85299 6.89126 8.78478 6.92268C8.71658 6.9541 8.65462 7.00016 8.60244 7.05821L3.91494 12.2665C3.86274 12.3245 3.82133 12.3934 3.79308 12.4692C3.76483 12.545 3.75029 12.6262 3.75029 12.7082C3.75029 12.7902 3.76483 12.8715 3.79308 12.9472C3.82133 13.023 3.86274 13.0919 3.91494 13.1499C3.96714 13.2079 4.02911 13.2539 4.09731 13.2853C4.16552 13.3167 4.23862 13.3328 4.31244 13.3328C4.38626 13.3328 4.45936 13.3167 4.52757 13.2853C4.59577 13.2539 4.65774 13.2079 4.70994 13.1499L8.99994 8.38405L13.2899 13.1499C13.3421 13.2079 13.4041 13.254 13.4723 13.2854C13.5405 13.3168 13.6136 13.333 13.6874 13.333C13.7613 13.333 13.8344 13.3168 13.9026 13.2854C13.9708 13.254 14.0328 13.2079 14.0849 13.1499Z" fill="white"/>
</g>
</svg>
