<svg width="26" height="26" viewBox="0 0 26 26" fill="none" xmlns="http://www.w3.org/2000/svg">
<g id="bell 1" clip-path="url(#clip0_592_19829)">
<path id="Vector" d="M13 26C13.862 26 14.6886 25.6575 15.2981 25.048C15.9076 24.4386 16.25 23.6119 16.25 22.75H9.75C9.75 23.6119 10.0924 24.4386 10.7019 25.048C11.3114 25.6575 12.138 26 13 26ZM13 3.11671L11.7049 3.37833C10.2358 3.67766 8.91529 4.47537 7.96681 5.63647C7.01833 6.79756 6.50016 8.25071 6.5 9.74996C6.5 10.7705 6.28225 13.3201 5.75412 15.8307C5.49412 17.0771 5.14313 18.3755 4.67675 19.5H21.3232C20.8569 18.3755 20.5075 17.0787 20.2459 15.8307C19.7177 13.3201 19.5 10.7705 19.5 9.74996C19.4995 8.25099 18.9811 6.79822 18.0327 5.63746C17.0842 4.47671 15.7639 3.67923 14.2951 3.37996L13 3.11671ZM23.1075 19.5C23.4699 20.2263 23.8891 20.8016 24.375 21.125H1.625C2.11087 20.8016 2.53012 20.2263 2.8925 19.5C4.355 16.575 4.875 11.18 4.875 9.74996C4.875 5.81746 7.67 2.53496 11.3831 1.78583C11.3604 1.55988 11.3854 1.33169 11.4563 1.11596C11.5272 0.90024 11.6426 0.701778 11.7949 0.533376C11.9473 0.364975 12.1332 0.230373 12.3408 0.138252C12.5484 0.0461306 12.7729 -0.00146484 13 -0.00146484C13.2271 -0.00146484 13.4517 0.0461306 13.6592 0.138252C13.8668 0.230373 14.0527 0.364975 14.2051 0.533376C14.3574 0.701778 14.4728 0.90024 14.5437 1.11596C14.6146 1.33169 14.6396 1.55988 14.6169 1.78583C16.4536 2.15942 18.1047 3.15629 19.2908 4.60765C20.4768 6.059 21.1248 7.87564 21.125 9.74996C21.125 11.18 21.645 16.575 23.1075 19.5Z" fill="white"/>
</g>
<defs>
<clipPath id="clip0_592_19829">
<rect width="26" height="26" fill="white"/>
</clipPath>
</defs>
</svg>
