<svg width="14" height="14" viewBox="0 0 14 14" fill="none" xmlns="http://www.w3.org/2000/svg">
<g id="eye-slash 1" clip-path="url(#clip0_666_39)">
<path id="Vector" d="M11.6892 9.83325C13.1776 8.505 14.0001 7 14.0001 7C14.0001 7 11.3751 2.1875 7.00009 2.1875C6.15973 2.19039 5.32889 2.3655 4.55884 2.702L5.23259 3.37662C5.79909 3.17026 6.39717 3.06397 7.00009 3.0625C8.85509 3.0625 10.3942 4.0845 11.5221 5.21237C12.0649 5.7581 12.5515 6.35699 12.9746 7C12.9238 7.07612 12.8678 7.16012 12.804 7.252C12.5108 7.672 12.0777 8.232 11.5221 8.78762C11.3777 8.932 11.2272 9.07462 11.0697 9.21287L11.6892 9.83325Z" fill="#229EEB"/>
<path id="Vector_2" d="M9.88494 8.02907C10.0802 7.48293 10.1164 6.89257 9.98921 6.32668C9.86207 5.7608 9.57684 5.24265 9.16672 4.83253C8.75661 4.42242 8.23846 4.13719 7.67257 4.01004C7.10669 3.88289 6.51633 3.91906 5.97019 4.11432L6.69032 4.83444C7.02659 4.78631 7.36945 4.81716 7.69173 4.92453C8.01401 5.03191 8.30685 5.21287 8.54706 5.45308C8.78726 5.69328 8.96822 5.98612 9.0756 6.3084C9.18298 6.63068 9.21382 6.97354 9.16569 7.30982L9.88494 8.02907ZM7.30982 9.16569L8.02907 9.88494C7.48293 10.0802 6.89257 10.1164 6.32668 9.98921C5.7608 9.86207 5.24265 9.57684 4.83253 9.16672C4.42242 8.75661 4.13719 8.23846 4.01004 7.67257C3.88289 7.10669 3.91906 6.51633 4.11432 5.97019L4.83444 6.69032C4.78631 7.02659 4.81716 7.36945 4.92453 7.69173C5.03191 8.01401 5.21287 8.30685 5.45308 8.54706C5.69328 8.78726 5.98612 8.96822 6.3084 9.0756C6.63068 9.18298 6.97354 9.21382 7.30982 9.16569Z" fill="#229EEB"/>
<path id="Vector_3" d="M2.93125 4.78619C2.77375 4.92619 2.62238 5.06794 2.478 5.21231C1.93519 5.75804 1.44858 6.35692 1.0255 6.99994L1.19613 7.25194C1.48925 7.67194 1.92238 8.23194 2.478 8.78756C3.60588 9.91544 5.14588 10.9374 7 10.9374C7.6265 10.9374 8.21625 10.8211 8.7675 10.6224L9.44125 11.2979C8.6712 11.6344 7.84035 11.8095 7 11.8124C2.625 11.8124 0 6.99994 0 6.99994C0 6.99994 0.821625 5.49406 2.31088 4.16669L2.93038 4.78706L2.93125 4.78619ZM11.9403 12.5597L1.44025 2.05969L2.05975 1.44019L12.5598 11.9402L11.9403 12.5597Z" fill="#229EEB"/>
</g>
<defs>
<clipPath id="clip0_666_39">
<rect width="14" height="14" fill="white"/>
</clipPath>
</defs>
</svg>
