<svg width="24" height="25" viewBox="0 0 24 25" fill="none" xmlns="http://www.w3.org/2000/svg">
<g id="chevron-down 6">
<path id="Vector" d="M5.22 8.96975C5.15033 9.03932 5.09507 9.12193 5.05736 9.21288C5.01965 9.30382 5.00024 9.4013 5.00024 9.49975C5.00024 9.5982 5.01965 9.69569 5.05736 9.78663C5.09507 9.87757 5.15033 9.96019 5.22 10.0298L11.47 16.2798C11.5396 16.3494 11.6222 16.4047 11.7131 16.4424C11.8041 16.4801 11.9015 16.4995 12 16.4995C12.0984 16.4995 12.1959 16.4801 12.2869 16.4424C12.3778 16.4047 12.4604 16.3494 12.53 16.2798L18.78 10.0298C18.8496 9.96015 18.9048 9.87753 18.9425 9.78659C18.9801 9.69565 18.9995 9.59818 18.9995 9.49975C18.9995 9.40132 18.9801 9.30386 18.9425 9.21292C18.9048 9.12198 18.8496 9.03935 18.78 8.96975C18.7104 8.90015 18.6278 8.84494 18.5368 8.80728C18.4459 8.76961 18.3484 8.75022 18.25 8.75022C18.1516 8.75022 18.0541 8.76961 17.9632 8.80728C17.8722 8.84494 17.7896 8.90015 17.72 8.96975L12 14.6888L6.28 8.96975C6.21043 8.90009 6.12782 8.84482 6.03687 8.80712C5.94593 8.76941 5.84845 8.75 5.75 8.75C5.65155 8.75 5.55406 8.76941 5.46312 8.80712C5.37218 8.84482 5.28956 8.90009 5.22 8.96975Z" fill="#8C9499"/>
</g>
</svg>
