<svg width="34" height="34" viewBox="0 0 34 34" fill="none" xmlns="http://www.w3.org/2000/svg">
<g id="camera-video (1) 1">
<path id="Vector" fill-rule="evenodd" clip-rule="evenodd" d="M0 10.625C0 9.49783 0.447767 8.41683 1.2448 7.6198C2.04183 6.82277 3.12283 6.375 4.25 6.375H20.1875C21.2183 6.37488 22.2141 6.74941 22.9893 7.42885C23.7645 8.10828 24.2663 9.04631 24.4014 10.0682L31.0101 7.1315C31.3336 6.98736 31.688 6.92636 32.041 6.95403C32.3941 6.9817 32.7346 7.09717 33.0317 7.28995C33.3288 7.48272 33.573 7.74668 33.7421 8.05784C33.9112 8.369 33.9998 8.71748 34 9.07163V24.9284C33.9997 25.2822 33.911 25.6304 33.742 25.9413C33.573 26.2522 33.3291 26.516 33.0323 26.7087C32.7355 26.9015 32.3953 27.017 32.0425 27.0449C31.6898 27.0728 31.3356 27.0122 31.0122 26.8685L24.4014 23.9317C24.2663 24.9537 23.7645 25.8917 22.9893 26.5712C22.2141 27.2506 21.2183 27.6251 20.1875 27.625H4.25C3.12283 27.625 2.04183 27.1772 1.2448 26.3802C0.447767 25.5832 0 24.5022 0 23.375V10.625ZM24.4375 21.6219L31.875 24.9284V9.07163L24.4375 12.3781V21.6219ZM4.25 8.5C3.68641 8.5 3.14591 8.72388 2.7474 9.1224C2.34888 9.52091 2.125 10.0614 2.125 10.625V23.375C2.125 23.9386 2.34888 24.4791 2.7474 24.8776C3.14591 25.2761 3.68641 25.5 4.25 25.5H20.1875C20.7511 25.5 21.2916 25.2761 21.6901 24.8776C22.0886 24.4791 22.3125 23.9386 22.3125 23.375V10.625C22.3125 10.0614 22.0886 9.52091 21.6901 9.1224C21.2916 8.72388 20.7511 8.5 20.1875 8.5H4.25Z" fill="white"/>
</g>
</svg>
