<svg width="652" height="491" viewBox="0 0 652 491" fill="none" xmlns="http://www.w3.org/2000/svg">
<path d="M188.35 466.035C187.633 466.035 186.916 466.014 186.186 465.964C182.935 465.75 106.056 459.99 67.8362 400.416C41.5521 359.449 40.6965 305.919 65.2845 241.313C71.6159 224.681 90.2349 216.337 106.861 222.661C123.492 228.992 131.839 247.606 125.513 264.237C108.66 308.514 107.442 342.531 121.897 365.345C142.312 397.565 190.15 401.642 190.633 401.679C208.303 403.051 221.635 418.449 220.364 436.124C219.139 453.077 205.092 466.037 188.35 466.037V466.035Z" fill="#A94ECE"/>
<path d="M318.599 81.502C227.552 81.502 153.061 155.996 153.061 247.04V490.026H484.139V247.04C484.139 155.993 409.648 81.502 318.601 81.502H318.599Z" fill="#BF73D8"/>
<path d="M463.666 459.688C446.846 459.688 432.679 446.633 431.551 429.604C430.376 411.899 443.731 396.591 461.409 395.328C462.561 395.232 509.858 390.985 530.125 358.996C544.577 336.182 543.361 302.165 526.509 257.888C520.183 241.257 528.532 222.643 545.161 216.312C561.792 209.98 580.401 218.33 586.737 234.964C611.325 299.573 610.467 353.105 584.185 394.067C545.961 453.641 469.087 459.401 465.835 459.615C465.111 459.666 464.383 459.686 463.666 459.686V459.688Z" fill="#A94ECE"/>
<path d="M196.008 94.8566C222.062 94.8566 243.183 73.7354 243.183 47.6811C243.183 21.6268 222.062 0.505615 196.008 0.505615C169.953 0.505615 148.832 21.6268 148.832 47.6811C148.832 73.7354 169.953 94.8566 196.008 94.8566Z" fill="#BF73D8"/>
<path d="M318.599 123.003C318.599 77.2901 281.542 40.2325 235.83 40.2325C190.118 40.2325 153.061 77.2901 153.061 123.003V339.937C153.061 385.649 190.118 422.707 235.83 422.707C281.542 422.707 318.599 385.649 318.599 339.937V123.003Z" fill="#BF73D8"/>
<path d="M325.37 273.553C325.37 298.444 345.549 318.622 370.44 318.622C395.331 318.622 415.509 298.444 415.509 273.553V223.756C415.509 198.865 395.331 178.686 370.44 178.686C345.549 178.686 325.37 198.865 325.37 223.756V273.553Z" fill="#EEEEEF"/>
<path d="M235.235 273.553C235.235 298.444 255.413 318.622 280.304 318.622C305.195 318.622 325.373 298.444 325.373 273.553V223.756C325.373 198.865 305.195 178.686 280.304 178.686C255.413 178.686 235.235 198.865 235.235 223.756V273.553Z" fill="#EEEEEF"/>
<path d="M304.165 236.011C304.165 222.833 293.482 212.15 280.304 212.15C267.126 212.15 256.443 222.833 256.443 236.011V261.298C256.443 274.476 267.126 285.159 280.304 285.159C293.482 285.159 304.165 274.476 304.165 261.298V236.011Z" fill="#A94ECE"/>
<path d="M394.301 236.011C394.301 222.833 383.618 212.15 370.44 212.15C357.262 212.15 346.579 222.833 346.579 236.011V261.298C346.579 274.476 357.262 285.159 370.44 285.159C383.618 285.159 394.301 274.476 394.301 261.298V236.011Z" fill="#A94ECE"/>
<path d="M337.285 365.805C325.589 365.805 319.796 351.688 317.886 347.03C316.534 343.736 318.107 339.974 321.401 338.623C324.698 337.282 328.455 338.844 329.809 342.138C333.437 350.981 336.437 352.916 337.297 352.916H337.305C340.317 352.883 346.749 343.824 350.29 334.632C351.568 331.313 355.29 329.652 358.614 330.933C361.936 332.209 363.599 335.93 362.323 339.247C360.637 343.653 351.513 365.637 337.459 365.8C337.403 365.8 337.345 365.805 337.287 365.805H337.285Z" fill="#EEEEEF"/>
<path d="M454.005 194.429C451.627 194.429 449.334 193.103 448.214 190.826C417.006 127.215 362.074 119.404 361.526 119.331C357.993 118.873 355.507 115.645 355.962 112.114C356.42 108.581 359.659 106.057 363.179 106.55C365.713 106.878 425.559 115.386 459.785 185.141C461.355 188.337 460.031 192.197 456.841 193.767C455.927 194.215 454.956 194.427 454.005 194.427V194.429Z" fill="#EEEEEF"/>
<path d="M567.484 256.414C533.57 263.032 508.255 257.458 481.926 235.399C471.513 248.895 461.102 262.388 450.689 275.883C474.794 290.886 501.33 298.815 529.995 295.104C547.182 292.877 564.96 274.177 552.252 256.318C548.062 250.43 542.083 245.679 538.057 239.934C533.384 233.265 533.228 225.952 532.083 217.99C529.534 200.262 526.316 183.133 527.851 165.15C511.839 169.486 495.829 173.824 479.817 178.16C488.242 190.775 486.09 210.358 492.135 224.452C497.296 236.489 501.936 248.359 508.867 259.62C514.939 269.484 520.407 283.141 530.923 289.276C543.062 296.359 557.487 292.353 566.03 282.011C577.175 268.518 578.521 246.262 580.972 229.631C581.81 223.944 582.555 218.244 583.325 212.547C583.607 210.456 584.938 202.622 583.421 211.863C584.601 204.678 585.381 184.119 591.758 179.68C579.135 174.544 566.515 169.411 553.893 164.275C557.252 178.842 550.617 193.948 547.974 208.136C545.028 223.944 544.303 240.052 541.419 255.863C537.103 279.524 565.484 301.115 584.5 280.941C579.649 286.087 588.861 278.478 591.564 276.837C596.803 273.659 602.254 270.74 607.342 267.322C622.312 257.274 632.906 242.712 644.688 229.344C630.327 220.985 615.966 212.625 601.607 204.266C599.71 215.539 588.147 224.541 580.487 232.447C572.072 241.134 564.346 250.374 556.113 259.219C533.53 283.483 569.905 320.021 592.566 295.672C612.33 274.436 646.294 247.843 651.319 217.968C655.177 195.028 626.958 171.645 608.238 192.889C597.807 204.724 588.786 218.312 575.177 226.571C566.307 231.954 555.267 236.828 548.047 244.486C562.409 252.845 576.77 261.205 591.129 269.564C594.84 249.214 595.935 228.622 600.638 208.448C605.208 188.837 608.193 170.457 603.605 150.568C600.067 135.232 579.158 125.821 565.74 135.162C541.663 151.924 536.286 179.459 532.534 206.86C531.859 211.792 530.417 222.074 529.006 230.17C528.082 235.469 527.07 240.746 525.855 245.988C521.756 263.689 523.781 240.263 543.936 241.24C550.01 243.756 556.087 246.272 562.162 248.789C552.343 237.842 545.705 219.717 540.272 206.223C533.238 188.757 535.173 168.366 524.333 152.138C509.659 130.169 478.478 139.593 476.299 165.148C474.389 187.554 479.2 209.603 482.374 231.692C483.929 242.513 485.414 253.437 490.987 263.12C495.361 270.712 502.825 275.43 507.739 282.338C515.158 269.408 522.576 256.482 529.997 243.552C509.617 246.192 493.954 242.103 476.709 231.37C452.368 216.219 422.699 252.775 445.473 271.854C463.697 287.122 481.156 301.146 504.823 306.986C530.317 313.277 555.846 311.073 581.189 306.126C613.719 299.777 599.946 250.08 567.484 256.414Z" fill="#A94ECE"/>
<path d="M70.8311 312.47C96.2394 317.427 121.633 319.501 147.197 313.33C170.869 307.618 188.361 293.433 206.547 278.198C229.089 259.313 199.906 222.407 175.311 237.714C158.076 248.442 142.418 252.538 122.023 249.896C129.441 262.826 136.86 275.753 144.281 288.682C148.712 282.454 155.416 278.309 159.54 271.608C165.997 261.112 167.92 250.055 169.646 238.039C172.819 215.96 177.631 193.893 175.721 171.494C173.544 145.98 142.386 136.476 127.687 158.484C116.864 174.69 118.736 195.096 111.748 212.57C106.378 225.998 99.6366 244.234 89.8578 255.135C95.9324 252.619 102.01 250.103 108.084 247.586C108.791 247.551 129.834 258.331 128.344 260.241C128.774 259.69 126.656 254.977 126.588 254.119C126.177 249.025 124.285 243.66 123.374 238.602C121.842 230.107 120.201 218.436 119.486 213.207C115.734 185.808 110.359 158.273 86.2794 141.509C72.8618 132.168 51.9503 141.579 48.4147 156.914C43.8248 176.812 46.8017 195.151 51.3816 214.795C56.0823 234.966 57.1794 255.563 60.8912 275.911C75.2524 267.551 89.6137 259.192 103.972 250.832C96.778 243.2 85.6654 238.27 76.8428 232.918C63.234 224.661 54.2126 211.073 43.782 199.235C25.1025 178.04 -3.16199 201.359 0.700728 224.314C5.7361 254.255 39.7205 280.813 59.4543 302.019C82.1047 326.358 118.5 289.839 95.9073 265.566C87.671 256.716 79.9531 247.483 71.5332 238.794C63.7146 230.724 52.3479 222.125 50.4128 210.612C36.0515 218.972 21.6903 227.331 7.33152 235.691C19.1134 249.061 29.7051 263.616 44.6778 273.669C49.1344 276.661 53.893 279.243 58.4905 282.008C61.4851 283.81 72.2831 292.336 67.5194 287.285C86.4984 307.417 114.919 285.889 110.601 262.207C107.717 246.396 106.992 230.288 104.045 214.48C101.408 200.335 94.785 185.098 98.1268 170.619C85.5044 175.755 72.8845 180.888 60.2621 186.024C66.6387 190.463 67.4163 211.022 68.599 218.207C67.0136 208.569 68.4807 217.321 68.6946 218.891C69.4646 224.588 70.2095 230.288 71.0475 235.975C73.5111 252.699 74.807 274.816 85.99 288.355C94.5333 298.7 108.955 302.701 121.097 295.62C131.683 289.444 137.028 275.914 143.153 265.964C150.081 254.708 154.731 242.817 159.885 230.796C165.927 216.702 163.778 197.117 172.203 184.504C156.191 180.168 140.181 175.83 124.169 171.494C125.702 189.477 122.483 206.606 119.937 224.334C118.792 232.299 118.636 239.609 113.963 246.278C109.936 252.025 103.957 256.774 99.7675 262.662C87.0595 280.521 104.838 299.221 122.025 301.448C150.69 305.162 177.228 297.23 201.331 282.227C190.918 268.732 180.507 255.239 170.094 241.743C143.79 263.782 118.553 269.393 84.5355 262.758C52.1265 256.434 38.2484 306.111 70.8311 312.47Z" fill="#A94ECE"/>
</svg>
