<svg width="349" height="856" viewBox="0 0 349 856" fill="none" xmlns="http://www.w3.org/2000/svg">
<path d="M236.408 97.4344C261.944 97.4344 282.644 76.7341 282.644 51.1989C282.644 25.6637 261.944 4.96338 236.408 4.96338C210.873 4.96338 190.173 25.6637 190.173 51.1989C190.173 76.7341 210.873 97.4344 236.408 97.4344Z" fill="#FF6C8F"/>
<path d="M103.616 92.6596C127.831 92.6596 147.462 73.029 147.462 48.8135C147.462 24.5979 127.831 4.96729 103.616 4.96729C79.4001 4.96729 59.7695 24.5979 59.7695 48.8135C59.7695 73.029 79.4001 92.6596 103.616 92.6596Z" fill="#ED516F"/>
<path d="M177.194 687.841C177.194 661.719 156.019 640.543 129.898 640.543C103.777 640.543 82.6016 661.719 82.6016 687.841V808.092C82.6016 834.215 103.777 855.391 129.898 855.391C156.019 855.391 177.194 834.215 177.194 808.092V687.841Z" fill="#ED516F"/>
<path d="M173.812 0.859619H173.808C121.565 0.859619 79.2148 43.2102 79.2148 95.4524V241.447C79.2148 293.689 121.565 336.04 173.808 336.04H173.812C226.054 336.04 268.404 293.689 268.404 241.447V95.4524C268.404 43.2102 226.054 0.859619 173.812 0.859619Z" fill="#FF6C8F"/>
<path d="M271.425 697.387C271.425 671.265 250.249 650.089 224.128 650.089C198.007 650.089 176.832 671.265 176.832 697.387V808.092C176.832 834.215 198.007 855.391 224.128 855.391C250.249 855.391 271.425 834.215 271.425 808.092V697.387Z" fill="#FF6C8F"/>
<path d="M152.937 87.8462H149.582C136.285 87.8462 125.506 98.6253 125.506 111.922V143.732C125.506 157.029 136.285 167.808 149.582 167.808H152.937C166.234 167.808 177.013 157.029 177.013 143.732V111.922C177.013 98.6253 166.234 87.8462 152.937 87.8462Z" fill="#EEEEEF"/>
<g opacity="0.3">
<path d="M125.504 154.011C139.964 154.011 151.686 142.289 151.686 127.829C151.686 113.369 139.964 101.647 125.504 101.647C111.044 101.647 99.3223 113.369 99.3223 127.829C99.3223 142.289 111.044 154.011 125.504 154.011Z" fill="#EEEEEF"/>
</g>
<g opacity="0.3">
<path d="M228.523 156.482C244.347 156.482 257.176 143.653 257.176 127.829C257.176 112.004 244.347 99.176 228.523 99.176C212.698 99.176 199.87 112.004 199.87 127.829C199.87 143.653 212.698 156.482 228.523 156.482Z" fill="#EEEEEF"/>
</g>
<path d="M204.447 87.8462H201.091C187.795 87.8462 177.016 98.6253 177.016 111.922V143.732C177.016 157.029 187.795 167.808 201.091 167.808H204.447C217.743 167.808 228.522 157.029 228.522 143.732V111.922C228.522 98.6253 217.743 87.8462 204.447 87.8462Z" fill="#EEEEEF"/>
<path d="M203.43 106.969H203.426C195.896 106.969 189.792 113.073 189.792 120.603V135.055C189.792 142.585 195.896 148.689 203.426 148.689H203.43C210.96 148.689 217.064 142.585 217.064 135.055V120.603C217.064 113.073 210.96 106.969 203.43 106.969Z" fill="#ED516F"/>
<path d="M151.922 106.969H151.918C144.388 106.969 138.284 113.073 138.284 120.603V135.055C138.284 142.585 144.388 148.689 151.918 148.689H151.922C159.452 148.689 165.556 142.585 165.556 135.055V120.603C165.556 113.073 159.452 106.969 151.922 106.969Z" fill="#ED516F"/>
<path d="M290.277 181.209H58.878C26.6998 181.209 0.614258 207.295 0.614258 239.473V694.474C0.614258 726.652 26.6998 752.738 58.878 752.738H290.277C322.455 752.738 348.541 726.652 348.541 694.474V239.473C348.541 207.295 322.455 181.209 290.277 181.209Z" fill="#FF6C8F"/>
<path d="M289.512 742.385H58.1017C31.6908 742.385 10.1982 720.897 10.1982 694.482V239.469C10.1982 213.058 31.6869 191.566 58.1017 191.566H289.512C315.923 191.566 337.415 213.054 337.415 239.469V694.482C337.415 720.893 315.927 742.385 289.512 742.385ZM58.1017 196.003C34.1344 196.003 14.6356 215.502 14.6356 239.469V694.482C14.6356 718.449 34.1344 737.948 58.1017 737.948H289.512C313.479 737.948 332.978 718.449 332.978 694.482V239.469C332.978 215.502 313.479 196.003 289.512 196.003H58.1017Z" fill="white"/>
<path d="M335.197 464.763H12.417V469.2H335.197V464.763Z" fill="white"/>
</svg>
