<svg width="168" height="152" viewBox="0 0 168 152" fill="none" xmlns="http://www.w3.org/2000/svg">
<path d="M133.271 96.2646V125.96C133.271 128.225 141.004 130.061 150.539 130.061C160.074 130.061 167.807 128.225 167.807 125.96V96.2646H133.268H133.271Z" fill="#EEEEEF"/>
<path d="M150.539 100.366C160.076 100.366 167.807 98.5295 167.807 96.2646C167.807 93.9997 160.076 92.1636 150.539 92.1636C141.002 92.1636 133.271 93.9997 133.271 96.2646C133.271 98.5295 141.002 100.366 150.539 100.366Z" fill="#F7F7F7"/>
<path d="M150.538 97.609C153.667 97.609 156.204 97.0071 156.204 96.2646C156.204 95.5221 153.667 94.9202 150.538 94.9202C147.409 94.9202 144.873 95.5221 144.873 96.2646C144.873 97.0071 147.409 97.609 150.538 97.609Z" fill="#9E9E9F"/>
<path d="M35.1415 115.21V144.906C35.1415 147.171 42.8746 149.007 52.4097 149.007C61.9447 149.007 69.6779 147.171 69.6779 144.906V115.21H35.1387H35.1415Z" fill="#EEEEEF"/>
<path d="M52.4093 119.311C61.9462 119.311 69.6775 117.475 69.6775 115.21C69.6775 112.946 61.9462 111.109 52.4093 111.109C42.8723 111.109 35.1411 112.946 35.1411 115.21C35.1411 117.475 42.8723 119.311 52.4093 119.311Z" fill="#F7F7F7"/>
<path d="M52.4091 116.555C55.5382 116.555 58.0748 115.953 58.0748 115.21C58.0748 114.468 55.5382 113.866 52.4091 113.866C49.28 113.866 46.7434 114.468 46.7434 115.21C46.7434 115.953 49.28 116.555 52.4091 116.555Z" fill="#9E9E9F"/>
<path d="M35.1415 79.2223V108.918C35.1415 111.183 42.8746 113.019 52.4097 113.019C61.9447 113.019 69.6779 111.183 69.6779 108.918V79.2223H35.1387H35.1415Z" fill="#EEEEEF"/>
<path d="M52.4093 83.3262C61.9462 83.3262 69.6775 81.4901 69.6775 79.2252C69.6775 76.9603 61.9462 75.1242 52.4093 75.1242C42.8723 75.1242 35.1411 76.9603 35.1411 79.2252C35.1411 81.4901 42.8723 83.3262 52.4093 83.3262Z" fill="#F7F7F7"/>
<path d="M52.4091 80.5695C55.5382 80.5695 58.0748 79.9676 58.0748 79.2251C58.0748 78.4826 55.5382 77.8807 52.4091 77.8807C49.28 77.8807 46.7434 78.4826 46.7434 79.2251C46.7434 79.9676 49.28 80.5695 52.4091 80.5695Z" fill="#9E9E9F"/>
<path d="M35.1415 43.2343V72.9296C35.1415 75.1948 42.8746 77.0306 52.4097 77.0306C61.9447 77.0306 69.6779 75.1948 69.6779 72.9296V43.2343H35.1387H35.1415Z" fill="#EEEEEF"/>
<path d="M52.4093 47.3381C61.9462 47.3381 69.6775 45.5021 69.6775 43.2372C69.6775 40.9722 61.9462 39.1362 52.4093 39.1362C42.8723 39.1362 35.1411 40.9722 35.1411 43.2372C35.1411 45.5021 42.8723 47.3381 52.4093 47.3381Z" fill="#F7F7F7"/>
<path d="M52.4091 44.5815C55.5382 44.5815 58.0748 43.9796 58.0748 43.2371C58.0748 42.4946 55.5382 41.8927 52.4091 41.8927C49.28 41.8927 46.7434 42.4946 46.7434 43.2371C46.7434 43.9796 49.28 44.5815 52.4091 44.5815Z" fill="#9E9E9F"/>
<path d="M106.363 109.267C97.4028 109.258 90.1318 116.513 90.1225 125.473C90.1131 134.433 97.3688 141.704 106.329 141.713L147.576 141.757C156.535 141.766 163.806 134.51 163.816 125.55C163.825 116.591 156.569 109.32 147.61 109.31L106.363 109.267Z" fill="#46BCB3"/>
<path d="M68.379 69.0567L68.3262 119.486C68.3074 137.405 82.8189 151.947 100.739 151.966C118.658 151.985 133.2 137.473 133.219 119.554L133.272 69.1246C133.29 51.205 118.779 36.6631 100.859 36.6443C82.9397 36.6256 68.3978 51.1371 68.379 69.0567Z" fill="#6ECEC9"/>
<path d="M136.827 119.314H98.853C89.8932 119.314 82.6299 126.578 82.6299 135.537C82.6299 144.497 89.8932 151.761 98.853 151.761H136.827C145.786 151.761 153.05 144.497 153.05 135.537C153.05 126.578 145.786 119.314 136.827 119.314Z" fill="#6ECEC9"/>
<path d="M115.413 88.2915L116.495 88.2926C121.075 88.2974 124.791 84.5887 124.796 80.009L124.807 69.1663C124.812 64.5865 121.103 60.87 116.523 60.8652L115.442 60.8641C110.862 60.8593 107.146 64.568 107.141 69.1478L107.129 79.9905C107.125 84.5702 110.833 88.2867 115.413 88.2915Z" fill="#EEEEEF"/>
<path d="M97.7434 88.2762L98.8251 88.2773C103.405 88.2821 107.121 84.5734 107.126 79.9937L107.137 69.1509C107.142 64.5712 103.434 60.8547 98.8538 60.8499L97.7721 60.8488C93.1924 60.844 89.4759 64.5527 89.4711 69.1324L89.4597 79.9752C89.4549 84.5549 93.1636 88.2714 97.7434 88.2762Z" fill="#EEEEEF"/>
<path d="M97.784 72.0815L97.7788 77.0383C97.7761 79.6214 99.868 81.7176 102.451 81.7204C105.034 81.7231 107.13 79.6312 107.133 77.0481L107.138 72.0913C107.141 69.5082 105.049 67.412 102.466 67.4093C99.8829 67.4066 97.7867 69.4984 97.784 72.0815Z" fill="#46BCB3"/>
<path d="M115.452 72.1013L115.447 77.058C115.444 79.6411 117.536 81.7374 120.119 81.7401C122.702 81.7428 124.798 79.6509 124.801 77.0678L124.806 72.1111C124.809 69.5279 122.717 67.4317 120.134 67.429C117.551 67.4263 115.455 69.5181 115.452 72.1013Z" fill="#46BCB3"/>
<path d="M122.818 54.0092C123.094 54.0092 123.371 53.9188 123.606 53.7353C124.151 53.3003 124.241 52.5066 123.806 51.9587C116.977 43.3839 107.97 40.6584 107.591 40.5483C106.919 40.3506 106.222 40.7347 106.024 41.4041C105.826 42.0734 106.21 42.7739 106.877 42.9716C106.964 42.997 115.519 45.6067 121.829 53.5319C122.078 53.8454 122.445 54.0092 122.818 54.0092Z" fill="#EEEEEF"/>
<path d="M107.136 87.0148C107.136 87.0148 109.229 126.691 115.965 118.094C119.685 113.346 107.136 87.0148 107.136 87.0148Z" fill="#EEEEEF"/>
<path d="M148.773 90.3306C148.773 90.3306 146.398 83.8147 146.615 79.2223C146.615 79.2223 146.183 78.6066 144.404 79.2223V96.756L148.776 97.6089V90.3306H148.773Z" fill="#51F4E8"/>
<path d="M146.709 88.0373C146.709 88.0373 145.455 85.6535 145.215 79.2252V79.0078L144.404 79.2252V86.5771C132.89 85.5405 126.456 90.2854 124.422 92.1382C123.948 92.5704 123.708 93.1607 123.708 93.799V116.171C123.708 117.998 125.735 119.038 127.246 118.012C133.562 113.731 141.171 112.253 144.664 111.776C145.78 111.624 146.588 110.66 146.588 109.534V88.8789C146.588 88.6247 146.528 88.379 146.446 88.1474L146.706 88.0401L146.709 88.0373Z" fill="#CFFFFA"/>
<path d="M124.803 118.083L126.969 119.532L128.89 118.413V115.227H126.452L124.803 118.083Z" fill="#CFFFFA"/>
<path d="M126.608 93.5928C128.647 91.7344 135.115 86.9527 146.709 88.0373C147.867 88.1446 148.777 89.1698 148.777 90.3335V110.985C148.777 112.112 147.969 113.078 146.853 113.228C143.36 113.705 135.751 115.182 129.435 119.464C127.922 120.489 125.896 119.45 125.896 117.623V95.2507C125.896 94.6124 126.137 94.0193 126.611 93.59L126.608 93.5928Z" fill="#51F4E8"/>
<path d="M100.449 122.551C95.5939 122.551 91.2331 121.447 87.392 119.227C72.6855 110.728 72.4398 89.5623 72.4341 88.6698C72.4228 85.4472 75.0241 82.829 78.2382 82.8177H78.2608C81.4664 82.8177 84.0649 85.4021 84.0903 88.6049C84.1298 92.8781 85.8555 104.904 93.2525 109.146C99.548 112.784 109.86 110.706 123.013 103.181C125.817 101.577 129.371 102.554 130.969 105.345C132.568 108.138 131.596 111.703 128.806 113.301C118.031 119.464 108.544 122.551 100.443 122.551H100.449Z" fill="#46BCB3"/>
<path d="M70.0215 36.035C62.8787 36.035 57.0662 30.2253 57.0662 23.0853C57.0662 15.9453 62.8759 10.1299 70.0215 10.1299C77.1672 10.1299 82.9713 15.9396 82.9713 23.0853C82.9713 30.2309 77.1615 36.035 70.0215 36.035ZM70.0215 13.0475C64.483 13.0475 59.9809 17.5495 59.9809 23.0881C59.9809 28.6267 64.483 33.1231 70.0215 33.1231C75.5601 33.1231 80.0565 28.621 80.0565 23.0881C80.0565 17.5551 75.5545 13.0475 70.0215 13.0475Z" fill="#6ECEC9"/>
<path d="M70.0189 31.0189C74.4005 31.0189 77.9525 27.4669 77.9525 23.0853C77.9525 18.7036 74.4005 15.1516 70.0189 15.1516C65.6372 15.1516 62.0852 18.7036 62.0852 23.0853C62.0852 27.4669 65.6372 31.0189 70.0189 31.0189Z" fill="#6ECEC9"/>
<path d="M41.1375 36.6366H27.0552V33.7218H38.2227V26.2457H59.4959V29.1576H41.1375V36.6366Z" fill="#6ECEC9"/>
<path d="M58.5245 20.227H33.4187V23.1417H58.5245V20.227Z" fill="#6ECEC9"/>
<path d="M60.9591 17.4676H41.1377V7.59923H48.2636V2.90796H51.1755V10.514H44.0496V14.5528H60.9591V17.4676Z" fill="#6ECEC9"/>
<path d="M99.4766 12.0844H76.4072V14.9991H99.4766V12.0844Z" fill="#6ECEC9"/>
<path d="M104.869 27.6777H90.9984V21.1054H80.9832V18.1906H93.9131V24.7657H104.869V27.6777Z" fill="#6ECEC9"/>
<path d="M87.942 36.6366H78.0454V29.5615H80.9602V33.7218H87.942V36.6366Z" fill="#6ECEC9"/>
<path d="M49.717 5.1703C50.968 5.1703 51.9822 4.15616 51.9822 2.90516C51.9822 1.65415 50.968 0.640015 49.717 0.640015C48.466 0.640015 47.4519 1.65415 47.4519 2.90516C47.4519 4.15616 48.466 5.1703 49.717 5.1703Z" fill="#6ECEC9"/>
<path d="M33.4216 23.9523C34.6726 23.9523 35.6868 22.9381 35.6868 21.6871C35.6868 20.4361 34.6726 19.422 33.4216 19.422C32.1706 19.422 31.1565 20.4361 31.1565 21.6871C31.1565 22.9381 32.1706 23.9523 33.4216 23.9523Z" fill="#6ECEC9"/>
<path d="M27.0523 37.4443C28.3033 37.4443 29.3174 36.4301 29.3174 35.1791C29.3174 33.9281 28.3033 32.914 27.0523 32.914C25.8012 32.914 24.7871 33.9281 24.7871 35.1791C24.7871 36.4301 25.8012 37.4443 27.0523 37.4443Z" fill="#6ECEC9"/>
<path d="M87.9424 37.4443C89.1934 37.4443 90.2075 36.4301 90.2075 35.1791C90.2075 33.9281 89.1934 32.914 87.9424 32.914C86.6914 32.914 85.6772 33.9281 85.6772 35.1791C85.6772 36.4301 86.6914 37.4443 87.9424 37.4443Z" fill="#6ECEC9"/>
<path d="M104.869 28.4854C106.12 28.4854 107.134 27.4713 107.134 26.2203C107.134 24.9693 106.12 23.9551 104.869 23.9551C103.618 23.9551 102.604 24.9693 102.604 26.2203C102.604 27.4713 103.618 28.4854 104.869 28.4854Z" fill="#6ECEC9"/>
<path d="M99.4739 15.8068C100.725 15.8068 101.739 14.7927 101.739 13.5417C101.739 12.2907 100.725 11.2766 99.4739 11.2766C98.2229 11.2766 97.2087 12.2907 97.2087 13.5417C97.2087 14.7927 98.2229 15.8068 99.4739 15.8068Z" fill="#6ECEC9"/>
<path d="M58.143 54.1251H4.16652C2.2323 54.1251 0.664307 55.6931 0.664307 57.6273V92.6212C0.664307 94.5554 2.2323 96.1234 4.16652 96.1234H58.143C60.0772 96.1234 61.6452 94.5554 61.6452 92.6212V57.6273C61.6452 55.6931 60.0772 54.1251 58.143 54.1251Z" fill="#3E3A39"/>
<path d="M58.2971 90.7994V59.4461C58.2971 58.2123 57.2969 57.212 56.063 57.212H6.24404C5.0102 57.212 4.00996 58.2123 4.00996 59.4461V90.7994C4.00996 92.0333 5.0102 93.0335 6.24404 93.0335H56.063C57.2969 93.0335 58.2971 92.0333 58.2971 90.7994Z" fill="#6ECEC9"/>
<path d="M56.0645 93.765H6.2483C4.61582 93.765 3.28271 92.4319 3.28271 90.7995V59.4433C3.28271 57.8108 4.61582 56.4834 6.2483 56.4834H56.0673C57.6998 56.4834 59.0272 57.8108 59.0272 59.4433V90.7995C59.0272 92.4319 57.6998 93.765 56.0673 93.765H56.0645ZM6.2483 57.9408C5.41794 57.9408 4.74009 58.613 4.74009 59.4433V90.7995C4.74009 91.6298 5.41794 92.3077 6.2483 92.3077H56.0673C56.8977 92.3077 57.5699 91.6298 57.5699 90.7995V59.4433C57.5699 58.613 56.8977 57.9408 56.0673 57.9408H6.2483Z" fill="white"/>
<path d="M24.5388 90.5142L26.9283 86.2522V83.1313C26.9283 83.1313 21.0027 82.9985 21.0027 77.0081L19.3674 75.1694L22.8188 71.0176V67.5323C22.8188 67.5323 21.9602 60.3302 33.043 60.3302C33.043 60.3302 42.7899 60.1325 42.7899 69.45V70.9131C42.7899 70.9131 43.7445 83.1341 34.6811 83.1341V90.5142H24.5388Z" fill="#6ECEC9"/>
<path d="M34.6807 91.2428H24.5384C24.2814 91.2428 24.0441 91.1072 23.9114 90.8841C23.7786 90.661 23.7758 90.3842 23.9001 90.1611L26.1935 86.0629V83.8034C23.8662 83.4899 20.4176 81.8687 20.2792 77.2933L18.8162 75.6551C18.5761 75.3868 18.5705 74.9829 18.8049 74.7033L22.0896 70.7577V67.5294C22.084 67.5068 21.7987 64.9508 23.773 62.7308C25.6116 60.6521 28.7297 59.6014 33.0397 59.6014C33.2346 59.6184 37.8157 59.528 40.8943 62.5444C42.6313 64.2475 43.5125 66.5692 43.5125 69.4472V70.9102C43.5294 71.1333 44.0067 77.7282 40.5751 81.4338C39.242 82.8799 37.5079 83.682 35.4065 83.8345V90.5113C35.4065 90.9152 35.0817 91.24 34.6779 91.24L34.6807 91.2428ZM25.7783 89.7854H33.952V83.1312C33.952 82.7274 34.2768 82.4025 34.6807 82.4025C36.6832 82.4025 38.3072 81.7473 39.5075 80.4509C42.5013 77.217 42.0636 71.0317 42.0579 70.9695V69.45C42.0579 66.9787 41.3236 65.0045 39.8775 63.5866C37.265 61.0136 33.1216 61.0475 33.0595 61.0588C29.1845 61.0588 26.4392 61.94 24.8801 63.677C23.338 65.4027 23.5357 67.3656 23.5414 67.4447L23.547 71.0204C23.547 71.1898 23.4905 71.3565 23.3776 71.4864L20.3272 75.1524L21.5502 76.525C21.6632 76.655 21.731 76.8329 21.731 77.008C21.731 82.1992 26.7273 82.3969 26.9391 82.4025C27.3317 82.4138 27.6508 82.7387 27.6508 83.1312V86.2493C27.6508 86.3736 27.6169 86.4951 27.5604 86.6024L25.7783 89.7826V89.7854Z" fill="white"/>
<path d="M31.4444 79.2223H29.9871V88.6472H31.4444V79.2223Z" fill="white"/>
<path d="M32.5935 80.7927H28.9331V82.2501H32.5935V80.7927Z" fill="white"/>
<path d="M32.5935 83.2047H28.9331V84.6621H32.5935V83.2047Z" fill="white"/>
<path d="M32.5935 86.0347H28.9331V87.4921H32.5935V86.0347Z" fill="white"/>
<path d="M135.27 52.6281C135.163 52.6224 135.047 52.6168 134.94 52.6111C134.827 52.6055 134.711 52.5998 134.592 52.5829C134.256 52.5603 134.01 52.436 133.858 52.2073C133.705 51.9841 133.624 51.7073 133.624 51.3825C133.624 51.2413 133.64 51.1086 133.68 50.973C133.72 50.8431 133.776 50.7273 133.855 50.6313C133.934 50.5352 134.03 50.4618 134.157 50.4025C134.284 50.3432 134.426 50.3291 134.589 50.346C134.708 50.3517 134.818 50.363 134.926 50.3686C135.039 50.3742 135.149 50.3855 135.256 50.3912C135.262 50.2726 135.273 50.1568 135.279 50.0381C135.284 49.9139 135.296 49.7924 135.313 49.6682C135.335 49.3264 135.459 49.0807 135.688 48.9338C135.911 48.787 136.188 48.7107 136.513 48.7107C136.654 48.7107 136.787 48.7276 136.922 48.7615C137.052 48.7954 137.168 48.8519 137.264 48.931C137.36 49.0101 137.434 49.1061 137.493 49.2276C137.552 49.349 137.566 49.4959 137.549 49.6653C137.538 49.7953 137.527 49.9223 137.521 50.0466C137.516 50.1652 137.51 50.2867 137.504 50.3997C137.623 50.394 137.739 50.3827 137.857 50.3771C137.97 50.3714 138.092 50.3601 138.216 50.3432C138.385 50.3262 138.535 50.3432 138.654 50.3997C138.772 50.4562 138.877 50.5296 138.956 50.6284C139.035 50.7273 139.097 50.8403 139.137 50.9702C139.176 51.1058 139.193 51.2385 139.193 51.3797C139.193 51.7045 139.114 51.9841 138.959 52.2044C138.806 52.4332 138.549 52.5575 138.202 52.5801C138.078 52.597 137.956 52.6027 137.849 52.6083C137.736 52.614 137.62 52.6196 137.501 52.6253C137.507 52.7326 137.513 52.8427 137.518 52.9557C137.524 53.063 137.535 53.1732 137.547 53.2918C137.564 53.4613 137.547 53.611 137.49 53.7296C137.434 53.8482 137.36 53.9527 137.261 54.0318C137.162 54.1109 137.049 54.173 136.92 54.2126C136.784 54.2521 136.651 54.269 136.51 54.269C136.185 54.269 135.906 54.19 135.685 54.0346C135.457 53.8821 135.332 53.6251 135.31 53.2777C135.293 53.1704 135.287 53.0602 135.281 52.9529C135.276 52.8399 135.27 52.7298 135.264 52.6224L135.27 52.6281Z" fill="#51F4E8"/>
<path d="M147.657 62.0332C147.55 62.0276 147.434 62.0219 147.327 62.0163C147.214 62.0106 147.098 62.005 146.979 61.9881C146.643 61.9655 146.398 61.8412 146.245 61.6124C146.093 61.3893 146.011 61.1125 146.011 60.7877C146.011 60.6465 146.028 60.5137 146.067 60.3782C146.107 60.2482 146.163 60.1324 146.242 60.0364C146.321 59.9404 146.417 59.867 146.545 59.8076C146.672 59.7483 146.813 59.7342 146.977 59.7512C147.095 59.7568 147.205 59.7681 147.313 59.7737C147.426 59.7794 147.536 59.7907 147.643 59.7963C147.649 59.6777 147.66 59.5619 147.666 59.4433C147.671 59.319 147.683 59.1976 147.7 59.0733C147.722 58.7316 147.847 58.4858 148.075 58.339C148.298 58.1921 148.575 58.1158 148.9 58.1158C149.041 58.1158 149.174 58.1328 149.31 58.1667C149.44 58.2006 149.555 58.2571 149.651 58.3361C149.747 58.4152 149.821 58.5113 149.88 58.6327C149.939 58.7542 149.954 58.901 149.937 59.0705C149.925 59.2004 149.914 59.3275 149.908 59.4518C149.903 59.5704 149.897 59.6918 149.891 59.8048C150.01 59.7992 150.126 59.7879 150.244 59.7822C150.357 59.7766 150.479 59.7653 150.603 59.7483C150.773 59.7314 150.922 59.7483 151.041 59.8048C151.16 59.8613 151.264 59.9347 151.343 60.0336C151.422 60.1324 151.484 60.2454 151.524 60.3753C151.563 60.5109 151.58 60.6437 151.58 60.7849C151.58 61.1097 151.501 61.3893 151.346 61.6096C151.193 61.8384 150.936 61.9626 150.589 61.9852C150.465 62.0022 150.343 62.0078 150.236 62.0135C150.123 62.0191 150.007 62.0248 149.889 62.0304C149.894 62.1377 149.9 62.2479 149.906 62.3609C149.911 62.4682 149.922 62.5783 149.934 62.697C149.951 62.8664 149.934 63.0161 149.877 63.1347C149.821 63.2534 149.747 63.3579 149.649 63.437C149.55 63.516 149.437 63.5782 149.307 63.6177C149.171 63.6573 149.038 63.6742 148.897 63.6742C148.572 63.6742 148.293 63.5951 148.073 63.4398C147.844 63.2873 147.719 63.0302 147.697 62.6828C147.68 62.5755 147.674 62.4654 147.669 62.358C147.663 62.2451 147.657 62.1349 147.652 62.0276L147.657 62.0332Z" fill="#51F4E8"/>
<path d="M142.009 55.8592C141.673 55.8366 141.427 55.7123 141.275 55.4892C141.122 55.2604 141.041 54.9893 141.041 54.6588C141.041 54.5232 141.057 54.3848 141.097 54.2549C141.137 54.1194 141.193 54.0036 141.272 53.9075C141.351 53.8115 141.447 53.7381 141.574 53.6787C141.699 53.6279 141.843 53.6053 142.006 53.6223C142.65 53.6788 143.258 53.707 143.823 53.707C144.387 53.7126 144.989 53.6844 145.633 53.6223C145.802 53.6053 145.952 53.6279 146.071 53.6787C146.189 53.7352 146.294 53.8087 146.373 53.9075C146.452 54.0064 146.514 54.1194 146.554 54.2549C146.593 54.3848 146.61 54.5232 146.61 54.6588C146.61 54.9893 146.531 55.2632 146.376 55.4892C146.223 55.7123 145.966 55.8366 145.619 55.8592C145.3 55.8818 144.992 55.9044 144.698 55.9213C144.402 55.9326 144.111 55.9439 143.823 55.9439C143.534 55.9439 143.235 55.9326 142.941 55.9213C142.645 55.9044 142.331 55.8818 142.009 55.8592Z" fill="#51F4E8"/>
<path d="M137.379 78.1858C137.043 78.1632 136.798 78.0389 136.645 77.8158C136.493 77.587 136.411 77.3159 136.411 76.9854C136.411 76.8498 136.428 76.7114 136.467 76.5815C136.507 76.4459 136.563 76.3301 136.642 76.2341C136.721 76.1381 136.817 76.0647 136.944 76.0053C137.069 75.9545 137.213 75.9319 137.377 75.9489C138.021 76.0053 138.628 76.0336 139.193 76.0336C139.758 76.0392 140.359 76.011 141.003 75.9489C141.173 75.9319 141.322 75.9545 141.441 76.0053C141.559 76.0618 141.664 76.1353 141.743 76.2341C141.822 76.333 141.884 76.4459 141.924 76.5815C141.963 76.7114 141.98 76.8498 141.98 76.9854C141.98 77.3159 141.901 77.5898 141.746 77.8158C141.593 78.0389 141.336 78.1632 140.989 78.1858C140.67 78.2084 140.362 78.2309 140.068 78.2479C139.772 78.2592 139.481 78.2705 139.193 78.2705C138.905 78.2705 138.605 78.2592 138.311 78.2479C138.015 78.2309 137.701 78.2084 137.379 78.1858Z" fill="#51F4E8"/>
<path d="M142.159 70.9695C142.069 70.8791 141.984 70.7887 141.896 70.6983C141.812 70.608 141.721 70.5176 141.634 70.4272C141.399 70.1815 141.303 69.9245 141.351 69.642C141.399 69.3652 141.543 69.1026 141.783 68.8569C141.891 68.7495 142.007 68.6648 142.131 68.5942C142.255 68.5236 142.388 68.4812 142.526 68.4671C142.659 68.4502 142.797 68.4615 142.922 68.5095C143.054 68.5518 143.179 68.6422 143.306 68.7721L143.834 69.3003C143.924 69.2099 144.009 69.1195 144.085 69.0376C144.164 68.9472 144.246 68.8625 144.337 68.775C144.455 68.6422 144.588 68.5518 144.721 68.5038C144.859 68.4558 144.992 68.4389 145.127 68.4558C145.266 68.4671 145.39 68.5095 145.523 68.5829C145.65 68.6535 145.763 68.7382 145.87 68.8456C146.11 69.0913 146.249 69.3483 146.302 69.6251C146.35 69.9019 146.249 70.1702 146.003 70.43C145.913 70.5204 145.828 70.6108 145.746 70.6927C145.667 70.7831 145.579 70.8678 145.489 70.9554C145.579 71.0457 145.67 71.1361 145.752 71.2124C145.842 71.2971 145.927 71.379 146.023 71.4694C146.15 71.5965 146.237 71.7208 146.285 71.8592C146.328 71.9919 146.339 72.1303 146.328 72.2602C146.311 72.3986 146.268 72.5229 146.195 72.65C146.13 72.7686 146.04 72.8901 145.932 72.9917C145.698 73.2375 145.441 73.3815 145.159 73.4295C144.882 73.4719 144.608 73.3759 144.337 73.1414C144.246 73.051 144.156 72.9607 144.074 72.8844C143.989 72.7997 143.907 72.7234 143.823 72.6387C143.732 72.7234 143.647 72.7997 143.566 72.8844C143.481 72.9635 143.399 73.051 143.309 73.1414C143.057 73.3759 142.786 73.4719 142.509 73.4239C142.227 73.3759 141.97 73.2318 141.735 72.9917C141.628 72.8901 141.538 72.7686 141.473 72.65C141.402 72.5229 141.36 72.3986 141.334 72.2602C141.317 72.1275 141.329 71.9891 141.377 71.8592C141.43 71.7208 141.515 71.5965 141.634 71.4694C141.724 71.379 141.814 71.2943 141.896 71.2124C141.987 71.1333 142.071 71.0514 142.159 70.9667V70.9695Z" fill="#51F4E8"/>
<path d="M147.451 48.7361C147.361 48.6457 147.276 48.5553 147.188 48.465C147.104 48.3746 147.013 48.2842 146.926 48.1938C146.691 47.9481 146.595 47.6911 146.643 47.4086C146.691 47.1318 146.835 46.8692 147.075 46.6235C147.183 46.5161 147.299 46.4314 147.423 46.3608C147.55 46.2902 147.68 46.2478 147.818 46.2337C147.951 46.2168 148.089 46.2281 148.214 46.2761C148.346 46.3184 148.471 46.4088 148.598 46.5387L149.126 47.0669C149.216 46.9765 149.301 46.8861 149.377 46.8042C149.456 46.7138 149.538 46.6291 149.629 46.5416C149.747 46.4088 149.88 46.3184 150.013 46.2704C150.151 46.2224 150.284 46.2055 150.419 46.2224C150.558 46.2337 150.682 46.2761 150.815 46.3495C150.942 46.4201 151.055 46.5048 151.162 46.6122C151.402 46.8579 151.541 47.1149 151.594 47.3917C151.642 47.6685 151.541 47.9368 151.295 48.1966C151.205 48.287 151.12 48.3774 151.038 48.4593C150.959 48.5497 150.871 48.6344 150.781 48.722C150.871 48.8123 150.962 48.9027 151.044 48.979C151.134 49.0637 151.219 49.1456 151.315 49.236C151.442 49.3631 151.529 49.4874 151.577 49.6258C151.62 49.7585 151.631 49.8969 151.62 50.0268C151.603 50.1652 151.56 50.2895 151.487 50.4166C151.422 50.5352 151.332 50.6567 151.224 50.7583C150.99 51.0041 150.733 51.1481 150.451 51.1961C150.174 51.2385 149.9 51.1424 149.629 50.908C149.538 50.8176 149.448 50.7273 149.366 50.651C149.281 50.5663 149.199 50.49 149.115 50.4053C149.024 50.49 148.939 50.5663 148.858 50.651C148.773 50.7301 148.691 50.8176 148.601 50.908C148.349 51.1424 148.078 51.2385 147.801 51.1905C147.519 51.1424 147.262 50.9984 147.027 50.7583C146.92 50.6567 146.83 50.5352 146.765 50.4166C146.694 50.2895 146.652 50.1652 146.626 50.0268C146.609 49.8941 146.621 49.7557 146.669 49.6258C146.722 49.4874 146.807 49.3631 146.926 49.236C147.016 49.1456 147.106 49.0609 147.188 48.979C147.279 48.8999 147.363 48.818 147.451 48.7333V48.7361Z" fill="#51F4E8"/>
<path d="M137.75 63.7194C137.451 63.5697 137.275 63.3635 137.227 63.1008C137.177 62.8438 137.216 62.5642 137.338 62.2705C137.391 62.1406 137.459 62.0248 137.544 61.9203C137.623 61.8158 137.719 61.7339 137.823 61.6745C137.934 61.6181 138.049 61.5813 138.182 61.5813C138.312 61.5757 138.448 61.6124 138.597 61.6887C138.885 61.8384 139.188 61.9852 139.512 62.1377C139.832 62.2846 140.165 62.4343 140.498 62.5755C140.837 62.7167 141.17 62.8495 141.509 62.9794C141.842 63.1065 142.167 63.2166 142.472 63.3099C142.63 63.3635 142.758 63.437 142.851 63.5358C142.944 63.629 143.003 63.7392 143.037 63.855C143.074 63.9736 143.082 64.0979 143.068 64.2306C143.054 64.3633 143.017 64.4933 142.964 64.6232C142.842 64.9169 142.664 65.14 142.441 65.2813C142.215 65.4281 141.936 65.4451 141.614 65.3349C141.317 65.2361 141.001 65.1203 140.665 64.9988C140.323 64.8746 139.99 64.7418 139.651 64.6006C139.315 64.4594 138.981 64.3153 138.665 64.1628C138.34 64.0103 138.038 63.8634 137.747 63.7194H137.75ZM139.764 60.3951C139.95 59.9517 140.224 59.6551 140.594 59.5083C140.958 59.3586 141.354 59.3727 141.778 59.5478C142.204 59.7257 142.498 59.9997 142.642 60.364C142.786 60.7284 142.769 61.1323 142.582 61.5757C142.506 61.7565 142.399 61.9118 142.263 62.0361C142.128 62.1603 141.972 62.2535 141.8 62.3157C141.625 62.375 141.439 62.4004 141.241 62.3919C141.04 62.3806 140.84 62.3326 140.645 62.2507C140.444 62.166 140.266 62.0558 140.122 61.9231C139.973 61.7875 139.86 61.6378 139.784 61.474C139.702 61.3074 139.659 61.1323 139.654 60.9459C139.654 60.7623 139.687 60.5787 139.761 60.3979L139.764 60.3951ZM137.527 65.7473C137.713 65.3039 137.987 65.0073 138.36 64.8548C138.724 64.7051 139.123 64.7136 139.543 64.8887C139.97 65.0666 140.261 65.3462 140.405 65.7106C140.549 66.0777 140.529 66.4844 140.346 66.9279C140.269 67.1086 140.162 67.264 140.026 67.3882C139.891 67.5125 139.735 67.6057 139.566 67.6622C139.391 67.7159 139.205 67.7413 139.01 67.7328C138.809 67.7215 138.609 67.6792 138.411 67.5972C138.21 67.5125 138.035 67.3967 137.891 67.264C137.741 67.1284 137.629 66.9787 137.549 66.8177C137.465 66.6567 137.425 66.4816 137.417 66.2952C137.417 66.1116 137.451 65.928 137.524 65.7473H137.527Z" fill="#51F4E8"/>
<path d="M140.357 45.5248C140.032 45.6123 139.767 45.5728 139.555 45.4061C139.349 45.2452 139.19 45.0107 139.089 44.7085C139.043 44.5758 139.018 44.443 139.012 44.3103C139.004 44.1775 139.021 44.0533 139.058 43.9403C139.1 43.8245 139.165 43.72 139.267 43.6324C139.36 43.5421 139.487 43.4799 139.648 43.4376C139.964 43.3613 140.286 43.2681 140.631 43.1693C140.967 43.0676 141.314 42.9602 141.659 42.8444C142.009 42.7258 142.345 42.6072 142.684 42.4801C143.02 42.3558 143.334 42.2231 143.625 42.0903C143.78 42.0254 143.924 41.9943 144.057 42.0084C144.189 42.0169 144.305 42.0593 144.41 42.1242C144.514 42.1892 144.602 42.2767 144.681 42.3869C144.76 42.497 144.819 42.6185 144.862 42.7512C144.963 43.0535 144.977 43.3359 144.904 43.5929C144.833 43.8527 144.633 44.0505 144.319 44.1804C144.031 44.3018 143.718 44.4261 143.385 44.556C143.046 44.6888 142.709 44.8074 142.359 44.926C142.015 45.0418 141.67 45.1548 141.331 45.2508C140.987 45.3497 140.665 45.4429 140.351 45.5248H140.357ZM139.668 41.7006C139.512 41.2459 139.524 40.842 139.704 40.4861C139.879 40.1331 140.185 39.8817 140.617 39.7348C141.057 39.5851 141.455 39.5992 141.803 39.7744C142.153 39.9523 142.407 40.2658 142.56 40.7205C142.622 40.9069 142.645 41.0933 142.625 41.2769C142.605 41.4605 142.551 41.6328 142.464 41.791C142.371 41.9519 142.249 42.0932 142.094 42.2174C141.936 42.3417 141.755 42.4377 141.554 42.5055C141.348 42.5761 141.142 42.61 140.944 42.6044C140.744 42.6044 140.56 42.5648 140.394 42.4914C140.221 42.4208 140.074 42.3163 139.947 42.1835C139.826 42.048 139.73 41.887 139.665 41.7006H139.668ZM141.529 47.194C141.374 46.7392 141.385 46.3354 141.563 45.9738C141.738 45.6208 142.04 45.3638 142.475 45.2169C142.916 45.0672 143.317 45.0842 143.664 45.2621C144.014 45.4429 144.269 45.7592 144.424 46.2139C144.486 46.4003 144.509 46.5867 144.489 46.7703C144.469 46.9539 144.415 47.1262 144.325 47.2787C144.229 47.434 144.108 47.5753 143.955 47.6995C143.797 47.8238 143.619 47.9255 143.418 47.9933C143.212 48.0639 143.003 48.0921 142.808 48.0893C142.608 48.0893 142.424 48.0498 142.258 47.982C142.088 47.917 141.941 47.8125 141.811 47.6798C141.69 47.5442 141.594 47.3832 141.529 47.1968V47.194Z" fill="#51F4E8"/>
</svg>
