<svg width="165" height="157" viewBox="0 0 165 157" fill="none" xmlns="http://www.w3.org/2000/svg">
<path d="M99.8125 131.801L131.63 139.453L164.494 126.162L162.645 108.039L129.875 123.746L99.8125 113.678V131.801Z" fill="#DBDCDC"/>
<mask id="mask0_592_18169" style="mask-type:luminance" maskUnits="userSpaceOnUse" x="99" y="108" width="66" height="32">
<path d="M99.813 131.801L131.631 139.453L164.495 126.162L162.645 108.039L129.876 123.746L99.813 113.678V131.801Z" fill="white"/>
</mask>
<g mask="url(#mask0_592_18169)">
<path d="M131.246 136.513L131.167 136.497L96.1235 128.036L96.2526 127.506L131.214 135.949L167.583 122.484L167.772 122.992L131.246 136.513Z" fill="#C8C9CA"/>
<path d="M131.246 133.883L131.167 133.867L96.1235 125.409L96.2526 124.876L131.214 133.322L167.583 119.854L167.772 120.365L131.246 133.883Z" fill="#C8C9CA"/>
<path d="M129.19 130.771L129.111 130.755L94.063 122.297L94.1921 121.767L129.159 130.21L165.527 116.742L165.717 117.253L129.19 130.771Z" fill="#C8C9CA"/>
<path d="M130.539 127.841L130.46 127.825L95.417 119.367L95.5461 118.834L130.508 127.277L166.881 113.812L167.071 114.32L130.539 127.841Z" fill="#C8C9CA"/>
<path d="M130.539 125.032L130.46 125.016L95.417 116.563L95.5461 116.031L130.508 124.468L166.881 111.003L167.071 111.512L130.539 125.032Z" fill="#C8C9CA"/>
</g>
<path d="M99.8125 113.677L134.131 98.7738L162.645 108.039L129.875 123.746L99.8125 113.677Z" fill="#EEEEEF"/>
<path d="M99.8125 110.342L131.63 117.994L164.494 104.703L162.645 86.5764L129.875 102.286L99.8125 92.2153V110.342Z" fill="#DBDCDC"/>
<mask id="mask1_592_18169" style="mask-type:luminance" maskUnits="userSpaceOnUse" x="99" y="86" width="66" height="32">
<path d="M99.813 110.342L131.631 117.994L164.495 104.703L162.645 86.5764L129.876 102.286L99.813 92.2154V110.342Z" fill="white"/>
</mask>
<g mask="url(#mask1_592_18169)">
<path d="M131.246 115.053L131.167 115.037L96.1235 106.579L96.2526 106.049L131.214 114.492L167.583 101.024L167.772 101.535L131.246 115.053Z" fill="#C8C9CA"/>
<path d="M131.246 112.426L131.167 112.41L96.1235 103.952L96.2526 103.419L131.214 111.862L167.583 98.397L167.772 98.9056L131.246 112.426Z" fill="#C8C9CA"/>
<path d="M129.19 109.314L129.111 109.298L94.063 100.84L94.1921 100.307L129.159 108.75L165.527 95.2851L165.717 95.7937L129.19 109.314Z" fill="#C8C9CA"/>
<path d="M130.539 106.379L130.46 106.363L95.417 97.9069L95.5461 97.3773L130.508 105.815L166.881 92.347L167.071 92.8582L130.539 106.379Z" fill="#C8C9CA"/>
<path d="M130.539 103.575L130.46 103.556L95.417 95.098L95.5461 94.5684L130.508 103.011L166.881 89.5434L167.071 90.0546L130.539 103.575Z" fill="#C8C9CA"/>
</g>
<path d="M99.8125 92.2153L134.131 77.3143L162.645 86.5764L129.875 102.286L99.8125 92.2153Z" fill="#EEEEEF"/>
<path d="M107.563 81.243C107.563 72.8911 100.792 66.1206 92.4403 66.1206C84.0884 66.1206 77.3179 72.8911 77.3179 81.243V138.27C77.3179 146.622 84.0884 153.393 92.4403 153.393C100.792 153.393 107.563 146.622 107.563 138.27V81.243Z" fill="#FF4545"/>
<path d="M77.2643 81.243C77.2643 72.8911 70.4938 66.1206 62.1419 66.1206C53.7901 66.1206 47.0195 72.8911 47.0195 81.243V138.27C47.0195 146.622 53.7901 153.393 62.1419 153.393C70.4938 153.393 77.2643 146.622 77.2643 138.27V81.243Z" fill="#FF7171"/>
<path d="M30.7911 83.4433C23.7345 83.4433 16.4539 80.1838 9.07322 73.6937C6.81764 71.7122 6.59366 68.2788 8.58047 66.0206C10.5567 63.765 13.9902 63.541 16.2537 65.5278C22.7095 71.2037 28.5829 73.4566 33.629 72.2287C41.4445 70.3341 46.9253 60.3026 48.3799 56.6004C49.4681 53.8125 52.6117 52.4265 55.4154 53.5095C58.2085 54.5977 59.5998 57.7308 58.5168 60.5292C58.2243 61.2828 51.1835 79.114 36.2508 82.7793C34.4511 83.2246 32.6303 83.4433 30.7911 83.4433Z" fill="#FF4545"/>
<path d="M107.562 41.2777C107.562 24.5594 94.009 11.0065 77.2907 11.0065C60.5724 11.0065 47.0195 24.5594 47.0195 41.2777V89.6883C47.0195 106.407 60.5724 119.959 77.2907 119.959C94.009 119.959 107.562 106.407 107.562 89.6883V41.2777Z" fill="#FF7171"/>
<path d="M96.7848 12.2187H57.7996C56.1275 12.2187 54.772 13.5742 54.772 15.2463V15.249C54.772 16.9211 56.1275 18.2766 57.7996 18.2766H96.7848C98.4569 18.2766 99.8124 16.9211 99.8124 15.249V15.2463C99.8124 13.5742 98.4569 12.2187 96.7848 12.2187Z" fill="#FF4545"/>
<path d="M91.9864 6.16339H62.598C60.9258 6.16339 59.5703 7.51891 59.5703 9.19103V9.19367C59.5703 10.8658 60.9258 12.2213 62.598 12.2213H91.9864C93.6585 12.2213 95.014 10.8658 95.014 9.19367V9.19103C95.014 7.51891 93.6585 6.16339 91.9864 6.16339Z" fill="#FF7171"/>
<path d="M94.1265 0.105469H60.4588C58.7867 0.105469 57.4312 1.46099 57.4312 3.13311V3.13575C57.4312 4.80787 58.7867 6.16339 60.4588 6.16339H94.1265C95.7986 6.16339 97.1541 4.80787 97.1541 3.13575V3.13311C97.1541 1.46099 95.7986 0.105469 94.1265 0.105469Z" fill="#FFABAB"/>
<path d="M78.5293 60.9296C75.7414 60.9296 73.4727 58.6609 73.4727 55.873C73.4727 53.0852 75.7414 50.8164 78.5293 50.8164C81.3171 50.8164 83.5859 53.0852 83.5859 55.873C83.5859 58.6609 81.3171 60.9296 78.5293 60.9296ZM78.5293 53.1748C77.0405 53.1748 75.8284 54.3869 75.8284 55.8757C75.8284 57.3644 77.0405 58.5765 78.5293 58.5765C80.018 58.5765 81.2302 57.3644 81.2302 55.8757C81.2302 54.3869 80.018 53.1748 78.5293 53.1748Z" fill="#EEEEEF"/>
<path d="M92.6482 111.981C92.1607 111.981 91.7075 111.678 91.5362 111.193C91.3201 110.579 91.6442 109.907 92.2582 109.691C98.6086 107.461 101.581 97.7145 101.61 97.617C101.794 96.9952 102.448 96.6368 103.075 96.8239C103.697 97.0083 104.055 97.6645 103.868 98.289C103.736 98.7369 100.53 109.288 93.0382 111.915C92.9091 111.959 92.7773 111.981 92.6482 111.981Z" fill="#EEEEEF"/>
<g opacity="0.5">
<path d="M57.4308 55.3276C62.2725 55.3276 66.1975 51.4026 66.1975 46.5609C66.1975 41.7191 62.2725 37.7941 57.4308 37.7941C52.5891 37.7941 48.6641 41.7191 48.6641 46.5609C48.6641 51.4026 52.5891 55.3276 57.4308 55.3276Z" fill="#FFAEAE"/>
</g>
<g opacity="0.5">
<path d="M96.8829 55.3276C101.725 55.3276 105.65 51.4026 105.65 46.5609C105.65 41.7192 101.725 37.7942 96.8829 37.7942C92.0412 37.7942 88.1162 41.7192 88.1162 46.5609C88.1162 51.4026 92.0412 55.3276 96.8829 55.3276Z" fill="#FFAEAE"/>
</g>
<path d="M66.9879 53.1064C71.0074 53.1064 74.2658 51.4005 74.2658 49.2961C74.2658 47.1918 71.0074 45.4859 66.9879 45.4859C62.9684 45.4859 59.71 47.1918 59.71 49.2961C59.71 51.4005 62.9684 53.1064 66.9879 53.1064Z" fill="#9E9E9F"/>
<path d="M91.1349 53.1064C95.1544 53.1064 98.4128 51.4005 98.4128 49.2961C98.4128 47.1918 95.1544 45.4859 91.1349 45.4859C87.1154 45.4859 83.8569 47.1918 83.8569 49.2961C83.8569 51.4005 87.1154 53.1064 91.1349 53.1064Z" fill="#9E9E9F"/>
<path d="M86.268 50.4133H87.2772C91.55 50.4133 95.0137 46.9496 95.0137 42.6768V32.561C95.0137 28.2883 91.55 24.8246 87.2772 24.8246H86.268C81.9953 24.8246 78.5316 28.2883 78.5316 32.561V42.6768C78.5316 46.9496 81.9953 50.4133 86.268 50.4133Z" fill="#EEEEEF"/>
<path d="M69.7841 50.4133H70.7934C75.0661 50.4133 78.5298 46.9496 78.5298 42.6768V32.561C78.5298 28.2883 75.0661 24.8246 70.7934 24.8246H69.7841C65.5114 24.8246 62.0477 28.2883 62.0477 32.561V42.6768C62.0477 46.9496 65.5114 50.4133 69.7841 50.4133Z" fill="#EEEEEF"/>
<path d="M74.6535 38.9299C74.6535 36.5199 72.6998 34.5663 70.2899 34.5663C67.8799 34.5663 65.9263 36.5199 65.9263 38.9299V43.5543C65.9263 45.9643 67.8799 47.9179 70.2899 47.9179C72.6998 47.9179 74.6535 45.9643 74.6535 43.5543V38.9299Z" fill="#FF4545"/>
<path d="M91.1359 38.9299C91.1359 36.5199 89.1822 34.5663 86.7723 34.5663C84.3623 34.5663 82.4087 36.5199 82.4087 38.9299V43.5543C82.4087 45.9643 84.3623 47.9179 86.7723 47.9179C89.1822 47.9179 91.1359 45.9643 91.1359 43.5543V38.9299Z" fill="#FF4545"/>
<path d="M146.776 118.697C145.566 118.697 144.349 118.294 143.34 117.469C142.172 116.523 116.721 96.6711 80.5551 117.873C78.8555 118.871 76.7475 118.871 75.0479 117.873C38.8322 96.5684 13.3304 116.539 12.2579 117.401C9.92068 119.285 6.50832 118.924 4.61638 116.61C2.73234 114.284 3.06698 110.882 5.38053 108.979C6.64535 107.938 36.2999 84.2971 77.8094 106.935C119.351 84.3234 148.963 108.018 150.233 109.058C152.554 110.963 152.889 114.394 150.981 116.71C149.904 118.023 148.346 118.697 146.776 118.697Z" fill="#F2F2F2"/>
<path d="M146.776 108.126C145.566 108.126 144.349 107.722 143.34 106.898C142.172 105.957 116.721 86.0994 80.5551 107.301C78.8555 108.299 76.7475 108.299 75.0479 107.301C38.8322 85.9966 13.3304 105.967 12.2579 106.829C9.92068 108.713 6.50832 108.352 4.61638 106.039C2.73234 103.712 3.06698 100.31 5.38053 98.4076C6.64535 97.3667 36.2999 73.7306 77.8094 96.3628C119.351 73.7517 148.963 97.4405 150.233 98.4866C152.554 100.392 152.889 103.823 150.981 106.139C149.904 107.451 148.346 108.126 146.776 108.126Z" fill="#D36666"/>
<path d="M140.326 48.6583H128.139L134.234 38.1077L140.324 48.6583H140.326ZM130.498 47.2986H137.968L134.234 40.8244L130.495 47.2986H130.498Z" fill="#FF4545"/>
<path d="M119.628 35.2435H110.866L108.152 26.9115L115.246 21.7601L122.339 26.9115L119.625 35.2435H119.628ZM111.855 33.8838H118.64L120.737 27.4333L115.246 23.4412L109.754 27.4333L111.852 33.8838H111.855Z" fill="#FF4545"/>
<path d="M119.378 52.7822H111.114V44.5188H119.378V52.7822ZM112.474 51.4226H118.018V45.8785H112.474V51.4226Z" fill="#FF4545"/>
<path d="M143.506 57.4463L142.423 56.6268L145.933 51.9918L142.099 46.9589L145.954 42.2105L142.386 36.4398L143.543 35.7284L147.622 42.316L143.83 46.9905L147.643 51.9918L143.506 57.4463Z" fill="#FF4545"/>
<path d="M123.291 57.4463L122.208 56.6268L125.718 51.9918L121.884 46.9589L125.739 42.2105L122.171 36.4398L123.328 35.7284L127.407 42.316L123.615 46.9905L127.428 51.9918L123.291 57.4463Z" fill="#FF4545"/>
<path d="M36.8486 45.5253H24.6616L30.7564 34.9747L36.846 45.5253H36.8486ZM27.02 44.1656H34.4903L30.7564 37.6914L27.0173 44.1656H27.02Z" fill="#FF4545"/>
<path d="M27.9208 63.9495H19.1594L16.4453 55.6123L23.5388 50.4661L30.6217 55.6123L27.9182 63.9495H27.9208ZM20.1475 62.5898H26.9327L29.0302 56.134L23.5388 52.1472L18.0474 56.134L20.1449 62.5898H20.1475Z" fill="#FF4545"/>
<path d="M20.2454 44.7164H11.9819V36.4529H20.2454V44.7164ZM13.3416 43.3567H18.8857V37.8126H13.3416V43.3567Z" fill="#FF4545"/>
<path d="M39.663 63.9705L38.58 63.1537L42.0951 58.5134L38.2559 53.4778L42.1162 48.7322L38.5431 42.9588L39.6999 42.2474L43.7841 48.8376L39.9871 53.5095L43.8052 58.5134L39.663 63.9705Z" fill="#FF4545"/>
<path d="M24.4716 36.7428L23.3859 35.9233L26.9037 31.283L23.0645 26.2501L26.9248 21.5071L23.349 15.7285L24.5084 15.017L28.5901 21.6125L24.7957 26.2818L28.6112 31.283L24.4716 36.7428Z" fill="#FF4545"/>
<path d="M39.9288 36.5609C37.2041 36.5609 34.9907 34.3475 34.9907 31.6282C34.9907 28.9088 37.2041 26.6901 39.9288 26.6901C42.6534 26.6901 44.8615 28.9035 44.8615 31.6282C44.8615 34.3528 42.6481 36.5609 39.9288 36.5609ZM39.9288 28.0498C37.9525 28.0498 36.3504 29.6545 36.3504 31.6282C36.3504 33.6018 37.9551 35.2012 39.9288 35.2012C41.9024 35.2012 43.5018 33.5965 43.5018 31.6282C43.5018 29.6598 41.8971 28.0498 39.9288 28.0498Z" fill="#FF4545"/>
<path d="M134.234 65.064C131.51 65.064 129.296 62.8506 129.296 60.126C129.296 57.4014 131.51 55.1932 134.234 55.1932C136.959 55.1932 139.167 57.4067 139.167 60.126C139.167 62.8453 136.954 65.064 134.234 65.064ZM134.234 56.5529C132.258 56.5529 130.656 58.1576 130.656 60.126C130.656 62.0944 132.261 63.7044 134.234 63.7044C136.208 63.7044 137.808 62.0996 137.808 60.126C137.808 58.1524 136.203 56.5529 134.234 56.5529Z" fill="#FF4545"/>
<path d="M120.492 94.7792C119.356 94.7792 118.207 94.4234 117.227 93.6856C114.827 91.8806 114.35 88.4709 116.155 86.0704C120.371 80.4683 121.986 75.8702 120.695 73.1298C118.508 68.4948 108.292 66.566 103.686 66.3604C100.69 66.2287 98.3658 63.6885 98.4922 60.6951C98.624 57.6938 101.375 55.433 104.142 55.4962C106.255 55.5805 124.94 56.6899 130.516 68.4684C133.717 75.2325 131.807 83.359 124.84 92.6132C123.773 94.0308 122.142 94.7792 120.492 94.7792Z" fill="#FF4545"/>
<path d="M79.7915 57.8045C79.7915 57.8045 83.7255 58.3947 84.6557 62.1523C85.5832 65.9098 83.7203 67.6437 82.213 67.3486C80.7058 67.0534 80.1604 65.3038 81.1696 63.1958C82.1788 61.0877 81.4963 58.8638 79.2197 58.5028C79.2197 58.5028 78.7664 57.902 79.7941 57.8045H79.7915Z" fill="#FFAEAE"/>
<path d="M0.708984 149.348L32.5295 157L65.3909 143.709L63.5411 125.583L30.7746 141.293L0.708984 131.222V149.348Z" fill="#DBDCDC"/>
<mask id="mask2_592_18169" style="mask-type:luminance" maskUnits="userSpaceOnUse" x="0" y="125" width="66" height="32">
<path d="M0.708984 149.348L32.5295 157L65.3909 143.709L63.5411 125.583L30.7746 141.293L0.708984 131.222V149.348Z" fill="white"/>
</mask>
<g mask="url(#mask2_592_18169)">
<path d="M32.1446 154.062L32.0629 154.046L-2.98291 145.588L-2.85643 145.055L32.1103 153.498L68.4789 140.033L68.6713 140.542L32.1446 154.062Z" fill="#C8C9CA"/>
<path d="M32.1446 151.427L32.0629 151.411L-2.98291 142.958L-2.85643 142.428L32.1103 150.866L68.4789 137.398L68.6713 137.909L32.1446 151.427Z" fill="#C8C9CA"/>
<path d="M30.0841 148.32L30.0024 148.304L-5.03809 139.846L-4.90897 139.316L30.0525 147.759L66.4237 134.291L66.6161 134.803L30.0841 148.32Z" fill="#C8C9CA"/>
<path d="M31.436 145.385L31.3569 145.369L-3.68359 136.911L-3.55711 136.378L31.4044 144.821L67.7729 131.356L67.9653 131.864L31.436 145.385Z" fill="#C8C9CA"/>
<path d="M31.436 142.581L31.3569 142.565L-3.68359 134.107L-3.55711 133.575L31.4044 142.017L67.7729 128.552L67.9653 129.061L31.436 142.581Z" fill="#C8C9CA"/>
</g>
<path d="M0.708984 131.222L35.0302 116.321L63.5411 125.583L30.7746 141.293L0.708984 131.222Z" fill="#EEEEEF"/>
</svg>
