<svg width="426" height="553" viewBox="0 0 426 553" fill="none" xmlns="http://www.w3.org/2000/svg">
<path d="M352.428 490.276C352.843 490.367 353.239 490.343 353.636 490.19C361.828 487.056 451.643 449.716 418.196 330.183C418.196 330.183 416.757 351.835 402.724 362.035C402.724 362.035 416.786 294.172 369.997 227.358C368.794 225.638 365.939 226.533 366.074 228.615C366.751 238.748 366.871 256.985 360.848 271.119C360.848 271.119 365.533 210.464 330.951 178.251C329.734 177.117 327.623 177.846 327.377 179.48C324.787 196.525 313.382 265.831 293.273 306.987C293.21 307.116 293.166 307.245 293.133 307.387L257.386 467.509C257.135 468.629 257.855 469.739 258.995 469.986L352.428 490.271V490.276Z" fill="#E73828"/>
<path d="M398.508 400.07C393.17 413.957 377.969 443.065 346.048 436.133C346.048 436.133 416.985 414.019 383.301 288.908C382.881 287.359 380.538 287.445 380.408 289.036C378.906 307.006 372.278 346.013 343.068 343.393C343.068 343.393 369.317 286.226 340.609 221.093C340.02 219.759 337.918 219.954 337.764 221.402C335.914 238.148 328.552 289.479 306.35 307.601C306.123 307.783 305.979 308.025 305.916 308.307L184.982 397.521L176.084 503.029H285.816C292.699 501.576 406.536 512.419 401.348 400.623C401.276 399.098 399.054 398.636 398.503 400.065L398.508 400.07Z" fill="#FF5148"/>
<path d="M266.05 369.757C266.05 369.757 321.539 346.842 329.196 317.191C329.196 317.191 328.104 371.105 319.901 393.215C319.901 393.215 353.798 388.794 365.275 361.62C365.275 361.62 365.275 420.174 324.819 443.894C324.819 443.894 342.861 456.833 373.477 443.894C373.477 443.894 349.421 503.429 236.801 503.429L195.799 439.039L266.05 369.757Z" fill="#FF312C"/>
<path d="M99.5015 448.307C99.0764 448.307 98.6948 448.197 98.3422 447.964C91.0239 443.167 11.4499 387.657 70.1703 278.009C70.1703 278.009 66.8565 299.457 78.334 312.401C78.334 312.401 79.3919 243.147 139.658 187.813C141.209 186.389 143.803 187.866 143.213 189.876C140.344 199.628 136.253 217.417 139.054 232.494C139.054 232.494 147.701 172.264 188.495 148.134C189.935 147.281 191.833 148.444 191.717 150.092C190.529 167.285 186.558 237.392 197.229 281.849C197.263 281.987 197.277 282.126 197.277 282.268V446.225C197.277 447.373 196.335 448.307 195.166 448.307H99.4967H99.5015Z" fill="#E73828"/>
<path d="M166.724 490.32C160.019 489.496 46.781 473.894 76.2137 365.814C76.6146 364.342 78.8898 364.361 79.1169 365.871C81.3051 380.568 89.8021 412.215 122.491 412.215C122.491 412.215 58.0363 375.58 118.206 260.535C118.95 259.111 121.22 259.692 121.003 261.278C118.554 279.143 116.52 318.646 145.619 322.281C145.619 322.281 132.446 260.883 174.68 203.363C175.545 202.181 177.554 202.82 177.395 204.268C175.55 221.013 171.55 272.702 189.278 295.112C189.457 295.341 189.549 295.603 189.549 295.893V480.159C189.549 480.735 189.196 481.259 188.655 481.479L167.386 490.211C167.154 490.306 166.97 490.349 166.724 490.32Z" fill="#FF5148"/>
<path d="M286.762 441.316C279.864 441.316 273.497 436.881 271.435 430.025C268.918 421.674 273.748 412.894 282.216 410.412C303.225 404.257 315.803 395.153 319.6 383.353C325.484 365.073 310.615 340.863 304.394 333.079C298.935 326.252 300.094 316.338 307.002 310.936C313.91 305.538 323.933 306.643 329.43 313.437C330.778 315.099 362.278 354.645 350.149 392.733C342.995 415.195 323.204 431.316 291.327 440.654C289.81 441.102 288.274 441.311 286.767 441.311L286.762 441.316Z" fill="#FF6F0D"/>
<path d="M320.836 248.752C320.836 203.992 284.044 167.707 238.659 167.707C193.273 167.707 156.481 203.992 156.481 248.752V471.272C156.481 516.031 193.273 552.316 238.659 552.316C284.044 552.316 320.836 516.031 320.836 471.272V248.752Z" fill="#FF9343"/>
<path d="M242.022 344.05C242.022 356.237 252.038 366.116 264.394 366.116C276.75 366.116 286.767 356.237 286.767 344.05V319.673C286.767 307.485 276.75 297.606 264.394 297.606C252.038 297.606 242.022 307.485 242.022 319.673V344.05Z" fill="#EEEEEF"/>
<path d="M197.276 344.05C197.276 356.237 207.293 366.116 219.649 366.116C232.005 366.116 242.021 356.237 242.021 344.05V319.673C242.021 307.485 232.005 297.606 219.649 297.606C207.293 297.606 197.276 307.485 197.276 319.673V344.05Z" fill="#EEEEEF"/>
<path d="M242.023 325.666C242.023 319.214 236.72 313.984 230.178 313.984C223.636 313.984 218.333 319.214 218.333 325.666V338.047C218.333 344.499 223.636 349.728 230.178 349.728C236.72 349.728 242.023 344.499 242.023 338.047V325.666Z" fill="#FF6F0D"/>
<path d="M286.767 325.666C286.767 319.214 281.464 313.984 274.922 313.984C268.381 313.984 263.078 319.214 263.078 325.666V338.047C263.078 344.499 268.381 349.728 274.922 349.728C281.464 349.728 286.767 344.499 286.767 338.047V325.666Z" fill="#FF6F0D"/>
<path d="M166.594 406.6C153.667 406.6 130.993 403.647 115.569 385.167C95.7777 361.462 96.0386 321.845 116.346 267.412C119.394 259.237 128.582 255.049 136.881 258.055C145.17 261.066 149.421 270.132 146.368 278.307C130.717 320.254 128.548 351.081 140.262 365.116C150.595 377.493 171.27 374.844 171.468 374.81C180.197 373.434 188.399 379.279 189.8 387.878C191.201 396.482 185.269 404.576 176.55 405.957C176.071 406.034 172.27 406.6 166.594 406.6Z" fill="#FF9343"/>
<path d="M256.568 395.948H227.662C224.72 395.948 222.329 393.59 222.329 390.689V379.936C222.329 377.035 224.72 374.677 227.662 374.677H256.568C259.509 374.677 261.901 377.035 261.901 379.936V390.689C261.901 393.59 259.509 395.948 256.568 395.948ZM228.724 389.641H255.5V380.994H228.724V389.641Z" fill="#EEEEEF"/>
<path d="M171.185 234.073C170.972 234.073 170.76 234.054 170.542 234.011C168.813 233.664 167.692 231.996 168.045 230.291C174.624 198.501 205.873 184.957 207.201 184.395C208.82 183.713 210.699 184.452 211.399 186.052C212.095 187.648 211.346 189.506 209.728 190.197C209.433 190.321 180.213 203.055 174.315 231.553C174.006 233.049 172.673 234.078 171.185 234.078V234.073Z" fill="#EEEEEF"/>
<path d="M286.772 516.529C285.801 516.529 284.835 516.091 284.207 515.262C283.149 513.866 283.439 511.889 284.854 510.846C295.356 503.1 301.384 488.351 304.592 477.341C305.08 475.664 306.862 474.697 308.548 475.178C310.248 475.659 311.229 477.408 310.741 479.08C305.679 496.445 298.259 508.831 288.685 515.896C288.11 516.32 287.438 516.525 286.772 516.525V516.529Z" fill="#EEEEEF"/>
<path d="M290.224 274.677L279.592 291.022L290.224 307.443L300.856 291.022L290.224 274.677Z" fill="#EEEEEF"/>
<path d="M288.74 143.555C269.64 128.939 257.307 106.139 257.336 80.4512C257.385 36.3845 293.643 0.692886 338.331 0.740526C383.018 0.788166 419.204 36.5513 419.156 80.618C419.107 124.689 382.849 160.376 338.162 160.333C329.945 160.324 322.023 159.085 314.555 156.832C308.077 164.707 296.72 172.844 277.234 170.857C273.673 170.495 272.017 166.241 274.577 163.778C278.919 159.6 284.489 152.873 288.74 143.56V143.555Z" fill="#E73828"/>
<path d="M286.762 441.316C279.864 441.316 273.497 436.88 271.435 430.025C268.918 421.674 273.748 412.894 282.216 410.412C320.784 399.116 320.914 380.565 320.958 374.463C321.02 365.788 328.17 358.799 336.952 358.799H337.068C345.903 358.861 353.008 365.973 352.95 374.687C352.796 396.591 341.98 425.818 291.327 440.653C289.81 441.101 288.274 441.311 286.767 441.311L286.762 441.316Z" fill="#FF6F0D"/>
<path d="M138.15 418.5H24.2307C19.0043 418.5 14.7676 422.679 14.7676 427.833C14.7676 432.987 19.0043 437.166 24.2307 437.166H138.15C143.376 437.166 147.613 432.987 147.613 427.833C147.613 422.679 143.376 418.5 138.15 418.5Z" fill="#FF9343"/>
<path d="M123.387 399.836H9.46748C4.24116 399.836 0.00439453 404.014 0.00439453 409.168C0.00439453 414.323 4.24116 418.501 9.46748 418.501H123.387C128.613 418.501 132.85 414.323 132.85 409.168C132.85 404.014 128.613 399.836 123.387 399.836Z" fill="#FFEEE3"/>
<path d="M138.15 381.17H24.2307C19.0043 381.17 14.7676 385.348 14.7676 390.503C14.7676 395.657 19.0043 399.835 24.2307 399.835H138.15C143.376 399.835 147.613 395.657 147.613 390.503C147.613 385.348 143.376 381.17 138.15 381.17Z" fill="#F7B52C"/>
<path d="M128.715 362.948H14.7961C9.56978 362.948 5.33301 367.126 5.33301 372.28C5.33301 377.435 9.56978 381.613 14.7961 381.613H128.715C133.942 381.613 138.179 377.435 138.179 372.28C138.179 367.126 133.942 362.948 128.715 362.948Z" fill="#EEEEEF"/>
<path d="M306.522 99.5358C304.034 99.6406 301.633 99.5977 299.32 99.4167C296.996 99.2357 294.595 98.9069 292.107 98.4401C289.523 97.8684 287.316 96.6584 285.499 94.8099C283.668 92.9615 282.765 90.4985 282.765 87.4305C282.765 85.444 283.132 83.6289 283.876 81.9615C284.61 80.2941 285.427 78.8316 286.33 77.5882C287.968 75.3491 289.765 73.01 291.711 70.5899C293.673 68.1698 295.706 65.7259 297.817 63.2534C299.928 60.7809 302.068 58.3275 304.232 55.9074C306.396 53.4873 308.527 51.1625 310.647 48.9234C312.174 47.3084 314.116 45.9316 316.458 44.7835C318.816 43.6354 321.39 43.0637 324.187 43.0637C327.404 43.0637 329.989 43.9975 331.95 45.8792C333.897 47.7467 335.114 50.3288 335.587 53.6064C336.008 56.7268 335.887 59.4137 335.23 61.6527C334.573 63.8918 333.53 65.8688 332.109 67.5886C327.622 66.8026 323.559 67.0265 319.946 68.2556C316.328 69.4752 313.101 71.4617 310.246 74.2248C310.029 74.4392 309.956 74.6584 310.01 74.8918C310.063 75.1252 310.183 75.3396 310.367 75.5159C310.551 75.6969 310.778 75.8112 311.034 75.8684C311.304 75.9208 311.56 75.8351 311.831 75.635C313.942 73.6484 316.289 72.0906 318.883 70.9425C321.468 69.8086 324.158 69.2322 326.955 69.2322C329.549 69.2322 331.766 69.6562 333.607 70.5185C335.457 71.3807 336.979 72.4812 338.162 73.8437C339.355 75.1919 340.23 76.7021 340.78 78.3647C341.341 80.0321 341.611 81.6995 341.611 83.3669C341.611 85.3535 341.234 87.159 340.471 88.8026C339.708 90.4366 338.665 91.8801 337.336 93.133C336.013 94.3859 334.515 95.3816 332.824 96.1391C331.134 96.8918 329.356 97.3825 327.516 97.5826C327.095 97.635 326.781 97.7398 326.603 97.9017C326.419 98.0494 326.347 98.24 326.366 98.4448C326.4 98.6592 326.516 98.826 326.723 98.9546C326.941 99.0832 327.231 99.1451 327.598 99.1451C328.651 99.0499 329.858 98.8355 331.206 98.5306C332.554 98.2114 333.94 97.6921 335.36 96.9585C335.887 98.6783 335.93 100.389 335.481 102.075C335.042 103.776 334.191 105.272 332.95 106.567C331.699 107.873 330.085 108.926 328.071 109.731C326.066 110.536 323.767 110.941 321.183 110.941C318.598 110.941 316.231 110.631 314.251 110.007C312.28 109.383 310.633 108.53 309.343 107.468C308.053 106.396 307.16 105.186 306.652 103.838C306.145 102.48 306.116 101.056 306.532 99.5358H306.522Z" fill="#EEEEEF"/>
<path d="M367.673 87.4301C367.566 89.5119 367.446 91.5795 367.315 93.6423C367.185 95.7003 367.016 97.7393 366.798 99.7688C366.639 101.236 366.315 102.594 365.808 103.875C365.31 105.147 364.634 106.253 363.794 107.186C362.944 108.13 361.9 108.863 360.659 109.416C359.422 109.959 357.978 110.235 356.34 110.235C354.703 110.235 353.186 109.959 351.949 109.416C350.698 108.863 349.645 108.13 348.775 107.186C347.901 106.253 347.235 105.147 346.761 103.875C346.288 102.589 345.964 101.231 345.805 99.7688C345.549 97.1676 345.341 94.6094 345.21 92.0797C345.08 89.5548 344.964 86.9823 344.853 84.3812V81.6419C344.853 79.4123 344.887 77.0542 344.94 74.5721C344.983 72.1092 345.061 69.6129 345.133 67.1165C345.21 64.6107 345.317 62.1572 345.447 59.7372C345.587 57.3171 345.727 55.0542 345.887 52.9723C346.046 50.9953 346.36 49.3851 346.834 48.1321C347.307 46.8792 347.974 45.9026 348.814 45.2023C349.655 44.502 350.679 44.0256 351.862 43.7588C353.055 43.5063 354.437 43.3682 356.026 43.3682C357.615 43.3682 358.9 43.5063 360.064 43.7588C361.229 44.0256 362.229 44.502 363.069 45.2023C363.919 45.9026 364.586 46.8792 365.093 48.1321C365.6 49.3851 365.953 51 366.161 52.9723C366.214 53.544 366.267 54.2681 366.32 55.1161C366.373 55.9784 366.426 56.8883 366.479 57.8554C366.533 58.8225 366.586 59.7562 366.629 60.6709C366.682 61.5856 366.716 62.3812 366.716 63.0481C365.175 64.1962 363.939 65.3967 362.992 66.6497C362.045 67.8931 361.195 69.3794 360.461 71.0992C360.243 71.5661 360.19 71.971 360.301 72.3093C360.407 72.6475 360.557 72.8952 360.775 73.0524C360.992 73.2097 361.238 73.243 361.528 73.1715C361.818 73.0953 362.064 72.8762 362.282 72.5141C362.702 71.6757 363.156 70.8705 363.629 70.0845C364.103 69.308 364.629 68.5219 365.214 67.7501C366.905 65.4015 368.885 63.6722 371.155 62.5479C373.426 61.4331 375.827 60.871 378.358 60.871C380.889 60.871 383.126 61.3712 385.053 62.3573C386.98 63.3435 388.575 64.706 389.845 66.4258C391.115 68.1456 392.072 70.1321 392.743 72.395C393.4 74.6674 393.734 77.078 393.734 79.6267C393.734 81.4513 393.714 83.1854 393.69 84.8194C393.656 86.463 393.593 88.0875 393.497 89.7025C393.391 91.3175 393.26 92.942 393.101 94.5856C392.941 96.2291 392.758 97.9632 392.54 99.7783C392.391 101.246 392.067 102.603 391.594 103.885C391.12 105.157 390.444 106.262 389.57 107.196C388.695 108.139 387.642 108.873 386.406 109.425C385.169 109.968 383.725 110.245 382.087 110.245C380.45 110.245 378.933 109.968 377.696 109.425C376.459 108.873 375.392 108.139 374.532 107.196C373.658 106.262 372.981 105.157 372.508 103.885C372.035 102.599 371.711 101.241 371.561 99.7783C371.291 97.7488 371.107 95.7337 371.001 93.7281C370.895 91.7224 370.784 89.7025 370.687 87.6778C370.581 87.211 370.373 86.8727 370.083 86.6583C369.793 86.4582 369.489 86.3487 369.18 86.3487C368.436 86.3487 367.943 86.7107 367.673 87.4444V87.4301Z" fill="#EEEEEF"/>
</svg>
