<svg width="264" height="342" viewBox="0 0 264 342" fill="none" xmlns="http://www.w3.org/2000/svg">
<path d="M206.046 221.355C214.694 221.364 221.712 214.36 221.721 205.713L221.785 143.093C221.795 134.445 214.791 127.427 206.143 127.418C197.496 127.409 190.478 134.413 190.468 143.06L190.404 205.681C190.395 214.328 197.399 221.346 206.046 221.355Z" fill="#ED516F"/>
<path d="M259.268 145.572L221.228 102.484C218.996 99.9554 215.135 99.7152 212.606 101.948L156.803 151.215C154.274 153.447 154.034 157.308 156.266 159.836L194.307 202.924C196.539 205.453 200.399 205.693 202.928 203.46L258.732 154.194C261.261 151.961 261.501 148.101 259.268 145.572Z" fill="#FFE1EA"/>
<path d="M202.334 101.479L215.262 100.634L220.987 107.689L204.832 112.181L202.334 101.479Z" fill="#FFE1EA"/>
<path d="M246.766 146.344L208.726 103.256C206.494 100.727 202.633 100.487 200.105 102.72L144.301 151.987C141.772 154.219 141.532 158.08 143.765 160.608L181.805 203.696C184.037 206.225 187.898 206.465 190.426 204.232L246.23 154.966C248.759 152.733 248.999 148.873 246.766 146.344Z" fill="#FF83A9"/>
<path d="M185.479 79.1424C206.072 79.1424 222.766 62.4485 222.766 41.8556C222.766 21.2627 206.072 4.56885 185.479 4.56885C164.886 4.56885 148.192 21.2627 148.192 41.8556C148.192 62.4485 164.886 79.1424 185.479 79.1424Z" fill="#ED516F"/>
<path d="M125.629 198.626L125.522 300.893C125.499 323.107 143.488 341.135 165.703 341.158C187.918 341.181 205.945 323.191 205.968 300.977L206.076 198.711C206.099 176.496 188.109 158.469 165.894 158.445C143.68 158.422 125.652 176.412 125.629 198.626Z" fill="#ED516F"/>
<path d="M45.3002 81.382L45.1702 205.533C45.1237 249.962 81.103 286.017 125.532 286.063C169.962 286.11 206.016 250.13 206.063 205.701L206.193 81.5504C206.239 37.1212 170.26 1.06641 125.831 1.01988C81.4015 0.973356 45.3467 36.9527 45.3002 81.382Z" fill="#FF6C8F"/>
<path d="M45.4825 206.66L45.3839 300.81C45.3607 323.024 63.3503 341.052 85.565 341.075C107.78 341.098 125.807 323.108 125.83 300.894L125.929 206.744C125.952 184.53 107.962 166.502 85.7478 166.479C63.5332 166.456 45.5058 184.445 45.4825 206.66Z" fill="#FF6C8F"/>
<path d="M141.367 121.102C141.354 133.199 151.149 143.016 163.244 143.028C175.34 143.041 185.155 133.245 185.168 121.148L185.193 96.9507C185.206 84.854 175.411 75.0374 163.316 75.0248C151.22 75.0121 141.405 84.8081 141.392 96.9048L141.367 121.102Z" fill="#EEEEEF"/>
<path d="M97.5595 121.06C97.5468 133.157 107.342 142.973 119.437 142.986C131.533 142.999 141.348 133.203 141.361 121.106L141.386 96.9082C141.399 84.8115 131.604 74.995 119.508 74.9823C107.413 74.9696 97.5975 84.7657 97.5848 96.8623L97.5595 121.06Z" fill="#EEEEEF"/>
<path d="M118.189 102.836L118.176 115.131C118.169 121.534 123.355 126.73 129.757 126.736L129.762 126.736C136.165 126.743 141.361 121.558 141.367 115.155L141.38 102.86C141.387 96.4573 136.202 91.2614 129.799 91.2547L129.794 91.2547C123.392 91.248 118.196 96.4331 118.189 102.836Z" fill="#ED516F"/>
<path d="M161.995 102.882L161.982 115.177C161.976 121.58 167.161 126.776 173.563 126.783L173.568 126.783C179.971 126.789 185.167 121.604 185.173 115.202L185.186 102.907C185.193 96.5037 180.008 91.3078 173.605 91.3011L173.601 91.3011C167.198 91.2944 162.002 96.4794 161.995 102.882Z" fill="#ED516F"/>
<path d="M72.5482 83.0896C94.2631 83.0896 111.866 65.4863 111.866 43.7714C111.866 22.0565 94.2631 4.45312 72.5482 4.45312C50.8334 4.45312 33.23 22.0565 33.23 43.7714C33.23 65.4863 50.8334 83.0896 72.5482 83.0896Z" fill="#FF6C8F"/>
<path d="M61.4014 242.676C59.6839 242.676 57.9387 242.385 56.2258 241.785C42.8227 237.071 2.03163 222.731 0.720402 191.885C-0.641609 159.852 42.6611 138.692 51.3595 134.777C59.2453 131.227 68.5116 134.74 72.0667 142.621C75.6171 150.503 72.1082 159.774 64.227 163.324C49.0741 170.208 31.705 183.602 32.0097 190.555C32.1575 193.902 39.5816 202.735 66.614 212.241C74.7722 215.108 79.0614 224.047 76.1897 232.205C73.9227 238.65 67.8699 242.681 61.4014 242.672V242.676Z" fill="#FF8FA5"/>
<path d="M182.667 56.1317C183.351 56.1317 184.043 55.9101 184.62 55.4484C185.973 54.3726 186.199 52.4012 185.119 51.0484C168.188 29.7918 145.861 23.0371 144.919 22.7601C143.257 22.2661 141.521 23.2218 141.031 24.8793C140.542 26.5368 141.488 28.2774 143.146 28.7668C143.358 28.8314 164.569 35.2998 180.22 54.9497C180.839 55.7254 181.748 56.1317 182.667 56.1317Z" fill="#EEEEEF"/>
<path d="M55.4306 297.831C57.1574 297.831 58.5655 296.432 58.5655 294.701L58.5979 263.928C58.5979 262.202 57.1989 260.793 55.4675 260.793C53.7408 260.793 52.3326 262.192 52.3326 263.924L52.3003 294.696C52.3003 296.423 53.6992 297.831 55.4306 297.831Z" fill="#EEEEEF"/>
</svg>