<svg width="213" height="164" viewBox="0 0 213 164" fill="none" xmlns="http://www.w3.org/2000/svg">
<path d="M194.441 86.922C194.441 86.922 193.741 81.1232 188.041 80.4494C181.695 79.6987 179.291 85.329 179.291 85.329C179.291 85.329 170.989 114.471 144.628 114.471V114.973H194.441V86.922Z" fill="#B4B4B5"/>
<path d="M185.634 69.9816C190.499 69.9816 194.443 66.0377 194.443 61.1726C194.443 56.3076 190.499 52.3636 185.634 52.3636C180.769 52.3636 176.825 56.3076 176.825 61.1726C176.825 66.0377 180.769 69.9816 185.634 69.9816Z" fill="#BF73D8"/>
<path d="M140.608 84.0052H23.4307C14.8948 84.0052 7.97516 90.9245 7.97516 99.4598C7.97516 107.995 14.8948 114.914 23.4307 114.914H140.608C149.143 114.914 156.063 107.995 156.063 99.4598C156.063 90.9245 149.143 84.0052 140.608 84.0052Z" fill="#A94ECE"/>
<path d="M148.409 53.1529H103.037C85.9663 53.1529 72.1277 66.9914 72.1277 84.0621V84.0639C72.1277 101.135 85.9663 114.973 103.037 114.973H148.409C165.48 114.973 179.318 101.135 179.318 84.0639V84.0621C179.318 66.9914 165.48 53.1529 148.409 53.1529Z" fill="#BF73D8"/>
<path d="M140.608 53.0431H23.4307C14.8948 53.0431 7.97516 59.9623 7.97516 68.4977C7.97516 77.033 14.8948 83.9523 23.4307 83.9523H140.608C149.143 83.9523 156.063 77.033 156.063 68.4977C156.063 59.9623 149.143 53.0431 140.608 53.0431Z" fill="#BF73D8"/>
<path d="M171.568 53.1529H131.063C122.527 53.1529 115.607 60.0722 115.607 68.6075C115.607 77.1428 122.527 84.0621 131.063 84.0621H171.568C180.104 84.0621 187.024 77.1428 187.024 68.6075C187.024 60.0722 180.104 53.1529 171.568 53.1529Z" fill="#BF73D8"/>
<path d="M135.041 92.0305V95.4545C135.041 99.1566 138.042 102.158 141.744 102.158H154.466C158.168 102.158 161.169 99.1566 161.169 95.4545V92.0305C161.169 88.3284 158.168 85.3272 154.466 85.3272H141.744C138.042 85.3272 135.041 88.3284 135.041 92.0305Z" fill="#EEEEEF"/>
<path d="M135.041 75.2V78.624C135.041 82.3261 138.042 85.3273 141.744 85.3273H154.466C158.168 85.3273 161.169 82.3261 161.169 78.624V75.2C161.169 71.4979 158.168 68.4967 154.466 68.4967H141.744C138.042 68.4967 135.041 71.4979 135.041 75.2Z" fill="#EEEEEF"/>
<path d="M150.468 72.4571H145.746C143.285 72.4571 141.291 74.4516 141.291 76.9119V76.9138C141.291 79.3741 143.285 81.3686 145.746 81.3686H150.468C152.928 81.3686 154.923 79.3741 154.923 76.9138V76.9119C154.923 74.4516 152.928 72.4571 150.468 72.4571Z" fill="#A94ECE"/>
<path d="M150.468 89.2877H145.746C143.285 89.2877 141.291 91.2822 141.291 93.7426V93.7444C141.291 96.2047 143.285 98.1992 145.746 98.1992H150.468C152.928 98.1992 154.923 96.2047 154.923 93.7444V93.7426C154.923 91.2822 152.928 89.2877 150.468 89.2877Z" fill="#A94ECE"/>
<path d="M126.232 87.552C126.232 85.3676 128.869 84.2855 129.738 83.9303C130.354 83.6776 131.057 83.9724 131.307 84.5876C131.558 85.2046 131.265 85.9059 130.65 86.1568C128.999 86.8342 128.638 87.3945 128.638 87.5556C128.643 88.1196 130.335 89.3207 132.051 89.9817C132.67 90.2198 132.981 90.9155 132.741 91.5362C132.503 92.157 131.807 92.4664 131.188 92.2284C130.366 91.9134 126.261 90.2088 126.23 87.5849C126.23 87.574 126.23 87.563 126.23 87.552H126.232Z" fill="#EEEEEF"/>
<path d="M158.231 109.346C158.231 108.902 158.478 108.475 158.905 108.266C170.726 102.467 172.198 92.4976 172.255 92.0764C172.342 91.4191 172.949 90.9558 173.606 91.0419C174.263 91.128 174.725 91.734 174.642 92.3877C174.582 92.8601 172.992 104.035 159.967 110.427C159.37 110.72 158.648 110.473 158.355 109.877C158.271 109.707 158.233 109.526 158.233 109.348L158.231 109.346Z" fill="#EEEEEF"/>
<path d="M207.274 114.973H5.9336C3.05057 114.973 0.713409 117.31 0.713409 120.193V120.195C0.713409 123.078 3.05057 125.415 5.9336 125.415H207.274C210.158 125.415 212.495 123.078 212.495 120.195V120.193C212.495 117.31 210.158 114.973 207.274 114.973Z" fill="#F5E1FF"/>
<path d="M201.486 55.8865C201.486 53.9409 199.909 52.3636 197.963 52.3636C196.018 52.3636 194.44 53.9409 194.44 55.8865V117.954C194.44 119.899 196.018 121.477 197.963 121.477C199.909 121.477 201.486 119.899 201.486 117.954V55.8865Z" fill="#F5E1FF"/>
<path d="M23.0925 123.716C23.0925 121.771 21.5152 120.193 19.5696 120.193C17.624 120.193 16.0468 121.771 16.0468 123.716V141.991C16.0468 143.937 17.624 145.514 19.5696 145.514C21.5152 145.514 23.0925 143.937 23.0925 141.991V123.716Z" fill="#F5E1FF"/>
<path d="M201.486 123.716C201.486 121.771 199.909 120.193 197.963 120.193C196.018 120.193 194.44 121.771 194.44 123.716V141.991C194.44 143.937 196.018 145.514 197.963 145.514C199.909 145.514 201.486 143.937 201.486 141.991V123.716Z" fill="#F5E1FF"/>
<path d="M82.557 123.716C82.557 121.771 80.9797 120.193 79.0341 120.193C77.0885 120.193 75.5113 121.771 75.5113 123.716V141.991C75.5113 143.937 77.0885 145.514 79.0341 145.514C80.9797 145.514 82.557 143.937 82.557 141.991V123.716Z" fill="#F5E1FF"/>
<path d="M142.023 123.716C142.023 121.771 140.446 120.193 138.5 120.193C136.554 120.193 134.977 121.771 134.977 123.716V141.991C134.977 143.937 136.554 145.514 138.5 145.514C140.446 145.514 142.023 143.937 142.023 141.991V123.716Z" fill="#F5E1FF"/>
<path d="M111.729 52.3636H35.7882C29.8067 52.3636 24.9578 57.2126 24.9578 63.194V104.143C24.9578 110.124 29.8067 114.973 35.7882 114.973H111.729C117.711 114.973 122.559 110.124 122.559 104.143V63.194C122.559 57.2126 117.711 52.3636 111.729 52.3636Z" fill="#F9F9F9"/>
<path d="M101.42 63.6628C100.388 63.6628 99.344 63.3789 98.4101 62.7839C95.8101 61.1177 95.0502 57.6589 96.711 55.0534C101.951 46.8633 108.087 42.7106 114.955 42.7106C126.025 42.7106 133.434 53.7918 134.243 55.0534C135.904 57.6589 135.144 61.1177 132.544 62.7839C129.938 64.4391 126.485 63.6847 124.822 61.0957C123.599 59.2207 119.177 53.8998 114.955 53.8998H114.933C111.452 53.9163 108.23 57.8182 106.142 61.0847C105.071 62.7509 103.268 63.6628 101.422 63.6628H101.42Z" fill="#BF73D8"/>
<path d="M137.428 114.849H95.1534C92.0608 114.849 89.5578 112.346 89.5578 109.253C89.5578 106.16 92.0608 103.657 95.1534 103.657H137.428C140.52 103.657 143.023 106.16 143.023 109.253C143.023 112.346 140.52 114.849 137.428 114.849Z" fill="#BF73D8"/>
<path d="M139.634 57.7468C141.952 57.7468 143.831 55.8679 143.831 53.5501C143.831 51.2324 141.952 49.3535 139.634 49.3535C137.316 49.3535 135.437 51.2324 135.437 53.5501C135.437 55.8679 137.316 57.7468 139.634 57.7468Z" fill="#BF73D8"/>
<path d="M145.072 48.4783C148.076 48.4783 150.512 46.0427 150.512 43.0384C150.512 40.034 148.076 37.5984 145.072 37.5984C142.068 37.5984 139.632 40.034 139.632 43.0384C139.632 46.0427 142.068 48.4783 145.072 48.4783Z" fill="#BF73D8"/>
<path d="M165.677 43.0402C177.402 43.0402 186.906 33.5358 186.906 21.8116C186.906 10.0873 177.402 0.582886 165.677 0.582886C153.953 0.582886 144.449 10.0873 144.449 21.8116C144.449 33.5358 153.953 43.0402 165.677 43.0402Z" fill="#BF73D8"/>
<path d="M156.196 26.6453C155.656 26.6673 155.131 26.6618 154.629 26.6179C154.126 26.5794 153.602 26.508 153.062 26.4055C152.5 26.2791 152.024 26.0118 151.624 25.6017C151.231 25.197 151.029 24.6514 151.029 23.9739C151.029 23.5418 151.112 23.1371 151.269 22.7728C151.434 22.4066 151.608 22.0843 151.804 21.806C152.159 21.3135 152.553 20.8008 152.974 20.2643C153.401 19.7351 153.842 19.1932 154.301 18.6475C154.761 18.1019 155.224 17.5599 155.695 17.0307C156.171 16.4961 156.634 15.9816 157.094 15.489C157.427 15.1338 157.848 14.828 158.355 14.5772C158.87 14.3209 159.426 14.1945 160.038 14.1945C160.737 14.1945 161.299 14.4014 161.721 14.8171C162.147 15.2272 162.415 15.7948 162.513 16.5217C162.607 17.2102 162.579 17.7998 162.437 18.2923C162.294 18.7903 162.065 19.2261 161.759 19.6033C160.781 19.4294 159.901 19.477 159.115 19.7516C158.328 20.0189 157.623 20.4566 157.006 21.0681C156.962 21.1121 156.94 21.1615 156.951 21.2164C156.967 21.2659 156.989 21.3098 157.033 21.3537C157.072 21.3922 157.121 21.4197 157.176 21.4306C157.236 21.4416 157.291 21.4252 157.35 21.3812C157.81 20.9436 158.317 20.5994 158.881 20.343C159.443 20.0922 160.034 19.9658 160.64 19.9658C161.202 19.9658 161.684 20.0592 162.089 20.2497C162.488 20.4401 162.821 20.6818 163.077 20.9821C163.334 21.2823 163.526 21.6156 163.645 21.9818C163.766 22.348 163.824 22.7142 163.824 23.0859C163.824 23.518 163.742 23.9172 163.574 24.2834C163.409 24.6441 163.18 24.9608 162.896 25.2336C162.607 25.512 162.279 25.7317 161.913 25.9001C161.547 26.0649 161.158 26.1729 160.759 26.2169C160.666 26.2279 160.6 26.2499 160.563 26.2883C160.519 26.3213 160.503 26.3597 160.508 26.4091C160.514 26.4531 160.541 26.4915 160.585 26.519C160.635 26.552 160.695 26.563 160.776 26.563C161.005 26.541 161.268 26.497 161.563 26.4256C161.852 26.3542 162.153 26.2407 162.464 26.0814C162.579 26.4586 162.59 26.8358 162.491 27.2075C162.393 27.5847 162.208 27.9124 161.94 28.2017C161.667 28.4855 161.318 28.7199 160.88 28.8957C160.443 29.0751 159.946 29.163 159.382 29.163C158.818 29.163 158.306 29.0916 157.874 28.9561C157.442 28.8188 157.086 28.6338 156.808 28.3994C156.524 28.1651 156.326 27.8959 156.224 27.5956C156.114 27.3008 156.103 26.9841 156.196 26.6508V26.6453Z" fill="white"/>
<path d="M162.688 27.9344C162.688 27.213 162.901 26.6399 163.327 26.2132C163.748 25.7866 164.305 25.5742 164.993 25.5742C165.682 25.5742 166.25 25.7866 166.66 26.2132C167.064 26.6399 167.266 27.213 167.266 27.9344C167.266 28.2347 167.211 28.5075 167.095 28.7547C166.98 29.0019 166.823 29.2143 166.619 29.3992C166.416 29.5841 166.176 29.7269 165.898 29.8313C165.614 29.9357 165.314 29.9851 164.992 29.9851C164.647 29.9851 164.336 29.9357 164.058 29.8313C163.774 29.7269 163.534 29.5859 163.331 29.3992C163.135 29.2143 162.976 29 162.86 28.7547C162.745 28.5093 162.686 28.2365 162.686 27.9344H162.688Z" fill="white"/>
<path d="M167.713 21.9251C167.474 21.8372 167.298 21.6468 167.19 21.3685C167.08 21.0847 167.01 20.6855 166.972 20.171C166.939 19.4606 166.961 18.7337 167.043 17.9903C167.126 17.2524 167.25 16.5804 167.42 15.9854C167.574 15.4342 167.814 15.0241 168.153 14.7568C168.492 14.4839 168.946 14.3191 169.508 14.2642C170.403 14.1818 171.333 14.1434 172.295 14.1434C173.256 14.1434 174.212 14.1763 175.153 14.2477C175.83 14.2917 176.345 14.407 176.689 14.581C177.033 14.7604 177.295 15.0516 177.482 15.4489C177.564 15.6228 177.619 15.8316 177.652 16.0714C177.691 16.3113 177.702 16.5695 177.696 16.8478C177.691 17.1206 177.663 17.3934 177.614 17.6735C177.559 17.9464 177.487 18.2082 177.396 18.4499C177.291 18.7007 177.139 18.8655 176.931 18.9424C176.724 19.0138 176.515 19.0083 176.314 18.915C175.713 18.6531 175.127 18.4609 174.549 18.3529C173.965 18.243 173.357 18.1826 172.712 18.1734C172.608 18.1734 172.527 18.2009 172.472 18.2503C172.412 18.3052 172.384 18.3602 172.384 18.4243C172.384 18.4883 172.406 18.5506 172.445 18.6037C172.483 18.6641 172.555 18.6916 172.641 18.6916C172.826 18.6916 173.1 18.7081 173.472 18.7355C173.838 18.763 174.237 18.8289 174.669 18.9314C175.096 19.0358 175.537 19.1933 175.991 19.413C176.446 19.6327 176.859 19.9367 177.231 20.3248C177.603 20.7185 177.908 21.2037 178.143 21.7896C178.377 22.3737 178.498 23.0951 178.498 23.9429C178.498 24.8712 178.324 25.6695 177.974 26.3305C177.625 26.986 177.16 27.528 176.576 27.9363C175.997 28.352 175.347 28.6577 174.615 28.8482C173.888 29.0441 173.144 29.143 172.384 29.143C171.467 29.143 170.63 29.0331 169.881 28.8152C169.127 28.5973 168.51 28.3007 168.028 27.9363C167.51 27.5482 167.133 27.105 166.897 26.6198C166.662 26.1328 166.536 25.6531 166.52 25.1715C166.503 24.6954 166.575 24.2487 166.743 23.8221C166.908 23.3954 167.142 23.0512 167.442 22.7894C167.748 22.5001 168.092 22.2968 168.464 22.1778C168.836 22.057 169.208 21.9984 169.574 21.9984C169.967 21.9984 170.339 22.0643 170.694 22.1888C171.05 22.3133 171.361 22.4946 171.623 22.7344C171.983 23.0347 172.207 23.3075 172.306 23.5547C172.404 23.8001 172.48 24.0088 172.534 24.1663C172.562 24.2487 172.606 24.3091 172.677 24.3457C172.743 24.3897 172.815 24.4061 172.879 24.4007C172.95 24.3952 173.011 24.3622 173.064 24.3128C173.113 24.2578 173.135 24.1864 173.124 24.0949C173.108 23.9795 173.08 23.855 173.025 23.7122C172.976 23.5639 172.91 23.4174 172.829 23.2636C172.747 23.1043 172.655 22.9523 172.545 22.804C172.436 22.6557 172.328 22.5257 172.212 22.4104C171.879 22.0881 171.485 21.8592 171.037 21.7219C170.588 21.5791 170.125 21.515 169.643 21.515C169.277 21.515 168.938 21.548 168.627 21.6084C168.316 21.6743 168.016 21.7787 167.715 21.9251H167.713Z" fill="white"/>
<path d="M93.2636 159.997C93.2471 160.342 93.2251 160.686 93.2031 161.025C93.1812 161.369 93.1537 161.708 93.1207 162.046C93.0933 162.286 93.0384 162.511 92.956 162.724C92.8736 162.936 92.7655 163.123 92.6282 163.275C92.4854 163.429 92.3169 163.553 92.1137 163.647C91.9123 163.734 91.6761 163.784 91.4088 163.784C91.1414 163.784 90.8906 163.734 90.6873 163.647C90.4859 163.553 90.3102 163.429 90.1692 163.275C90.0264 163.121 89.9183 162.936 89.8414 162.724C89.759 162.511 89.7096 162.286 89.6821 162.046C89.6382 161.614 89.6052 161.188 89.5832 160.768C89.5613 160.349 89.5448 159.92 89.5283 159.49V159.036C89.5283 158.664 89.5283 158.276 89.5393 157.866C89.5503 157.45 89.5613 157.04 89.5723 156.626C89.5832 156.211 89.5997 155.801 89.6217 155.403C89.6437 154.999 89.6711 154.627 89.6931 154.283C89.7206 153.955 89.7755 153.688 89.8524 153.479C89.9293 153.272 90.0373 153.107 90.1747 152.992C90.3175 152.871 90.4804 152.796 90.6782 152.752C90.8686 152.708 91.0993 152.686 91.3557 152.686C91.612 152.686 91.8262 152.708 92.0167 152.752C92.2071 152.796 92.3719 152.873 92.5092 152.992C92.652 153.107 92.76 153.27 92.8424 153.479C92.9248 153.686 92.9798 153.955 93.0164 154.283C93.0219 154.376 93.0329 154.495 93.0438 154.638C93.0493 154.781 93.0603 154.933 93.0658 155.092C93.0768 155.251 93.0823 155.409 93.0933 155.557C93.1043 155.711 93.1043 155.841 93.1043 155.956C92.8589 156.141 92.6502 156.345 92.4982 156.551C92.3389 156.758 92.2034 157.005 92.0826 157.289C92.0496 157.366 92.0386 157.438 92.0551 157.491C92.0716 157.544 92.0991 157.59 92.132 157.612C92.1705 157.639 92.2089 157.645 92.2583 157.634C92.3078 157.623 92.3462 157.584 92.3847 157.524C92.4506 157.381 92.5275 157.251 92.6026 157.119C92.6795 156.987 92.7674 156.863 92.8589 156.731C93.1372 156.343 93.4595 156.053 93.8312 155.868C94.2029 155.684 94.5965 155.59 95.0122 155.59C95.4278 155.59 95.794 155.673 96.1108 155.835C96.4221 156 96.6839 156.224 96.8926 156.513C97.0995 156.797 97.2588 157.125 97.3687 157.502C97.473 157.879 97.528 158.278 97.528 158.703C97.528 159.003 97.528 159.292 97.5225 159.562C97.517 159.834 97.506 160.107 97.4895 160.376C97.473 160.644 97.4511 160.911 97.4236 161.186C97.4016 161.458 97.3687 161.742 97.3357 162.048C97.3083 162.288 97.2588 162.513 97.1764 162.726C97.0995 162.938 96.9915 163.125 96.8487 163.277C96.7059 163.43 96.5319 163.555 96.3305 163.648C96.1291 163.736 95.8929 163.786 95.6256 163.786C95.3582 163.786 95.1074 163.736 94.9041 163.648C94.7027 163.555 94.527 163.43 94.386 163.277C94.2432 163.123 94.1351 162.938 94.0582 162.726C93.9758 162.513 93.9264 162.288 93.8989 162.048C93.855 161.709 93.8275 161.376 93.8055 161.043C93.7891 160.71 93.7726 160.376 93.7561 160.038C93.7396 159.961 93.7067 159.9 93.6572 159.867C93.6133 159.834 93.5584 159.818 93.5089 159.818C93.3881 159.818 93.3075 159.878 93.2636 159.997Z" fill="#BF73D8"/>
<path d="M96.9731 159.921C96.9731 159.287 97.0719 158.708 97.2733 158.177C97.4802 157.643 97.7659 157.189 98.1321 156.806C98.4983 156.429 98.9414 156.129 99.4596 155.916C99.9777 155.698 100.558 155.588 101.197 155.588C101.836 155.588 102.404 155.715 102.88 155.966C103.356 156.216 103.753 156.544 104.066 156.949C104.383 157.359 104.618 157.817 104.777 158.337C104.931 158.855 105.006 159.386 105.006 159.921C105 160.461 104.901 160.981 104.716 161.471C104.531 161.964 104.273 162.4 103.94 162.777C103.607 163.149 103.202 163.449 102.733 163.667C102.263 163.89 101.739 164 101.161 164C100.582 164 99.9961 163.896 99.4889 163.689C98.9798 163.482 98.5386 163.196 98.1669 162.83C97.7952 162.469 97.5059 162.037 97.2935 161.541C97.0811 161.043 96.9767 160.503 96.9767 159.919L96.9731 159.921ZM100.6 160.642C100.573 160.697 100.573 160.746 100.6 160.79C100.628 160.829 100.666 160.862 100.716 160.884C100.771 160.906 100.825 160.911 100.89 160.9C100.955 160.884 101.01 160.851 101.054 160.79C101.228 160.528 101.344 160.234 101.404 159.906C101.465 159.578 101.497 159.25 101.508 158.923C101.508 158.846 101.486 158.785 101.443 158.752C101.399 158.719 101.349 158.697 101.294 158.692C101.239 158.692 101.184 158.703 101.135 158.736C101.091 158.763 101.064 158.807 101.064 158.857C101.042 159.179 100.992 159.479 100.926 159.758C100.866 160.036 100.752 160.331 100.598 160.642H100.6Z" fill="#BF73D8"/>
<path d="M112.535 161.488C112.529 161.609 112.524 161.722 112.518 161.838C112.513 161.947 112.502 162.061 112.485 162.171C112.43 162.663 112.256 163.055 111.956 163.346C111.65 163.636 111.213 163.784 110.645 163.784C110.078 163.784 109.64 163.636 109.345 163.346C109.045 163.057 108.864 162.663 108.805 162.171C108.789 162.061 108.778 161.947 108.767 161.838C108.756 161.722 108.75 161.609 108.739 161.488C108.739 161.405 108.723 161.345 108.69 161.297C108.651 161.254 108.613 161.221 108.569 161.215C108.53 161.204 108.486 161.215 108.443 161.248C108.399 161.275 108.36 161.325 108.338 161.385C108.322 161.523 108.311 161.653 108.305 161.785C108.3 161.916 108.289 162.046 108.272 162.173C108.217 162.665 108.06 163.057 107.785 163.348C107.512 163.637 107.102 163.786 106.562 163.786C106.022 163.786 105.584 163.637 105.295 163.348C105.006 163.059 104.835 162.665 104.786 162.173C104.742 161.741 104.709 161.294 104.687 160.818C104.665 160.347 104.643 159.9 104.627 159.468V157.147C104.627 156.681 104.77 156.304 105.059 156.02C105.343 155.731 105.72 155.588 106.185 155.588C106.557 155.588 106.906 155.649 107.24 155.762C107.573 155.883 107.807 156.085 107.95 156.379C107.611 156.795 107.36 157.233 107.201 157.696C107.042 158.155 106.989 158.641 107.042 159.155C107.047 159.232 107.075 159.293 107.119 159.329C107.163 159.366 107.207 159.384 107.245 159.384C107.289 159.384 107.327 159.368 107.366 159.335C107.399 159.302 107.415 159.247 107.415 159.175C107.393 158.848 107.41 158.52 107.481 158.187C107.553 157.853 107.655 157.542 107.793 157.258C107.93 156.974 108.093 156.718 108.285 156.487C108.475 156.259 108.673 156.083 108.88 155.964C109.065 155.843 109.257 155.751 109.464 155.685C109.671 155.62 109.885 155.587 110.098 155.587C110.464 155.587 110.825 155.647 111.191 155.76C111.552 155.881 111.857 156.077 112.108 156.35C111.824 156.716 111.616 157.11 111.491 157.542C111.365 157.98 111.317 158.426 111.343 158.892C111.376 159.051 111.447 159.115 111.55 159.093C111.652 159.071 111.709 159 111.709 158.881C111.687 158.558 111.72 158.247 111.797 157.941C111.874 157.635 111.976 157.352 112.108 157.099C112.24 156.843 112.386 156.612 112.551 156.416C112.716 156.22 112.874 156.066 113.027 155.962C113.198 155.852 113.394 155.76 113.633 155.695C113.868 155.634 114.126 155.601 114.393 155.601C114.803 155.601 115.181 155.678 115.514 155.83C115.847 155.989 116.136 156.24 116.387 156.595C116.481 156.744 116.561 156.89 116.622 157.044C116.682 157.198 116.726 157.383 116.764 157.601C116.797 157.819 116.819 158.093 116.83 158.421C116.836 158.743 116.841 159.148 116.841 159.628C116.841 159.889 116.836 160.12 116.83 160.322C116.819 160.523 116.808 160.726 116.786 160.917C116.77 161.113 116.753 161.31 116.731 161.506C116.71 161.708 116.682 161.927 116.644 162.167C116.578 162.66 116.398 163.052 116.114 163.343C115.831 163.632 115.404 163.78 114.831 163.78C114.258 163.78 113.831 163.632 113.542 163.343C113.253 163.053 113.077 162.66 113.018 162.167C113.002 162.057 112.991 161.949 112.98 161.839C112.969 161.73 112.963 161.616 112.952 161.495C112.952 161.402 112.93 161.33 112.886 161.283C112.842 161.235 112.798 161.211 112.749 161.211C112.705 161.211 112.656 161.233 112.617 161.277C112.573 161.321 112.551 161.387 112.551 161.484H112.535V161.488Z" fill="#BF73D8"/>
<path d="M118.255 163.286C117.96 163.106 117.704 162.887 117.489 162.636C117.271 162.38 117.09 162.101 116.944 161.805C116.795 161.504 116.687 161.193 116.616 160.865C116.539 160.538 116.501 160.204 116.49 159.866C116.479 159.466 116.523 159.073 116.605 158.679C116.693 158.285 116.823 157.919 116.988 157.575C117.158 157.236 117.37 156.931 117.616 156.663C117.867 156.396 118.161 156.182 118.5 156.03C118.828 155.881 119.167 155.773 119.516 155.696C119.866 155.625 120.216 155.587 120.56 155.587C121.02 155.587 121.455 155.647 121.871 155.76C122.281 155.881 122.642 156.055 122.942 156.301C123.248 156.541 123.482 156.846 123.653 157.218C123.823 157.59 123.892 158.033 123.865 158.54C123.832 159.152 123.653 159.622 123.336 159.939C123.014 160.261 122.526 160.495 121.871 160.655C121.697 160.699 121.505 160.721 121.303 160.732C121.102 160.743 120.904 160.726 120.708 160.693C120.518 160.66 120.331 160.6 120.168 160.514C119.998 160.426 119.868 160.307 119.769 160.148C119.736 160.098 119.67 160.076 119.568 160.093C119.469 160.104 119.43 160.17 119.447 160.289C119.452 160.387 119.502 160.484 119.59 160.589C119.677 160.693 119.791 160.79 119.934 160.878C120.077 160.972 120.24 161.043 120.432 161.102C120.622 161.156 120.836 161.184 121.065 161.184C121.153 161.184 121.25 161.173 121.36 161.151C121.47 161.129 121.562 161.113 121.638 161.091C121.933 161.008 122.184 160.948 122.398 160.911C122.605 160.878 122.792 160.884 122.955 160.928C123.114 160.972 123.25 161.065 123.36 161.206C123.475 161.349 123.577 161.55 123.671 161.817C123.819 162.233 123.781 162.594 123.55 162.894C123.321 163.2 122.884 163.445 122.234 163.648C121.922 163.742 121.649 163.802 121.408 163.828C121.173 163.855 120.893 163.866 120.571 163.866C120.155 163.866 119.751 163.822 119.353 163.735C118.96 163.652 118.588 163.5 118.255 163.28V163.286ZM119.976 158.428C120.304 158.329 120.615 158.285 120.904 158.291C121.193 158.296 121.494 158.329 121.805 158.401C121.854 158.412 121.898 158.39 121.942 158.351C121.981 158.307 122.003 158.258 122.014 158.198C122.019 158.143 122.014 158.088 121.986 158.038C121.959 157.983 121.909 157.95 121.827 157.934C121.527 157.862 121.21 157.819 120.877 157.797C120.543 157.775 120.232 157.824 119.937 157.945C119.866 157.972 119.822 158.011 119.8 158.071C119.778 158.126 119.773 158.187 119.784 158.245C119.789 158.306 119.811 158.355 119.844 158.393C119.882 158.432 119.926 158.443 119.976 158.426V158.428Z" fill="#BF73D8"/>
</svg>
