<svg width="310" height="168" viewBox="0 0 310 168" fill="none" xmlns="http://www.w3.org/2000/svg">
<path d="M306.415 63.7927H104.362V143.641H306.415V63.7927Z" fill="#FFAEC5"/>
<path d="M129.229 73.2975H129.17C126.904 73.2975 125.068 75.1341 125.068 77.3997V99.2702C125.068 101.536 126.904 103.372 129.17 103.372H129.229C131.494 103.372 133.331 101.536 133.331 99.2702V77.3997C133.331 75.1341 131.494 73.2975 129.229 73.2975Z" fill="#FF507E"/>
<path d="M154.15 73.2975H154.091C151.825 73.2975 149.989 75.1341 149.989 77.3997V99.2702C149.989 101.536 151.825 103.372 154.091 103.372H154.15C156.416 103.372 158.252 101.536 158.252 99.2702V77.3997C158.252 75.1341 156.416 73.2975 154.15 73.2975Z" fill="#FFF8FA"/>
<path d="M162.416 73.2975H162.357C160.092 73.2975 158.255 75.1341 158.255 77.3997V99.2702C158.255 101.536 160.092 103.372 162.357 103.372H162.416C164.682 103.372 166.518 101.536 166.518 99.2702V77.3997C166.518 75.1341 164.682 73.2975 162.416 73.2975Z" fill="#9DE296"/>
<path d="M170.679 78.204H170.62C168.355 78.204 166.518 80.0406 166.518 82.3062V99.2703C166.518 101.536 168.355 103.373 170.62 103.373H170.679C172.945 103.373 174.781 101.536 174.781 99.2703V82.3062C174.781 80.0406 172.945 78.204 170.679 78.204Z" fill="#FF5652"/>
<path d="M178.943 78.204H178.884C176.618 78.204 174.781 80.0406 174.781 82.3062V99.2703C174.781 101.536 176.618 103.373 178.884 103.373H178.943C181.208 103.373 183.045 101.536 183.045 99.2703V82.3062C183.045 80.0406 181.208 78.204 178.943 78.204Z" fill="#9DE296"/>
<path d="M136.126 78.9785H136.088C134.565 78.9785 133.331 80.2127 133.331 81.7352V100.616C133.331 102.138 134.565 103.372 136.088 103.372H136.126C137.649 103.372 138.883 102.138 138.883 100.616V81.7352C138.883 80.2127 137.649 78.9785 136.126 78.9785Z" fill="#FF5652"/>
<path d="M147.233 78.9785H147.194C145.672 78.9785 144.438 80.2127 144.438 81.7352V100.616C144.438 102.138 145.672 103.372 147.194 103.372H147.233C148.755 103.372 149.989 102.138 149.989 100.616V81.7352C149.989 80.2127 148.755 78.9785 147.233 78.9785Z" fill="#DBDCDC"/>
<path d="M141.68 78.9785H141.641C140.119 78.9785 138.885 80.2127 138.885 81.7352V100.616C138.885 102.138 140.119 103.372 141.641 103.372H141.68C143.203 103.372 144.437 102.138 144.437 100.616V81.7352C144.437 80.2127 143.203 78.9785 141.68 78.9785Z" fill="#9E9E9F"/>
<path d="M194.181 114.877H194.122C191.856 114.877 190.02 116.714 190.02 118.98V140.85C190.02 143.116 191.856 144.952 194.122 144.952H194.181C196.446 144.952 198.283 143.116 198.283 140.85V118.98C198.283 116.714 196.446 114.877 194.181 114.877Z" fill="#FFE9F0"/>
<path d="M219.102 114.877H219.043C216.778 114.877 214.941 116.714 214.941 118.98V140.85C214.941 143.116 216.778 144.952 219.043 144.952H219.102C221.368 144.952 223.204 143.116 223.204 140.85V118.98C223.204 116.714 221.368 114.877 219.102 114.877Z" fill="#FFF8FA"/>
<path d="M227.368 114.877H227.309C225.043 114.877 223.207 116.714 223.207 118.98V140.85C223.207 143.116 225.043 144.952 227.309 144.952H227.368C229.633 144.952 231.47 143.116 231.47 140.85V118.98C231.47 116.714 229.633 114.877 227.368 114.877Z" fill="#9DE296"/>
<path d="M235.631 119.784H235.572C233.307 119.784 231.47 121.62 231.47 123.886V140.85C231.47 143.116 233.307 144.952 235.572 144.952H235.631C237.897 144.952 239.733 143.116 239.733 140.85V123.886C239.733 121.62 237.897 119.784 235.631 119.784Z" fill="#FF5652"/>
<path d="M243.897 119.784H243.838C241.572 119.784 239.735 121.62 239.735 123.886V140.85C239.735 143.116 241.572 144.952 243.838 144.952H243.897C246.162 144.952 247.999 143.116 247.999 140.85V123.886C247.999 121.62 246.162 119.784 243.897 119.784Z" fill="#0DAC67"/>
<path d="M201.08 120.561H201.042C199.519 120.561 198.285 121.795 198.285 123.317V142.198C198.285 143.72 199.519 144.955 201.042 144.955H201.08C202.603 144.955 203.837 143.72 203.837 142.198V123.317C203.837 121.795 202.603 120.561 201.08 120.561Z" fill="#FF5652"/>
<path d="M212.185 120.561H212.146C210.624 120.561 209.389 121.795 209.389 123.317V142.198C209.389 143.72 210.624 144.955 212.146 144.955H212.185C213.707 144.955 214.941 143.72 214.941 142.198V123.317C214.941 121.795 213.707 120.561 212.185 120.561Z" fill="#DBDCDC"/>
<path d="M206.633 120.561H206.595C205.072 120.561 203.838 121.795 203.838 123.317V142.198C203.838 143.72 205.072 144.955 206.595 144.955H206.633C208.156 144.955 209.39 143.72 209.39 142.198V123.317C209.39 121.795 208.156 120.561 206.633 120.561Z" fill="#9E9E9F"/>
<path d="M249.01 73.2975H248.951C246.686 73.2975 244.849 75.1341 244.849 77.3997V99.2702C244.849 101.536 246.686 103.372 248.951 103.372H249.01C251.276 103.372 253.113 101.536 253.113 99.2702V77.3997C253.113 75.1341 251.276 73.2975 249.01 73.2975Z" fill="#BEE858"/>
<path d="M273.932 73.2975H273.873C271.607 73.2975 269.771 75.1341 269.771 77.3997V99.2702C269.771 101.536 271.607 103.372 273.873 103.372H273.932C276.197 103.372 278.034 101.536 278.034 99.2702V77.3997C278.034 75.1341 276.197 73.2975 273.932 73.2975Z" fill="#FFF8FA"/>
<path d="M282.195 73.2975H282.136C279.87 73.2975 278.034 75.1341 278.034 77.3997V99.2702C278.034 101.536 279.87 103.372 282.136 103.372H282.195C284.46 103.372 286.297 101.536 286.297 99.2702V77.3997C286.297 75.1341 284.46 73.2975 282.195 73.2975Z" fill="#9DE296"/>
<path d="M290.46 78.204H290.401C288.136 78.204 286.299 80.0406 286.299 82.3062V99.2703C286.299 101.536 288.136 103.373 290.401 103.373H290.46C292.726 103.373 294.562 101.536 294.562 99.2703V82.3062C294.562 80.0406 292.726 78.204 290.46 78.204Z" fill="#4E5BD1"/>
<path d="M298.724 78.204H298.665C296.4 78.204 294.563 80.0406 294.563 82.3062V99.2703C294.563 101.536 296.4 103.373 298.665 103.373H298.724C300.99 103.373 302.826 101.536 302.826 99.2703V82.3062C302.826 80.0406 300.99 78.204 298.724 78.204Z" fill="#7272F2"/>
<path d="M255.908 78.9785H255.869C254.347 78.9785 253.112 80.2127 253.112 81.7352V100.616C253.112 102.138 254.347 103.372 255.869 103.372H255.908C257.43 103.372 258.664 102.138 258.664 100.616V81.7352C258.664 80.2127 257.43 78.9785 255.908 78.9785Z" fill="#FF5652"/>
<path d="M267.013 78.9785H266.974C265.452 78.9785 264.218 80.2127 264.218 81.7352V100.616C264.218 102.138 265.452 103.372 266.974 103.372H267.013C268.536 103.372 269.77 102.138 269.77 100.616V81.7352C269.77 80.2127 268.536 78.9785 267.013 78.9785Z" fill="#7272F2"/>
<path d="M261.459 78.9785H261.421C259.898 78.9785 258.664 80.2127 258.664 81.7352V100.616C258.664 102.138 259.898 103.372 261.421 103.372H261.459C262.982 103.372 264.216 102.138 264.216 100.616V81.7352C264.216 80.2127 262.982 78.9785 261.459 78.9785Z" fill="#9DE296"/>
<path d="M136.138 113.563H136.079C133.813 113.563 131.977 115.4 131.977 117.666V139.536C131.977 141.802 133.813 143.638 136.079 143.638H136.138C138.404 143.638 140.24 141.802 140.24 139.536V117.666C140.24 115.4 138.404 113.563 136.138 113.563Z" fill="#BEE858"/>
<path d="M161.059 113.563H161C158.735 113.563 156.898 115.4 156.898 117.666V139.536C156.898 141.802 158.735 143.638 161 143.638H161.059C163.325 143.638 165.162 141.802 165.162 139.536V117.666C165.162 115.4 163.325 113.563 161.059 113.563Z" fill="#FFF8FA"/>
<path d="M169.323 113.563H169.264C166.998 113.563 165.161 115.4 165.161 117.666V139.536C165.161 141.802 166.998 143.638 169.264 143.638H169.323C171.588 143.638 173.425 141.802 173.425 139.536V117.666C173.425 115.4 171.588 113.563 169.323 113.563Z" fill="#9DE296"/>
<path d="M177.589 118.47H177.53C175.264 118.47 173.427 120.307 173.427 122.572V139.536C173.427 141.802 175.264 143.639 177.53 143.639H177.589C179.854 143.639 181.691 141.802 181.691 139.536V122.572C181.691 120.307 179.854 118.47 177.589 118.47Z" fill="#4E5BD1"/>
<path d="M185.852 118.47H185.793C183.527 118.47 181.691 120.307 181.691 122.572V139.536C181.691 141.802 183.527 143.639 185.793 143.639H185.852C188.117 143.639 189.954 141.802 189.954 139.536V122.572C189.954 120.307 188.117 118.47 185.852 118.47Z" fill="#7272F2"/>
<path d="M143.035 119.245H142.997C141.474 119.245 140.24 120.479 140.24 122.001V140.882C140.24 142.404 141.474 143.638 142.997 143.638H143.035C144.558 143.638 145.792 142.404 145.792 140.882V122.001C145.792 120.479 144.558 119.245 143.035 119.245Z" fill="#FF5652"/>
<path d="M154.141 119.245H154.102C152.58 119.245 151.345 120.479 151.345 122.001V140.882C151.345 142.404 152.58 143.638 154.102 143.638H154.141C155.663 143.638 156.897 142.404 156.897 140.882V122.001C156.897 120.479 155.663 119.245 154.141 119.245Z" fill="#7272F2"/>
<path d="M148.589 119.245H148.551C147.028 119.245 145.794 120.479 145.794 122.001V140.882C145.794 142.404 147.028 143.638 148.551 143.638H148.589C150.112 143.638 151.346 142.404 151.346 140.882V122.001C151.346 120.479 150.112 119.245 148.589 119.245Z" fill="#9DE296"/>
<path d="M306.441 60.2047H104.334C102.377 60.2047 100.776 61.8061 100.776 63.7633V143.663C100.776 145.62 102.377 147.222 104.334 147.222H306.441C308.398 147.222 310 145.62 310 143.663V63.7633C310 61.8061 308.398 60.2047 306.441 60.2047ZM107.947 107.3H302.828V140.053H107.947V107.3ZM107.947 100.129V67.3762H302.828V100.129H107.947Z" fill="#FF8FA5"/>
<path d="M100.753 108.711C104.996 108.716 108.439 105.28 108.443 101.037L108.475 70.3142C108.479 66.0715 105.043 62.6284 100.8 62.6239C96.5577 62.6194 93.1146 66.0557 93.1101 70.2984L93.0784 101.021C93.0738 105.264 96.5101 108.707 100.753 108.711Z" fill="#ED516F"/>
<path d="M126.864 71.5306L108.201 50.391C107.106 49.1502 105.212 49.0324 103.971 50.1278L76.5925 74.2992C75.3517 75.3946 75.2339 77.2884 76.3293 78.5292L94.9927 99.6688C96.0881 100.91 97.9819 101.027 99.2227 99.932L126.601 75.7606C127.842 74.6652 127.96 72.7714 126.864 71.5306Z" fill="#FFE1EA"/>
<path d="M98.9316 49.8981L105.274 49.4835L108.083 52.9447L100.157 55.1488L98.9316 49.8981Z" fill="#FFE1EA"/>
<path d="M120.73 71.9095L102.067 50.7699C100.972 49.5291 99.0779 49.4113 97.8372 50.5067L70.4587 74.6781C69.218 75.7735 69.1001 77.6673 70.1955 78.9081L88.8589 100.048C89.9543 101.288 91.8481 101.406 93.0889 100.311L120.467 76.1395C121.708 75.0441 121.826 73.1503 120.73 71.9095Z" fill="#FF83A9"/>
<path d="M90.6618 38.939C100.765 38.939 108.956 30.7487 108.956 20.6454C108.956 10.542 100.765 2.35168 90.6618 2.35168C80.5585 2.35168 72.3682 10.542 72.3682 20.6454C72.3682 30.7487 80.5585 38.939 90.6618 38.939Z" fill="#ED516F"/>
<path d="M61.2983 97.5607L61.2458 147.735C61.2344 158.634 70.0605 167.478 80.9594 167.49C91.8584 167.501 100.703 158.675 100.714 147.776L100.767 97.602C100.778 86.7031 91.9523 77.8585 81.0533 77.847C70.1543 77.8356 61.3097 86.6617 61.2983 97.5607Z" fill="#ED516F"/>
<path d="M21.8871 40.0379L21.8233 100.949C21.8005 122.747 39.4527 140.436 61.2507 140.459C83.0486 140.482 100.738 122.829 100.761 101.031L100.824 40.1205C100.847 18.3226 83.195 0.633356 61.3971 0.610529C39.5992 0.587702 21.9099 18.2399 21.8871 40.0379Z" fill="#FF6C8F"/>
<path d="M21.9766 101.502L21.9283 147.694C21.9168 158.593 30.743 167.437 41.6419 167.449C52.5409 167.46 61.3855 158.634 61.3969 147.735L61.4453 101.543C61.4567 90.6443 52.6306 81.7997 41.7316 81.7883C30.8327 81.7769 21.988 90.603 21.9766 101.502Z" fill="#FF6C8F"/>
<path d="M69.0194 59.5255C69.0132 65.4604 73.8189 70.2766 79.7531 70.2828C85.6874 70.289 90.5031 65.4829 90.5093 59.548L90.5217 47.6761C90.5279 41.7413 85.7223 36.925 79.7881 36.9188C73.8538 36.9126 69.0381 41.7188 69.0319 47.6536L69.0194 59.5255Z" fill="#EEEEEF"/>
<path d="M47.5265 59.5049C47.5203 65.4398 52.3259 70.256 58.2602 70.2622C64.1945 70.2685 69.0102 65.4623 69.0164 59.5274L69.0288 47.6556C69.035 41.7207 64.2294 36.9045 58.2951 36.8983C52.3609 36.8921 47.5452 41.6982 47.539 47.6331L47.5265 59.5049Z" fill="#EEEEEF"/>
<path d="M57.6478 50.5637L57.6415 56.5959C57.6382 59.7373 60.1821 62.2865 63.3234 62.2898L63.3257 62.2898C66.467 62.2931 69.0162 59.7492 69.0195 56.6078L69.0258 50.5756C69.0291 47.4343 66.4852 44.8851 63.3439 44.8818L63.3416 44.8818C60.2003 44.8785 57.6511 47.4224 57.6478 50.5637Z" fill="#ED516F"/>
<path d="M79.1402 50.5864L79.1339 56.6186C79.1306 59.76 81.6745 62.3092 84.8158 62.3125L84.8181 62.3125C87.9594 62.3158 90.5086 59.7719 90.5119 56.6305L90.5182 50.5983C90.5215 47.457 87.9777 44.9078 84.8363 44.9045L84.8341 44.9045C81.6927 44.9012 79.1435 47.4451 79.1402 50.5864Z" fill="#ED516F"/>
<path d="M35.2556 40.8757C45.9093 40.8757 54.5459 32.2391 54.5459 21.5854C54.5459 10.9316 45.9093 2.29498 35.2556 2.29498C24.6018 2.29498 15.9652 10.9316 15.9652 21.5854C15.9652 32.2391 24.6018 40.8757 35.2556 40.8757Z" fill="#FF6C8F"/>
<path d="M29.7868 119.172C28.9442 119.172 28.0879 119.029 27.2475 118.735C20.6717 116.422 0.658738 109.386 0.0154236 94.2528C-0.652808 78.5369 20.5924 68.1555 24.86 66.2346C28.729 64.4927 33.2752 66.2165 35.0194 70.0832C36.7614 73.9498 35.0398 78.4983 31.1731 80.2403C23.7388 83.6177 15.2171 90.189 15.3666 93.6004C15.4391 95.2426 19.0815 99.576 32.3442 104.24C36.3468 105.647 38.4512 110.032 37.0422 114.035C35.93 117.197 32.9604 119.174 29.7868 119.17V119.172Z" fill="#FF8FA5"/>
<path d="M89.2825 27.6494C89.6178 27.6494 89.9575 27.5407 90.2407 27.3142C90.9044 26.7864 91.0154 25.8191 90.4853 25.1554C82.1789 14.7265 71.2244 11.4125 70.7623 11.2766C69.9468 11.0342 69.0951 11.5031 68.855 12.3163C68.6149 13.1295 69.0793 13.9835 69.8925 14.2236C69.9967 14.2553 80.403 17.4289 88.082 27.0695C88.3855 27.4501 88.8317 27.6494 89.2825 27.6494Z" fill="#EEEEEF"/>
<path d="M26.8577 146.232C27.7049 146.232 28.3958 145.546 28.3958 144.696L28.4116 129.599C28.4116 128.752 27.7253 128.061 26.8758 128.061C26.0286 128.061 25.3378 128.747 25.3378 129.597L25.3219 144.694C25.3219 145.541 26.0083 146.232 26.8577 146.232Z" fill="#EEEEEF"/>
</svg>
