<svg width="190" height="198" viewBox="0 0 190 198" fill="none" xmlns="http://www.w3.org/2000/svg">
<path d="M142.231 129.063C142.231 117.901 133.056 108.853 121.739 108.853C110.421 108.853 101.246 117.901 101.246 129.063V172.755C101.246 183.917 110.421 192.965 121.739 192.965C133.056 192.965 142.231 183.917 142.231 172.755V129.063Z" fill="#1189D3"/>
<path d="M142.306 129.585C142.306 107.262 123.957 89.1661 101.322 89.1661C78.6875 89.1661 60.3384 107.262 60.3384 129.585C60.3384 151.908 78.6875 170.004 101.322 170.004C123.957 170.004 142.306 151.908 142.306 129.585Z" fill="#409DE2"/>
<path d="M142.306 61.7663C142.306 39.4437 123.957 21.3476 101.322 21.3476C78.6875 21.3476 60.3384 39.4437 60.3384 61.7663C60.3384 84.089 78.6875 102.185 101.322 102.185C123.957 102.185 142.306 84.089 142.306 61.7663Z" fill="#409DE2"/>
<path d="M101.175 129.063C101.175 117.901 92.0003 108.853 80.6826 108.853C69.365 108.853 60.1902 117.901 60.1902 129.063V172.755C60.1902 183.917 69.365 192.965 80.6826 192.965C92.0003 192.965 101.175 183.917 101.175 172.755V129.063Z" fill="#409DE2"/>
<path d="M103 64.2215C103 70.2993 107.996 75.2263 114.158 75.2263C120.32 75.2263 125.316 70.2993 125.316 64.2215V52.0626C125.316 45.9848 120.32 41.0578 114.158 41.0578C107.996 41.0578 103 45.9848 103 52.0626V64.2215Z" fill="#EEEEEF"/>
<path d="M80.6852 64.2215C80.6852 70.2993 85.6807 75.2263 91.8429 75.2263C98.005 75.2263 103 70.2993 103 64.2215V52.0626C103 45.9848 98.005 41.0578 91.8429 41.0578C85.6807 41.0578 80.6852 45.9848 80.6852 52.0626V64.2215Z" fill="#EEEEEF"/>
<path d="M97.7789 56.6369C97.7789 53.4191 95.1339 50.8105 91.8712 50.8105C88.6084 50.8105 85.9634 53.4191 85.9634 56.6369V62.8111C85.9634 66.0289 88.6084 68.6374 91.8712 68.6374C95.1339 68.6374 97.7789 66.0289 97.7789 62.8111V56.6369Z" fill="#1189D3"/>
<path d="M120.097 56.6369C120.097 53.4191 117.452 50.8105 114.189 50.8105C110.927 50.8105 108.281 53.4191 108.281 56.6369V62.8111C108.281 66.0289 110.927 68.6374 114.189 68.6374C117.452 68.6374 120.097 66.0289 120.097 62.8111V56.6369Z" fill="#1189D3"/>
<path d="M60.1914 96.0318C69.0022 96.0318 76.1447 88.9878 76.1447 80.2984C76.1447 71.6091 69.0022 64.5651 60.1914 64.5651C51.3806 64.5651 44.238 71.6091 44.238 80.2984C44.238 88.9878 51.3806 96.0318 60.1914 96.0318Z" fill="#409DE2"/>
<path d="M127.32 88.2141C126.834 88.2141 126.355 87.9954 126.042 87.583C125.514 86.8872 125.66 85.9019 126.363 85.3812C133.023 80.4693 133.879 71.9975 133.887 71.9142C133.967 71.0497 134.759 70.4081 135.617 70.4873C136.493 70.5643 137.142 71.3246 137.066 72.1891C137.03 72.5932 136.103 82.1274 128.275 87.9017C127.988 88.1121 127.652 88.2141 127.32 88.2141Z" fill="#EEEEEF"/>
<path d="M182.052 127.644H29.4357C25.0461 127.644 21.4875 131.154 21.4875 135.483V135.485C21.4875 139.814 25.0461 143.324 29.4357 143.324H182.052C186.441 143.324 190 139.814 190 135.485V135.483C190 131.154 186.441 127.644 182.052 127.644Z" fill="#C7ECFF"/>
<path d="M60.6339 142.538C60.6339 138.642 57.4309 135.483 53.4799 135.483C49.5289 135.483 46.3259 138.642 46.3259 142.538V190.945C46.3259 194.841 49.5289 198 53.4799 198C57.4309 198 60.6339 194.841 60.6339 190.945V142.538Z" fill="#C7ECFF"/>
<path d="M156.614 142.538C156.614 138.642 153.411 135.483 149.46 135.483C145.509 135.483 142.306 138.642 142.306 142.538V190.945C142.306 194.841 145.509 198 149.46 198C153.411 198 156.614 194.841 156.614 190.945V142.538Z" fill="#C7ECFF"/>
<path d="M103.055 133.975C101.241 133.975 99.4372 133.229 98.1635 131.775C95.8633 129.134 96.1084 125.174 98.7613 122.874C99.4921 122.241 116.907 107.532 148.41 117.285C151.813 118.341 153.706 121.916 152.633 125.268C151.562 128.611 147.95 130.477 144.539 129.432C120.354 121.928 107.768 132.042 107.237 132.471C106.021 133.477 104.534 133.975 103.053 133.975H103.055Z" fill="#EEEEEF"/>
<path d="M102.967 134.012C101.468 134.012 99.9681 133.502 98.7514 132.465C98.141 131.967 85.5461 121.96 61.4566 129.432C58.0285 130.482 54.4357 128.617 53.3627 125.268C52.2897 121.918 54.1822 118.344 57.5849 117.285C89.0797 107.52 106.503 122.239 107.234 122.874C109.906 125.193 110.166 129.215 107.808 131.856C106.535 133.285 104.752 134.012 102.967 134.012Z" fill="#EEEEEF"/>
<path d="M146.484 141.851C146.036 141.851 145.582 141.807 145.121 141.707C141.636 140.974 139.416 137.587 140.168 134.148C144.695 113.336 123.799 106.512 121.404 105.803C118.001 104.797 116.047 101.26 117.055 97.8962C118.062 94.5341 121.649 92.601 125.034 93.5884C137.129 97.063 158.504 110.565 152.786 136.82C152.138 139.803 149.458 141.849 146.484 141.849V141.851Z" fill="#409DE2"/>
<path d="M93.5885 79.1486H86.2529C79.7115 79.1486 74.3909 73.9014 74.3909 67.4501C74.3909 60.9989 79.7115 55.7516 86.2529 55.7516H93.5885C100.13 55.7516 105.451 60.9989 105.451 67.4501C105.451 73.9014 100.13 79.1486 93.5885 79.1486ZM86.2529 60.526C82.3834 60.526 79.232 63.634 79.232 67.4501C79.232 71.2663 82.3834 74.3742 86.2529 74.3742H93.5885C97.4581 74.3742 100.609 71.2663 100.609 67.4501C100.609 63.634 97.4581 60.526 93.5885 60.526H86.2529Z" fill="#04699B"/>
<path d="M119.753 79.1486H112.411C105.869 79.1486 100.549 73.9014 100.549 67.4501C100.549 60.9989 105.869 55.7516 112.411 55.7516H119.753C126.288 55.7516 131.608 60.9989 131.608 67.4501C131.608 73.9014 126.288 79.1486 119.753 79.1486ZM112.411 60.526C108.541 60.526 105.39 63.634 105.39 67.4501C105.39 71.2663 108.541 74.3742 112.411 74.3742H119.753C123.622 74.3742 126.767 71.2663 126.767 67.4501C126.767 63.634 123.622 60.526 119.753 60.526H112.411Z" fill="#04699B"/>
<path d="M76.809 69.8374C76.2535 69.8374 75.7064 69.6499 75.246 69.277L59.4827 56.1683C58.4625 55.3163 58.3358 53.8123 59.1933 52.8C60.0636 51.7939 61.5822 51.6751 62.6087 52.5146L78.372 65.6233C79.3922 66.4753 79.5189 67.9793 78.6614 68.9916C78.1819 69.552 77.4954 69.8374 76.809 69.8374Z" fill="#04699B"/>
<path d="M129.25 69.8374C128.545 69.8374 127.852 69.5332 127.372 68.9542C126.528 67.9293 126.686 66.4232 127.725 65.5983L140.709 55.2247C141.742 54.3852 143.269 54.5539 144.112 55.5726C144.956 56.5974 144.798 58.1035 143.759 58.9284L130.775 69.302C130.327 69.6624 129.785 69.8374 129.25 69.8374Z" fill="#04699B"/>
<path d="M48.0793 52.2291C55.0263 46.9236 59.5189 38.6392 59.5189 29.3029C59.5189 13.2842 46.3515 0.29834 30.1088 0.29834C13.8661 0.29834 0.69873 13.2842 0.69873 29.3029C0.69873 45.3217 13.8661 58.3075 30.1088 58.3075C33.0954 58.3075 35.9765 57.8596 38.6906 57.0431C41.0415 59.9073 45.1666 62.8694 52.2509 62.1549C53.5456 62.0237 54.1497 60.4801 53.2182 59.5823C51.6404 58.0617 49.6191 55.6141 48.0772 52.227L48.0793 52.2291Z" fill="#1189D3"/>
<path d="M15.6492 25.2389C16.0948 25.1765 16.5743 25.089 17.0791 24.989C17.5797 24.8932 18.0211 24.7848 18.4034 24.6765C18.5598 24.6307 18.6801 24.5536 18.7583 24.4453C18.8364 24.337 18.8681 24.2287 18.8597 24.1287C18.8449 24.0287 18.7858 23.9474 18.6759 23.8829C18.5619 23.8141 18.4056 23.7912 18.2028 23.8141C17.7107 23.9224 17.1868 24.0141 16.625 24.0766C16.0631 24.1453 15.5267 24.1995 15.0113 24.2453C14.1368 24.3141 13.4208 24.087 12.859 23.5642C12.2971 23.0476 11.9064 22.2768 11.6825 21.2603C11.5726 20.5979 11.5726 19.9959 11.6825 19.4564C11.7965 18.9127 11.9866 18.4315 12.257 18.0149C12.5231 17.5941 12.8547 17.2441 13.2455 16.9671C13.6362 16.6942 14.0692 16.4692 14.5424 16.2922C15.2774 16.0464 16.1561 15.8652 17.1636 15.7443C18.1711 15.6214 19.1765 15.5631 20.1882 15.5631C20.8599 15.5631 21.4851 15.6402 22.0681 15.7943C22.6511 15.9485 23.1622 16.1797 23.5994 16.488C24.0366 16.8005 24.3809 17.19 24.6386 17.667C24.8963 18.144 25.0484 18.7002 25.0949 19.3397C25.1646 20.8624 25.2152 22.5455 25.2469 24.3786C25.2786 26.2159 25.2976 28.0886 25.2976 29.9967C25.2976 31.9047 25.2786 33.7837 25.2469 35.6147C25.2152 37.4519 25.1646 39.1288 25.0949 40.6578C25.0484 41.2285 24.8921 41.7243 24.6259 42.1305C24.3556 42.5388 24.0007 42.8742 23.5635 43.1408C23.1263 43.4033 22.6299 43.5991 22.0702 43.722C21.5084 43.8407 20.9381 43.9032 20.3551 43.9032C19.7721 43.9032 19.2061 43.8407 18.659 43.722C18.112 43.5991 17.6198 43.4053 17.1784 43.1408C16.7412 42.8742 16.3821 42.5367 16.1075 42.1305C15.8266 41.7222 15.6745 41.2285 15.6513 40.6578C15.5816 39.5058 15.5372 38.2456 15.5182 36.8749C15.495 35.5064 15.4823 34.1232 15.4823 32.7296C15.4823 31.3361 15.4971 29.9904 15.5182 28.6885C15.5372 27.3824 15.5816 26.2346 15.6513 25.2369L15.6492 25.2389Z" fill="#EEEEEF"/>
<path d="M37.563 34.2211C37.5165 35.1043 37.4658 35.9854 37.4109 36.8603C37.356 37.731 37.282 38.5976 37.1912 39.4579C37.1279 40.0786 36.9842 40.6598 36.773 41.1993C36.5618 41.7388 36.2766 42.2096 35.9176 42.6096C35.5585 43.0095 35.1128 43.322 34.589 43.5532C34.061 43.7844 33.4526 43.9031 32.7598 43.9031C32.0671 43.9031 31.4165 43.7844 30.8927 43.5532C30.3646 43.322 29.919 43.0095 29.5451 42.6096C29.1776 42.2096 28.8924 41.7388 28.6897 41.1993C28.4869 40.6598 28.3538 40.0786 28.2841 39.4579C28.1743 38.3559 28.0919 37.2686 28.0307 36.1937C27.9757 35.123 27.9251 34.0357 27.8828 32.9296V31.7693C27.8828 30.8215 27.8913 29.8196 27.9145 28.7718C27.9377 27.7198 27.9652 26.6679 27.9969 25.6076C28.0286 24.5473 28.075 23.5037 28.1299 22.4747C28.1849 21.4456 28.2503 20.4937 28.3179 19.6084C28.3813 18.7647 28.5165 18.0794 28.7171 17.5503C28.9199 17.0191 29.2008 16.6067 29.5578 16.3088C29.9168 16.0088 30.3477 15.8047 30.8504 15.6964C31.3552 15.5881 31.9445 15.5276 32.6162 15.5276C33.2879 15.5276 33.8392 15.586 34.3313 15.6964C34.8235 15.8047 35.2501 16.0088 35.6092 16.3088C35.9683 16.6088 36.2534 17.0212 36.4646 17.5503C36.6801 18.0815 36.8279 18.7647 36.9209 19.6084C36.9441 19.8479 36.9673 20.1521 36.9906 20.5208C37.0096 20.8832 37.0328 21.2686 37.0539 21.6769C37.0772 22.0893 37.1004 22.483 37.1236 22.8746C37.1469 23.26 37.1553 23.5954 37.1553 23.8849C36.5069 24.3703 35.9788 24.8785 35.5775 25.4076C35.172 25.9388 34.815 26.5679 34.5024 27.299C34.4095 27.4949 34.3883 27.6657 34.4327 27.8115C34.4792 27.9573 34.5425 28.0614 34.6355 28.1239C34.7221 28.1927 34.8277 28.2093 34.9523 28.1739C35.0769 28.1427 35.1825 28.0469 35.2734 27.8927C35.4529 27.5386 35.6409 27.1991 35.8436 26.8678C36.0464 26.5325 36.2703 26.2013 36.5153 25.8701C37.2335 24.8764 38.0741 24.1432 39.0394 23.6662C40.0004 23.1892 41.0206 22.9538 42.0978 22.9538C43.175 22.9538 44.1171 23.1621 44.9345 23.5849C45.7519 24.0016 46.4341 24.5786 46.9706 25.3076C47.5092 26.0367 47.9169 26.8803 48.1978 27.8427C48.4745 28.803 48.616 29.8279 48.616 30.909C48.616 31.6839 48.6118 32.4192 48.597 33.1129C48.5886 33.8107 48.5611 34.5002 48.5147 35.1855C48.4682 35.8708 48.4133 36.5645 48.3436 37.2582C48.2802 37.956 48.202 38.6913 48.1091 39.4621C48.0457 40.0828 47.9063 40.664 47.7099 41.2035C47.5071 41.743 47.222 42.2138 46.8502 42.6137C46.4827 43.0137 46.0328 43.3261 45.5069 43.5574C44.9788 43.7886 44.3663 43.9073 43.6714 43.9073C42.9765 43.9073 42.3344 43.7886 41.8085 43.5574C41.2804 43.3261 40.8347 43.0137 40.4609 42.6137C40.0934 42.2138 39.8082 41.743 39.6054 41.2035C39.4027 40.664 39.2696 40.0828 39.1999 39.4621C39.0901 38.5997 39.0119 37.7435 38.9655 36.8957C38.919 36.0437 38.8725 35.1855 38.8324 34.3252C38.7859 34.1252 38.7035 33.9857 38.5789 33.894C38.4543 33.8086 38.3255 33.7628 38.1924 33.7628C37.8756 33.7628 37.6643 33.9169 37.5524 34.2252L37.563 34.2211Z" fill="#EEEEEF"/>
<path d="M142.885 89.8389L142.332 83.8439C142.317 83.6814 142.412 83.5273 142.57 83.4773C143.1 83.3085 144.355 83.0607 145.578 83.9085C147.19 85.0229 147.671 83.6481 147.671 83.6481V83.1981C147.671 83.1981 146.372 83.9251 145.458 82.6586C144.59 81.4567 141.721 81.8171 141.066 82.542C141.003 82.6128 140.988 82.7107 141.001 82.8044L141.823 89.6681C141.848 89.8869 141.675 90.0764 141.451 90.0639C140.331 89.9973 137.355 90.0702 136.965 92.6657C136.483 95.8694 143.365 95.0633 142.883 89.841L142.885 89.8389Z" fill="#EEEEEF"/>
<path d="M151.269 83.8419L148.301 79.8986C148.221 79.7924 148.221 79.6445 148.31 79.5424C148.608 79.2029 149.372 78.5051 150.591 78.5822C152.194 78.6821 151.937 77.524 151.937 77.524L151.742 77.2094C151.742 77.2094 151.151 78.2593 149.968 77.7614C148.844 77.2886 147.005 78.7405 146.861 79.5195C146.846 79.5945 146.88 79.6695 146.929 79.7299L150.458 84.1648C150.57 84.3064 150.53 84.5105 150.369 84.596C149.562 85.0188 147.52 86.3166 148.367 88.2871C149.412 90.7202 153.856 87.2748 151.271 83.8419H151.269Z" fill="#EEEEEF"/>
<path d="M154.92 92.2116L154.912 88.2454C154.912 88.1371 154.983 88.0413 155.089 88.0183C155.448 87.9392 156.284 87.8475 157.039 88.4745C158.031 89.2994 158.428 88.4245 158.428 88.4245L158.456 88.1288C158.456 88.1288 157.56 88.5308 157.034 87.6476C156.536 86.8081 154.633 86.881 154.16 87.3184C154.113 87.3601 154.098 87.4247 154.1 87.4872L154.234 92.0387C154.238 92.1845 154.113 92.297 153.967 92.2761C153.237 92.1678 151.279 92.0449 150.869 93.7259C150.364 95.8007 154.926 95.6674 154.92 92.2136V92.2116Z" fill="#EEEEEF"/>
</svg>
