<svg width="202" height="202" viewBox="0 0 202 202" fill="none" xmlns="http://www.w3.org/2000/svg">
<mask id="mask0_592_16504" style="mask-type:luminance" maskUnits="userSpaceOnUse" x="0" y="1" width="201" height="201">
<path d="M100.936 201.092C156.19 201.092 200.982 156.3 200.982 101.046C200.982 45.792 156.19 1 100.936 1C45.6827 1 0.890625 45.792 0.890625 101.046C0.890625 156.3 45.6827 201.092 100.936 201.092Z" fill="white"/>
</mask>
<g mask="url(#mask0_592_16504)">
<path d="M101.205 193.306C101.205 174.214 85.7321 158.738 66.6454 158.738C47.5587 158.738 32.0859 174.214 32.0859 193.306V281.171C32.0859 300.263 47.5587 315.74 66.6454 315.74C85.7321 315.74 101.205 300.263 101.205 281.171V193.306Z" fill="#46BCB3" stroke="#231815" stroke-miterlimit="10"/>
<path d="M101.223 35.4966H101.205C63.0316 35.4966 32.0859 66.4422 32.0859 104.616V212.07C32.0859 250.244 63.0316 281.189 101.205 281.189H101.223C139.396 281.189 170.342 250.244 170.342 212.07V104.616C170.342 66.4422 139.396 35.4966 101.223 35.4966Z" fill="#6ECEC9" stroke="#231815" stroke-miterlimit="10"/>
<path d="M170.055 200.285C170.055 181.193 154.582 165.716 135.495 165.716C116.408 165.716 100.936 181.193 100.936 200.285V281.171C100.936 300.263 116.408 315.74 135.495 315.74C154.582 315.74 170.055 300.263 170.055 281.171V200.285Z" fill="#6ECEC9" stroke="#231815" stroke-miterlimit="10"/>
<path d="M87.7503 105.889C87.7503 95.4964 79.3252 87.0713 68.9323 87.0713C58.5394 87.0713 50.1143 95.4964 50.1143 105.889V126.681C50.1143 137.074 58.5394 145.499 68.9323 145.499C79.3252 145.499 87.7503 137.074 87.7503 126.681V105.889Z" fill="#EEEEEF" stroke="#231815" stroke-miterlimit="10"/>
<path d="M125.387 105.889C125.387 95.4964 116.962 87.0713 106.569 87.0713C96.1761 87.0713 87.751 95.4964 87.751 105.889V126.681C87.751 137.074 96.1761 145.499 106.569 145.499C116.962 145.499 125.387 137.074 125.387 126.681V105.889Z" fill="#EEEEEF" stroke="#231815" stroke-miterlimit="10"/>
<path d="M97.7251 101.046H97.7071C92.2085 101.046 87.751 105.503 87.751 111.002V121.568C87.751 127.067 92.2085 131.524 97.7071 131.524H97.7251C103.224 131.524 107.681 127.067 107.681 121.568V111.002C107.681 105.503 103.224 101.046 97.7251 101.046Z" fill="#46BCB3" stroke="#231815" stroke-miterlimit="10"/>
<path d="M60.0883 101.046H60.0704C54.5718 101.046 50.1143 105.503 50.1143 111.002V121.568C50.1143 127.067 54.5718 131.524 60.0704 131.524H60.0883C65.587 131.524 70.0445 127.067 70.0445 121.568V111.002C70.0445 105.503 65.587 101.046 60.0883 101.046Z" fill="#46BCB3" stroke="#231815" stroke-miterlimit="10"/>
<path d="M54.3838 72.4514C53.7918 72.4514 53.1998 72.2541 52.7155 71.8594C51.5494 70.9266 51.37 69.2403 52.2849 68.0743C66.8514 49.8303 86.0461 44.036 86.8534 43.8028C88.2885 43.3902 89.7774 44.1974 90.19 45.6326C90.6026 47.0497 89.7954 48.5566 88.3782 48.9692C88.1988 49.023 69.9728 54.5662 56.5006 71.4289C55.9624 72.0926 55.191 72.4334 54.4017 72.4334L54.3838 72.4514Z" fill="#EEEEEF" stroke="#231815" stroke-miterlimit="10"/>
<path d="M88.1085 142.162C88.1085 142.162 95.0509 174.811 79.6413 173.214C64.734 171.672 70.0798 148.745 88.1085 142.162Z" fill="#EEEEEF" stroke="#231815" stroke-miterlimit="10"/>
</g>
<path d="M100.936 201.092C156.19 201.092 200.982 156.3 200.982 101.046C200.982 45.792 156.19 1 100.936 1C45.6827 1 0.890625 45.792 0.890625 101.046C0.890625 156.3 45.6827 201.092 100.936 201.092Z" stroke="#231815" stroke-miterlimit="10"/>
</svg>
