<svg xmlns="http://www.w3.org/2000/svg" width="25" height="24" viewBox="0 0 25 24" fill="none">
    <path d="M19.2746 15.78C19.3443 15.7104 19.3996 15.6278 19.4373 15.5369C19.475 15.4459 19.4944 15.3485 19.4944 15.25C19.4944 15.1516 19.475 15.0541 19.4373 14.9631C19.3996 14.8722 19.3443 14.7896 19.2746 14.72L13.0246 8.47C12.9551 8.40034 12.8725 8.34507 12.7815 8.30736C12.6906 8.26966 12.5931 8.25025 12.4946 8.25025C12.3962 8.25025 12.2987 8.26966 12.2078 8.30736C12.1168 8.34507 12.0342 8.40034 11.9646 8.47L5.71463 14.72C5.64503 14.7896 5.58982 14.8722 5.55215 14.9632C5.51449 15.0541 5.4951 15.1516 5.4951 15.25C5.4951 15.3484 5.51449 15.4459 5.55215 15.5368C5.58982 15.6278 5.64503 15.7104 5.71463 15.78C5.78423 15.8496 5.86686 15.9048 5.9578 15.9425C6.04873 15.9801 6.1462 15.9995 6.24463 15.9995C6.34306 15.9995 6.44053 15.9801 6.53147 15.9425C6.6224 15.9048 6.70503 15.8496 6.77463 15.78L12.4946 10.061L18.2146 15.78C18.2842 15.8497 18.3668 15.9049 18.4578 15.9426C18.5487 15.9803 18.6462 15.9998 18.7446 15.9998C18.8431 15.9998 18.9406 15.9803 19.0315 15.9426C19.1224 15.9049 19.2051 15.8497 19.2746 15.78Z" fill="#8C9499"/>
</svg>