<svg width="11" height="11" viewBox="0 0 11 11" fill="none" xmlns="http://www.w3.org/2000/svg">
<path id="Vector" d="M0.5 5.5C0.5 2.73864 2.73864 0.5 5.5 0.5C8.26136 0.5 10.5 2.73864 10.5 5.5C10.5 8.26136 8.26136 10.5 5.5 10.5C2.73864 10.5 0.5 8.26136 0.5 5.5ZM7.9 4.26364C7.96019 4.19897 7.99296 4.11349 7.99143 4.02517C7.98991 3.93684 7.9542 3.85255 7.89182 3.79C7.82927 3.72762 7.74498 3.69191 7.65665 3.69038C7.56832 3.68886 7.48285 3.72163 7.41818 3.78182L4.70455 6.49545L3.58182 5.37273C3.51715 5.31254 3.43168 5.27977 3.34335 5.28129C3.25502 5.28282 3.17073 5.31853 3.10818 5.38091C3.0458 5.44346 3.01009 5.52775 3.00857 5.61608C3.00704 5.7044 3.03981 5.78988 3.1 5.85455L4.46364 7.21818C4.52756 7.28202 4.6142 7.31788 4.70455 7.31788C4.79489 7.31788 4.88153 7.28202 4.94545 7.21818L7.9 4.26364Z" fill="#229EEB"/>
</svg>
