<svg width="11" height="10" viewBox="0 0 11 10" fill="none" xmlns="http://www.w3.org/2000/svg">
<path id="Vector" d="M0.5 5C0.5 2.23864 2.73864 0 5.5 0C8.26136 0 10.5 2.23864 10.5 5C10.5 7.76136 8.26136 10 5.5 10C2.73864 10 0.5 7.76136 0.5 5ZM7.9 3.76364C7.96019 3.69897 7.99296 3.61349 7.99143 3.52517C7.98991 3.43684 7.9542 3.35255 7.89182 3.29C7.82927 3.22762 7.74498 3.19191 7.65665 3.19038C7.56832 3.18886 7.48285 3.22163 7.41818 3.28182L4.70455 5.99545L3.58182 4.87273C3.51715 4.81254 3.43168 4.77977 3.34335 4.78129C3.25502 4.78282 3.17073 4.81853 3.10818 4.88091C3.0458 4.94346 3.01009 5.02775 3.00857 5.11608C3.00704 5.2044 3.03981 5.28988 3.1 5.35455L4.46364 6.71818C4.52756 6.78202 4.6142 6.81788 4.70455 6.81788C4.79489 6.81788 4.88153 6.78202 4.94545 6.71818L7.9 3.76364Z" fill="#FF3838"/>
</svg>
