<svg width="21" height="20" viewBox="0 0 21 20" fill="none" xmlns="http://www.w3.org/2000/svg">
<g id="Frame">
<path id="Vector" d="M1.32796 9.99992C1.32796 4.93742 5.43212 0.833252 10.4946 0.833252C15.5571 0.833252 19.6613 4.93742 19.6613 9.99992C19.6613 15.0624 15.5571 19.1666 10.4946 19.1666C5.43212 19.1666 1.32796 15.0624 1.32796 9.99992ZM14.8946 7.73325C15.005 7.6147 15.0651 7.45799 15.0623 7.29606C15.0595 7.13413 14.994 6.97959 14.8796 6.86492C14.765 6.75055 14.6104 6.68509 14.4485 6.68229C14.2866 6.67949 14.1298 6.73958 14.0113 6.84992L9.03629 11.8249L6.97796 9.76659C6.85941 9.65625 6.7027 9.59616 6.54077 9.59896C6.37883 9.60175 6.22429 9.66722 6.10962 9.78159C5.99525 9.89626 5.92979 10.0508 5.92699 10.2127C5.9242 10.3747 5.98428 10.5314 6.09462 10.6499L8.59462 13.1499C8.71181 13.267 8.87067 13.3327 9.03629 13.3327C9.20192 13.3327 9.36077 13.267 9.47796 13.1499L14.8946 7.73325Z" fill="#A3A3A3"/>
</g>
</svg>
